<svg width="236" height="236" viewBox="0 0 236 236" fill="none" xmlns="http://www.w3.org/2000/svg">
<path d="M185.631 117.426C185.631 160.215 150.943 194.903 108.153 194.903C65.3639 194.903 30.6758 160.215 30.6758 117.426C30.6758 74.6363 65.3639 39.9482 108.153 39.9482C150.943 39.9482 185.631 74.6363 185.631 117.426Z" fill="#FFF4EC"/>
<path d="M144.231 153.058H57.4778C54.9695 153.058 52.9365 151.025 52.9365 148.516V80.4368C52.9365 77.9285 54.9695 75.8955 57.4778 75.8955H144.231C146.739 75.8955 148.772 77.9285 148.772 80.4368V148.516C148.772 151.025 146.739 153.058 144.231 153.058Z" fill="#C8C5D6"/>
<path d="M144.068 75.8955H57.6405C55.0422 75.8955 52.9365 78.0011 52.9365 80.5987V87.2214H148.772V80.5987C148.772 78.0011 146.667 75.8955 144.068 75.8955Z" fill="#48367D"/>
<path d="M64.7042 81.6016C64.7042 82.9004 63.6522 83.9532 62.3534 83.9532C61.0546 83.9532 60.001 82.9004 60.001 81.6016C60.001 80.3028 61.0546 79.25 62.3534 79.25C63.6522 79.25 64.7042 80.3028 64.7042 81.6016Z" fill="white"/>
<path d="M72.423 81.5577C72.423 82.8565 71.3702 83.9093 70.0721 83.9093C68.7725 83.9093 67.7197 82.8565 67.7197 81.5577C67.7197 80.2589 68.7725 79.2061 70.0721 79.2061C71.3702 79.2061 72.423 80.2589 72.423 81.5577Z" fill="white"/>
<path d="M80.2638 81.5577C80.2638 82.8565 79.211 83.9093 77.9129 83.9093C76.6141 83.9093 75.5605 82.8565 75.5605 81.5577C75.5605 80.2589 76.6141 79.2061 77.9129 79.2061C79.211 79.2061 80.2638 80.2589 80.2638 81.5577Z" fill="white"/>
<path d="M110.302 130.262H93.5186C89.262 130.262 85.7793 126.78 85.7793 122.523V105.739C85.7793 101.483 89.262 98 93.5186 98H110.302C114.559 98 118.042 101.483 118.042 105.739V122.523C118.042 126.78 114.559 130.262 110.302 130.262Z" fill="white"/>
<path fill-rule="evenodd" clip-rule="evenodd" d="M112.568 105.647C111.701 104.977 110.455 105.138 109.786 106.005L100.83 117.607L94.6454 111.267C93.8802 110.483 92.624 110.468 91.8397 111.233C91.0554 111.998 91.0399 113.254 91.8051 114.038L99.4738 121.899C99.8823 122.317 100.431 122.517 100.972 122.496C101.605 122.533 102.245 122.267 102.662 121.727L112.927 108.43C113.596 107.562 113.436 106.317 112.568 105.647Z" fill="#FF5B24"/>
<path fill-rule="evenodd" clip-rule="evenodd" d="M125.197 123.325C124.647 123.325 124.2 123.772 124.2 124.322V172.98C124.2 173.53 124.647 173.977 125.197 173.977H176.918C176.934 173.977 176.949 173.976 176.965 173.976H203.224C204.411 173.976 205.374 173.013 205.374 171.825V160.506C205.374 160.148 205.284 159.795 205.113 159.48L195.409 141.623C195.033 140.931 194.308 140.5 193.52 140.5H177.915V124.322C177.915 123.772 177.469 123.325 176.918 123.325H125.197Z" fill="#FF985F"/>
<path d="M183.585 157.698V145.899C183.585 145.464 183.937 145.112 184.371 145.112H190.551C190.849 145.112 191.121 145.28 191.254 145.546L197.172 157.345C197.434 157.868 197.054 158.484 196.469 158.484H184.371C183.937 158.484 183.585 158.132 183.585 157.698Z" fill="#FFF4EC"/>
<circle cx="142.23" cy="173.955" r="8.84023" fill="#FF985F"/>
<ellipse cx="187.521" cy="173.955" rx="8.84023" ry="8.84023" fill="#FF985F"/>
</svg>
