<svg width="1027" height="603" viewBox="0 0 1027 603" fill="none" xmlns="http://www.w3.org/2000/svg">
<rect width="1027" height="603" rx="1" fill="#FFF4EC"/>
<mask id="mask0" mask-type="alpha" maskUnits="userSpaceOnUse" x="75" y="48" width="877" height="507">
<rect x="75" y="48" width="877" height="507" rx="20" fill="white"/>
</mask>
<g mask="url(#mask0)">
<g filter="url(#filter0_dd)">
<rect x="75" y="48" width="877" height="507" rx="20" fill="white"/>
</g>
<rect x="75" y="48" width="877" height="43" fill="#551488"/>
<rect x="617" y="291" width="217" height="44" rx="22" fill="#551488"/>
<path d="M716.962 311.404C716.494 308.506 713.92 306.958 711.382 306.958C707.944 306.958 705.118 309.388 705.118 313.006C705.118 316.894 707.98 319.234 711.418 319.234C713.776 319.234 716.71 317.704 717.052 314.464L714.424 314.086C714.262 316.282 712.822 316.912 711.418 316.912C709.42 316.912 707.836 315.778 707.836 313.006C707.836 310.504 709.42 309.28 711.292 309.28C712.588 309.28 714.046 309.784 714.334 311.782L716.962 311.404ZM721.97 319.234C723.536 319.234 724.544 318.334 725.012 317.272V319H727.424V309.928H725.012V311.62C724.364 310.252 723.374 309.676 722.06 309.676C720.116 309.676 718.046 311.206 718.046 314.374C718.046 317.686 720.134 319.234 721.97 319.234ZM722.78 311.728C723.95 311.728 725.012 312.628 725.012 314.482C725.012 316.372 723.95 317.164 722.762 317.164C721.682 317.164 720.53 316.336 720.53 314.482C720.53 312.592 721.7 311.728 722.78 311.728ZM734.355 312.214C734.823 312.214 735.201 312.286 735.543 312.394L735.723 309.784C735.525 309.712 735.255 309.676 735.021 309.676C734.157 309.676 732.717 310.126 731.979 312.088V309.928H729.567V319H731.979V315.13C731.979 312.862 733.131 312.214 734.355 312.214ZM745.393 306.796H742.981V311.62C742.333 310.252 741.343 309.676 740.173 309.676C738.085 309.676 736.015 311.206 736.015 314.374C736.015 317.686 738.103 319.234 739.921 319.234C741.505 319.234 742.513 318.406 742.981 317.362V319H745.393V306.796ZM740.749 311.728C741.919 311.728 742.981 312.664 742.981 314.482C742.981 316.336 741.919 317.164 740.731 317.164C739.633 317.164 738.499 316.3 738.499 314.482C738.499 312.61 739.651 311.728 740.749 311.728Z" fill="white"/>
<rect x="617" y="359" width="217" height="44" rx="22" fill="#551488"/>
<path d="M716.259 379.404C715.791 376.506 713.217 374.958 710.679 374.958C707.241 374.958 704.415 377.388 704.415 381.006C704.415 384.894 707.277 387.234 710.715 387.234C713.073 387.234 716.007 385.704 716.349 382.464L713.721 382.086C713.559 384.282 712.119 384.912 710.715 384.912C708.717 384.912 707.133 383.778 707.133 381.006C707.133 378.504 708.717 377.28 710.589 377.28C711.885 377.28 713.343 377.784 713.631 379.782L716.259 379.404ZM721.267 387.234C722.833 387.234 723.841 386.334 724.309 385.272V387H726.721V377.928H724.309V379.62C723.661 378.252 722.671 377.676 721.357 377.676C719.413 377.676 717.343 379.206 717.343 382.374C717.343 385.686 719.431 387.234 721.267 387.234ZM722.077 379.728C723.247 379.728 724.309 380.628 724.309 382.482C724.309 384.372 723.247 385.164 722.059 385.164C720.979 385.164 719.827 384.336 719.827 382.482C719.827 380.592 720.997 379.728 722.077 379.728ZM728.594 380.556C728.594 381.852 729.296 382.824 730.862 383.148L732.608 383.49C733.562 383.688 733.814 383.976 733.814 384.426C733.814 385.074 733.238 385.416 732.302 385.416C731.186 385.416 730.448 384.876 730.34 383.94L728.18 384.318C728.468 386.388 730.502 387.234 732.41 387.234C734.354 387.234 736.154 386.118 736.154 384.228C736.154 382.896 735.416 382.014 733.85 381.708L731.942 381.33C731.186 381.168 730.934 380.79 730.934 380.412C730.934 379.836 731.438 379.512 732.194 379.512C733.148 379.512 733.796 379.872 733.832 380.826L736.01 380.448C735.452 378.54 734.066 377.676 732.14 377.676C730.538 377.676 728.594 378.486 728.594 380.556ZM737.646 374.796V387H740.058V381.87C740.058 380.448 740.904 379.818 742.092 379.818C743.046 379.818 743.802 380.358 743.802 381.816V387H746.232V380.916C746.232 378.486 744.738 377.676 743.064 377.676C742.038 377.676 740.688 378.072 740.058 379.278V374.796H737.646Z" fill="white"/>
<path d="M617 245C617 232.85 626.85 223 639 223H812C824.15 223 834 232.85 834 245C834 257.15 824.15 267 812 267H639C626.85 267 617 257.15 617 245Z" fill="#FF5B24"/>
<path d="M658.871 241.138H660.671C661.787 241.138 662.507 241.786 662.507 243.136C662.507 244.396 661.787 245.062 660.635 245.062H658.871V241.138ZM656.351 238.942V250.75H658.871V247.24H660.851C663.533 247.24 665.225 245.44 665.225 243.1C665.225 240.382 663.623 238.942 660.833 238.942H656.351ZM669.743 250.984C671.309 250.984 672.317 250.084 672.785 249.022V250.75H675.197V241.678H672.785V243.37C672.137 242.002 671.147 241.426 669.833 241.426C667.889 241.426 665.819 242.956 665.819 246.124C665.819 249.436 667.907 250.984 669.743 250.984ZM670.553 243.478C671.723 243.478 672.785 244.378 672.785 246.232C672.785 248.122 671.723 248.914 670.535 248.914C669.455 248.914 668.303 248.086 668.303 246.232C668.303 244.342 669.473 243.478 670.553 243.478ZM678.096 253.954C679.896 253.954 681.21 253.036 682.092 250.804L685.656 241.678H682.974L680.94 248.23L678.852 241.678H676.152L679.41 249.85C679.86 250.984 679.464 251.902 678.294 251.902C677.574 251.92 676.998 251.668 676.674 251.488L676.314 253.63C676.764 253.81 677.322 253.954 678.096 253.954ZM704.659 241.678H701.977L700.267 247.906L698.215 241.678H696.433L694.471 247.888L692.743 241.678H690.043L693.319 250.75H695.443L697.333 245.494L699.277 250.75H701.383L704.659 241.678ZM705.586 241.678V250.75H708.016V241.678H705.586ZM706.81 237.646C706 237.646 705.406 238.222 705.406 238.996C705.406 239.77 706 240.346 706.81 240.346C707.602 240.346 708.214 239.77 708.214 238.996C708.214 238.222 707.602 237.646 706.81 237.646ZM710.69 239.5V241.678H709.088V243.568H710.69V248.176C710.69 249.904 711.572 250.984 713.552 250.984C714.236 250.984 714.92 250.822 715.46 250.66L715.136 248.734C714.776 248.824 714.542 248.878 714.146 248.878C713.408 248.878 713.156 248.572 713.156 247.942V243.568H715.298V241.678H713.156V239.176L710.69 239.5ZM716.84 238.546V250.75H719.252V245.62C719.252 244.198 720.098 243.568 721.286 243.568C722.24 243.568 722.996 244.108 722.996 245.566V250.75H725.426V244.666C725.426 242.236 723.932 241.426 722.258 241.426C721.232 241.426 719.882 241.822 719.252 243.028V238.546H716.84Z" fill="white"/>
<path fill-rule="evenodd" clip-rule="evenodd" d="M796.25 243.088C795.53 240.341 793.781 239.25 791.395 239.25C789.461 239.25 787.034 240.341 787.034 242.967C787.034 244.664 788.207 245.998 790.119 246.341L791.93 246.664C793.164 246.886 793.514 247.351 793.514 247.977C793.514 248.684 792.753 249.088 791.621 249.088C790.14 249.088 789.215 248.563 789.07 247.088L786.458 247.492C786.869 250.341 789.42 251.513 791.724 251.513C793.905 251.513 796.229 250.26 796.229 247.735C796.229 246.018 795.18 244.765 793.226 244.401L791.23 244.038C790.119 243.836 789.749 243.29 789.749 242.765C789.749 242.098 790.469 241.674 791.457 241.674C792.712 241.674 793.596 242.098 793.637 243.492L796.25 243.088ZM738.175 247.411L740.89 239.553H744.078L739.347 251.209H736.981L732.25 239.553H735.438L738.175 247.411ZM754.858 242.886C754.858 243.816 754.118 244.462 753.254 244.462C752.39 244.462 751.649 243.816 751.649 242.886C751.649 241.957 752.39 241.311 753.254 241.311C754.118 241.311 754.859 241.957 754.859 242.886H754.858ZM755.352 247.008C754.282 248.381 753.151 249.331 751.155 249.331C749.119 249.331 747.535 248.119 746.301 246.341C745.807 245.614 745.046 245.452 744.49 245.836C743.976 246.2 743.853 246.967 744.326 247.634C746.033 250.2 748.399 251.694 751.155 251.694C753.686 251.694 755.661 250.482 757.203 248.462C757.779 247.715 757.759 246.947 757.203 246.523C756.689 246.118 755.928 246.26 755.352 247.008ZM762.45 245.351C762.45 247.735 763.849 248.988 765.412 248.988C766.893 248.988 768.416 247.816 768.416 245.351C768.416 242.926 766.893 241.755 765.433 241.755C763.849 241.755 762.45 242.866 762.45 245.351ZM762.45 241.169V239.573H759.55V255.25H762.45V249.674C763.417 250.967 764.672 251.513 766.091 251.513C768.745 251.513 771.337 249.452 771.337 245.21C771.337 241.149 768.642 239.25 766.338 239.25C764.507 239.25 763.252 240.078 762.45 241.169ZM776.378 245.351C776.378 247.735 777.776 248.988 779.34 248.988C780.821 248.988 782.343 247.816 782.343 245.351C782.343 242.926 780.821 241.755 779.36 241.755C777.776 241.755 776.377 242.866 776.377 245.351H776.378ZM776.378 241.169V239.573H776.377H773.477V255.25H776.377V249.674C777.344 250.967 778.599 251.513 780.018 251.513C782.672 251.513 785.264 249.452 785.264 245.21C785.264 241.149 782.569 239.25 780.265 239.25C778.434 239.25 777.18 240.078 776.378 241.169Z" fill="white"/>
<path d="M130.504 465.048H135.964V480H139.884V465.048H145.344V461.632H130.504V465.048ZM151.793 465.496C147.733 465.496 144.513 468.296 144.513 472.916C144.513 477.536 147.733 480.364 151.793 480.364C155.881 480.364 159.129 477.536 159.129 472.916C159.129 468.296 155.881 465.496 151.793 465.496ZM151.793 468.688C153.669 468.688 155.237 470.06 155.237 472.916C155.237 475.8 153.669 477.172 151.793 477.172C149.973 477.172 148.377 475.8 148.377 472.916C148.377 470.06 149.973 468.688 151.793 468.688ZM162.711 462.5V465.888H160.219V468.828H162.711V475.996C162.711 478.684 164.083 480.364 167.163 480.364C168.227 480.364 169.291 480.112 170.131 479.86L169.627 476.864C169.067 477.004 168.703 477.088 168.087 477.088C166.939 477.088 166.547 476.612 166.547 475.632V468.828H169.879V465.888H166.547V461.996L162.711 462.5ZM177.77 480.364C180.206 480.364 181.774 478.964 182.502 477.312V480H186.254V465.888H182.502V468.52C181.494 466.392 179.954 465.496 177.91 465.496C174.886 465.496 171.666 467.876 171.666 472.804C171.666 477.956 174.914 480.364 177.77 480.364ZM179.03 468.688C180.85 468.688 182.502 470.088 182.502 472.972C182.502 475.912 180.85 477.144 179.002 477.144C177.322 477.144 175.53 475.856 175.53 472.972C175.53 470.032 177.35 468.688 179.03 468.688ZM189.898 461.016V480H193.65V461.016H189.898Z" fill="#161225"/>
<path d="M376.436 480H380.188V476.612L382.428 474.148L386.264 480H390.436L384.696 471.656L389.932 465.888H385.76L380.188 472.496V461.016H376.436V480ZM399.251 469.444C399.979 469.444 400.567 469.556 401.099 469.724L401.379 465.664C401.071 465.552 400.651 465.496 400.287 465.496C398.943 465.496 396.703 466.196 395.555 469.248V465.888H391.803V480H395.555V473.98C395.555 470.452 397.347 469.444 399.251 469.444ZM422.509 480V475.912H425.001V472.496H422.509V461.632H416.881L410.133 472.748V475.912H418.701V480H422.509ZM413.885 472.496L418.701 464.74V472.496H413.885ZM430.927 474.624L427.147 475.268C427.931 479.356 431.067 480.364 433.531 480.364C438.347 480.364 441.147 476.416 441.147 470.312C441.147 464.684 438.711 461.268 434.035 461.268C429.751 461.268 427.259 464.068 427.259 467.54C427.259 471.264 429.891 473.28 433.027 473.28C434.819 473.28 436.303 472.608 437.283 471.46C437.031 475.688 435.631 476.92 433.727 476.92C432.243 476.92 431.067 476.276 430.927 474.624ZM434.035 464.74C436.107 464.74 437.059 466.028 437.059 467.484C437.059 469.332 435.603 470.144 434.007 470.144C432.159 470.144 431.151 469.08 431.151 467.484C431.151 466.028 432.159 464.74 434.035 464.74ZM450.715 472.076C452.367 472.076 453.711 472.944 453.711 474.596C453.711 476.276 452.395 477.004 450.715 477.004C449.035 477.004 447.719 476.276 447.719 474.596C447.719 472.944 449.035 472.076 450.715 472.076ZM450.715 464.628C452.087 464.628 453.179 465.356 453.179 466.784C453.179 468.24 452.087 468.968 450.715 468.968C449.315 468.968 448.251 468.24 448.251 466.784C448.251 465.356 449.315 464.628 450.715 464.628ZM450.715 461.268C447.299 461.268 444.443 463.004 444.443 466.42C444.443 468.212 445.535 469.612 447.159 470.396C445.115 471.096 443.743 472.524 443.743 474.82C443.743 478.432 446.851 480.364 450.715 480.364C454.551 480.364 457.659 478.432 457.659 474.82C457.659 472.524 456.287 471.096 454.271 470.396C455.895 469.612 456.959 468.212 456.959 466.42C456.959 463.004 454.159 461.268 450.715 461.268ZM462.529 475.8C461.297 475.8 460.345 476.752 460.345 477.984C460.345 479.216 461.297 480.168 462.529 480.168C463.733 480.168 464.713 479.216 464.713 477.984C464.713 476.752 463.733 475.8 462.529 475.8ZM474.928 461.268C470.812 461.268 467.452 464.124 467.452 470.816C467.452 477.536 470.812 480.364 474.928 480.364C479.072 480.364 482.404 477.536 482.404 470.816C482.404 464.124 479.072 461.268 474.928 461.268ZM474.928 464.964C476.776 464.964 478.316 466.504 478.316 470.816C478.316 475.156 476.776 476.668 474.928 476.668C473.052 476.668 471.54 475.156 471.54 470.816C471.54 466.504 473.052 464.964 474.928 464.964ZM492.565 461.268C488.449 461.268 485.089 464.124 485.089 470.816C485.089 477.536 488.449 480.364 492.565 480.364C496.709 480.364 500.041 477.536 500.041 470.816C500.041 464.124 496.709 461.268 492.565 461.268ZM492.565 464.964C494.413 464.964 495.953 466.504 495.953 470.816C495.953 475.156 494.413 476.668 492.565 476.668C490.689 476.668 489.177 475.156 489.177 470.816C489.177 466.504 490.689 464.964 492.565 464.964Z" fill="#161225"/>
<path d="M139 148.944C134.8 148.944 130.96 152.232 130.96 157.128C130.96 162.048 134.8 165.312 139 165.312C143.2 165.312 147.04 162.048 147.04 157.128C147.04 152.232 143.2 148.944 139 148.944ZM139 151.632C141.808 151.632 144.088 153.432 144.088 157.128C144.088 160.872 141.784 162.624 139 162.624C136.24 162.624 133.912 160.872 133.912 157.128C133.912 153.432 136.216 151.632 139 151.632ZM155.488 155.4C156.136 155.4 156.592 155.496 157.048 155.664L157.312 152.736C157.048 152.616 156.688 152.568 156.376 152.568C155.176 152.568 153.28 153.264 152.296 155.832V152.904H149.68V165H152.296V159.696C152.296 156.336 153.784 155.4 155.488 155.4ZM163.38 165.312C165.54 165.312 166.884 163.992 167.484 162.528V165H170.1V152.904H167.484V155.256C166.62 153.36 165.3 152.568 163.404 152.568C160.86 152.568 158.076 154.608 158.076 158.832C158.076 163.248 160.884 165.312 163.38 165.312ZM164.124 154.824C165.9 154.824 167.484 156.168 167.484 158.976C167.484 161.856 165.9 163.032 164.1 163.032C162.444 163.032 160.716 161.784 160.716 158.976C160.716 156.12 162.468 154.824 164.124 154.824ZM179.085 154.944C180.501 154.944 181.629 155.784 181.629 158.016V165H184.269V156.888C184.269 153.648 182.205 152.568 180.045 152.568C178.605 152.568 176.925 153.168 176.085 154.728V152.904H173.469V165H176.085V158.088C176.085 155.928 177.333 154.944 179.085 154.944ZM191.9 164.304C194.012 164.304 195.14 162.912 195.788 161.592V163.392C195.788 165.96 194.732 167.016 192.38 167.016C190.916 167.016 189.524 166.584 189.284 164.856L186.74 165.264C187.34 168.336 190.1 169.368 192.284 169.368C196.148 169.368 198.428 167.352 198.428 163.296V152.88H195.788V155.232C194.852 153.384 193.724 152.568 192.116 152.568C189.38 152.568 186.812 154.416 186.812 158.256C186.812 162.384 189.428 164.304 191.9 164.304ZM192.572 154.824C194.348 154.824 195.788 156.12 195.788 158.424C195.788 160.872 194.348 162.024 192.572 162.024C190.868 162.024 189.452 160.872 189.452 158.4C189.452 156.024 190.94 154.824 192.572 154.824ZM207.086 154.824C208.766 154.824 210.086 155.616 210.326 157.56H203.774C204.158 155.736 205.358 154.824 207.086 154.824ZM212.822 159.528V158.664C212.822 155.088 210.47 152.568 207.182 152.568C203.678 152.568 201.014 155.016 201.014 158.904C201.014 162.888 203.798 165.312 207.35 165.312C209.582 165.312 212.27 164.04 212.726 161.232L210.302 160.824C210.014 162.216 209.222 163.056 207.254 163.056C205.07 163.056 203.87 161.664 203.678 159.528H212.822ZM222.013 149.256V165H224.773V158.256H232.597V165H235.357V149.256H232.597V155.808H224.773V149.256H222.013ZM244.115 152.568C240.851 152.568 238.139 154.968 238.139 158.928C238.139 162.888 240.851 165.312 244.115 165.312C247.403 165.312 250.115 162.888 250.115 158.928C250.115 154.968 247.403 152.568 244.115 152.568ZM244.115 154.824C245.939 154.824 247.475 156.168 247.475 158.928C247.475 161.712 245.939 163.056 244.115 163.056C242.315 163.056 240.779 161.712 240.779 158.928C240.779 156.168 242.315 154.824 244.115 154.824ZM257.919 152.568C254.655 152.568 251.943 154.968 251.943 158.928C251.943 162.888 254.655 165.312 257.919 165.312C261.207 165.312 263.919 162.888 263.919 158.928C263.919 154.968 261.207 152.568 257.919 152.568ZM257.919 154.824C259.743 154.824 261.279 156.168 261.279 158.928C261.279 161.712 259.743 163.056 257.919 163.056C256.119 163.056 254.583 161.712 254.583 158.928C254.583 156.168 256.119 154.824 257.919 154.824ZM277.772 148.728H275.156V155.256C274.316 153.36 272.972 152.568 271.364 152.568C268.532 152.568 265.748 154.608 265.748 158.832C265.748 163.248 268.556 165.312 271.028 165.312C273.212 165.312 274.556 164.16 275.156 162.696V165H277.772V148.728ZM271.796 154.824C273.572 154.824 275.156 156.24 275.156 158.976C275.156 161.784 273.572 163.032 271.772 163.032C270.116 163.032 268.388 161.712 268.388 158.976C268.388 156.168 270.14 154.824 271.796 154.824ZM281.141 152.904V165H283.781V152.904H281.141ZM282.461 147.672C281.573 147.672 280.877 148.392 280.877 149.256C280.877 150.12 281.573 150.816 282.461 150.816C283.325 150.816 284.021 150.12 284.021 149.256C284.021 148.392 283.325 147.672 282.461 147.672ZM292.445 154.824C294.125 154.824 295.445 155.616 295.685 157.56H289.133C289.517 155.736 290.717 154.824 292.445 154.824ZM298.181 159.528V158.664C298.181 155.088 295.829 152.568 292.541 152.568C289.037 152.568 286.373 155.016 286.373 158.904C286.373 162.888 289.157 165.312 292.709 165.312C294.941 165.312 297.629 164.04 298.085 161.232L295.661 160.824C295.373 162.216 294.581 163.056 292.613 163.056C290.429 163.056 289.229 161.664 289.037 159.528H298.181Z" fill="#161225"/>
<path d="M130.992 181.272C130.992 183.048 132.064 183.768 133.376 184.136L135.328 184.712C136.24 184.968 136.848 185.4 136.848 186.296C136.848 187.24 136.176 187.896 134.672 187.896C133.536 187.896 132.064 187.448 131.872 185.432L130.464 185.784C130.768 188.008 132.704 189.208 134.656 189.208C136.544 189.208 138.272 188.12 138.272 186.184C138.272 184.504 137.232 183.816 135.952 183.448L133.856 182.84C132.976 182.568 132.432 182.104 132.432 181.16C132.432 180.216 133.168 179.608 134.32 179.608C135.392 179.608 136.512 180.04 136.72 181.704L138.096 181.368C137.744 179.224 135.984 178.296 134.432 178.296C132.688 178.296 130.992 179.336 130.992 181.272ZM140.076 180.936V189H141.42V180.936H140.076ZM140.748 177.56C140.236 177.56 139.852 177.944 139.852 178.456C139.852 178.968 140.236 179.336 140.748 179.336C141.244 179.336 141.628 178.968 141.628 178.456C141.628 177.944 141.244 177.56 140.748 177.56ZM149.648 180.936H143.408V182.088H148.016L143.328 187.928V189H149.808V187.832H144.944L149.648 182.024V180.936ZM155.06 181.896C156.404 181.896 157.428 182.568 157.524 184.104H152.548C152.788 182.632 153.716 181.896 155.06 181.896ZM158.804 185.176V184.696C158.804 182.264 157.284 180.712 155.092 180.712C152.884 180.712 151.14 182.344 151.14 184.936C151.14 187.592 152.948 189.208 155.22 189.208C156.676 189.208 158.42 188.392 158.724 186.552L157.508 186.28C157.268 187.336 156.676 188.024 155.204 188.024C153.46 188.024 152.564 186.856 152.484 185.176H158.804ZM165.094 178.504V189H166.486V180.84L169.974 189H170.806L174.214 180.792V189H175.638V178.504H173.942L170.47 186.824L166.806 178.504H165.094Z" fill="#706B8B"/>
<path d="M413.702 175H415.882V172.58L417.682 170.56L420.662 175H423.062L419.002 169.08L422.702 164.92H420.322L415.882 170.16V161.44H413.702V175ZM429.069 167C429.609 167 429.989 167.08 430.369 167.22L430.589 164.78C430.369 164.68 430.069 164.64 429.809 164.64C428.809 164.64 427.229 165.22 426.409 167.36V164.92H424.229V175H426.409V170.58C426.409 167.78 427.649 167 429.069 167ZM436.892 166.04L438.952 166.36C438.952 164.42 440.132 163.58 441.452 163.58C443.052 163.58 443.612 164.52 443.612 165.58C443.612 166.64 443.072 167.76 441.232 169.52L437.232 173.34V175H445.912V172.94H439.972L442.972 170.3C444.932 168.56 445.872 166.8 445.872 165.26C445.872 163.02 444.212 161.62 441.692 161.62C439.572 161.62 437.112 162.66 436.892 166.04ZM450.171 171.32L448.031 171.68C448.491 174.58 450.711 175.26 452.251 175.26C455.711 175.26 457.611 172.26 457.611 168.14C457.611 164.06 455.951 161.62 452.731 161.62C449.791 161.62 448.111 163.62 448.111 166.1C448.111 168.8 449.951 170.28 452.171 170.28C453.591 170.28 454.751 169.64 455.431 168.58C455.191 172.2 454.031 173.24 452.391 173.24C451.211 173.24 450.291 172.72 450.171 171.32ZM452.711 163.74C454.451 163.74 455.251 164.84 455.251 166.06C455.251 167.62 454.031 168.32 452.671 168.32C451.171 168.32 450.351 167.42 450.351 166.06C450.351 164.82 451.171 163.74 452.711 163.74ZM461.988 171.32L459.848 171.68C460.308 174.58 462.528 175.26 464.068 175.26C467.528 175.26 469.428 172.26 469.428 168.14C469.428 164.06 467.768 161.62 464.548 161.62C461.608 161.62 459.928 163.62 459.928 166.1C459.928 168.8 461.768 170.28 463.988 170.28C465.408 170.28 466.568 169.64 467.248 168.58C467.008 172.2 465.848 173.24 464.208 173.24C463.028 173.24 462.108 172.72 461.988 171.32ZM464.528 163.74C466.268 163.74 467.068 164.84 467.068 166.06C467.068 167.62 465.848 168.32 464.488 168.32C462.988 168.32 462.168 167.42 462.168 166.06C462.168 164.82 462.988 163.74 464.528 163.74ZM473.144 172.22C472.324 172.22 471.684 172.86 471.684 173.66C471.684 174.48 472.324 175.12 473.144 175.12C473.944 175.12 474.584 174.48 474.584 173.66C474.584 172.86 473.944 172.22 473.144 172.22ZM482 161.62C479.16 161.62 476.84 163.66 476.84 168.44C476.84 173.24 479.16 175.26 482 175.26C484.86 175.26 487.16 173.24 487.16 168.44C487.16 163.66 484.86 161.62 482 161.62ZM482 163.74C483.54 163.74 484.8 164.98 484.8 168.44C484.8 171.92 483.54 173.14 482 173.14C480.46 173.14 479.2 171.92 479.2 168.44C479.2 164.98 480.46 163.74 482 163.74ZM494.558 161.62C491.718 161.62 489.398 163.66 489.398 168.44C489.398 173.24 491.718 175.26 494.558 175.26C497.418 175.26 499.718 173.24 499.718 168.44C499.718 163.66 497.418 161.62 494.558 161.62ZM494.558 163.74C496.098 163.74 497.358 164.98 497.358 168.44C497.358 171.92 496.098 173.14 494.558 173.14C493.018 173.14 491.758 171.92 491.758 168.44C491.758 164.98 493.018 163.74 494.558 163.74Z" fill="#161225"/>
<path d="M147.064 261L152.08 245.256H149.056L145.84 257.064L142.552 245.256H139.84L136.672 257.328L133.36 245.256H130.336L135.352 261H138.136L141.208 249.696L144.496 261H147.064ZM154.086 244.728V261H156.702V254.088C156.702 251.928 157.95 250.944 159.726 250.944C161.118 250.944 162.246 251.784 162.246 254.016V261H164.886V252.888C164.886 249.648 162.894 248.568 160.566 248.568C159.294 248.568 157.542 249.144 156.702 250.728V244.728H154.086ZM168.125 248.904V261H170.765V248.904H168.125ZM169.445 243.672C168.557 243.672 167.861 244.392 167.861 245.256C167.861 246.12 168.557 246.816 169.445 246.816C170.309 246.816 171.005 246.12 171.005 245.256C171.005 244.392 170.309 243.672 169.445 243.672ZM174.869 245.976V248.904H172.613V251.016H174.869V257.688C174.869 259.92 175.973 261.312 178.397 261.312C179.117 261.312 179.981 261.12 180.605 260.928L180.197 258.816C179.717 258.936 179.429 258.984 178.925 258.984C177.869 258.984 177.485 258.504 177.485 257.568V251.016H180.509V248.904H177.485V245.568L174.869 245.976ZM188.265 250.824C189.945 250.824 191.265 251.616 191.505 253.56H184.953C185.337 251.736 186.537 250.824 188.265 250.824ZM194.001 255.528V254.664C194.001 251.088 191.649 248.568 188.361 248.568C184.857 248.568 182.193 251.016 182.193 254.904C182.193 258.888 184.977 261.312 188.529 261.312C190.761 261.312 193.449 260.04 193.905 257.232L191.481 256.824C191.193 258.216 190.401 259.056 188.433 259.056C186.249 259.056 185.049 257.664 184.857 255.528H194.001ZM201.872 247.704H206.6V261H209.36V247.704H214.064V245.256H201.872V247.704ZM213.648 255.24H220.584V253.08H213.648V255.24ZM222.867 252.312C222.867 253.992 223.827 255.216 225.891 255.672L228.075 256.152C229.515 256.464 229.923 256.944 229.923 257.664C229.923 258.648 228.987 259.224 227.571 259.224C225.891 259.224 224.763 258.408 224.595 256.92L222.267 257.352C222.675 260.16 225.291 261.312 227.643 261.312C229.971 261.312 232.443 260.016 232.443 257.376C232.443 255.696 231.459 254.568 229.323 254.112L226.923 253.584C225.795 253.344 225.387 252.696 225.387 252.072C225.387 251.208 226.179 250.656 227.331 250.656C228.771 250.656 229.851 251.184 229.923 252.768L232.275 252.336C231.579 249.648 229.755 248.568 227.307 248.568C225.339 248.568 222.867 249.648 222.867 252.312ZM234.899 244.728V261H237.515V254.088C237.515 251.928 238.763 250.944 240.539 250.944C241.931 250.944 243.059 251.784 243.059 254.016V261H245.699V252.888C245.699 249.648 243.707 248.568 241.379 248.568C240.107 248.568 238.355 249.144 237.515 250.728V244.728H234.899ZM248.938 248.904V261H251.578V248.904H248.938ZM250.258 243.672C249.37 243.672 248.674 244.392 248.674 245.256C248.674 246.12 249.37 246.816 250.258 246.816C251.122 246.816 251.818 246.12 251.818 245.256C251.818 244.392 251.122 243.672 250.258 243.672ZM260.746 251.4C261.394 251.4 261.85 251.496 262.306 251.664L262.57 248.736C262.306 248.616 261.946 248.568 261.634 248.568C260.434 248.568 258.538 249.264 257.554 251.832V248.904H254.938V261H257.554V255.696C257.554 252.336 259.042 251.4 260.746 251.4ZM265.432 245.976V248.904H263.176V251.016H265.432V257.688C265.432 259.92 266.536 261.312 268.96 261.312C269.68 261.312 270.544 261.12 271.168 260.928L270.76 258.816C270.28 258.936 269.992 258.984 269.488 258.984C268.432 258.984 268.048 258.504 268.048 257.568V251.016H271.072V248.904H268.048V245.568L265.432 245.976Z" fill="#161225"/>
<path d="M130.992 277.272C130.992 279.048 132.064 279.768 133.376 280.136L135.328 280.712C136.24 280.968 136.848 281.4 136.848 282.296C136.848 283.24 136.176 283.896 134.672 283.896C133.536 283.896 132.064 283.448 131.872 281.432L130.464 281.784C130.768 284.008 132.704 285.208 134.656 285.208C136.544 285.208 138.272 284.12 138.272 282.184C138.272 280.504 137.232 279.816 135.952 279.448L133.856 278.84C132.976 278.568 132.432 278.104 132.432 277.16C132.432 276.216 133.168 275.608 134.32 275.608C135.392 275.608 136.512 276.04 136.72 277.704L138.096 277.368C137.744 275.224 135.984 274.296 134.432 274.296C132.688 274.296 130.992 275.336 130.992 277.272ZM140.076 276.936V285H141.42V276.936H140.076ZM140.748 273.56C140.236 273.56 139.852 273.944 139.852 274.456C139.852 274.968 140.236 275.336 140.748 275.336C141.244 275.336 141.628 274.968 141.628 274.456C141.628 273.944 141.244 273.56 140.748 273.56ZM149.648 276.936H143.408V278.088H148.016L143.328 283.928V285H149.808V283.832H144.944L149.648 278.024V276.936ZM155.06 277.896C156.404 277.896 157.428 278.568 157.524 280.104H152.548C152.788 278.632 153.716 277.896 155.06 277.896ZM158.804 281.176V280.696C158.804 278.264 157.284 276.712 155.092 276.712C152.884 276.712 151.14 278.344 151.14 280.936C151.14 283.592 152.948 285.208 155.22 285.208C156.676 285.208 158.42 284.392 158.724 282.552L157.508 282.28C157.268 283.336 156.676 284.024 155.204 284.024C153.46 284.024 152.564 282.856 152.484 281.176H158.804ZM165.094 274.504V285H166.486V276.84L169.974 285H170.806L174.214 276.792V285H175.638V274.504H173.942L170.47 282.824L166.806 274.504H165.094Z" fill="#706B8B"/>
<path d="M416.534 271H418.714V268.58L420.514 266.56L423.494 271H425.894L421.834 265.08L425.534 260.92H423.154L418.714 266.16V257.44H416.534V271ZM431.901 263C432.441 263 432.821 263.08 433.201 263.22L433.421 260.78C433.201 260.68 432.901 260.64 432.641 260.64C431.641 260.64 430.061 261.22 429.241 263.36V260.92H427.061V271H429.241V266.58C429.241 263.78 430.481 263 431.901 263ZM444.984 271V257.62H442.964C442.804 259.8 442.144 259.98 439.524 260.12V262.06C441.224 262.06 442.264 261.82 442.804 261.36V271H444.984ZM450.171 267.32L448.031 267.68C448.491 270.58 450.711 271.26 452.251 271.26C455.711 271.26 457.611 268.26 457.611 264.14C457.611 260.06 455.951 257.62 452.731 257.62C449.791 257.62 448.111 259.62 448.111 262.1C448.111 264.8 449.951 266.28 452.171 266.28C453.591 266.28 454.751 265.64 455.431 264.58C455.191 268.2 454.031 269.24 452.391 269.24C451.211 269.24 450.291 268.72 450.171 267.32ZM452.711 259.74C454.451 259.74 455.251 260.84 455.251 262.06C455.251 263.62 454.031 264.32 452.671 264.32C451.171 264.32 450.351 263.42 450.351 262.06C450.351 260.82 451.171 259.74 452.711 259.74ZM461.988 267.32L459.848 267.68C460.308 270.58 462.528 271.26 464.068 271.26C467.528 271.26 469.428 268.26 469.428 264.14C469.428 260.06 467.768 257.62 464.548 257.62C461.608 257.62 459.928 259.62 459.928 262.1C459.928 264.8 461.768 266.28 463.988 266.28C465.408 266.28 466.568 265.64 467.248 264.58C467.008 268.2 465.848 269.24 464.208 269.24C463.028 269.24 462.108 268.72 461.988 267.32ZM464.528 259.74C466.268 259.74 467.068 260.84 467.068 262.06C467.068 263.62 465.848 264.32 464.488 264.32C462.988 264.32 462.168 263.42 462.168 262.06C462.168 260.82 462.988 259.74 464.528 259.74ZM473.144 268.22C472.324 268.22 471.684 268.86 471.684 269.66C471.684 270.48 472.324 271.12 473.144 271.12C473.944 271.12 474.584 270.48 474.584 269.66C474.584 268.86 473.944 268.22 473.144 268.22ZM482 257.62C479.16 257.62 476.84 259.66 476.84 264.44C476.84 269.24 479.16 271.26 482 271.26C484.86 271.26 487.16 269.24 487.16 264.44C487.16 259.66 484.86 257.62 482 257.62ZM482 259.74C483.54 259.74 484.8 260.98 484.8 264.44C484.8 267.92 483.54 269.14 482 269.14C480.46 269.14 479.2 267.92 479.2 264.44C479.2 260.98 480.46 259.74 482 259.74ZM494.558 257.62C491.718 257.62 489.398 259.66 489.398 264.44C489.398 269.24 491.718 271.26 494.558 271.26C497.418 271.26 499.718 269.24 499.718 264.44C499.718 259.66 497.418 257.62 494.558 257.62ZM494.558 259.74C496.098 259.74 497.358 260.98 497.358 264.44C497.358 267.92 496.098 269.14 494.558 269.14C493.018 269.14 491.758 267.92 491.758 264.44C491.758 260.98 493.018 259.74 494.558 259.74Z" fill="#161225"/>
</g>
<defs>
<filter id="filter0_dd" x="71" y="45" width="885" height="515" filterUnits="userSpaceOnUse" color-interpolation-filters="sRGB">
<feFlood flood-opacity="0" result="BackgroundImageFix"/>
<feColorMatrix in="SourceAlpha" type="matrix" values="0 0 0 0 0 0 0 0 0 0 0 0 0 0 0 0 0 0 127 0"/>
<feOffset dy="1"/>
<feGaussianBlur stdDeviation="2"/>
<feColorMatrix type="matrix" values="0 0 0 0 0.0862745 0 0 0 0 0.0705882 0 0 0 0 0.145098 0 0 0 0.17 0"/>
<feBlend mode="normal" in2="BackgroundImageFix" result="effect1_dropShadow"/>
<feColorMatrix in="SourceAlpha" type="matrix" values="0 0 0 0 0 0 0 0 0 0 0 0 0 0 0 0 0 0 127 0"/>
<feOffset dy="1"/>
<feGaussianBlur stdDeviation="0.5"/>
<feColorMatrix type="matrix" values="0 0 0 0 0.0862745 0 0 0 0 0.0705882 0 0 0 0 0.145098 0 0 0 0.0498188 0"/>
<feBlend mode="normal" in2="effect1_dropShadow" result="effect2_dropShadow"/>
<feBlend mode="normal" in="SourceGraphic" in2="effect2_dropShadow" result="shape"/>
</filter>
</defs>
</svg>
