<svg width="823" height="618" viewBox="0 0 823 618" fill="none" xmlns="http://www.w3.org/2000/svg">
<rect y="0.8125" width="822.977" height="616.438" rx="1" fill="#FFF4EC"/>
<g filter="url(#filter0_di)">
<rect x="91" y="48.8125" width="256.596" height="520.438" rx="30.1878" fill="white"/>
</g>
<rect width="226.408" height="490.25" transform="translate(106.094 63.9064)" fill="#938FA8"/>
<g clip-path="url(#clip0)">
<rect width="226.408" height="490.25" transform="translate(106.094 63.9064)" fill="white"/>
<g clip-path="url(#clip1)">
<g clip-path="url(#clip2)">
<mask id="mask0" mask-type="alpha" maskUnits="userSpaceOnUse" x="192" y="136" width="13" height="13">
<circle cx="198.185" cy="142.65" r="6.03756" fill="#FFF4EC"/>
</mask>
<g mask="url(#mask0)">
<circle cx="198.185" cy="142.65" r="6.03756" fill="white"/>
<path fill-rule="evenodd" clip-rule="evenodd" d="M195.715 139.442C195.412 139.442 195.166 139.688 195.166 139.991V144.934C195.166 145.236 195.412 145.482 195.715 145.482H197.499L197.991 145.972C198.042 146.024 198.112 146.053 198.185 146.053C198.258 146.053 198.328 146.024 198.379 145.972L198.871 145.48H200.656C200.958 145.48 201.204 145.234 201.204 144.931V139.988C201.203 139.686 200.958 139.442 200.656 139.442H195.715ZM196.969 141.09H199.403C199.526 141.089 199.629 141.184 199.639 141.306L199.834 143.66C199.839 143.726 199.817 143.791 199.772 143.839C199.727 143.887 199.664 143.915 199.599 143.914H196.774C196.708 143.915 196.645 143.887 196.601 143.839C196.556 143.791 196.533 143.726 196.539 143.66L196.734 141.306C196.744 141.184 196.846 141.089 196.969 141.09ZM197.245 141.796C197.245 141.666 197.35 141.561 197.48 141.561C197.61 141.561 197.716 141.666 197.716 141.796V142.031C197.716 142.291 197.926 142.502 198.186 142.502C198.446 142.502 198.657 142.291 198.657 142.031V141.796C198.657 141.666 198.763 141.561 198.893 141.561C199.023 141.561 199.128 141.666 199.128 141.796V142.031C199.128 142.551 198.706 142.973 198.186 142.973C197.666 142.973 197.245 142.551 197.245 142.031V141.796Z" fill="#6770E0"/>
</g>
<path d="M209.983 146.15V139.282H212.229C212.974 139.282 213.534 139.436 213.908 139.744C214.285 140.052 214.474 140.508 214.474 141.112C214.474 141.433 214.383 141.717 214.2 141.966C214.018 142.211 213.77 142.401 213.455 142.536C213.826 142.64 214.119 142.838 214.332 143.131C214.549 143.42 214.658 143.766 214.658 144.168C214.658 144.785 214.458 145.269 214.059 145.621C213.659 145.973 213.095 146.15 212.365 146.15H209.983ZM210.889 142.937V145.409H212.384C212.806 145.409 213.137 145.301 213.38 145.084C213.625 144.863 213.748 144.562 213.748 144.178C213.748 143.351 213.298 142.937 212.399 142.937H210.889ZM210.889 142.211H212.257C212.653 142.211 212.969 142.112 213.205 141.914C213.444 141.716 213.564 141.447 213.564 141.107C213.564 140.73 213.454 140.456 213.233 140.287C213.013 140.114 212.678 140.027 212.229 140.027H210.889V142.211ZM219.107 145.645C218.767 146.044 218.269 146.244 217.612 146.244C217.068 146.244 216.652 146.087 216.366 145.772C216.083 145.455 215.94 144.986 215.937 144.367V141.046H216.81V144.343C216.81 145.117 217.124 145.503 217.753 145.503C218.42 145.503 218.863 145.255 219.083 144.758V141.046H219.956V146.15H219.126L219.107 145.645ZM222.56 139.81V141.046H223.513V141.72H222.56V144.885C222.56 145.09 222.603 145.244 222.688 145.348C222.773 145.448 222.917 145.499 223.122 145.499C223.222 145.499 223.361 145.48 223.537 145.442V146.15C223.307 146.212 223.084 146.244 222.867 146.244C222.477 146.244 222.183 146.126 221.985 145.89C221.787 145.654 221.688 145.319 221.688 144.885V141.72H220.759V141.046H221.688V139.81H222.56ZM225.575 146.15H224.703V141.046H225.575V146.15ZM224.632 139.692C224.632 139.551 224.675 139.431 224.759 139.334C224.848 139.236 224.976 139.188 225.146 139.188C225.316 139.188 225.445 139.236 225.533 139.334C225.621 139.431 225.665 139.551 225.665 139.692C225.665 139.834 225.621 139.952 225.533 140.046C225.445 140.14 225.316 140.187 225.146 140.187C224.976 140.187 224.848 140.14 224.759 140.046C224.675 139.952 224.632 139.834 224.632 139.692ZM228.491 143.786L227.944 144.357V146.15H227.072V138.904H227.944V143.286L228.411 142.725L230.001 141.046H231.062L229.076 143.178L231.293 146.15H230.27L228.491 143.786ZM233.478 143.786L232.931 144.357V146.15H232.058V138.904H232.931V143.286L233.398 142.725L234.987 141.046H236.049L234.063 143.178L236.28 146.15H235.256L233.478 143.786ZM239.064 146.244C238.372 146.244 237.809 146.017 237.375 145.565C236.941 145.109 236.724 144.5 236.724 143.739V143.579C236.724 143.073 236.82 142.621 237.012 142.225C237.207 141.826 237.477 141.514 237.823 141.291C238.172 141.065 238.55 140.952 238.955 140.952C239.619 140.952 240.134 141.17 240.502 141.607C240.87 142.044 241.054 142.67 241.054 143.485V143.848H237.597C237.609 144.351 237.756 144.758 238.035 145.069C238.319 145.378 238.677 145.532 239.111 145.532C239.419 145.532 239.68 145.469 239.894 145.343C240.108 145.217 240.295 145.051 240.455 144.843L240.988 145.258C240.561 145.915 239.919 146.244 239.064 146.244ZM238.955 141.669C238.603 141.669 238.307 141.797 238.069 142.055C237.83 142.31 237.682 142.669 237.625 143.131H240.182V143.065C240.156 142.621 240.037 142.279 239.823 142.036C239.609 141.791 239.32 141.669 238.955 141.669ZM242.984 141.046L243.013 141.687C243.403 141.197 243.912 140.952 244.541 140.952C245.62 140.952 246.164 141.56 246.173 142.777V146.15H245.3V142.772C245.297 142.404 245.212 142.132 245.046 141.956C244.882 141.78 244.626 141.692 244.277 141.692C243.994 141.692 243.745 141.768 243.532 141.919C243.318 142.069 243.151 142.268 243.032 142.513V146.15H242.159V141.046H242.984Z" fill="#161225"/>
</g>
</g>
<path d="M177.671 161.262H178.381L178.711 159.632H179.763L179.895 158.934H178.847L179.128 157.568H180.147L180.279 156.875H179.272L179.59 155.306H178.884L178.562 156.875H177.316L177.629 155.306H176.928L176.602 156.875H175.607L175.467 157.568H176.461L176.189 158.934H175.227L175.091 159.632H176.045L175.718 161.262H176.42L176.75 159.632H178.001L177.671 161.262ZM176.862 158.967L177.151 157.539H178.451L178.158 158.967H176.862ZM180.981 157.031H181.856C181.856 156.371 182.297 155.925 182.97 155.925C183.63 155.925 184.022 156.367 184.022 156.945C184.022 157.428 183.824 157.725 183.069 158.513L181.03 160.635V161.262H185.042V160.474H182.293V160.403L183.606 159.083C184.65 158.034 184.951 157.543 184.951 156.854C184.951 155.876 184.146 155.162 183.028 155.162C181.827 155.162 180.981 155.938 180.981 157.031ZM187.572 158.567H188.315C189.091 158.567 189.57 158.963 189.57 159.599C189.57 160.218 189.058 160.63 188.327 160.63C187.605 160.63 187.106 160.255 187.052 159.669H186.165C186.214 160.717 187.081 161.406 188.34 161.406C189.582 161.406 190.519 160.663 190.519 159.648C190.519 158.831 190.007 158.303 189.215 158.183V158.113C189.838 157.939 190.288 157.465 190.292 156.747C190.296 155.901 189.598 155.162 188.368 155.162C187.114 155.162 186.338 155.884 186.276 156.895H187.151C187.205 156.272 187.638 155.921 188.315 155.921C188.983 155.921 189.38 156.338 189.38 156.862C189.38 157.436 188.934 157.84 188.29 157.84H187.572V158.567ZM194.427 161.262H195.319V160.077H196.14V159.293H195.319V155.306H194.002C193.181 156.54 192.306 157.948 191.522 159.293V160.077H194.427V161.262ZM192.409 159.252C193.02 158.208 193.746 157.048 194.386 156.086H194.44V159.31H192.409V159.252ZM198.604 161.262H199.529V155.306H198.608L197.04 156.421V157.329L198.534 156.26H198.604V161.262ZM201.212 157.031H202.087C202.087 156.371 202.529 155.925 203.202 155.925C203.862 155.925 204.254 156.367 204.254 156.945C204.254 157.428 204.056 157.725 203.301 158.513L201.262 160.635V161.262H205.274V160.474H202.525V160.403L203.837 159.083C204.882 158.034 205.183 157.543 205.183 156.854C205.183 155.876 204.378 155.162 203.26 155.162C202.059 155.162 201.212 155.938 201.212 157.031ZM211.522 159.273V158.451H208.815V159.273H211.522ZM217.688 161.262C218.96 161.262 219.723 160.626 219.723 159.578C219.723 158.798 219.187 158.228 218.382 158.142V158.071C218.968 157.972 219.426 157.415 219.426 156.792C219.426 155.876 218.753 155.306 217.635 155.306H215.241V161.262H217.688ZM216.165 156.062H217.42C218.105 156.062 218.506 156.388 218.506 156.953C218.506 157.535 218.08 157.84 217.263 157.84H216.165V156.062ZM216.165 160.507V158.546H217.449C218.32 158.546 218.778 158.876 218.778 159.52C218.778 160.164 218.336 160.507 217.503 160.507H216.165ZM224.597 156.78H223.71V159.409C223.71 160.131 223.318 160.568 222.6 160.568C221.948 160.568 221.655 160.214 221.655 159.471V156.78H220.767V159.689C220.767 160.742 221.32 161.349 222.315 161.349C222.996 161.349 223.454 161.06 223.673 160.552H223.743V161.262H224.597V156.78ZM226.199 155.649V156.792H225.485V157.502H226.199V160.081C226.199 160.944 226.591 161.291 227.577 161.291C227.751 161.291 227.916 161.27 228.06 161.245V160.54C227.936 160.552 227.858 160.56 227.722 160.56C227.28 160.56 227.086 160.35 227.086 159.867V157.502H228.06V156.792H227.086V155.649H226.199ZM229.562 155.979C229.872 155.979 230.124 155.727 230.124 155.422C230.124 155.112 229.872 154.86 229.562 154.86C229.253 154.86 229.001 155.112 229.001 155.422C229.001 155.727 229.253 155.979 229.562 155.979ZM229.121 161.262H230.004V156.78H229.121V161.262ZM232.307 158.67H232.237V155.021H231.35V161.262H232.237V159.632L232.629 159.256L234.173 161.262H235.262L233.289 158.699L235.138 156.78H234.09L232.307 158.67ZM237.078 158.67H237.008V155.021H236.121V161.262H237.008V159.632L237.4 159.256L238.944 161.262H240.033L238.06 158.699L239.909 156.78H238.861L237.078 158.67ZM243.566 160.061C243.401 160.424 243.034 160.622 242.497 160.622C241.787 160.622 241.329 160.11 241.3 159.297V159.256H244.474V158.951C244.474 157.547 243.719 156.693 242.468 156.693C241.201 156.693 240.396 157.605 240.396 159.029C240.396 160.461 241.185 161.349 242.472 161.349C243.5 161.349 244.227 160.853 244.42 160.061H243.566ZM242.464 157.415C243.12 157.415 243.55 157.89 243.57 158.616H241.3C241.35 157.894 241.808 157.415 242.464 157.415ZM245.539 161.262H246.426V158.633C246.426 157.911 246.843 157.465 247.499 157.465C248.156 157.465 248.469 157.828 248.469 158.571V161.262H249.357V158.36C249.357 157.291 248.804 156.693 247.801 156.693C247.124 156.693 246.678 156.994 246.459 157.49H246.393V156.78H245.539V161.262ZM256.876 161.262H257.859L255.708 155.306H254.714L252.564 161.262H253.513L254.062 159.652H256.332L256.876 161.262ZM255.164 156.359H255.234L256.096 158.909H254.297L255.164 156.359ZM258.618 159.673C258.684 160.729 259.572 161.406 260.892 161.406C262.304 161.406 263.187 160.696 263.187 159.57C263.187 158.678 262.684 158.187 261.462 157.894L260.806 157.733C260.03 157.543 259.716 157.296 259.716 156.862C259.716 156.305 260.203 155.946 260.934 155.946C261.627 155.946 262.106 156.293 262.192 156.858H263.092C263.038 155.863 262.155 155.162 260.946 155.162C259.646 155.162 258.779 155.863 258.779 156.912C258.779 157.778 259.27 158.29 260.347 158.55L261.115 158.736C261.903 158.926 262.25 159.215 262.25 159.681C262.25 160.226 261.705 160.618 260.962 160.618C260.166 160.618 259.613 160.251 259.534 159.673H258.618Z" fill="#706B8B"/>
<g clip-path="url(#clip3)">
<g clip-path="url(#clip4)">
<path d="M271.834 319.801C273.353 319.801 274.461 318.933 274.659 317.626V317.598H273.612L273.603 317.617C273.409 318.386 272.735 318.867 271.834 318.867C270.608 318.867 269.844 317.853 269.844 316.239V316.23C269.844 314.612 270.608 313.598 271.829 313.598C272.726 313.598 273.409 314.14 273.608 314.975V314.99H274.655L274.659 314.966C274.48 313.612 273.329 312.664 271.829 312.664C269.938 312.664 268.763 314.032 268.763 316.23V316.239C268.763 318.433 269.943 319.801 271.834 319.801ZM275.787 319.636H276.81V316.631C276.81 315.806 277.277 315.291 278.027 315.291C278.777 315.291 279.131 315.711 279.131 316.56V319.636H280.15V316.32C280.15 315.098 279.518 314.414 278.372 314.414C277.626 314.414 277.136 314.744 276.886 315.291H276.81V312.504H275.787V319.636ZM282.792 319.721C283.471 319.721 284.009 319.428 284.31 318.909H284.391V319.636H285.405V316.131C285.405 315.056 284.678 314.414 283.391 314.414C282.226 314.414 281.419 314.975 281.296 315.815L281.292 315.848H282.277L282.282 315.829C282.405 315.466 282.777 315.258 283.343 315.258C284.037 315.258 284.391 315.57 284.391 316.131V316.584L283.004 316.664C281.782 316.739 281.094 317.272 281.094 318.188V318.197C281.094 319.126 281.815 319.721 282.792 319.721ZM282.112 318.155V318.145C282.112 317.683 282.433 317.428 283.141 317.386L284.391 317.306V317.744C284.391 318.405 283.829 318.905 283.065 318.905C282.513 318.905 282.112 318.626 282.112 318.155ZM286.655 319.636H287.678V316.631C287.678 315.806 288.145 315.291 288.895 315.291C289.645 315.291 289.999 315.711 289.999 316.56V319.636H291.018V316.32C291.018 315.098 290.386 314.414 289.24 314.414C288.494 314.414 288.004 314.744 287.754 315.291H287.678V314.513H286.655V319.636ZM294.419 321.442C295.872 321.442 296.792 320.697 296.792 319.532V314.513H295.773V315.353H295.711C295.414 314.777 294.858 314.424 294.141 314.424C292.811 314.424 291.995 315.456 291.995 316.919V316.928C291.995 318.372 292.806 319.386 294.122 319.386C294.825 319.386 295.391 319.074 295.702 318.518H295.777V319.527C295.777 320.225 295.277 320.621 294.433 320.621C293.74 320.621 293.325 320.371 293.24 320.018L293.235 320.008H292.202L292.193 320.018C292.315 320.871 293.117 321.442 294.419 321.442ZM294.405 318.541C293.532 318.541 293.042 317.876 293.042 316.923V316.914C293.042 315.961 293.532 315.291 294.405 315.291C295.268 315.291 295.796 315.961 295.796 316.914V316.923C295.796 317.881 295.273 318.541 294.405 318.541ZM300.221 319.735C301.532 319.735 302.24 318.98 302.41 318.305L302.419 318.263L301.433 318.268L301.414 318.305C301.292 318.57 300.9 318.895 300.245 318.895C299.4 318.895 298.862 318.324 298.844 317.343H302.476V316.985C302.476 315.447 301.598 314.414 300.169 314.414C298.74 314.414 297.815 315.485 297.815 317.084V317.089C297.815 318.711 298.721 319.735 300.221 319.735ZM300.174 315.254C300.867 315.254 301.381 315.697 301.461 316.612H298.858C298.947 315.73 299.476 315.254 300.174 315.254Z" fill="#5E3DC2"/>
</g>
<g clip-path="url(#clip5)">
<g clip-path="url(#clip6)">
<path d="M159.644 319.475H160.484L162.993 312.669H162.102L160.102 318.376H160.026L158.026 312.669H157.135L159.644 319.475ZM163.993 319.475H164.842V312.669H163.993V319.475ZM168.616 319.635C170.135 319.635 171.13 318.843 171.13 317.569V317.565C171.13 316.584 170.569 316.013 169.149 315.697L168.394 315.527C167.47 315.324 167.097 314.956 167.097 314.414V314.409C167.097 313.697 167.753 313.296 168.602 313.291C169.489 313.287 170.055 313.73 170.149 314.329L170.158 314.39H171.007L171.003 314.324C170.932 313.31 169.984 312.508 168.625 312.508C167.22 312.508 166.234 313.305 166.229 314.433V314.437C166.229 315.423 166.819 316.051 168.182 316.353L168.937 316.518C169.871 316.725 170.262 317.112 170.262 317.678V317.683C170.262 318.376 169.588 318.852 168.663 318.852C167.682 318.852 166.974 318.423 166.913 317.744L166.908 317.692H166.059L166.064 317.744C166.163 318.852 167.125 319.635 168.616 319.635ZM171.809 319.475H172.701L173.385 317.527H176.092L176.776 319.475H177.668L175.158 312.669H174.319L171.809 319.475ZM174.701 313.768H174.776L175.842 316.805H173.635L174.701 313.768ZM181.093 319.475H185.498V318.711H182.272V318.635L183.819 317.036C185.05 315.768 185.385 315.202 185.385 314.423V314.414C185.385 313.315 184.475 312.508 183.286 312.508C181.984 312.508 181.05 313.376 181.045 314.584L181.055 314.588L181.866 314.593L181.871 314.584C181.871 313.782 182.413 313.249 183.229 313.249C184.031 313.249 184.517 313.787 184.517 314.504V314.513C184.517 315.107 184.262 315.461 183.394 316.4L181.093 318.89V319.475ZM189.696 319.475H190.526V318.065H191.493V317.305H190.526V312.669H189.295C188.343 314.088 187.3 315.749 186.38 317.291V318.065H189.696V319.475ZM187.248 317.31V317.253C187.989 316.003 188.88 314.598 189.644 313.456H189.701V317.31H187.248ZM194.182 319.475H195.031V312.669H194.187L192.376 313.97V314.867L194.107 313.612H194.182V319.475ZM196.805 319.475H201.21V318.711H197.984V318.635L199.531 317.036C200.762 315.768 201.097 315.202 201.097 314.423V314.414C201.097 313.315 200.187 312.508 198.998 312.508C197.696 312.508 196.762 313.376 196.758 314.584L196.767 314.588L197.578 314.593L197.583 314.584C197.583 313.782 198.126 313.249 198.942 313.249C199.744 313.249 200.229 313.787 200.229 314.504V314.513C200.229 315.107 199.975 315.461 199.107 316.4L196.805 318.89V319.475Z" fill="black"/>
</g>
<rect x="135.074" y="310.239" width="14.4901" height="10.8676" rx="1.50939" fill="#1A1F71"/>
<path d="M140.579 313.635L138.959 317.5H137.902L137.104 314.415C137.056 314.226 137.014 314.156 136.867 314.076C136.627 313.945 136.23 313.823 135.881 313.747L135.904 313.635H137.605C137.822 313.635 138.017 313.779 138.066 314.029L138.488 316.265L139.528 313.635H140.579ZM144.719 316.238C144.723 315.218 143.309 315.162 143.318 314.706C143.321 314.568 143.453 314.42 143.742 314.382C143.885 314.364 144.28 314.349 144.728 314.555L144.903 313.735C144.663 313.649 144.353 313.565 143.969 313.565C142.98 313.565 142.285 314.089 142.279 314.842C142.273 315.398 142.775 315.709 143.154 315.894C143.543 316.083 143.674 316.205 143.673 316.374C143.67 316.633 143.362 316.748 143.075 316.753C142.572 316.76 142.28 316.617 142.048 316.508L141.866 317.355C142.101 317.462 142.532 317.555 142.978 317.56C144.029 317.56 144.716 317.041 144.719 316.238ZM147.328 317.5H148.253L147.446 313.635H146.593C146.401 313.635 146.239 313.746 146.167 313.918L144.667 317.5H145.717L145.926 316.923H147.208L147.328 317.5ZM146.212 316.131L146.739 314.68L147.042 316.131H146.212ZM142.007 313.635L141.18 317.5H140.18L141.007 313.635H142.007Z" fill="white"/>
</g>
</g>
<g filter="url(#filter1_dd)">
<path d="M135.074 202.771C135.074 196.008 135.074 192.627 136.39 190.044C137.548 187.772 139.395 185.924 141.667 184.767C144.25 183.451 147.632 183.451 154.394 183.451H284.202C290.964 183.451 294.346 183.451 296.929 184.767C299.201 185.924 301.048 187.772 302.206 190.044C303.522 192.627 303.522 196.008 303.522 202.771V259.601C303.522 266.363 303.522 269.745 302.206 272.328C301.048 274.6 299.201 276.447 296.929 277.605C294.346 278.921 290.964 278.921 284.202 278.921H154.394C147.632 278.921 144.25 278.921 141.667 277.605C139.395 276.447 137.548 274.6 136.39 272.328C135.074 269.745 135.074 266.363 135.074 259.601V202.771Z" fill="#49367E"/>
<g filter="url(#filter2_i)">
<path fill-rule="evenodd" clip-rule="evenodd" d="M193.976 202.538C195.258 200.399 196.802 199.297 198.596 199.299C200.389 199.301 201.933 200.406 203.215 202.548C203.301 202.691 203.3 202.87 203.214 203.014C201.931 205.146 200.387 206.244 198.595 206.242C196.803 206.241 195.259 205.139 193.976 203.004C193.89 202.861 193.89 202.681 193.976 202.538ZM198.596 205.337C199.968 205.338 201.197 204.505 202.294 202.78C201.197 201.045 199.968 200.206 198.595 200.205C197.222 200.203 195.993 201.039 194.896 202.77C195.994 204.499 197.223 205.335 198.596 205.337ZM199.496 202.771C199.496 203.271 199.091 203.676 198.591 203.676C198.09 203.676 197.685 203.271 197.685 202.771C197.685 202.271 198.09 201.865 198.591 201.865C199.091 201.865 199.496 202.271 199.496 202.771Z" fill="white"/>
</g>
<path d="M206.302 204.352C206.368 205.408 207.255 206.085 208.576 206.085C209.988 206.085 210.871 205.375 210.871 204.249C210.871 203.357 210.367 202.866 209.146 202.573L208.489 202.412C207.713 202.222 207.4 201.974 207.4 201.541C207.4 200.984 207.887 200.625 208.617 200.625C209.311 200.625 209.789 200.972 209.876 201.537H210.776C210.722 200.542 209.839 199.841 208.63 199.841C207.33 199.841 206.463 200.542 206.463 201.591C206.463 202.457 206.954 202.969 208.031 203.229L208.799 203.415C209.587 203.605 209.934 203.894 209.934 204.36C209.934 204.905 209.389 205.297 208.646 205.297C207.85 205.297 207.297 204.93 207.218 204.352H206.302ZM215.774 201.459H214.887V204.088C214.887 204.81 214.495 205.247 213.776 205.247C213.124 205.247 212.831 204.892 212.831 204.149V201.459H211.944V204.368C211.944 205.421 212.497 206.027 213.492 206.027C214.173 206.027 214.631 205.738 214.849 205.231H214.92V205.941H215.774V201.459ZM217.062 205.941H217.949V203.188C217.949 202.602 218.358 202.144 218.898 202.144C219.427 202.144 219.765 202.461 219.765 202.973V205.941H220.636V203.105C220.636 202.565 221.011 202.144 221.585 202.144C222.167 202.144 222.456 202.445 222.456 203.064V205.941H223.343V202.849C223.343 201.917 222.815 201.372 221.907 201.372C221.284 201.372 220.768 201.69 220.541 202.173H220.471C220.273 201.69 219.848 201.372 219.233 201.372C218.634 201.372 218.18 201.669 217.982 202.173H217.916V201.459H217.062V205.941ZM224.59 205.941H225.477V203.188C225.477 202.602 225.886 202.144 226.426 202.144C226.955 202.144 227.293 202.461 227.293 202.973V205.941H228.164V203.105C228.164 202.565 228.539 202.144 229.113 202.144C229.695 202.144 229.984 202.445 229.984 203.064V205.941H230.871V202.849C230.871 201.917 230.343 201.372 229.435 201.372C228.812 201.372 228.296 201.69 228.069 202.173H227.999C227.801 201.69 227.376 201.372 226.761 201.372C226.162 201.372 225.708 201.669 225.51 202.173H225.444V201.459H224.59V205.941ZM233.36 206.015C233.95 206.015 234.441 205.759 234.71 205.305H234.78V205.941H235.634V202.874C235.634 201.933 234.999 201.372 233.872 201.372C232.852 201.372 232.126 201.863 232.035 202.618H232.894C232.993 202.292 233.335 202.107 233.831 202.107C234.437 202.107 234.751 202.383 234.751 202.874V203.266L233.533 203.341C232.465 203.407 231.862 203.873 231.862 204.678C231.862 205.495 232.493 206.015 233.36 206.015ZM233.587 205.301C233.104 205.301 232.753 205.057 232.753 204.641C232.753 204.232 233.034 204.013 233.653 203.972L234.751 203.898V204.286C234.751 204.863 234.256 205.301 233.587 205.301ZM236.897 205.941H237.785V203.262C237.785 202.631 238.259 202.197 238.932 202.197C239.089 202.197 239.353 202.226 239.427 202.247V201.413C239.332 201.392 239.163 201.38 239.031 201.38C238.445 201.38 237.945 201.698 237.818 202.14H237.751V201.459H236.897V205.941ZM240.752 207.567C241.668 207.567 242.093 207.224 242.477 206.147L244.153 201.459H243.212L242.089 205.049H242.019L240.892 201.459H239.927L241.553 205.953L241.487 206.184C241.334 206.659 241.095 206.836 240.674 206.836C240.591 206.836 240.455 206.832 240.385 206.82V207.546C240.467 207.559 240.678 207.567 240.752 207.567Z" fill="white"/>
<path d="M190.962 240.601H193.874V237.334H196.174V234.823H193.874V223.585H189.582C187.271 227.099 184.853 231.014 182.648 234.846V237.334H190.962V240.601ZM185.467 234.717C187.129 231.827 189.099 228.679 190.844 226.014H191.009V234.893H185.467V234.717ZM204.541 241.014C208.869 241.014 211.439 237.629 211.439 231.886C211.439 226.25 208.704 223.16 204.635 223.16C200.933 223.16 198.315 225.648 198.315 229.127C198.315 232.393 200.673 234.775 203.916 234.775C205.909 234.775 207.524 233.856 208.326 232.24H208.527C208.491 236.238 207.065 238.525 204.576 238.525C203.114 238.525 201.947 237.724 201.581 236.426H198.551C199.046 239.198 201.428 241.014 204.541 241.014ZM204.647 232.429C202.666 232.429 201.298 231.037 201.298 229.033C201.298 227.111 202.737 225.637 204.659 225.637C206.581 225.637 208.02 227.134 208.02 229.092C208.02 231.026 206.616 232.429 204.647 232.429ZM220.325 241.025C224.252 241.025 226.941 238.997 226.941 236.037C226.941 233.844 225.479 232.122 223.262 231.71V231.509C225.089 231.049 226.245 229.599 226.245 227.759C226.245 225.082 223.792 223.16 220.337 223.16C216.882 223.16 214.418 225.082 214.418 227.759C214.418 229.587 215.597 231.061 217.413 231.509V231.71C215.184 232.169 213.734 233.891 213.734 236.049C213.734 238.997 216.422 241.025 220.325 241.025ZM220.337 230.613C218.604 230.613 217.413 229.575 217.413 228.042C217.413 226.509 218.592 225.448 220.337 225.448C222.071 225.448 223.25 226.509 223.25 228.042C223.25 229.563 222.059 230.613 220.337 230.613ZM220.337 238.702C218.285 238.702 216.87 237.511 216.87 235.801C216.87 234.08 218.285 232.889 220.337 232.889C222.377 232.889 223.792 234.08 223.792 235.801C223.792 237.511 222.389 238.702 220.337 238.702Z" fill="white"/>
<path d="M239.083 232.995H238.882V222.724H235.958V240.601H238.882V236.073L239.92 235.035L244.059 240.601H247.596L242.101 233.243L247.243 227.712H243.847L239.083 232.995ZM249.124 240.601H252.049V233.113C252.049 231.297 253.369 230.118 255.268 230.118C255.763 230.118 256.541 230.2 256.766 230.283V227.618C256.494 227.547 255.975 227.5 255.551 227.5C253.888 227.5 252.497 228.443 252.143 229.717H251.943V227.712H249.124V240.601Z" fill="white"/>
<path d="M174.01 257.039V263.846H175.067V261.52H176.642C177.977 261.52 178.92 260.605 178.92 259.294C178.92 257.955 178.005 257.039 176.675 257.039H174.01ZM175.067 257.931H176.397C177.326 257.931 177.84 258.412 177.84 259.294C177.84 260.148 177.307 260.634 176.397 260.634H175.067V257.931ZM181.203 263.931C181.878 263.931 182.439 263.638 182.746 263.119H182.826V263.846H183.802V260.341C183.802 259.266 183.076 258.624 181.788 258.624C180.623 258.624 179.793 259.186 179.689 260.049H180.67C180.784 259.676 181.175 259.464 181.741 259.464C182.434 259.464 182.793 259.78 182.793 260.341V260.789L181.401 260.874C180.18 260.95 179.491 261.483 179.491 262.403C179.491 263.336 180.213 263.931 181.203 263.931ZM181.463 263.115C180.911 263.115 180.51 262.836 180.51 262.36C180.51 261.893 180.831 261.643 181.538 261.596L182.793 261.511V261.954C182.793 262.615 182.227 263.115 181.463 263.115ZM185.392 265.704C186.439 265.704 186.925 265.313 187.364 264.082L189.279 258.723H188.203L186.92 262.827H186.84L185.552 258.723H184.449L186.307 263.86L186.232 264.124C186.057 264.667 185.784 264.869 185.302 264.869C185.208 264.869 185.052 264.865 184.972 264.851V265.681C185.067 265.695 185.307 265.704 185.392 265.704ZM190.123 263.846H191.137V260.7C191.137 260.03 191.604 259.506 192.222 259.506C192.826 259.506 193.213 259.87 193.213 260.454V263.846H194.208V260.605C194.208 259.987 194.637 259.506 195.293 259.506C195.958 259.506 196.288 259.851 196.288 260.558V263.846H197.302V260.313C197.302 259.247 196.699 258.624 195.661 258.624C194.949 258.624 194.359 258.988 194.1 259.539H194.019C193.793 258.988 193.307 258.624 192.604 258.624C191.92 258.624 191.401 258.964 191.175 259.539H191.1V258.723H190.123V263.846ZM201.901 262.473C201.713 262.888 201.293 263.115 200.68 263.115C199.868 263.115 199.345 262.53 199.312 261.601V261.553H202.939V261.204C202.939 259.601 202.076 258.624 200.647 258.624C199.199 258.624 198.279 259.667 198.279 261.294C198.279 262.931 199.18 263.945 200.651 263.945C201.826 263.945 202.656 263.379 202.878 262.473H201.901ZM200.642 259.45C201.392 259.45 201.883 259.992 201.906 260.822H199.312C199.368 259.997 199.892 259.45 200.642 259.45ZM203.963 263.846H204.977V260.841C204.977 260.016 205.453 259.506 206.203 259.506C206.953 259.506 207.312 259.921 207.312 260.77V263.846H208.326V260.53C208.326 259.308 207.694 258.624 206.548 258.624C205.774 258.624 205.265 258.969 205.015 259.535H204.939V258.723H203.963V263.846ZM209.92 257.431V258.738H209.104V259.549H209.92V262.497C209.92 263.483 210.368 263.879 211.496 263.879C211.694 263.879 211.883 263.855 212.048 263.827V263.02C211.906 263.035 211.817 263.044 211.661 263.044C211.156 263.044 210.935 262.803 210.935 262.252V259.549H212.048V258.738H210.935V257.431H209.92ZM215.855 257.431V258.738H215.039V259.549H215.855V262.497C215.855 263.483 216.303 263.879 217.43 263.879C217.628 263.879 217.817 263.855 217.982 263.827V263.02C217.84 263.035 217.751 263.044 217.595 263.044C217.09 263.044 216.869 262.803 216.869 262.252V259.549H217.982V258.738H216.869V257.431H215.855ZM221.095 263.945C222.595 263.945 223.515 262.94 223.515 261.285C223.515 259.629 222.59 258.624 221.095 258.624C219.595 258.624 218.671 259.634 218.671 261.285C218.671 262.94 219.59 263.945 221.095 263.945ZM221.095 263.082C220.213 263.082 219.718 262.426 219.718 261.285C219.718 260.143 220.213 259.483 221.095 259.483C221.972 259.483 222.472 260.143 222.472 261.285C222.472 262.421 221.972 263.082 221.095 263.082ZM229.907 263.846C231.359 263.846 232.232 263.119 232.232 261.921C232.232 261.03 231.619 260.379 230.699 260.28V260.2C231.369 260.087 231.892 259.45 231.892 258.738C231.892 257.69 231.124 257.039 229.845 257.039H227.11V263.846H229.907ZM228.166 257.903H229.6C230.383 257.903 230.841 258.275 230.841 258.921C230.841 259.587 230.355 259.936 229.421 259.936H228.166V257.903ZM228.166 262.983V260.742H229.633C230.628 260.742 231.152 261.12 231.152 261.855C231.152 262.591 230.647 262.983 229.694 262.983H228.166ZM237.609 258.723H236.595V261.728C236.595 262.553 236.147 263.053 235.326 263.053C234.581 263.053 234.246 262.648 234.246 261.799V258.723H233.232V262.049C233.232 263.252 233.864 263.945 235.001 263.945C235.779 263.945 236.303 263.615 236.553 263.035H236.633V263.846H237.609V258.723ZM239.246 257.431V258.738H238.43V259.549H239.246V262.497C239.246 263.483 239.694 263.879 240.822 263.879C241.02 263.879 241.209 263.855 241.374 263.827V263.02C241.232 263.035 241.142 263.044 240.987 263.044C240.482 263.044 240.26 262.803 240.26 262.252V259.549H241.374V258.738H240.26V257.431H239.246ZM242.897 257.808C243.251 257.808 243.539 257.521 243.539 257.172C243.539 256.818 243.251 256.53 242.897 256.53C242.544 256.53 242.256 256.818 242.256 257.172C242.256 257.521 242.544 257.808 242.897 257.808ZM242.393 263.846H243.402V258.723H242.393V263.846ZM245.841 260.884H245.761V256.714H244.747V263.846H245.761V261.983L246.209 261.553L247.973 263.846H249.218L246.963 260.917L249.077 258.723H247.879L245.841 260.884ZM251.1 260.884H251.02V256.714H250.006V263.846H251.02V261.983L251.468 261.553L253.232 263.846H254.478L252.223 260.917L254.336 258.723H253.138L251.1 260.884ZM258.322 262.473C258.133 262.888 257.713 263.115 257.1 263.115C256.289 263.115 255.765 262.53 255.732 261.601V261.553H259.36V261.204C259.36 259.601 258.496 258.624 257.067 258.624C255.619 258.624 254.699 259.667 254.699 261.294C254.699 262.931 255.6 263.945 257.072 263.945C258.246 263.945 259.077 263.379 259.298 262.473H258.322ZM257.063 259.45C257.813 259.45 258.303 259.992 258.327 260.822H255.732C255.789 259.997 256.313 259.45 257.063 259.45ZM260.383 263.846H261.398V260.841C261.398 260.016 261.874 259.506 262.624 259.506C263.374 259.506 263.732 259.921 263.732 260.77V263.846H264.746V260.53C264.746 259.308 264.114 258.624 262.968 258.624C262.195 258.624 261.685 258.969 261.435 259.535H261.36V258.723H260.383V263.846Z" fill="white"/>
</g>
<rect width="226.408" height="57.9606" transform="translate(106.094 483.517)" fill="white"/>
<g filter="url(#filter3_d)">
<path fill-rule="evenodd" clip-rule="evenodd" d="M158.621 512.517C158.621 504.514 165.108 498.027 173.111 498.027H264.473C272.476 498.027 278.963 504.514 278.963 512.517C278.963 520.519 272.476 527.007 264.473 527.007H173.111C165.108 527.007 158.621 520.519 158.621 512.517Z" fill="#FF5B24"/>
</g>
<path d="M210.202 508.369V516.027H211.571V513.495H213.232C214.782 513.495 215.864 512.461 215.864 510.948C215.864 509.409 214.819 508.369 213.291 508.369H210.202ZM211.571 509.489H212.93C213.917 509.489 214.474 509.998 214.474 510.948C214.474 511.872 213.901 512.392 212.924 512.392H211.571V509.489ZM218.473 516.122C219.231 516.122 219.868 515.793 220.192 515.231H220.282V516.027H221.55V512.063C221.55 510.837 220.712 510.115 219.221 510.115C217.841 510.115 216.881 510.763 216.774 511.776H218.016C218.138 511.378 218.552 511.161 219.157 511.161C219.868 511.161 220.25 511.484 220.25 512.063V512.561L218.754 512.652C217.342 512.731 216.552 513.341 216.552 514.382C216.552 515.443 217.353 516.122 218.473 516.122ZM218.86 515.109C218.276 515.109 217.857 514.817 217.857 514.318C217.857 513.835 218.202 513.564 218.94 513.517L220.25 513.426V513.899C220.25 514.588 219.656 515.109 218.86 515.109ZM223.442 518.128C224.742 518.128 225.363 517.656 225.857 516.228L227.953 510.227H226.563L225.209 514.78H225.119L223.761 510.227H222.317L224.392 516.048L224.323 516.318C224.153 516.865 223.84 517.077 223.283 517.077C223.193 517.077 222.997 517.072 222.922 517.061V518.107C223.007 518.123 223.363 518.128 223.442 518.128Z" fill="white"/>
<rect width="226.408" height="66.4131" transform="translate(106.094 63.9064)" fill="black"/>
<path d="M115.754 96.5092C115.754 93.1747 118.457 90.4716 121.791 90.4716H316.396C319.731 90.4716 322.434 93.1747 322.434 96.5092H115.754Z" fill="#A6A6A6"/>
<path d="M106 106.66C106 103.279 106 101.588 106.658 100.297C107.237 99.1605 108.161 98.2369 109.297 97.6581C110.588 97 112.279 97 115.66 97H323.34C326.721 97 328.412 97 329.703 97.6581C330.839 98.2369 331.763 99.1605 332.342 100.297C333 101.588 333 103.279 333 106.66V131H106V106.66Z" fill="white"/>
<rect width="226" height="26.5653" transform="translate(106.094 101.339)" fill="white"/>
<path d="M299.281 116.547C300.82 116.547 301.963 115.69 302.203 114.362H301.286C301.055 115.199 300.289 115.715 299.281 115.715C297.888 115.715 297.016 114.578 297.016 112.763C297.016 110.949 297.888 109.807 299.276 109.807C300.274 109.807 301.045 110.393 301.286 111.325H302.203C301.988 109.932 300.8 108.975 299.276 108.975C297.312 108.975 296.089 110.428 296.089 112.763C296.089 115.094 297.317 116.547 299.281 116.547ZM303.451 116.377H304.313V108.829H303.451V116.377ZM308.002 116.472C309.541 116.472 310.493 115.41 310.493 113.675C310.493 111.936 309.541 110.879 308.002 110.879C306.463 110.879 305.511 111.936 305.511 113.675C305.511 115.41 306.463 116.472 308.002 116.472ZM308.002 115.695C306.98 115.695 306.403 114.953 306.403 113.675C306.403 112.393 306.98 111.656 308.002 111.656C309.024 111.656 309.601 112.393 309.601 113.675C309.601 114.953 309.024 115.695 308.002 115.695ZM311.515 112.453C311.515 113.234 311.976 113.67 312.989 113.916L313.916 114.142C314.492 114.282 314.773 114.532 314.773 114.903C314.773 115.399 314.252 115.745 313.525 115.745C312.833 115.745 312.402 115.455 312.257 114.999H311.37C311.465 115.896 312.292 116.472 313.495 116.472C314.723 116.472 315.66 115.805 315.66 114.838C315.66 114.061 315.169 113.62 314.151 113.375L313.32 113.174C312.683 113.019 312.382 112.788 312.382 112.418C312.382 111.936 312.884 111.611 313.525 111.611C314.177 111.611 314.598 111.896 314.713 112.327H315.565C315.449 111.44 314.663 110.879 313.53 110.879C312.382 110.879 311.515 111.556 311.515 112.453ZM320.386 114.979C320.161 115.455 319.69 115.71 318.993 115.71C318.076 115.71 317.479 115.034 317.434 113.966V113.926H321.318V113.595C321.318 111.916 320.431 110.879 318.973 110.879C317.489 110.879 316.537 111.982 316.537 113.681C316.537 115.389 317.474 116.472 318.973 116.472C320.156 116.472 320.998 115.901 321.248 114.979H320.386ZM318.963 111.641C319.82 111.641 320.391 112.272 320.411 113.229H317.434C317.499 112.272 318.101 111.641 318.963 111.641Z" fill="#5E3DC2"/>
<path d="M205.173 110.145V117.377H206.296V114.906H207.97C209.388 114.906 210.391 113.934 210.391 112.541C210.391 111.117 209.418 110.145 208.005 110.145H205.173ZM206.296 111.092H207.709C208.697 111.092 209.243 111.603 209.243 112.541C209.243 113.448 208.677 113.964 207.709 113.964H206.296V111.092ZM212.816 117.467C213.533 117.467 214.129 117.156 214.455 116.605H214.54V117.377H215.578V113.653C215.578 112.51 214.806 111.829 213.438 111.829C212.2 111.829 211.318 112.425 211.208 113.342H212.25C212.37 112.947 212.786 112.721 213.388 112.721C214.124 112.721 214.505 113.057 214.505 113.653V114.129L213.027 114.219C211.729 114.3 210.997 114.866 210.997 115.843C210.997 116.836 211.764 117.467 212.816 117.467ZM213.092 116.6C212.506 116.6 212.08 116.304 212.08 115.798C212.08 115.302 212.42 115.036 213.172 114.986L214.505 114.896V115.367C214.505 116.069 213.904 116.6 213.092 116.6ZM217.267 119.351C218.379 119.351 218.896 118.935 219.362 117.627L221.397 111.934H220.254L218.891 116.294H218.805L217.437 111.934H216.265L218.239 117.392L218.159 117.672C217.974 118.249 217.683 118.464 217.172 118.464C217.071 118.464 216.906 118.459 216.821 118.444V119.326C216.921 119.341 217.177 119.351 217.267 119.351ZM225.276 110.561V111.949H224.409V112.811H225.276V115.943C225.276 116.991 225.752 117.412 226.95 117.412C227.16 117.412 227.361 117.387 227.536 117.357V116.5C227.386 116.515 227.291 116.525 227.125 116.525C226.589 116.525 226.353 116.269 226.353 115.683V112.811H227.536V111.949H226.353V110.561H225.276ZM230.844 117.482C232.438 117.482 233.415 116.415 233.415 114.655C233.415 112.896 232.433 111.829 230.844 111.829C229.25 111.829 228.268 112.901 228.268 114.655C228.268 116.415 229.245 117.482 230.844 117.482ZM230.844 116.565C229.907 116.565 229.381 115.868 229.381 114.655C229.381 113.443 229.907 112.741 230.844 112.741C231.776 112.741 232.307 113.443 232.307 114.655C232.307 115.863 231.776 116.565 230.844 116.565Z" fill="black"/>
<rect width="226" height="26.5653" transform="translate(106.094 63.9064)" fill="black"/>
<path opacity="0.35" d="M308.849 75.9815C308.849 75.259 309.435 74.6733 310.157 74.6733H320.22C320.942 74.6733 321.528 75.259 321.528 75.9815V79.604C321.528 80.3265 320.942 80.9121 320.22 80.9121H310.157C309.435 80.9121 308.849 80.3265 308.849 79.604V75.9815Z" stroke="white" stroke-width="0.603756"/>
<path opacity="0.4" d="M322.434 76.5852V79.0003C322.92 78.7957 323.235 78.3199 323.235 77.7927C323.235 77.2656 322.92 76.7898 322.434 76.5852Z" fill="white"/>
<path d="M309.755 76.384C309.755 75.9394 310.115 75.579 310.56 75.579H319.817C320.262 75.579 320.622 75.9394 320.622 76.384V79.2015C320.622 79.6461 320.262 80.0065 319.817 80.0065H310.56C310.115 80.0065 309.755 79.6461 309.755 79.2015V76.384Z" fill="white"/>
<path fill-rule="evenodd" clip-rule="evenodd" d="M300.898 75.7448C302.236 75.7449 303.522 76.2589 304.492 77.1808C304.565 77.2519 304.682 77.251 304.754 77.1787L305.452 76.4744C305.488 76.4377 305.508 76.388 305.508 76.3364C305.508 76.2847 305.487 76.2353 305.45 76.199C302.905 73.7601 298.89 73.7601 296.345 76.199C296.309 76.2353 296.288 76.2847 296.287 76.3363C296.287 76.388 296.307 76.4377 296.344 76.4744L297.042 77.1787C297.114 77.2511 297.23 77.252 297.303 77.1808C298.273 76.2589 299.56 75.7448 300.898 75.7448ZM300.898 78.0365C301.633 78.0364 302.342 78.3096 302.887 78.803C302.96 78.8731 303.076 78.8716 303.148 78.7996L303.845 78.0952C303.882 78.0583 303.903 78.0082 303.902 77.9561C303.901 77.904 303.88 77.8543 303.843 77.8181C302.183 76.2747 299.614 76.2747 297.955 77.8181C297.917 77.8543 297.896 77.904 297.895 77.9561C297.895 78.0082 297.915 78.0583 297.952 78.0952L298.649 78.7996C298.721 78.8716 298.837 78.8731 298.911 78.803C299.455 78.31 300.163 78.0368 300.898 78.0365ZM302.294 79.5784C302.295 79.6306 302.275 79.6809 302.238 79.7175L301.032 80.9345C300.996 80.9703 300.948 80.9904 300.898 80.9904C300.848 80.9904 300.799 80.9703 300.764 80.9345L299.558 79.7175C299.521 79.6809 299.5 79.6305 299.501 79.5783C299.502 79.5261 299.525 79.4766 299.564 79.4416C300.334 78.7902 301.462 78.7902 302.232 79.4416C302.271 79.4767 302.293 79.5261 302.294 79.5784Z" fill="white"/>
<path fill-rule="evenodd" clip-rule="evenodd" d="M292.648 74.5727H292.045C291.711 74.5727 291.441 74.843 291.441 75.1765V80.409C291.441 80.7425 291.711 81.0128 292.045 81.0128H292.648C292.982 81.0128 293.252 80.7425 293.252 80.409V75.1765C293.252 74.843 292.982 74.5727 292.648 74.5727ZM289.227 75.9815H289.831C290.164 75.9815 290.435 76.2518 290.435 76.5852V80.409C290.435 80.7425 290.164 81.0128 289.831 81.0128H289.227C288.894 81.0128 288.623 80.7425 288.623 80.409V76.5852C288.623 76.2518 288.894 75.9815 289.227 75.9815ZM287.013 77.3902H286.41C286.076 77.3902 285.806 77.6606 285.806 77.994V80.409C285.806 80.7425 286.076 81.0128 286.41 81.0128H287.013C287.347 81.0128 287.617 80.7425 287.617 80.409V77.994C287.617 77.6606 287.347 77.3902 287.013 77.3902ZM284.196 78.5978H283.592C283.259 78.5978 282.988 78.8681 282.988 79.2015V80.409C282.988 80.7425 283.259 81.0128 283.592 81.0128H284.196C284.529 81.0128 284.8 80.7425 284.8 80.409V79.2015C284.8 78.8681 284.529 78.5978 284.196 78.5978Z" fill="white"/>
<path d="M124.094 80.7552H125.234V74.3742H124.098L122.431 75.546V76.6206L124.018 75.4974H124.094V80.7552ZM128.371 77.9074H129.171C129.958 77.9074 130.436 78.301 130.436 78.9422C130.436 79.5612 129.918 79.9769 129.184 79.9769C128.446 79.9769 127.946 79.5966 127.898 79.0041H126.805C126.858 80.1582 127.809 80.9144 129.198 80.9144C130.577 80.9144 131.603 80.1184 131.603 79.0217C131.603 78.1506 131.059 77.589 130.193 77.4563V77.3812C130.869 77.1999 131.351 76.6913 131.356 75.9219C131.36 75.0065 130.595 74.215 129.237 74.215C127.853 74.215 126.987 74.9977 126.929 76.1165H127.999C128.048 75.4797 128.481 75.1259 129.176 75.1259C129.852 75.1259 130.254 75.5416 130.254 76.0678C130.254 76.6471 129.803 77.0539 129.149 77.0539H128.371V77.9074ZM133.506 76.625C133.926 76.625 134.213 76.3331 134.213 75.9396C134.213 75.546 133.926 75.2542 133.506 75.2542C133.09 75.2542 132.798 75.546 132.798 75.9396C132.798 76.3331 133.09 76.625 133.506 76.625ZM133.506 79.8708C133.926 79.8708 134.213 79.5745 134.213 79.1854C134.213 78.7918 133.926 78.4999 133.506 78.4999C133.09 78.4999 132.798 78.7918 132.798 79.1854C132.798 79.5745 133.09 79.8708 133.506 79.8708ZM137.058 80.7552H138.199V74.3742H137.062L135.395 75.546V76.6206L136.982 75.4974H137.058V80.7552ZM139.805 76.2624H140.875C140.875 75.5902 141.317 75.1304 142.011 75.1304C142.679 75.1304 143.077 75.577 143.077 76.1563C143.077 76.6427 142.882 76.9478 142.078 77.7615L139.867 79.9858V80.7552H144.298V79.8089H141.414V79.7337L142.785 78.385C143.882 77.3104 144.205 76.793 144.205 76.0501C144.205 74.9888 143.342 74.215 142.073 74.215C140.742 74.215 139.805 75.0552 139.805 76.2624Z" fill="white"/>
<path fill-rule="evenodd" clip-rule="evenodd" d="M179.148 547.816C179.148 546.983 179.824 546.307 180.658 546.307H258.134C258.967 546.307 259.643 546.983 259.643 547.816C259.643 548.65 258.967 549.326 258.134 549.326H180.658C179.824 549.326 179.148 548.65 179.148 547.816Z" fill="black"/>
</g>
<path fill-rule="evenodd" clip-rule="evenodd" d="M106.094 95.2051C106.094 84.02 106.094 78.4274 108.339 74.1861C110.152 70.7633 112.951 67.9643 116.373 66.152C120.615 63.9064 126.207 63.9064 137.392 63.9064H106.094V95.2051ZM106.094 522.857V554.156H137.393C126.207 554.156 120.615 554.156 116.373 551.91C112.951 550.098 110.152 547.299 108.339 543.876C106.094 539.635 106.094 534.042 106.094 522.857ZM301.204 554.156H332.502V522.857C332.502 534.042 332.502 539.635 330.257 543.876C328.444 547.299 325.645 550.098 322.223 551.91C317.981 554.156 312.389 554.156 301.204 554.156ZM332.502 95.2051V63.9064H301.203C312.389 63.9064 317.981 63.9064 322.223 66.152C325.645 67.9643 328.444 70.7633 330.257 74.1861C332.502 78.4274 332.502 84.02 332.502 95.2051ZM286.013 63.9064H281.787H156.809H152.583C154.917 63.9064 156.809 65.1139 156.809 66.9252V63.9064C156.809 68.3996 156.809 70.6462 157.347 72.4786C158.621 76.8157 162.013 80.2075 166.35 81.481C168.182 82.019 170.429 82.019 174.922 82.019H263.674C268.167 82.019 270.414 82.019 272.246 81.481C276.583 80.2075 279.975 76.8157 281.249 72.4786C281.787 70.6462 281.787 68.3996 281.787 63.9064V66.9252C281.787 65.1139 283.679 63.9064 286.013 63.9064Z" fill="white"/>
<rect x="189.413" y="65.4245" width="42.4774" height="5.46138" rx="2.73069" fill="#F0F3F5"/>
<path d="M244.936 72.402C247.282 72.402 249.184 70.5002 249.184 68.1542C249.184 65.8083 247.282 63.9065 244.936 63.9065C242.59 63.9065 240.688 65.8083 240.688 68.1542C240.688 70.5002 242.59 72.402 244.936 72.402Z" fill="#F0F3F5"/>
<path d="M452.368 309.803C452.794 309.377 452.794 308.686 452.368 308.26L445.423 301.315C444.997 300.889 444.306 300.889 443.88 301.315C443.454 301.741 443.454 302.432 443.88 302.858L450.053 309.031L443.88 315.204C443.454 315.63 443.454 316.321 443.88 316.747C444.306 317.174 444.997 317.174 445.423 316.747L452.368 309.803ZM371.596 310.122L451.596 310.122L451.596 307.94L371.596 307.94L371.596 310.122Z" fill="#161225"/>
<g filter="url(#filter4_di)">
<rect x="475.596" y="48.8125" width="256.38" height="520" rx="30.1624" fill="white"/>
</g>
<rect width="226.218" height="489.838" transform="translate(490.677 63.8937)" fill="#938FA8"/>
<g clip-path="url(#clip7)">
<rect width="226.218" height="489.838" transform="translate(490.677 63.8937)" fill="white"/>
<g clip-path="url(#clip8)">
<g clip-path="url(#clip9)">
<mask id="mask1" mask-type="alpha" maskUnits="userSpaceOnUse" x="576" y="136" width="13" height="13">
<circle cx="582.675" cy="142.577" r="6.03248" fill="#FFF4EC"/>
</mask>
<g mask="url(#mask1)">
<circle cx="582.675" cy="142.577" r="6.03248" fill="white"/>
<path fill-rule="evenodd" clip-rule="evenodd" d="M580.207 139.372C579.904 139.372 579.659 139.618 579.659 139.92V144.859C579.659 145.162 579.904 145.407 580.207 145.407H581.989L582.481 145.896C582.532 145.948 582.602 145.977 582.675 145.977C582.748 145.977 582.818 145.948 582.869 145.896L583.36 145.405H585.143C585.446 145.405 585.691 145.159 585.691 144.857V139.918C585.69 139.616 585.445 139.372 585.143 139.372H580.207ZM581.46 141.019H583.892C584.015 141.018 584.117 141.112 584.127 141.235L584.322 143.587C584.328 143.652 584.305 143.717 584.26 143.765C584.216 143.814 584.153 143.841 584.087 143.841H581.265C581.199 143.841 581.136 143.814 581.092 143.765C581.047 143.717 581.024 143.652 581.03 143.587L581.225 141.235C581.235 141.112 581.337 141.018 581.46 141.019ZM581.735 141.724C581.735 141.594 581.841 141.489 581.97 141.489C582.1 141.489 582.206 141.594 582.206 141.724V141.959C582.206 142.219 582.416 142.43 582.676 142.43C582.936 142.43 583.146 142.219 583.146 141.959V141.724C583.146 141.594 583.252 141.489 583.382 141.489C583.511 141.489 583.617 141.594 583.617 141.724V141.959C583.617 142.479 583.196 142.9 582.676 142.9C582.156 142.9 581.735 142.479 581.735 141.959V141.724Z" fill="#6770E0"/>
</g>
<path d="M594.479 146.077V139.215H596.723C597.467 139.215 598.026 139.369 598.4 139.677C598.777 139.985 598.966 140.44 598.966 141.044C598.966 141.364 598.875 141.648 598.693 141.897C598.51 142.142 598.262 142.332 597.948 142.467C598.319 142.571 598.611 142.769 598.825 143.061C599.041 143.35 599.15 143.695 599.15 144.098C599.15 144.713 598.95 145.197 598.551 145.549C598.152 145.901 597.588 146.077 596.859 146.077H594.479ZM595.384 142.868V145.337H596.878C597.299 145.337 597.631 145.229 597.873 145.012C598.118 144.792 598.24 144.49 598.24 144.107C598.24 143.281 597.791 142.868 596.892 142.868H595.384ZM595.384 142.142H596.751C597.147 142.142 597.463 142.043 597.698 141.845C597.937 141.647 598.056 141.378 598.056 141.039C598.056 140.662 597.946 140.389 597.726 140.219C597.506 140.046 597.172 139.96 596.723 139.96H595.384V142.142ZM603.595 145.573C603.256 145.972 602.758 146.171 602.101 146.171C601.557 146.171 601.143 146.014 600.857 145.7C600.574 145.383 600.431 144.915 600.428 144.296V140.978H601.3V144.272C601.3 145.045 601.614 145.431 602.242 145.431C602.908 145.431 603.351 145.183 603.571 144.687V140.978H604.443V146.077H603.614L603.595 145.573ZM607.046 139.743V140.978H607.998V141.652H607.046V144.814C607.046 145.018 607.088 145.172 607.173 145.276C607.258 145.376 607.402 145.427 607.606 145.427C607.707 145.427 607.845 145.408 608.021 145.37V146.077C607.792 146.14 607.569 146.171 607.352 146.171C606.962 146.171 606.669 146.053 606.471 145.818C606.273 145.582 606.174 145.248 606.174 144.814V141.652H605.245V140.978H606.174V139.743H607.046ZM610.058 146.077H609.186V140.978H610.058V146.077ZM609.116 139.625C609.116 139.484 609.158 139.364 609.243 139.267C609.331 139.17 609.46 139.121 609.629 139.121C609.799 139.121 609.928 139.17 610.016 139.267C610.104 139.364 610.148 139.484 610.148 139.625C610.148 139.766 610.104 139.884 610.016 139.979C609.928 140.073 609.799 140.12 609.629 140.12C609.46 140.12 609.331 140.073 609.243 139.979C609.158 139.884 609.116 139.766 609.116 139.625ZM612.972 143.716L612.425 144.286V146.077H611.553V138.838H612.425V143.216L612.892 142.655L614.48 140.978H615.54L613.556 143.108L615.771 146.077H614.748L612.972 143.716ZM617.954 143.716L617.407 144.286V146.077H616.536V138.838H617.407V143.216L617.874 142.655L619.462 140.978H620.523L618.538 143.108L620.754 146.077H619.731L617.954 143.716ZM623.535 146.171C622.844 146.171 622.281 145.945 621.848 145.493C621.414 145.037 621.197 144.429 621.197 143.669V143.509C621.197 143.003 621.293 142.552 621.485 142.156C621.68 141.757 621.95 141.446 622.296 141.223C622.644 140.997 623.021 140.883 623.427 140.883C624.09 140.883 624.605 141.102 624.973 141.539C625.34 141.975 625.524 142.6 625.524 143.414V143.777H622.069C622.082 144.28 622.228 144.687 622.508 144.998C622.79 145.306 623.149 145.46 623.582 145.46C623.89 145.46 624.151 145.397 624.365 145.271C624.578 145.145 624.765 144.979 624.925 144.772L625.458 145.186C625.031 145.843 624.39 146.171 623.535 146.171ZM623.427 141.6C623.075 141.6 622.779 141.729 622.541 141.986C622.302 142.241 622.154 142.599 622.098 143.061H624.652V142.995C624.627 142.552 624.508 142.209 624.294 141.967C624.08 141.722 623.791 141.6 623.427 141.6ZM627.452 140.978L627.481 141.619C627.87 141.129 628.379 140.883 629.008 140.883C630.085 140.883 630.629 141.491 630.638 142.707V146.077H629.766V142.703C629.763 142.335 629.678 142.063 629.512 141.887C629.349 141.711 629.093 141.623 628.744 141.623C628.461 141.623 628.213 141.699 627.999 141.85C627.785 142 627.619 142.198 627.5 142.443V146.077H626.628V140.978H627.452Z" fill="#161225"/>
</g>
</g>
<path d="M562.194 161.174H562.903L563.233 159.546H564.285L564.417 158.849H563.369L563.65 157.484H564.668L564.8 156.791H563.794L564.111 155.224H563.406L563.085 156.791H561.839L562.153 155.224H561.452L561.126 156.791H560.132L559.992 157.484H560.986L560.713 158.849H559.753L559.617 159.546H560.569L560.243 161.174H560.944L561.274 159.546H562.524L562.194 161.174ZM561.386 158.882L561.674 157.455H562.973L562.681 158.882H561.386ZM565.501 156.948H566.375C566.375 156.288 566.817 155.842 567.489 155.842C568.149 155.842 568.54 156.284 568.54 156.861C568.54 157.343 568.342 157.64 567.588 158.428L565.551 160.548V161.174H569.559V160.387H566.813V160.317L568.124 158.997C569.167 157.95 569.468 157.459 569.468 156.77C569.468 155.793 568.664 155.08 567.547 155.08C566.347 155.08 565.501 155.855 565.501 156.948ZM572.087 158.482H572.829C573.604 158.482 574.083 158.878 574.083 159.513C574.083 160.131 573.571 160.544 572.841 160.544C572.12 160.544 571.621 160.168 571.567 159.583H570.681C570.73 160.63 571.596 161.319 572.854 161.319C574.095 161.319 575.031 160.576 575.031 159.562C575.031 158.746 574.52 158.218 573.728 158.098V158.028C574.351 157.855 574.8 157.381 574.804 156.663C574.809 155.818 574.112 155.08 572.883 155.08C571.629 155.08 570.854 155.801 570.792 156.811H571.666C571.72 156.189 572.153 155.838 572.829 155.838C573.497 155.838 573.893 156.255 573.893 156.779C573.893 157.352 573.448 157.756 572.804 157.756H572.087V158.482ZM578.936 161.174H579.827V159.991H580.648V159.207H579.827V155.224H578.512C577.691 156.457 576.817 157.863 576.033 159.207V159.991H578.936V161.174ZM576.92 159.166C577.53 158.123 578.256 156.964 578.895 156.003H578.949V159.224H576.92V159.166ZM583.11 161.174H584.033V155.224H583.114L581.547 156.337V157.244L583.04 156.176H583.11V161.174ZM585.716 156.948H586.59C586.59 156.288 587.031 155.842 587.704 155.842C588.363 155.842 588.755 156.284 588.755 156.861C588.755 157.343 588.557 157.64 587.803 158.428L585.765 160.548V161.174H589.774V160.387H587.027V160.317L588.339 158.997C589.382 157.95 589.683 157.459 589.683 156.77C589.683 155.793 588.879 155.08 587.761 155.08C586.561 155.08 585.716 155.855 585.716 156.948ZM596.017 159.187V158.366H593.312V159.187H596.017ZM602.178 161.174C603.448 161.174 604.211 160.539 604.211 159.492C604.211 158.713 603.675 158.143 602.871 158.057V157.987C603.456 157.888 603.914 157.331 603.914 156.708C603.914 155.793 603.242 155.224 602.124 155.224H599.733V161.174H602.178ZM600.656 155.978H601.91C602.594 155.978 602.994 156.304 602.994 156.869C602.994 157.451 602.57 157.756 601.753 157.756H600.656V155.978ZM600.656 160.42V158.461H601.939C602.809 158.461 603.267 158.791 603.267 159.434C603.267 160.078 602.825 160.42 601.992 160.42H600.656ZM609.081 156.696H608.195V159.323C608.195 160.045 607.803 160.482 607.085 160.482C606.434 160.482 606.141 160.127 606.141 159.385V156.696H605.254V159.603C605.254 160.655 605.807 161.261 606.801 161.261C607.481 161.261 607.939 160.972 608.157 160.465H608.228V161.174H609.081V156.696ZM610.681 155.566V156.708H609.968V157.418H610.681V159.995C610.681 160.857 611.073 161.203 612.059 161.203C612.232 161.203 612.397 161.183 612.541 161.158V160.453C612.417 160.465 612.339 160.473 612.203 160.473C611.762 160.473 611.568 160.263 611.568 159.781V157.418H612.541V156.708H611.568V155.566H610.681ZM614.042 155.896C614.351 155.896 614.603 155.644 614.603 155.339C614.603 155.03 614.351 154.778 614.042 154.778C613.733 154.778 613.481 155.03 613.481 155.339C613.481 155.644 613.733 155.896 614.042 155.896ZM613.601 161.174H614.483V156.696H613.601V161.174ZM616.784 158.585H616.714V154.939H615.828V161.174H616.714V159.546L617.106 159.17L618.648 161.174H619.737L617.766 158.614L619.613 156.696H618.566L616.784 158.585ZM621.551 158.585H621.481V154.939H620.595V161.174H621.481V159.546L621.873 159.17L623.415 161.174H624.504L622.533 158.614L624.38 156.696H623.333L621.551 158.585ZM628.034 159.974C627.869 160.337 627.502 160.535 626.966 160.535C626.257 160.535 625.799 160.024 625.77 159.212V159.17H628.941V158.865C628.941 157.463 628.187 156.609 626.937 156.609C625.671 156.609 624.867 157.521 624.867 158.943C624.867 160.374 625.655 161.261 626.941 161.261C627.968 161.261 628.694 160.766 628.888 159.974H628.034ZM626.933 157.331C627.589 157.331 628.018 157.805 628.038 158.531H625.77C625.82 157.809 626.277 157.331 626.933 157.331ZM630.005 161.174H630.892V158.548C630.892 157.826 631.308 157.381 631.964 157.381C632.62 157.381 632.933 157.743 632.933 158.486V161.174H633.82V158.275C633.82 157.207 633.267 156.609 632.265 156.609C631.589 156.609 631.143 156.91 630.925 157.405H630.859V156.696H630.005V161.174ZM641.333 161.174H642.315L640.166 155.224H639.172L637.024 161.174H637.972L638.521 159.566H640.789L641.333 161.174ZM639.622 156.275H639.692L640.554 158.824H638.756L639.622 156.275ZM643.073 159.587C643.139 160.642 644.026 161.319 645.346 161.319C646.756 161.319 647.638 160.609 647.638 159.484C647.638 158.593 647.135 158.102 645.915 157.809L645.259 157.649C644.484 157.459 644.17 157.211 644.17 156.779C644.17 156.222 644.657 155.863 645.387 155.863C646.08 155.863 646.558 156.209 646.645 156.774H647.544C647.49 155.781 646.607 155.08 645.399 155.08C644.1 155.08 643.234 155.781 643.234 156.828C643.234 157.694 643.725 158.205 644.801 158.465L645.568 158.651C646.356 158.84 646.702 159.129 646.702 159.595C646.702 160.139 646.158 160.531 645.416 160.531C644.62 160.531 644.067 160.164 643.989 159.587H643.073Z" fill="#706B8B"/>
<g clip-path="url(#clip10)">
<g clip-path="url(#clip11)">
<path d="M656.3 319.581C657.818 319.581 658.925 318.714 659.123 317.408V317.38H658.077L658.067 317.399C657.874 318.167 657.2 318.648 656.3 318.648C655.075 318.648 654.311 317.634 654.311 316.023V316.013C654.311 314.397 655.075 313.383 656.295 313.383C657.191 313.383 657.874 313.925 658.072 314.759V314.774H659.118L659.123 314.75C658.944 313.397 657.794 312.45 656.295 312.45C654.405 312.45 653.232 313.817 653.232 316.013V316.023C653.232 318.214 654.41 319.581 656.3 319.581ZM660.25 319.416H661.272V316.414C661.272 315.589 661.739 315.075 662.488 315.075C663.238 315.075 663.591 315.495 663.591 316.343V319.416H664.609V316.103C664.609 314.882 663.978 314.199 662.832 314.199C662.088 314.199 661.598 314.529 661.348 315.075H661.272V312.29H660.25V319.416ZM667.248 319.501C667.927 319.501 668.464 319.208 668.766 318.69H668.846V319.416H669.859V315.914C669.859 314.84 669.134 314.199 667.847 314.199C666.683 314.199 665.877 314.759 665.754 315.598L665.75 315.631H666.735L666.739 315.612C666.862 315.25 667.234 315.042 667.8 315.042C668.493 315.042 668.846 315.353 668.846 315.914V316.367L667.461 316.447C666.24 316.522 665.552 317.055 665.552 317.969V317.978C665.552 318.907 666.273 319.501 667.248 319.501ZM666.57 317.936V317.927C666.57 317.465 666.89 317.21 667.597 317.168L668.846 317.088V317.526C668.846 318.186 668.285 318.685 667.522 318.685C666.97 318.685 666.57 318.407 666.57 317.936ZM671.108 319.416H672.131V316.414C672.131 315.589 672.598 315.075 673.347 315.075C674.096 315.075 674.45 315.495 674.45 316.343V319.416H675.468V316.103C675.468 314.882 674.836 314.199 673.691 314.199C672.947 314.199 672.456 314.529 672.207 315.075H672.131V314.298H671.108V319.416ZM678.866 321.221C680.318 321.221 681.237 320.476 681.237 319.312V314.298H680.219V315.136H680.157C679.86 314.562 679.304 314.208 678.588 314.208C677.259 314.208 676.444 315.24 676.444 316.701V316.711C676.444 318.153 677.254 319.166 678.569 319.166C679.271 319.166 679.837 318.855 680.148 318.299H680.223V319.307C680.223 320.005 679.724 320.401 678.88 320.401C678.187 320.401 677.773 320.151 677.688 319.798L677.683 319.788H676.651L676.642 319.798C676.764 320.651 677.565 321.221 678.866 321.221ZM678.852 318.322C677.98 318.322 677.49 317.658 677.49 316.706V316.696C677.49 315.744 677.98 315.075 678.852 315.075C679.714 315.075 680.242 315.744 680.242 316.696V316.706C680.242 317.663 679.719 318.322 678.852 318.322ZM684.663 319.515C685.973 319.515 686.68 318.761 686.85 318.087L686.859 318.044L685.874 318.049L685.855 318.087C685.733 318.351 685.342 318.676 684.687 318.676C683.843 318.676 683.306 318.106 683.287 317.125H686.916V316.767C686.916 315.231 686.039 314.199 684.611 314.199C683.183 314.199 682.26 315.268 682.26 316.866V316.871C682.26 318.492 683.164 319.515 684.663 319.515ZM684.616 315.038C685.309 315.038 685.822 315.481 685.903 316.395H683.301C683.391 315.514 683.918 315.038 684.616 315.038Z" fill="#5E3DC2"/>
</g>
<g clip-path="url(#clip12)">
<g clip-path="url(#clip13)">
<path d="M544.183 319.25H545.022L547.529 312.449H546.638L544.64 318.152H544.564L542.566 312.449H541.675L544.183 319.25ZM548.528 319.25H549.376V312.449H548.528V319.25ZM553.147 319.41C554.664 319.41 555.659 318.618 555.659 317.346V317.341C555.659 316.361 555.098 315.791 553.679 315.475L552.925 315.305C552.002 315.103 551.629 314.735 551.629 314.193V314.188C551.629 313.477 552.284 313.076 553.133 313.071C554.019 313.067 554.584 313.51 554.679 314.108L554.688 314.169H555.536L555.532 314.103C555.461 313.09 554.514 312.289 553.156 312.289C551.752 312.289 550.767 313.085 550.762 314.212V314.217C550.762 315.202 551.351 315.828 552.713 316.13L553.467 316.295C554.401 316.502 554.792 316.889 554.792 317.454V317.459C554.792 318.152 554.118 318.628 553.194 318.628C552.214 318.628 551.507 318.199 551.446 317.52L551.441 317.468H550.593L550.597 317.52C550.696 318.628 551.658 319.41 553.147 319.41ZM556.338 319.25H557.228L557.912 317.303H560.617L561.3 319.25H562.191L559.684 312.449H558.845L556.338 319.25ZM559.227 313.547H559.302L560.367 316.582H558.162L559.227 313.547ZM565.613 319.25H570.015V318.486H566.791V318.411L568.337 316.813C569.567 315.546 569.902 314.98 569.902 314.202V314.193C569.902 313.095 568.992 312.289 567.805 312.289C566.504 312.289 565.571 313.156 565.566 314.363L565.575 314.367L566.386 314.372L566.391 314.363C566.391 313.561 566.933 313.029 567.748 313.029C568.549 313.029 569.035 313.566 569.035 314.283V314.292C569.035 314.886 568.78 315.239 567.913 316.177L565.613 318.665V319.25ZM574.209 319.25H575.039V317.841H576.005V317.082H575.039V312.449H573.809C572.857 313.868 571.815 315.527 570.896 317.068V317.841H574.209V319.25ZM571.764 317.087V317.03C572.503 315.781 573.394 314.377 574.158 313.236H574.214V317.087H571.764ZM578.692 319.25H579.54V312.449H578.696L576.887 313.75V314.645L578.616 313.392H578.692V319.25ZM581.312 319.25H585.714V318.486H582.49V318.411L584.036 316.813C585.266 315.546 585.601 314.98 585.601 314.202V314.193C585.601 313.095 584.691 312.289 583.504 312.289C582.203 312.289 581.27 313.156 581.265 314.363L581.274 314.367L582.085 314.372L582.09 314.363C582.09 313.561 582.632 313.029 583.447 313.029C584.248 313.029 584.734 313.566 584.734 314.283V314.292C584.734 314.886 584.479 315.239 583.612 316.177L581.312 318.665V319.25Z" fill="black"/>
</g>
<rect x="519.633" y="310.019" width="14.478" height="10.8585" rx="1.50812" fill="#1A1F71"/>
<path d="M525.133 313.412L523.514 317.273H522.459L521.662 314.192C521.614 314.002 521.572 313.933 521.425 313.852C521.185 313.722 520.788 313.6 520.439 313.524L520.463 313.412H522.162C522.379 313.412 522.574 313.556 522.623 313.805L523.044 316.04L524.083 313.412H525.133ZM529.27 316.013C529.274 314.994 527.861 314.937 527.87 314.482C527.873 314.344 528.005 314.196 528.294 314.159C528.437 314.14 528.832 314.126 529.279 314.331L529.454 313.512C529.214 313.425 528.904 313.341 528.52 313.341C527.533 313.341 526.838 313.866 526.832 314.618C526.826 315.174 527.328 315.484 527.706 315.669C528.095 315.858 528.226 315.98 528.225 316.149C528.222 316.407 527.914 316.522 527.627 316.527C527.124 316.534 526.833 316.391 526.601 316.283L526.42 317.129C526.654 317.236 527.085 317.329 527.53 317.333C528.58 317.333 529.267 316.815 529.27 316.013ZM531.877 317.273H532.801L531.994 313.412H531.143C530.951 313.412 530.789 313.523 530.717 313.695L529.218 317.273H530.267L530.476 316.697H531.757L531.877 317.273ZM530.762 315.905L531.288 314.456L531.591 315.905H530.762ZM526.56 313.412L525.734 317.273H524.735L525.561 313.412H526.56Z" fill="white"/>
</g>
</g>
<g filter="url(#filter5_dd)">
<path d="M519.313 202.641C519.313 195.884 519.313 192.505 520.628 189.924C521.784 187.654 523.63 185.809 525.9 184.652C528.481 183.337 531.86 183.337 538.617 183.337H668.315C675.072 183.337 678.45 183.337 681.031 184.652C683.301 185.809 685.147 187.654 686.304 189.924C687.619 192.505 687.619 195.884 687.619 202.641V259.467C687.619 266.224 687.619 269.602 686.304 272.183C685.147 274.453 683.301 276.299 681.031 277.456C678.45 278.771 675.072 278.771 668.315 278.771H538.617C531.86 278.771 528.481 278.771 525.9 277.456C523.63 276.299 521.784 274.453 520.628 272.183C519.313 269.602 519.313 266.224 519.313 259.467V202.641Z" fill="white"/>
<path d="M572.607 202.641C572.607 198.643 575.848 195.402 579.846 195.402H627.085C631.083 195.402 634.324 198.643 634.324 202.641V202.989C634.324 206.987 631.083 210.228 627.085 210.228H579.846C575.848 210.228 572.607 206.987 572.607 202.989V202.641Z" fill="#08913E" fill-opacity="0.12"/>
<g filter="url(#filter6_i)">
<path fill-rule="evenodd" clip-rule="evenodd" d="M582.259 206.864C579.927 206.864 578.036 204.973 578.036 202.641C578.036 200.309 579.927 198.418 582.259 198.418C584.591 198.418 586.482 200.309 586.482 202.641C586.482 204.973 584.591 206.864 582.259 206.864ZM582.259 205.959C584.092 205.959 585.577 204.473 585.577 202.641C585.577 200.808 584.092 199.323 582.259 199.323C580.427 199.323 578.941 200.808 578.941 202.641C578.941 204.473 580.427 205.959 582.259 205.959ZM584.389 201.114C584.212 200.938 583.926 200.938 583.749 201.114L581.656 203.207L580.769 202.321C580.593 202.144 580.306 202.144 580.13 202.321C579.953 202.498 579.953 202.784 580.13 202.961L581.336 204.167C581.513 204.344 581.799 204.344 581.976 204.167L584.389 201.754C584.566 201.578 584.566 201.291 584.389 201.114Z" fill="#006628"/>
</g>
<path d="M594.096 205.815H595.078L592.929 199.864H591.935L589.787 205.815H590.735L591.284 204.207H593.552L594.096 205.815ZM592.385 200.916H592.455L593.317 203.464H591.519L592.385 200.916ZM598.344 201.258C597.733 201.258 597.206 201.567 596.933 202.079H596.867V201.336H596.014V207.308H596.9V205.139H596.97C597.206 205.613 597.713 205.889 598.352 205.889C599.486 205.889 600.208 204.99 600.208 203.576C600.208 202.153 599.486 201.258 598.344 201.258ZM598.092 205.13C597.35 205.13 596.884 204.532 596.884 203.576C596.884 202.615 597.35 202.017 598.096 202.017C598.847 202.017 599.296 202.602 599.296 203.576C599.296 204.549 598.847 205.13 598.092 205.13ZM603.606 201.258C602.995 201.258 602.467 201.567 602.195 202.079H602.129V201.336H601.276V207.308H602.162V205.139H602.232C602.467 205.613 602.975 205.889 603.614 205.889C604.748 205.889 605.47 204.99 605.47 203.576C605.47 202.153 604.748 201.258 603.606 201.258ZM603.354 205.13C602.612 205.13 602.146 204.532 602.146 203.576C602.146 202.615 602.612 202.017 603.358 202.017C604.109 202.017 604.558 202.602 604.558 203.576C604.558 204.549 604.109 205.13 603.354 205.13ZM606.538 205.815H607.424V203.138C607.424 202.508 607.898 202.075 608.571 202.075C608.727 202.075 608.991 202.103 609.065 202.124V201.291C608.971 201.27 608.802 201.258 608.67 201.258C608.084 201.258 607.585 201.576 607.457 202.017H607.391V201.336H606.538V205.815ZM611.701 205.901C613.012 205.901 613.816 205.023 613.816 203.576C613.816 202.128 613.008 201.25 611.701 201.25C610.389 201.25 609.581 202.132 609.581 203.576C609.581 205.023 610.385 205.901 611.701 205.901ZM611.701 205.147C610.929 205.147 610.496 204.574 610.496 203.576C610.496 202.578 610.929 202 611.701 202C612.468 202 612.905 202.578 612.905 203.576C612.905 204.569 612.468 205.147 611.701 205.147ZM618.513 201.336H617.573L616.459 204.908H616.389L615.272 201.336H614.323L615.944 205.815H616.897L618.513 201.336ZM622.183 204.615C622.018 204.978 621.651 205.176 621.115 205.176C620.406 205.176 619.948 204.664 619.919 203.852V203.811H623.09V203.506C623.09 202.103 622.336 201.25 621.086 201.25C619.82 201.25 619.016 202.161 619.016 203.584C619.016 205.015 619.804 205.901 621.09 205.901C622.117 205.901 622.843 205.407 623.037 204.615H622.183ZM621.082 201.971C621.738 201.971 622.167 202.446 622.187 203.171H619.919C619.969 202.45 620.426 201.971 621.082 201.971ZM625.796 205.889C626.414 205.889 626.938 205.596 627.206 205.106H627.276V205.815H628.126V199.58H627.239V202.046H627.173C626.93 201.555 626.41 201.258 625.796 201.258C624.662 201.258 623.932 202.161 623.932 203.571C623.932 204.99 624.653 205.889 625.796 205.889ZM626.047 202.017C626.789 202.017 627.255 202.619 627.255 203.576C627.255 204.541 626.794 205.13 626.047 205.13C625.297 205.13 624.847 204.549 624.847 203.576C624.847 202.607 625.301 202.017 626.047 202.017Z" fill="#006628"/>
<path d="M575.143 240.467H578.053V237.203H580.351V234.694H578.053V223.465H573.765C571.455 226.976 569.04 230.888 566.837 234.717V237.203H575.143V240.467ZM569.653 234.587C571.314 231.701 573.282 228.555 575.025 225.892H575.19V234.764H569.653V234.587ZM588.711 240.879C593.035 240.879 595.604 237.498 595.604 231.76C595.604 226.128 592.87 223.041 588.805 223.041C585.106 223.041 582.49 225.527 582.49 229.003C582.49 232.266 584.846 234.646 588.087 234.646C590.078 234.646 591.692 233.727 592.493 232.113H592.693C592.658 236.107 591.232 238.393 588.746 238.393C587.285 238.393 586.119 237.592 585.754 236.296H582.726C583.221 239.065 585.601 240.879 588.711 240.879ZM588.817 232.302C586.838 232.302 585.471 230.911 585.471 228.908C585.471 226.988 586.908 225.515 588.829 225.515C590.749 225.515 592.187 227.012 592.187 228.967C592.187 230.9 590.785 232.302 588.817 232.302ZM604.482 240.891C608.406 240.891 611.092 238.864 611.092 235.907C611.092 233.716 609.631 231.995 607.416 231.583V231.383C609.242 230.923 610.397 229.474 610.397 227.636C610.397 224.961 607.946 223.041 604.494 223.041C601.042 223.041 598.579 224.961 598.579 227.636C598.579 229.462 599.758 230.935 601.572 231.383V231.583C599.345 232.043 597.896 233.763 597.896 235.919C597.896 238.864 600.582 240.891 604.482 240.891ZM604.494 230.487C602.762 230.487 601.572 229.45 601.572 227.919C601.572 226.387 602.75 225.327 604.494 225.327C606.226 225.327 607.404 226.387 607.404 227.919C607.404 229.439 606.214 230.487 604.494 230.487ZM604.494 238.57C602.444 238.57 601.03 237.38 601.03 235.671C601.03 233.951 602.444 232.761 604.494 232.761C606.532 232.761 607.946 233.951 607.946 235.671C607.946 237.38 606.544 238.57 604.494 238.57Z" fill="black"/>
<path d="M623.254 232.867H623.054V222.605H620.132V240.467H623.054V235.942L624.09 234.906L628.226 240.467H631.761L626.27 233.115L631.407 227.589H628.014L623.254 232.867ZM633.287 240.467H636.209V232.985C636.209 231.171 637.529 229.992 639.426 229.992C639.92 229.992 640.698 230.075 640.922 230.157V227.495C640.651 227.424 640.133 227.377 639.708 227.377C638.047 227.377 636.657 228.319 636.303 229.592H636.103V227.589H633.287V240.467Z" fill="black"/>
<path d="M558.216 256.905V263.706H559.271V261.382H560.845C562.179 261.382 563.122 260.468 563.122 259.158C563.122 257.819 562.208 256.905 560.878 256.905H558.216ZM559.271 257.796H560.6C561.529 257.796 562.043 258.277 562.043 259.158C562.043 260.011 561.51 260.496 560.6 260.496H559.271V257.796ZM565.403 263.791C566.077 263.791 566.638 263.498 566.944 262.98H567.024V263.706H568V260.204C568 259.13 567.274 258.489 565.987 258.489C564.823 258.489 563.994 259.049 563.89 259.912H564.87C564.984 259.54 565.375 259.328 565.94 259.328C566.633 259.328 566.991 259.643 566.991 260.204V260.652L565.601 260.737C564.38 260.812 563.692 261.345 563.692 262.264C563.692 263.197 564.413 263.791 565.403 263.791ZM565.662 262.975C565.111 262.975 564.71 262.697 564.71 262.221C564.71 261.755 565.031 261.505 565.738 261.458L566.991 261.373V261.816C566.991 262.476 566.426 262.975 565.662 262.975ZM569.588 265.563C570.635 265.563 571.12 265.171 571.558 263.941L573.472 258.588H572.397L571.115 262.688H571.035L569.748 258.588H568.646L570.503 263.72L570.427 263.984C570.253 264.526 569.979 264.728 569.499 264.728C569.404 264.728 569.249 264.724 569.169 264.71V265.539C569.263 265.553 569.503 265.563 569.588 265.563ZM574.315 263.706H575.329V260.562C575.329 259.893 575.795 259.37 576.413 259.37C577.016 259.37 577.402 259.733 577.402 260.317V263.706H578.397V260.468C578.397 259.851 578.826 259.37 579.481 259.37C580.145 259.37 580.475 259.714 580.475 260.421V263.706H581.488V260.176C581.488 259.111 580.885 258.489 579.848 258.489C579.137 258.489 578.548 258.852 578.288 259.403H578.208C577.982 258.852 577.497 258.489 576.794 258.489C576.111 258.489 575.593 258.828 575.366 259.403H575.291V258.588H574.315V263.706ZM586.084 262.334C585.895 262.749 585.476 262.975 584.863 262.975C584.052 262.975 583.529 262.391 583.496 261.462V261.415H587.121V261.067C587.121 259.464 586.258 258.489 584.83 258.489C583.383 258.489 582.464 259.53 582.464 261.156C582.464 262.791 583.364 263.805 584.835 263.805C586.008 263.805 586.838 263.239 587.059 262.334H586.084ZM584.825 259.313C585.575 259.313 586.065 259.855 586.088 260.685H583.496C583.553 259.86 584.076 259.313 584.825 259.313ZM588.143 263.706H589.157V260.704C589.157 259.879 589.633 259.37 590.382 259.37C591.131 259.37 591.49 259.785 591.49 260.633V263.706H592.503V260.393C592.503 259.172 591.871 258.489 590.726 258.489C589.953 258.489 589.444 258.833 589.194 259.398H589.119V258.588H588.143V263.706ZM594.096 257.296V258.602H593.281V259.412H594.096V262.358C594.096 263.343 594.544 263.739 595.67 263.739C595.868 263.739 596.057 263.715 596.221 263.687V262.881C596.08 262.895 595.991 262.905 595.835 262.905C595.331 262.905 595.109 262.664 595.109 262.113V259.412H596.221V258.602H595.109V257.296H594.096ZM600.025 257.296V258.602H599.21V259.412H600.025V262.358C600.025 263.343 600.473 263.739 601.599 263.739C601.797 263.739 601.986 263.715 602.151 263.687V262.881C602.009 262.895 601.92 262.905 601.764 262.905C601.26 262.905 601.038 262.664 601.038 262.113V259.412H602.151V258.602H601.038V257.296H600.025ZM605.261 263.805C606.76 263.805 607.679 262.801 607.679 261.147C607.679 259.492 606.755 258.489 605.261 258.489C603.763 258.489 602.839 259.497 602.839 261.147C602.839 262.801 603.758 263.805 605.261 263.805ZM605.261 262.942C604.38 262.942 603.885 262.287 603.885 261.147C603.885 260.006 604.38 259.346 605.261 259.346C606.138 259.346 606.637 260.006 606.637 261.147C606.637 262.282 606.138 262.942 605.261 262.942ZM614.065 263.706C615.517 263.706 616.389 262.98 616.389 261.783C616.389 260.892 615.776 260.242 614.857 260.143V260.063C615.526 259.95 616.049 259.313 616.049 258.602C616.049 257.555 615.281 256.905 614.004 256.905H611.271V263.706H614.065ZM612.326 257.768H613.759C614.541 257.768 614.999 258.14 614.999 258.786C614.999 259.45 614.513 259.799 613.58 259.799H612.326V257.768ZM612.326 262.843V260.605H613.792C614.786 260.605 615.31 260.982 615.31 261.717C615.31 262.452 614.805 262.843 613.853 262.843H612.326ZM621.762 258.588H620.748V261.59C620.748 262.414 620.301 262.914 619.481 262.914C618.736 262.914 618.401 262.509 618.401 261.66V258.588H617.388V261.91C617.388 263.112 618.02 263.805 619.155 263.805C619.933 263.805 620.456 263.475 620.706 262.895H620.786V263.706H621.762V258.588ZM623.397 257.296V258.602H622.582V259.412H623.397V262.358C623.397 263.343 623.845 263.739 624.971 263.739C625.169 263.739 625.358 263.715 625.523 263.687V262.881C625.381 262.895 625.292 262.905 625.136 262.905C624.632 262.905 624.411 262.664 624.411 262.113V259.412H625.523V258.602H624.411V257.296H623.397ZM627.045 257.673C627.399 257.673 627.686 257.386 627.686 257.037C627.686 256.684 627.399 256.396 627.045 256.396C626.692 256.396 626.404 256.684 626.404 257.037C626.404 257.386 626.692 257.673 627.045 257.673ZM626.541 263.706H627.549V258.588H626.541V263.706ZM629.986 260.746H629.906V256.58H628.893V263.706H629.906V261.844L630.354 261.415L632.116 263.706H633.361L631.108 260.779L633.219 258.588H632.022L629.986 260.746ZM635.241 260.746H635.161V256.58H634.148V263.706H635.161V261.844L635.609 261.415L637.371 263.706H638.616L636.363 260.779L638.474 258.588H637.277L635.241 260.746ZM642.457 262.334C642.268 262.749 641.849 262.975 641.236 262.975C640.426 262.975 639.902 262.391 639.87 261.462V261.415H643.494V261.067C643.494 259.464 642.631 258.489 641.203 258.489C639.756 258.489 638.837 259.53 638.837 261.156C638.837 262.791 639.738 263.805 641.208 263.805C642.381 263.805 643.211 263.239 643.432 262.334H642.457ZM641.199 259.313C641.948 259.313 642.438 259.855 642.462 260.685H639.87C639.926 259.86 640.449 259.313 641.199 259.313ZM644.517 263.706H645.53V260.704C645.53 259.879 646.006 259.37 646.755 259.37C647.505 259.37 647.863 259.785 647.863 260.633V263.706H648.876V260.393C648.876 259.172 648.244 258.489 647.099 258.489C646.326 258.489 645.817 258.833 645.568 259.398H645.492V258.588H644.517V263.706Z" fill="black"/>
</g>
<rect width="226.218" height="66.3573" transform="translate(490.677 63.8937)" fill="black"/>
<path d="M500.329 96.4691C500.329 96.4691 500.329 96.4691 500.329 96.4691C500.329 93.1374 503.03 90.4366 506.362 90.4366C506.362 90.4366 506.362 90.4366 506.362 90.4366H700.993C700.993 90.4366 700.993 90.4366 700.993 90.4366C704.324 90.4366 707.025 93.1374 707.025 96.4691C707.025 96.4691 707.025 96.4691 707.025 96.4691H500.329Z" fill="#A6A6A6"/>
<path d="M491 105.652C491 102.273 491 100.584 491.658 99.2938C492.236 98.1587 493.159 97.2359 494.294 96.6575C495.584 96 497.273 96 500.652 96H707.348C710.727 96 712.416 96 713.706 96.6575C714.841 97.2359 715.764 98.1587 716.342 99.2938C717 100.584 717 102.273 717 105.652V131H491V105.652Z" fill="white"/>
<rect width="226" height="26.5429" transform="translate(490.677 101.295)" fill="white"/>
<path d="M684.33 116.498C685.867 116.498 687.009 115.642 687.249 114.315H686.333C686.103 115.151 685.337 115.667 684.33 115.667C682.938 115.667 682.067 114.53 682.067 112.717C682.067 110.904 682.938 109.763 684.325 109.763C685.322 109.763 686.093 110.349 686.333 111.28H687.249C687.034 109.888 685.847 108.932 684.325 108.932C682.362 108.932 681.14 110.384 681.14 112.717C681.14 115.046 682.367 116.498 684.33 116.498ZM688.496 116.328H689.358V108.786H688.496V116.328ZM693.043 116.423C694.581 116.423 695.532 115.361 695.532 113.629C695.532 111.891 694.581 110.834 693.043 110.834C691.506 110.834 690.555 111.891 690.555 113.629C690.555 115.361 691.506 116.423 693.043 116.423ZM693.043 115.647C692.022 115.647 691.446 114.905 691.446 113.629C691.446 112.347 692.022 111.611 693.043 111.611C694.065 111.611 694.641 112.347 694.641 113.629C694.641 114.905 694.065 115.647 693.043 115.647ZM696.554 112.407C696.554 113.188 697.014 113.624 698.026 113.869L698.952 114.094C699.528 114.234 699.809 114.485 699.809 114.855C699.809 115.351 699.288 115.697 698.562 115.697C697.871 115.697 697.44 115.406 697.295 114.951H696.409C696.504 115.847 697.33 116.423 698.532 116.423C699.759 116.423 700.695 115.757 700.695 114.79C700.695 114.014 700.204 113.573 699.188 113.328L698.356 113.128C697.721 112.973 697.42 112.742 697.42 112.372C697.42 111.891 697.921 111.565 698.562 111.565C699.213 111.565 699.633 111.851 699.749 112.282H700.6C700.485 111.395 699.698 110.834 698.567 110.834C697.42 110.834 696.554 111.51 696.554 112.407ZM705.417 114.93C705.192 115.406 704.721 115.662 704.025 115.662C703.109 115.662 702.513 114.986 702.468 113.919V113.879H706.349V113.548C706.349 111.871 705.462 110.834 704.005 110.834C702.523 110.834 701.571 111.936 701.571 113.634C701.571 115.341 702.508 116.423 704.005 116.423C705.187 116.423 706.028 115.852 706.278 114.93H705.417ZM703.995 111.596C704.851 111.596 705.422 112.226 705.442 113.183H702.468C702.533 112.226 703.134 111.596 703.995 111.596Z" fill="#5E3DC2"/>
<path d="M589.975 110.102V117.328H591.097V114.859H592.769C594.186 114.859 595.188 113.887 595.188 112.495C595.188 111.073 594.217 110.102 592.804 110.102H589.975ZM591.097 111.048H592.509C593.495 111.048 594.041 111.559 594.041 112.495C594.041 113.402 593.475 113.917 592.509 113.917H591.097V111.048ZM597.612 117.418C598.328 117.418 598.924 117.107 599.249 116.556H599.334V117.328H600.371V113.607C600.371 112.465 599.6 111.784 598.233 111.784C596.996 111.784 596.115 112.38 596.004 113.297H597.046C597.166 112.901 597.582 112.676 598.183 112.676C598.919 112.676 599.299 113.011 599.299 113.607V114.083L597.822 114.173C596.525 114.253 595.794 114.819 595.794 115.795C595.794 116.787 596.56 117.418 597.612 117.418ZM597.887 116.551C597.301 116.551 596.876 116.256 596.876 115.75C596.876 115.254 597.216 114.989 597.967 114.939L599.299 114.849V115.32C599.299 116.021 598.698 116.551 597.887 116.551ZM602.059 119.3C603.17 119.3 603.686 118.885 604.152 117.578L606.185 111.889H605.043L603.681 116.246H603.596L602.229 111.889H601.057L603.03 117.343L602.95 117.623C602.765 118.199 602.474 118.414 601.963 118.414C601.863 118.414 601.698 118.409 601.613 118.394V119.275C601.713 119.29 601.968 119.3 602.059 119.3ZM610.061 110.517V111.904H609.195V112.766H610.061V115.895C610.061 116.942 610.537 117.363 611.733 117.363C611.944 117.363 612.144 117.338 612.319 117.308V116.451C612.169 116.466 612.074 116.476 611.909 116.476C611.373 116.476 611.137 116.221 611.137 115.635V112.766H612.319V111.904H611.137V110.517H610.061ZM615.624 117.433C617.217 117.433 618.193 116.366 618.193 114.609C618.193 112.851 617.212 111.784 615.624 111.784C614.032 111.784 613.05 112.856 613.05 114.609C613.05 116.366 614.027 117.433 615.624 117.433ZM615.624 116.516C614.688 116.516 614.162 115.82 614.162 114.609C614.162 113.397 614.688 112.696 615.624 112.696C616.556 112.696 617.086 113.397 617.086 114.609C617.086 115.815 616.556 116.516 615.624 116.516Z" fill="black"/>
<rect width="226" height="26.5429" transform="translate(490.677 63.8937)" fill="black"/>
<path opacity="0.35" d="M693.452 75.9587C693.452 75.2368 694.037 74.6516 694.759 74.6516H704.813C705.535 74.6516 706.12 75.2368 706.12 75.9587V79.5782C706.12 80.3 705.535 80.8852 704.813 80.8852H694.759C694.037 80.8852 693.452 80.3 693.452 79.5782V75.9587Z" stroke="white" stroke-width="0.603248"/>
<path opacity="0.4" d="M707.025 76.5619V78.9749C707.511 78.7705 707.826 78.2951 707.826 77.7684C707.826 77.2417 707.511 76.7663 707.025 76.5619Z" fill="white"/>
<path d="M694.357 76.3608C694.357 75.9166 694.717 75.5565 695.161 75.5565H704.411C704.855 75.5565 705.216 75.9166 705.216 76.3608V79.176C705.216 79.6202 704.855 79.9803 704.411 79.9803H695.161C694.717 79.9803 694.357 79.6202 694.357 79.176V76.3608Z" fill="white"/>
<path fill-rule="evenodd" clip-rule="evenodd" d="M685.508 75.7222C686.844 75.7222 688.13 76.2359 689.099 77.1569C689.172 77.228 689.288 77.2271 689.36 77.1549L690.058 76.4511C690.094 76.4145 690.114 76.3649 690.114 76.3132C690.114 76.2616 690.093 76.2122 690.056 76.176C687.513 73.7392 683.502 73.7392 680.959 76.176C680.922 76.2122 680.901 76.2616 680.901 76.3132C680.901 76.3648 680.921 76.4144 680.957 76.4511L681.655 77.1549C681.727 77.2272 681.843 77.2281 681.916 77.1569C682.885 76.2358 684.171 75.7222 685.508 75.7222ZM685.508 78.0119C686.242 78.0119 686.95 78.2849 687.495 78.7778C687.568 78.8478 687.684 78.8463 687.756 78.7744L688.453 78.0706C688.489 78.0337 688.51 77.9836 688.509 77.9316C688.509 77.8796 688.487 77.8299 688.45 77.7937C686.792 76.2516 684.225 76.2516 682.567 77.7937C682.529 77.8299 682.508 77.8796 682.507 77.9316C682.507 77.9837 682.527 78.0338 682.564 78.0706L683.261 78.7744C683.332 78.8463 683.448 78.8478 683.522 78.7778C684.066 78.2852 684.774 78.0122 685.508 78.0119ZM686.903 79.5525C686.904 79.6047 686.884 79.655 686.846 79.6916L685.641 80.9075C685.606 80.9432 685.558 80.9633 685.508 80.9633C685.457 80.9633 685.409 80.9432 685.374 80.9075L684.169 79.6916C684.132 79.655 684.111 79.6046 684.112 79.5524C684.113 79.5003 684.136 79.4508 684.175 79.4159C684.944 78.765 686.071 78.765 686.841 79.4159C686.879 79.4509 686.902 79.5003 686.903 79.5525Z" fill="white"/>
<path fill-rule="evenodd" clip-rule="evenodd" d="M677.265 74.5511H676.662C676.329 74.5511 676.059 74.8211 676.059 75.1543V80.3825C676.059 80.7156 676.329 80.9857 676.662 80.9857H677.265C677.598 80.9857 677.868 80.7156 677.868 80.3825V75.1543C677.868 74.8211 677.598 74.5511 677.265 74.5511ZM673.847 75.9586H674.45C674.783 75.9586 675.053 76.2287 675.053 76.5619V80.3825C675.053 80.7156 674.783 80.9857 674.45 80.9857H673.847C673.513 80.9857 673.243 80.7156 673.243 80.3825V76.5619C673.243 76.2287 673.513 75.9586 673.847 75.9586ZM671.635 77.3662H671.031C670.698 77.3662 670.428 77.6363 670.428 77.9695V80.3824C670.428 80.7156 670.698 80.9857 671.031 80.9857H671.635C671.968 80.9857 672.238 80.7156 672.238 80.3824V77.9695C672.238 77.6363 671.968 77.3662 671.635 77.3662ZM668.82 78.5727H668.216C667.883 78.5727 667.613 78.8428 667.613 79.176V80.3824C667.613 80.7156 667.883 80.9857 668.216 80.9857H668.82C669.153 80.9857 669.423 80.7156 669.423 80.3824V79.176C669.423 78.8428 669.153 78.5727 668.82 78.5727Z" fill="white"/>
<path d="M509.171 80.7359H510.311V74.3603H509.176L507.51 75.5311V76.6048L509.096 75.4825H509.171V80.7359ZM513.445 77.8905H514.244C515.031 77.8905 515.508 78.2837 515.508 78.9244C515.508 79.543 514.991 79.9583 514.258 79.9583C513.52 79.9583 513.021 79.5783 512.972 78.9862H511.881C511.934 80.1394 512.884 80.895 514.271 80.895C515.649 80.895 516.675 80.0997 516.675 79.0039C516.675 78.1335 516.131 77.5724 515.265 77.4398V77.3647C515.941 77.1836 516.423 76.6755 516.427 75.9067C516.432 74.9921 515.667 74.2012 514.311 74.2012C512.928 74.2012 512.062 74.9832 512.004 76.1011H513.074C513.122 75.4648 513.555 75.1114 514.249 75.1114C514.925 75.1114 515.327 75.5267 515.327 76.0525C515.327 76.6313 514.876 77.0378 514.222 77.0378H513.445V77.8905ZM518.575 76.6092C518.995 76.6092 519.282 76.3176 519.282 75.9243C519.282 75.5311 518.995 75.2395 518.575 75.2395C518.16 75.2395 517.869 75.5311 517.869 75.9243C517.869 76.3176 518.16 76.6092 518.575 76.6092ZM518.575 79.8522C518.995 79.8522 519.282 79.5562 519.282 79.1674C519.282 78.7742 518.995 78.4826 518.575 78.4826C518.16 78.4826 517.869 78.7742 517.869 79.1674C517.869 79.5562 518.16 79.8522 518.575 79.8522ZM522.124 80.7359H523.264V74.3603H522.129L520.463 75.5311V76.6048L522.049 75.4825H522.124V80.7359ZM524.869 76.2469H525.938C525.938 75.5753 526.38 75.1158 527.074 75.1158C527.741 75.1158 528.139 75.562 528.139 76.1408C528.139 76.6269 527.944 76.9317 527.14 77.7447L524.931 79.9671V80.7359H529.358V79.7904H526.477V79.7153L527.847 78.3677C528.943 77.294 529.265 76.7771 529.265 76.0348C529.265 74.9744 528.404 74.2012 527.136 74.2012C525.806 74.2012 524.869 75.0407 524.869 76.2469Z" fill="white"/>
<path fill-rule="evenodd" clip-rule="evenodd" d="M563.67 547.397C563.67 546.564 564.346 545.889 565.178 545.889H642.779C643.612 545.889 644.288 546.564 644.288 547.397C644.288 548.23 643.612 548.905 642.779 548.905H565.178C564.346 548.905 563.67 548.23 563.67 547.397Z" fill="black"/>
</g>
<path fill-rule="evenodd" clip-rule="evenodd" d="M490.677 95.1661C490.677 83.9904 490.677 78.4025 492.921 74.1647C494.732 70.7449 497.528 67.9482 500.948 66.1375C505.186 63.8937 510.774 63.8937 521.95 63.8937H490.677V95.1661ZM490.677 522.459V553.731H521.95C510.774 553.731 505.186 553.731 500.948 551.487C497.528 549.677 494.732 546.88 492.921 543.46C490.677 539.222 490.677 533.635 490.677 522.459ZM685.623 553.731H716.895V522.459C716.895 533.635 716.895 539.222 714.652 543.46C712.841 546.88 710.044 549.677 706.624 551.487C702.387 553.731 696.799 553.731 685.623 553.731ZM716.895 95.1661V63.8937H685.623C696.799 63.8937 702.387 63.8937 706.624 66.1375C710.044 67.9482 712.841 70.7449 714.652 74.1647C716.895 78.4025 716.895 83.9904 716.895 95.1661ZM670.445 63.8937H541.35H537.127C539.46 63.8937 541.35 65.1002 541.35 66.9099V63.8937C541.35 68.3831 541.35 70.6278 541.888 72.4587C543.16 76.7922 546.549 80.1811 550.883 81.4535C552.713 81.9911 554.958 81.9911 559.448 81.9911H648.125C652.614 81.9911 654.859 81.9911 656.69 81.4535C661.024 80.1811 664.413 76.7922 665.685 72.4587C666.206 70.6837 666.222 68.5197 666.223 64.2983V66.9099C666.223 65.1002 668.113 63.8937 670.445 63.8937Z" fill="white"/>
<rect x="573.925" y="65.4095" width="42.4417" height="5.45679" rx="2.7284" fill="#F0F3F5"/>
<path d="M629.403 72.382C631.747 72.382 633.647 70.4818 633.647 68.1378C633.647 65.7939 631.747 63.8937 629.403 63.8937C627.059 63.8937 625.158 65.7939 625.158 68.1378C625.158 70.4818 627.059 72.382 629.403 72.382Z" fill="#F0F3F5"/>
<g filter="url(#filter7_d)">
<rect x="589.132" y="497.151" width="28.9559" height="28.9559" rx="14.478" fill="#FF5B24"/>
</g>
<path d="M608.01 508.186C608.245 507.951 608.627 507.951 608.863 508.186C609.098 508.422 609.098 508.804 608.863 509.04L602.83 515.072C602.595 515.308 602.213 515.308 601.977 515.072L598.982 512.077C598.746 511.841 598.746 511.459 598.982 511.224C599.217 510.988 599.599 510.988 599.835 511.224L602.404 513.792L608.01 508.186Z" fill="white"/>
<defs>
<filter id="filter0_di" x="88.585" y="42.8108" width="265.013" height="530.062" filterUnits="userSpaceOnUse" color-interpolation-filters="sRGB">
<feFlood flood-opacity="0" result="BackgroundImageFix"/>
<feColorMatrix in="SourceAlpha" type="matrix" values="0 0 0 0 0 0 0 0 0 0 0 0 0 0 0 0 0 0 127 0"/>
<feOffset dy="1.20751"/>
<feGaussianBlur stdDeviation="1.20751"/>
<feColorMatrix type="matrix" values="0 0 0 0 0 0 0 0 0 0 0 0 0 0 0 0 0 0 0.25 0"/>
<feBlend mode="normal" in2="BackgroundImageFix" result="effect1_dropShadow"/>
<feBlend mode="normal" in="SourceGraphic" in2="effect1_dropShadow" result="shape"/>
<feColorMatrix in="SourceAlpha" type="matrix" values="0 0 0 0 0 0 0 0 0 0 0 0 0 0 0 0 0 0 127 0" result="hardAlpha"/>
<feOffset dx="10.2886" dy="-8.85961"/>
<feGaussianBlur stdDeviation="3.00084"/>
<feComposite in2="hardAlpha" operator="arithmetic" k2="-1" k3="1"/>
<feColorMatrix type="matrix" values="0 0 0 0 1 0 0 0 0 1 0 0 0 0 1 0 0 0 0.05 0"/>
<feBlend mode="normal" in2="shape" result="effect2_innerShadow"/>
</filter>
<filter id="filter1_dd" x="131.074" y="180.451" width="176.448" height="103.47" filterUnits="userSpaceOnUse" color-interpolation-filters="sRGB">
<feFlood flood-opacity="0" result="BackgroundImageFix"/>
<feColorMatrix in="SourceAlpha" type="matrix" values="0 0 0 0 0 0 0 0 0 0 0 0 0 0 0 0 0 0 127 0"/>
<feOffset dy="1"/>
<feGaussianBlur stdDeviation="2"/>
<feColorMatrix type="matrix" values="0 0 0 0 0.0862745 0 0 0 0 0.0705882 0 0 0 0 0.145098 0 0 0 0.17 0"/>
<feBlend mode="normal" in2="BackgroundImageFix" result="effect1_dropShadow"/>
<feColorMatrix in="SourceAlpha" type="matrix" values="0 0 0 0 0 0 0 0 0 0 0 0 0 0 0 0 0 0 127 0"/>
<feOffset dy="1"/>
<feGaussianBlur stdDeviation="0.5"/>
<feColorMatrix type="matrix" values="0 0 0 0 0.0862745 0 0 0 0 0.0705882 0 0 0 0 0.145098 0 0 0 0.0498188 0"/>
<feBlend mode="normal" in2="effect1_dropShadow" result="effect2_dropShadow"/>
<feBlend mode="normal" in="SourceGraphic" in2="effect2_dropShadow" result="shape"/>
</filter>
<filter id="filter2_i" x="193.76" y="197.941" width="9.66009" height="9.66009" filterUnits="userSpaceOnUse" color-interpolation-filters="sRGB">
<feFlood flood-opacity="0" result="BackgroundImageFix"/>
<feBlend mode="normal" in="SourceGraphic" in2="BackgroundImageFix" result="shape"/>
<feColorMatrix in="SourceAlpha" type="matrix" values="0 0 0 0 0 0 0 0 0 0 0 0 0 0 0 0 0 0 127 0" result="hardAlpha"/>
<feOffset dy="24"/>
<feComposite in2="hardAlpha" operator="arithmetic" k2="-1" k3="1"/>
<feColorMatrix type="matrix" values="0 0 0 0 1 0 0 0 0 1 0 0 0 0 1 0 0 0 1 0"/>
<feBlend mode="normal" in2="shape" result="effect1_innerShadow"/>
</filter>
<filter id="filter3_d" x="156.621" y="497.027" width="124.343" height="32.9803" filterUnits="userSpaceOnUse" color-interpolation-filters="sRGB">
<feFlood flood-opacity="0" result="BackgroundImageFix"/>
<feColorMatrix in="SourceAlpha" type="matrix" values="0 0 0 0 0 0 0 0 0 0 0 0 0 0 0 0 0 0 127 0"/>
<feOffset dy="1"/>
<feGaussianBlur stdDeviation="1"/>
<feColorMatrix type="matrix" values="0 0 0 0 0.0862745 0 0 0 0 0.0705882 0 0 0 0 0.145098 0 0 0 0.07 0"/>
<feBlend mode="normal" in2="BackgroundImageFix" result="effect1_dropShadow"/>
<feBlend mode="normal" in="SourceGraphic" in2="effect1_dropShadow" result="shape"/>
</filter>
<filter id="filter4_di" x="473.183" y="42.8159" width="264.79" height="529.616" filterUnits="userSpaceOnUse" color-interpolation-filters="sRGB">
<feFlood flood-opacity="0" result="BackgroundImageFix"/>
<feColorMatrix in="SourceAlpha" type="matrix" values="0 0 0 0 0 0 0 0 0 0 0 0 0 0 0 0 0 0 127 0"/>
<feOffset dy="1.2065"/>
<feGaussianBlur stdDeviation="1.2065"/>
<feColorMatrix type="matrix" values="0 0 0 0 0 0 0 0 0 0 0 0 0 0 0 0 0 0 0.25 0"/>
<feBlend mode="normal" in2="BackgroundImageFix" result="effect1_dropShadow"/>
<feBlend mode="normal" in="SourceGraphic" in2="effect1_dropShadow" result="shape"/>
<feColorMatrix in="SourceAlpha" type="matrix" values="0 0 0 0 0 0 0 0 0 0 0 0 0 0 0 0 0 0 127 0" result="hardAlpha"/>
<feOffset dx="10.2799" dy="-8.85216"/>
<feGaussianBlur stdDeviation="2.99831"/>
<feComposite in2="hardAlpha" operator="arithmetic" k2="-1" k3="1"/>
<feColorMatrix type="matrix" values="0 0 0 0 1 0 0 0 0 1 0 0 0 0 1 0 0 0 0.05 0"/>
<feBlend mode="normal" in2="shape" result="effect2_innerShadow"/>
</filter>
<filter id="filter5_dd" x="515.313" y="180.337" width="176.306" height="103.434" filterUnits="userSpaceOnUse" color-interpolation-filters="sRGB">
<feFlood flood-opacity="0" result="BackgroundImageFix"/>
<feColorMatrix in="SourceAlpha" type="matrix" values="0 0 0 0 0 0 0 0 0 0 0 0 0 0 0 0 0 0 127 0"/>
<feOffset dy="1"/>
<feGaussianBlur stdDeviation="2"/>
<feColorMatrix type="matrix" values="0 0 0 0 0.0862745 0 0 0 0 0.0705882 0 0 0 0 0.145098 0 0 0 0.17 0"/>
<feBlend mode="normal" in2="BackgroundImageFix" result="effect1_dropShadow"/>
<feColorMatrix in="SourceAlpha" type="matrix" values="0 0 0 0 0 0 0 0 0 0 0 0 0 0 0 0 0 0 127 0"/>
<feOffset dy="1"/>
<feGaussianBlur stdDeviation="0.5"/>
<feColorMatrix type="matrix" values="0 0 0 0 0.0862745 0 0 0 0 0.0705882 0 0 0 0 0.145098 0 0 0 0.0498188 0"/>
<feBlend mode="normal" in2="effect1_dropShadow" result="effect2_dropShadow"/>
<feBlend mode="normal" in="SourceGraphic" in2="effect2_dropShadow" result="shape"/>
</filter>
<filter id="filter6_i" x="577.433" y="197.815" width="9.65197" height="9.65197" filterUnits="userSpaceOnUse" color-interpolation-filters="sRGB">
<feFlood flood-opacity="0" result="BackgroundImageFix"/>
<feBlend mode="normal" in="SourceGraphic" in2="BackgroundImageFix" result="shape"/>
<feColorMatrix in="SourceAlpha" type="matrix" values="0 0 0 0 0 0 0 0 0 0 0 0 0 0 0 0 0 0 127 0" result="hardAlpha"/>
<feOffset dy="24"/>
<feComposite in2="hardAlpha" operator="arithmetic" k2="-1" k3="1"/>
<feColorMatrix type="matrix" values="0 0 0 0 0 0 0 0 0 0.4 0 0 0 0 0.156863 0 0 0 1 0"/>
<feBlend mode="normal" in2="shape" result="effect1_innerShadow"/>
</filter>
<filter id="filter7_d" x="587.132" y="496.151" width="32.9559" height="32.9559" filterUnits="userSpaceOnUse" color-interpolation-filters="sRGB">
<feFlood flood-opacity="0" result="BackgroundImageFix"/>
<feColorMatrix in="SourceAlpha" type="matrix" values="0 0 0 0 0 0 0 0 0 0 0 0 0 0 0 0 0 0 127 0"/>
<feOffset dy="1"/>
<feGaussianBlur stdDeviation="1"/>
<feColorMatrix type="matrix" values="0 0 0 0 0.0862745 0 0 0 0 0.0705882 0 0 0 0 0.145098 0 0 0 0.07 0"/>
<feBlend mode="normal" in2="BackgroundImageFix" result="effect1_dropShadow"/>
<feBlend mode="normal" in="SourceGraphic" in2="effect1_dropShadow" result="shape"/>
</filter>
<clipPath id="clip0">
<rect width="226.408" height="490.25" fill="white" transform="translate(106.094 63.9064)"/>
</clipPath>
<clipPath id="clip1">
<rect width="77.2807" height="14.4901" fill="white" transform="translate(180.96 135.15)"/>
</clipPath>
<clipPath id="clip2">
<rect width="54.9052" height="15" fill="white" transform="translate(192.148 135.15)"/>
</clipPath>
<clipPath id="clip3">
<rect width="168.448" height="32.6028" fill="white" transform="translate(135.074 299.372)"/>
</clipPath>
<clipPath id="clip4">
<rect width="149.284" height="33" fill="white" transform="translate(154.394 299.372)"/>
</clipPath>
<clipPath id="clip5">
<rect width="149.284" height="33" fill="white" transform="translate(135.074 299.372)"/>
</clipPath>
<clipPath id="clip6">
<rect width="46" height="32.3202" fill="white" transform="translate(156.809 299.815)"/>
</clipPath>
<clipPath id="clip7">
<rect width="226.218" height="489.838" fill="white" transform="translate(490.677 63.8937)"/>
</clipPath>
<clipPath id="clip8">
<rect width="77.2158" height="14.478" fill="white" transform="translate(565.48 135.077)"/>
</clipPath>
<clipPath id="clip9">
<rect width="54.8909" height="15" fill="white" transform="translate(576.642 135.077)"/>
</clipPath>
<clipPath id="clip10">
<rect width="168.306" height="32.5754" fill="white" transform="translate(519.633 299.161)"/>
</clipPath>
<clipPath id="clip11">
<rect width="149.299" height="33" fill="white" transform="translate(538.937 299.161)"/>
</clipPath>
<clipPath id="clip12">
<rect width="149.299" height="33" fill="white" transform="translate(519.633 299.161)"/>
</clipPath>
<clipPath id="clip13">
<rect width="46" height="32.3039" fill="white" transform="translate(541.35 299.598)"/>
</clipPath>
</defs>
</svg>
