<?xml version="1.0" encoding="UTF-8" standalone="no"?><svg xmlns="http://www.w3.org/2000/svg" xmlns:xlink="http://www.w3.org/1999/xlink" contentScriptType="application/ecmascript" contentStyleType="text/css" height="918px" preserveAspectRatio="none" style="width:367px;height:918px;" version="1.1" viewBox="0 0 367 918" width="367.5px" zoomAndPan="magnify"><defs><filter height="300%" id="f5t3prwccuc3q" width="300%" x="-1" y="-1"><feGaussianBlur result="blurOut" stdDeviation="3.0"/><feColorMatrix in="blurOut" result="blurOut2" type="matrix" values="0 0 0 0 0 0 0 0 0 0 0 0 0 0 0 0 0 0 .4 0"/><feOffset dx="6.0" dy="6.0" in="blurOut2" result="blurOut3"/><feBlend in="SourceGraphic" in2="blurOut3" mode="normal"/></filter></defs><g><ellipse cx="261" cy="27" fill="#000000" filter="url(#f5t3prwccuc3q)" rx="15" ry="15" style="stroke: none; stroke-width: 1.5;"/><rect fill="#F8F8F8" filter="url(#f5t3prwccuc3q)" height="75" rx="18.75" ry="18.75" style="stroke: #383838; stroke-width: 2.25;" width="97.5" x="212.25" y="133.5"/><line style="stroke: #383838; stroke-width: 2.25;" x1="212.25" x2="309.75" y1="172.9453" y2="172.9453"/><text fill="#000000" font-family="sans-serif" font-size="21" lengthAdjust="spacingAndGlyphs" textLength="67.5" x="227.25" y="160.4927">Initiate</text><rect fill="#F8F8F8" filter="url(#f5t3prwccuc3q)" height="75" rx="18.75" ry="18.75" style="stroke: #383838; stroke-width: 2.25;" width="115.5" x="81.75" y="324"/><line style="stroke: #383838; stroke-width: 2.25;" x1="81.75" x2="197.25" y1="363.4453" y2="363.4453"/><text fill="#000000" font-family="sans-serif" font-size="21" lengthAdjust="spacingAndGlyphs" textLength="85.5" x="96.75" y="350.9927">Reserve</text><rect fill="#F8F8F8" filter="url(#f5t3prwccuc3q)" height="75" rx="18.75" ry="18.75" style="stroke: #383838; stroke-width: 2.25;" width="100.5" x="249.75" y="514.5"/><line style="stroke: #383838; stroke-width: 2.25;" x1="249.75" x2="350.25" y1="553.9453" y2="553.9453"/><text fill="#000000" font-family="sans-serif" font-size="21" lengthAdjust="spacingAndGlyphs" textLength="70.5" x="264.75" y="541.4927">Cancel</text><rect fill="#F8F8F8" filter="url(#f5t3prwccuc3q)" height="75" rx="18.75" ry="18.75" style="stroke: #383838; stroke-width: 2.25;" width="112.5" x="83.25" y="514.5"/><line style="stroke: #383838; stroke-width: 2.25;" x1="83.25" x2="195.75" y1="553.9453" y2="553.9453"/><text fill="#000000" font-family="sans-serif" font-size="21" lengthAdjust="spacingAndGlyphs" textLength="82.5" x="98.25" y="541.4927">Capture</text><rect fill="#F8F8F8" filter="url(#f5t3prwccuc3q)" height="75" rx="18.75" ry="18.75" style="stroke: #383838; stroke-width: 2.25;" width="105" x="9" y="705"/><line style="stroke: #383838; stroke-width: 2.25;" x1="9" x2="114" y1="744.4453" y2="744.4453"/><text fill="#000000" font-family="sans-serif" font-size="21" lengthAdjust="spacingAndGlyphs" textLength="75" x="24" y="731.9927">Refund</text><ellipse cx="193.5" cy="886.5" fill="none" filter="url(#f5t3prwccuc3q)" rx="15" ry="15" style="stroke: #000000; stroke-width: 1.5;"/><ellipse cx="194.25" cy="887.25" fill="#000000" rx="9" ry="9" style="stroke: none; stroke-width: 1.5;"/><!--link *start to Initiate--><path d="M261,42.0195 C261,61.047 261,96.6135 261,125.355 " fill="none" id="*start-Initiate" style="stroke: #383838; stroke-width: 1.5;"/><polygon fill="#383838" points="261,133.26,267,119.76,261,125.76,255,119.76,261,133.26" style="stroke: #383838; stroke-width: 1.5;"/><!--link Initiate to Reserve--><path d="M237.573,208.6515 C217.404,239.7795 188.271,284.736 166.9995,317.5635 " fill="none" id="Initiate-Reserve" style="stroke: #383838; stroke-width: 1.5;"/><polygon fill="#383838" points="162.855,323.9595,175.2313,315.8925,166.9333,317.6653,165.1605,309.3672,162.855,323.9595" style="stroke: #383838; stroke-width: 1.5;"/><text fill="#000000" font-family="sans-serif" font-size="19.5" lengthAdjust="spacingAndGlyphs" textLength="22.5" x="210" y="273.1003">T1</text><!--link Initiate to Cancel--><path d="M264.7395,208.7445 C271.947,278.5965 287.733,431.5965 295.5,506.889 " fill="none" id="Initiate-Cancel" style="stroke: #383838; stroke-width: 1.5;"/><polygon fill="#383838" points="296.2725,514.365,300.8559,500.3207,295.5031,506.9046,288.9192,501.5517,296.2725,514.365" style="stroke: #383838; stroke-width: 1.5;"/><text fill="#000000" font-family="sans-serif" font-size="19.5" lengthAdjust="spacingAndGlyphs" textLength="22.5" x="286.5" y="368.3503">T2</text><!--link Reserve to Capture--><path d="M139.5,399.1515 C139.5,429.8895 139.5,474.114 139.5,506.826 " fill="none" id="Reserve-Capture" style="stroke: #383838; stroke-width: 1.5;"/><polygon fill="#383838" points="139.5,514.4595,145.5,500.9595,139.5,506.9595,133.5,500.9595,139.5,514.4595" style="stroke: #383838; stroke-width: 1.5;"/><text fill="#000000" font-family="sans-serif" font-size="19.5" lengthAdjust="spacingAndGlyphs" textLength="22.5" x="141" y="463.6003">T3</text><!--link Reserve to Cancel--><path d="M170.4465,399.1515 C197.202,430.4085 235.896,475.611 264.0255,508.473 " fill="none" id="Reserve-Cancel" style="stroke: #383838; stroke-width: 1.5;"/><polygon fill="#383838" points="269.1495,514.4595,264.929,500.3019,264.2724,508.7617,255.8126,508.1052,269.1495,514.4595" style="stroke: #383838; stroke-width: 1.5;"/><text fill="#000000" font-family="sans-serif" font-size="19.5" lengthAdjust="spacingAndGlyphs" textLength="22.5" x="231" y="463.6003">T4</text><!--link Capture to Refund--><path d="M124.4609,589.6515 C111.62,620.52 93.1209,664.9875 79.4961,697.74 " fill="none" id="Capture-Refund" style="stroke: #383838; stroke-width: 1.5;"/><polygon fill="#383838" points="76.493,704.9595,87.2171,694.7987,79.3731,698.0346,76.1372,690.1905,76.493,704.9595" style="stroke: #383838; stroke-width: 1.5;"/><text fill="#000000" font-family="sans-serif" font-size="19.5" lengthAdjust="spacingAndGlyphs" textLength="22.5" x="108" y="654.1003">T5</text><!--link Capture to *end--><path d="M145.3818,589.608 C156.6891,659.022 181.134,809.0876 190.107,864.1751 " fill="none" id="Capture-*end" style="stroke: #383838; stroke-width: 1.5;"/><polygon fill="#383838" points="191.316,871.5926,195.0668,857.3033,190.1098,864.1902,183.223,859.2332,191.316,871.5926" style="stroke: #383838; stroke-width: 1.5;"/><!--link Cancel to *end--><path d="M292.3245,589.5855 C280.5165,642.555 255.8295,744.0105 223.5,826.5 C218.2215,839.9696 210.8145,854.4417 204.6825,865.622 " fill="none" id="Cancel-*end" style="stroke: #383838; stroke-width: 1.5;"/><polygon fill="#383838" points="200.682,872.7833,212.5046,863.9245,204.3402,866.2359,202.0288,858.0715,200.682,872.7833" style="stroke: #383838; stroke-width: 1.5;"/><!--link Refund to *end--><path d="M95.4933,780.311 C122.3055,808.9513 158.4164,847.5243 178.476,868.9511 " fill="none" id="Refund-*end" style="stroke: #383838; stroke-width: 1.5;"/><polygon fill="#383838" points="183.687,874.5172,178.8407,860.5615,178.5612,869.0422,170.0805,868.7627,183.687,874.5172" style="stroke: #383838; stroke-width: 1.5;"/><!--
@startuml
skinparam monochrome true

scale 1.5

[*] - -> Initiate
Initiate - -> Reserve :T1
Initiate - -> Cancel :T2
Reserve - -> Capture :T3
Reserve - -> Cancel  :T4
Capture - -> Refund  :T5
Capture - -> [*]
Cancel - -> [*] 
Refund - -> [*]
@enduml

PlantUML version 1.2018.13beta10(Unknown compile time)
(GPL source distribution)
Java Runtime: Java(TM) SE Runtime Environment
JVM: Java HotSpot(TM) 64-Bit Server VM
Java Version: 1.7.0_25-b15
Operating System: Linux
Default Encoding: UTF-8
Language: en
Country: US
--></g></svg>