<svg width="613" height="498" viewBox="0 0 613 498" fill="none" xmlns="http://www.w3.org/2000/svg">
<rect y="0.261719" width="612.581" height="497.738" rx="1" fill="#FFF4EC"/>
<g filter="url(#filter0_dd)">
<rect x="75" y="48.2617" width="462.581" height="401.738" rx="17.8948" fill="white"/>
</g>
<rect x="415.449" y="240.631" width="87.6845" height="42.9475" rx="21.4738" fill="#551488"/>
<path d="M450.135 256.697V264.219L445.4 256.697H442.694V267.262H444.949V259.564L449.652 267.262H452.373V256.697H450.135ZM458.19 260.756C459.141 260.756 459.962 261.207 460.107 262.318H456.258C456.499 261.271 457.176 260.756 458.19 260.756ZM462.12 263.671V262.995C462.12 260.611 460.493 258.92 458.207 258.92C455.807 258.92 453.987 260.563 453.987 263.172C453.987 265.845 455.92 267.472 458.384 267.472C459.898 267.472 461.766 266.586 462.088 264.669L460.043 264.396C459.881 265.185 459.431 265.668 458.303 265.668C457.047 265.668 456.354 264.911 456.209 263.671H462.12ZM470.894 259.145H468.414L466.674 261.867L464.822 259.145H462.342L465.322 263.188L462.342 267.262H464.822L466.578 264.605L468.414 267.262H470.894L467.931 263.333L470.894 259.145ZM472.428 257.197V259.145H470.995V260.836H472.428V264.959C472.428 266.506 473.218 267.472 474.989 267.472C475.601 267.472 476.213 267.327 476.696 267.182L476.406 265.459C476.084 265.539 475.875 265.587 475.521 265.587C474.86 265.587 474.635 265.314 474.635 264.75V260.836H476.551V259.145H474.635V256.907L472.428 257.197Z" fill="white"/>
<rect x="113.921" y="241.078" width="287.212" height="42.0528" rx="4.92107" fill="#FCFBFE" stroke="#C9C6D7" stroke-width="0.89474"/>
<path d="M135.671 268.187V263.442H140.416V261.853H135.671V257.107H134.081V261.853H129.336V263.442H134.081V268.187H135.671ZM157.481 268.789V265.181H159.478V263.506H157.481V254.702H154.711L148.677 263.721V265.181H155.656V268.789H157.481ZM150.631 263.506L155.656 256.141V263.506H150.631ZM164.636 268.789C165.237 263.42 168.286 258.889 170.154 256.592V254.702H160.942V256.441H168.351C165.988 259.319 163.347 263.699 162.724 268.789H164.636Z" fill="#706B8B"/>
<path d="M115.891 224.218H117.357C118.284 224.218 118.81 224.769 118.81 225.783C118.81 226.748 118.284 227.299 117.332 227.299H115.891V224.218ZM114.451 222.94V231.157H115.891V228.577H117.482C119.236 228.577 120.351 227.349 120.351 225.758C120.351 223.917 119.299 222.94 117.47 222.94H114.451ZM121.703 222.664V231.157H123.068V227.55C123.068 226.422 123.719 225.909 124.646 225.909C125.373 225.909 125.962 226.347 125.962 227.512V231.157H127.339V226.923C127.339 225.232 126.3 224.668 125.085 224.668C124.421 224.668 123.506 224.969 123.068 225.796V222.664H121.703ZM131.748 224.668C130.045 224.668 128.629 225.921 128.629 227.988C128.629 230.055 130.045 231.32 131.748 231.32C133.464 231.32 134.88 230.055 134.88 227.988C134.88 225.921 133.464 224.668 131.748 224.668ZM131.748 225.846C132.7 225.846 133.502 226.547 133.502 227.988C133.502 229.441 132.7 230.142 131.748 230.142C130.809 230.142 130.007 229.441 130.007 227.988C130.007 226.547 130.809 225.846 131.748 225.846ZM139.166 225.909C139.905 225.909 140.494 226.347 140.494 227.512V231.157H141.872V226.923C141.872 225.232 140.795 224.668 139.667 224.668C138.916 224.668 138.039 224.982 137.6 225.796V224.844H136.235V231.157H137.6V227.55C137.6 226.422 138.252 225.909 139.166 225.909ZM146.331 225.846C147.208 225.846 147.897 226.259 148.022 227.274H144.602C144.803 226.322 145.429 225.846 146.331 225.846ZM149.325 228.301V227.85C149.325 225.984 148.097 224.668 146.381 224.668C144.552 224.668 143.162 225.946 143.162 227.975C143.162 230.055 144.615 231.32 146.469 231.32C147.634 231.32 149.037 230.656 149.275 229.19L148.009 228.978C147.859 229.704 147.446 230.142 146.419 230.142C145.279 230.142 144.652 229.416 144.552 228.301H149.325ZM156.953 225.909C157.692 225.909 158.281 226.347 158.281 227.512V231.157H159.658V226.923C159.658 225.232 158.581 224.668 157.454 224.668C156.702 224.668 155.825 224.982 155.387 225.796V224.844H154.022V231.157H155.387V227.55C155.387 226.422 156.038 225.909 156.953 225.909ZM166.948 231.157V224.844H165.57V228.514C165.57 229.591 164.869 230.08 163.942 230.08C163.103 230.08 162.677 229.704 162.677 228.74V224.844H161.311V229.253C161.311 230.706 162.364 231.32 163.416 231.32C164.205 231.32 165.069 230.957 165.57 230.105V231.157H166.948ZM175.478 225.909C176.267 225.909 176.856 226.347 176.856 227.512V231.157H178.221V226.923C178.221 225.232 177.182 224.668 176.029 224.668C175.328 224.668 174.451 224.944 173.975 225.884C173.649 224.994 172.885 224.668 172.071 224.668C171.345 224.668 170.48 224.969 170.042 225.796V224.844H168.676V231.157H170.042V227.55C170.042 226.422 170.656 225.909 171.482 225.909C172.209 225.909 172.76 226.347 172.76 227.512V231.157H174.138V227.55C174.138 226.422 174.702 225.909 175.478 225.909ZM179.918 222.664V231.157H181.284V230.117C181.735 230.844 182.436 231.32 183.3 231.32C184.766 231.32 186.194 230.205 186.194 227.9C186.194 225.696 184.703 224.668 183.426 224.668C182.311 224.668 181.634 225.357 181.284 225.946V222.664H179.918ZM183.05 225.846C183.914 225.846 184.816 226.547 184.816 227.975C184.816 229.441 183.914 230.13 183.037 230.13C182.123 230.13 181.284 229.378 181.284 227.975C181.284 226.51 182.123 225.846 183.05 225.846ZM190.32 225.846C191.197 225.846 191.886 226.259 192.011 227.274H188.591C188.792 226.322 189.418 225.846 190.32 225.846ZM193.314 228.301V227.85C193.314 225.984 192.086 224.668 190.37 224.668C188.541 224.668 187.151 225.946 187.151 227.975C187.151 230.055 188.604 231.32 190.458 231.32C191.623 231.32 193.026 230.656 193.264 229.19L191.998 228.978C191.848 229.704 191.435 230.142 190.408 230.142C189.268 230.142 188.641 229.416 188.541 228.301H193.314ZM197.666 226.147C198.004 226.147 198.242 226.197 198.48 226.284L198.618 224.756C198.48 224.694 198.292 224.668 198.129 224.668C197.503 224.668 196.513 225.032 196 226.372V224.844H194.634V231.157H196V228.389C196 226.635 196.776 226.147 197.666 226.147Z" fill="#161225"/>
<path d="M188.847 265.009L187.129 265.289C187.494 268.338 190.006 269.068 191.509 269.068C195.246 269.068 197.114 265.675 197.114 261.209C197.114 256.806 195.203 254.423 191.96 254.423C188.911 254.423 187.215 256.592 187.215 259.233C187.215 262.196 189.19 263.785 191.746 263.785C193.313 263.785 194.537 263.034 195.224 261.681C194.988 265.804 193.721 267.307 191.66 267.307C190.221 267.307 189.061 266.663 188.847 265.009ZM191.96 256.227C194.108 256.227 195.01 257.644 195.01 259.169C195.01 261.187 193.549 262.046 191.982 262.046C190.114 262.046 189.126 260.908 189.126 259.19C189.126 257.601 190.135 256.227 191.96 256.227ZM199.437 258.374L201.263 258.718C201.349 257.15 202.229 256.162 203.797 256.162C205.235 256.162 206.116 256.978 206.116 258.395C206.116 259.856 205.149 260.843 203.109 260.843H201.928V262.561H203.217C204.849 262.561 206.545 263.098 206.545 265.052C206.545 266.448 205.6 267.329 203.925 267.329C202.208 267.329 201.112 266.62 200.898 264.773L199.115 265.138C199.459 267.822 201.628 269.068 203.99 269.068C206.459 269.068 208.456 267.457 208.456 265.052C208.456 262.991 207.168 262.003 205.536 261.595C207.254 260.951 208.027 259.577 208.027 258.03C208.027 256.141 206.61 254.423 203.925 254.423C201.843 254.423 199.824 255.604 199.437 258.374ZM219.519 268.789V265.181H221.516V263.506H219.519V254.702H216.749L210.715 263.721V265.181H217.694V268.789H219.519ZM212.669 263.506L217.694 256.141V263.506H212.669ZM229.128 259.061L230.888 259.405C230.888 257.15 232.327 256.162 233.873 256.162C235.806 256.162 236.493 257.214 236.493 258.395C236.493 259.791 235.677 261.209 233.83 263.055L229.471 267.371V268.789H238.576V267.049H231.898L235.312 263.828C237.567 261.659 238.404 259.899 238.404 258.267C238.404 255.905 236.665 254.423 234.045 254.423C231.876 254.423 229.278 255.561 229.128 259.061ZM249.15 268.789V265.181H251.147V263.506H249.15V254.702H246.38L240.346 263.721V265.181H247.325V268.789H249.15ZM242.3 263.506L247.325 256.141V263.506H242.3ZM262.302 268.789C262.903 263.42 265.953 258.889 267.821 256.592V254.702H258.609V256.441H266.017C263.655 259.319 261.014 263.699 260.391 268.789H262.302ZM269.412 259.061L271.173 259.405C271.173 257.15 272.611 256.162 274.158 256.162C276.09 256.162 276.777 257.214 276.777 258.395C276.777 259.791 275.961 261.209 274.115 263.055L269.755 267.371V268.789H278.86V267.049H272.182L275.596 263.828C277.851 261.659 278.689 259.899 278.689 258.267C278.689 255.905 276.949 254.423 274.329 254.423C272.161 254.423 269.562 255.561 269.412 259.061ZM282.256 254.702L281.719 262.69L283.394 262.883C284.06 261.445 285.048 261.037 286.315 261.037C287.753 261.037 288.999 262.046 288.999 264.065C288.999 266.169 287.753 267.264 286.186 267.264C284.726 267.264 283.416 266.813 283.308 264.73L281.376 265.009C281.655 267.608 283.566 269.068 286.186 269.068C288.806 269.068 290.867 267.157 290.867 264C290.867 260.543 288.612 259.319 286.68 259.319C285.327 259.319 284.167 259.856 283.502 260.822L283.845 256.441H289.922V254.702H282.256Z" fill="#161225"/>
<path d="M229.912 132.708H232.188C233.82 132.708 234.83 133.674 234.83 135.478C234.83 137.174 233.82 138.141 232.145 138.141H229.912V132.708ZM226.798 129.895V146H229.912V140.954H232.317C235.688 140.954 238.136 138.549 238.136 135.435C238.136 131.827 235.817 129.895 232.296 129.895H226.798ZM244.518 146.322C246.45 146.322 247.76 145.42 248.619 144.261V146H251.647V133.631H248.619V135.22C247.61 133.846 246.343 133.288 244.861 133.288C242.091 133.288 239.343 135.37 239.343 139.687C239.343 144.218 242.113 146.322 244.518 146.322ZM245.527 135.95C247.159 135.95 248.619 137.217 248.619 139.837C248.619 142.543 247.159 143.638 245.505 143.638C243.981 143.638 242.392 142.478 242.392 139.837C242.392 137.153 244.002 135.95 245.527 135.95ZM255.872 150.295C258.277 150.295 259.609 149.028 260.575 146.515L265.514 133.61H262.185L259.437 142.156L256.538 133.61H253.166L257.547 144.604C258.191 146.215 257.848 147.696 256.087 147.696C255.163 147.696 254.562 147.417 254.176 147.181L253.746 149.844C254.326 150.123 255.056 150.295 255.872 150.295ZM290.651 133.631H287.365L284.831 141.576L282.233 133.631H279.914L279.892 133.91L277.358 141.598L274.825 133.631H271.432L276.091 146H278.411L281.052 138.763L283.672 146H285.991L290.651 133.631ZM292.183 133.631V146H295.19V133.631H292.183ZM293.686 128.263C292.677 128.263 291.99 128.95 291.99 129.938C291.99 130.925 292.677 131.613 293.686 131.613C294.696 131.613 295.383 130.925 295.383 129.938C295.383 128.95 294.696 128.263 293.686 128.263ZM298.958 130.646V133.631H296.832V136.144H298.958V142.908C298.958 144.755 299.752 146.215 302.308 146.215C303.381 146.215 304.541 145.914 305.271 145.592L304.842 143.251C304.262 143.38 303.747 143.466 303.188 143.466C302.265 143.466 301.986 143.015 301.986 142.135V136.144H305.035V133.631H301.986V130.217L298.958 130.646ZM307.156 129.358V146H310.184V138.935C310.184 136.96 311.301 136.058 312.825 136.058C314.157 136.058 315.166 136.809 315.166 138.871V146H318.194V137.711C318.194 134.383 316.154 133.288 314.006 133.288C312.632 133.288 311.043 133.889 310.184 135.456V129.358H307.156ZM334.214 146L340.141 129.895H336.748L332.797 142.027L328.846 129.895H325.453L331.38 146H334.214ZM341.946 133.631V146H344.952V133.631H341.946ZM343.449 128.263C342.44 128.263 341.753 128.95 341.753 129.938C341.753 130.925 342.44 131.613 343.449 131.613C344.459 131.613 345.146 130.925 345.146 129.938C345.146 128.95 344.459 128.263 343.449 128.263ZM354.862 133.288C352.951 133.288 351.641 134.168 350.804 135.328V133.631H347.776V150.295H350.804V144.368C351.813 145.742 353.123 146.322 354.605 146.322C357.375 146.322 360.08 144.132 360.08 139.622C360.08 135.306 357.267 133.288 354.862 133.288ZM353.917 135.95C355.442 135.95 357.031 137.196 357.031 139.773C357.031 142.392 355.442 143.638 353.896 143.638C352.264 143.638 350.804 142.307 350.804 139.773C350.804 137.131 352.264 135.95 353.917 135.95ZM369.395 133.288C367.484 133.288 366.174 134.168 365.336 135.328V133.631H362.308V150.295H365.336V144.368C366.346 145.742 367.655 146.322 369.137 146.322C371.907 146.322 374.613 144.132 374.613 139.622C374.613 135.306 371.8 133.288 369.395 133.288ZM368.45 135.95C369.975 135.95 371.564 137.196 371.564 139.773C371.564 142.392 369.975 143.638 368.429 143.638C366.796 143.638 365.336 142.307 365.336 139.773C365.336 137.131 366.796 135.95 368.45 135.95ZM376.454 137.239C376.454 139.043 377.678 140.46 379.676 140.825L381.565 141.168C382.854 141.405 383.219 141.899 383.219 142.564C383.219 143.316 382.424 143.745 381.243 143.745C379.697 143.745 378.731 143.187 378.58 141.619L375.853 142.049C376.283 145.077 378.945 146.322 381.351 146.322C383.627 146.322 386.053 144.991 386.053 142.307C386.053 140.481 384.958 139.15 382.918 138.763L380.835 138.377C379.676 138.162 379.289 137.582 379.289 137.024C379.289 136.315 380.041 135.864 381.071 135.864C382.381 135.864 383.305 136.315 383.348 137.797L386.075 137.368C385.323 134.447 383.498 133.288 381.007 133.288C378.988 133.288 376.454 134.447 376.454 137.239Z" fill="#161225"/>
<defs>
<filter id="filter0_dd" x="71.421" y="45.5775" width="469.739" height="408.896" filterUnits="userSpaceOnUse" color-interpolation-filters="sRGB">
<feFlood flood-opacity="0" result="BackgroundImageFix"/>
<feColorMatrix in="SourceAlpha" type="matrix" values="0 0 0 0 0 0 0 0 0 0 0 0 0 0 0 0 0 0 127 0"/>
<feOffset dy="0.89474"/>
<feGaussianBlur stdDeviation="0.44737"/>
<feColorMatrix type="matrix" values="0 0 0 0 0.0862745 0 0 0 0 0.0705882 0 0 0 0 0.145098 0 0 0 0.05 0"/>
<feBlend mode="normal" in2="BackgroundImageFix" result="effect1_dropShadow"/>
<feColorMatrix in="SourceAlpha" type="matrix" values="0 0 0 0 0 0 0 0 0 0 0 0 0 0 0 0 0 0 127 0"/>
<feOffset dy="0.89474"/>
<feGaussianBlur stdDeviation="1.78948"/>
<feColorMatrix type="matrix" values="0 0 0 0 0.0862745 0 0 0 0 0.0705882 0 0 0 0 0.145098 0 0 0 0.17 0"/>
<feBlend mode="normal" in2="effect1_dropShadow" result="effect2_dropShadow"/>
<feBlend mode="normal" in="SourceGraphic" in2="effect2_dropShadow" result="shape"/>
</filter>
</defs>
</svg>
