<svg width="1027" height="604" viewBox="0 0 1027 604" fill="none" xmlns="http://www.w3.org/2000/svg">
<rect y="0.25" width="1027" height="603" rx="1" fill="#FFF4EC"/>
<mask id="mask0" mask-type="alpha" maskUnits="userSpaceOnUse" x="75" y="48" width="877" height="508">
<rect x="75" y="48.25" width="877" height="507" rx="20" fill="white"/>
</mask>
<g mask="url(#mask0)">
<g filter="url(#filter0_dd)">
<rect x="75" y="48.25" width="877" height="507" rx="20" fill="white"/>
</g>
<rect x="75" y="48.25" width="877" height="43" fill="#551488"/>
<path d="M130.504 465.298H135.964V480.25H139.884V465.298H145.344V461.882H130.504V465.298ZM151.793 465.746C147.733 465.746 144.513 468.546 144.513 473.166C144.513 477.786 147.733 480.614 151.793 480.614C155.881 480.614 159.129 477.786 159.129 473.166C159.129 468.546 155.881 465.746 151.793 465.746ZM151.793 468.938C153.669 468.938 155.237 470.31 155.237 473.166C155.237 476.05 153.669 477.422 151.793 477.422C149.973 477.422 148.377 476.05 148.377 473.166C148.377 470.31 149.973 468.938 151.793 468.938ZM162.711 462.75V466.138H160.219V469.078H162.711V476.246C162.711 478.934 164.083 480.614 167.163 480.614C168.227 480.614 169.291 480.362 170.131 480.11L169.627 477.114C169.067 477.254 168.703 477.338 168.087 477.338C166.939 477.338 166.547 476.862 166.547 475.882V469.078H169.879V466.138H166.547V462.246L162.711 462.75ZM177.77 480.614C180.206 480.614 181.774 479.214 182.502 477.562V480.25H186.254V466.138H182.502V468.77C181.494 466.642 179.954 465.746 177.91 465.746C174.886 465.746 171.666 468.126 171.666 473.054C171.666 478.206 174.914 480.614 177.77 480.614ZM179.03 468.938C180.85 468.938 182.502 470.338 182.502 473.222C182.502 476.162 180.85 477.394 179.002 477.394C177.322 477.394 175.53 476.106 175.53 473.222C175.53 470.282 177.35 468.938 179.03 468.938ZM189.898 461.266V480.25H193.65V461.266H189.898Z" fill="#161225"/>
<path d="M376.436 480.25H380.188V476.862L382.428 474.398L386.264 480.25H390.436L384.696 471.906L389.932 466.138H385.76L380.188 472.746V461.266H376.436V480.25ZM399.251 469.694C399.979 469.694 400.567 469.806 401.099 469.974L401.379 465.914C401.071 465.802 400.651 465.746 400.287 465.746C398.943 465.746 396.703 466.446 395.555 469.498V466.138H391.803V480.25H395.555V474.23C395.555 470.702 397.347 469.694 399.251 469.694ZM422.509 480.25V476.162H425.001V472.746H422.509V461.882H416.881L410.133 472.998V476.162H418.701V480.25H422.509ZM413.885 472.746L418.701 464.99V472.746H413.885ZM430.927 474.874L427.147 475.518C427.931 479.606 431.067 480.614 433.531 480.614C438.347 480.614 441.147 476.666 441.147 470.562C441.147 464.934 438.711 461.518 434.035 461.518C429.751 461.518 427.259 464.318 427.259 467.79C427.259 471.514 429.891 473.53 433.027 473.53C434.819 473.53 436.303 472.858 437.283 471.71C437.031 475.938 435.631 477.17 433.727 477.17C432.243 477.17 431.067 476.526 430.927 474.874ZM434.035 464.99C436.107 464.99 437.059 466.278 437.059 467.734C437.059 469.582 435.603 470.394 434.007 470.394C432.159 470.394 431.151 469.33 431.151 467.734C431.151 466.278 432.159 464.99 434.035 464.99ZM450.715 472.326C452.367 472.326 453.711 473.194 453.711 474.846C453.711 476.526 452.395 477.254 450.715 477.254C449.035 477.254 447.719 476.526 447.719 474.846C447.719 473.194 449.035 472.326 450.715 472.326ZM450.715 464.878C452.087 464.878 453.179 465.606 453.179 467.034C453.179 468.49 452.087 469.218 450.715 469.218C449.315 469.218 448.251 468.49 448.251 467.034C448.251 465.606 449.315 464.878 450.715 464.878ZM450.715 461.518C447.299 461.518 444.443 463.254 444.443 466.67C444.443 468.462 445.535 469.862 447.159 470.646C445.115 471.346 443.743 472.774 443.743 475.07C443.743 478.682 446.851 480.614 450.715 480.614C454.551 480.614 457.659 478.682 457.659 475.07C457.659 472.774 456.287 471.346 454.271 470.646C455.895 469.862 456.959 468.462 456.959 466.67C456.959 463.254 454.159 461.518 450.715 461.518ZM462.529 476.05C461.297 476.05 460.345 477.002 460.345 478.234C460.345 479.466 461.297 480.418 462.529 480.418C463.733 480.418 464.713 479.466 464.713 478.234C464.713 477.002 463.733 476.05 462.529 476.05ZM474.928 461.518C470.812 461.518 467.452 464.374 467.452 471.066C467.452 477.786 470.812 480.614 474.928 480.614C479.072 480.614 482.404 477.786 482.404 471.066C482.404 464.374 479.072 461.518 474.928 461.518ZM474.928 465.214C476.776 465.214 478.316 466.754 478.316 471.066C478.316 475.406 476.776 476.918 474.928 476.918C473.052 476.918 471.54 475.406 471.54 471.066C471.54 466.754 473.052 465.214 474.928 465.214ZM492.565 461.518C488.449 461.518 485.089 464.374 485.089 471.066C485.089 477.786 488.449 480.614 492.565 480.614C496.709 480.614 500.041 477.786 500.041 471.066C500.041 464.374 496.709 461.518 492.565 461.518ZM492.565 465.214C494.413 465.214 495.953 466.754 495.953 471.066C495.953 475.406 494.413 476.918 492.565 476.918C490.689 476.918 489.177 475.406 489.177 471.066C489.177 466.754 490.689 465.214 492.565 465.214Z" fill="#161225"/>
<path d="M139 149.194C134.8 149.194 130.96 152.482 130.96 157.378C130.96 162.298 134.8 165.562 139 165.562C143.2 165.562 147.04 162.298 147.04 157.378C147.04 152.482 143.2 149.194 139 149.194ZM139 151.882C141.808 151.882 144.088 153.682 144.088 157.378C144.088 161.122 141.784 162.874 139 162.874C136.24 162.874 133.912 161.122 133.912 157.378C133.912 153.682 136.216 151.882 139 151.882ZM155.488 155.65C156.136 155.65 156.592 155.746 157.048 155.914L157.312 152.986C157.048 152.866 156.688 152.818 156.376 152.818C155.176 152.818 153.28 153.514 152.296 156.082V153.154H149.68V165.25H152.296V159.946C152.296 156.586 153.784 155.65 155.488 155.65ZM163.38 165.562C165.54 165.562 166.884 164.242 167.484 162.778V165.25H170.1V153.154H167.484V155.506C166.62 153.61 165.3 152.818 163.404 152.818C160.86 152.818 158.076 154.858 158.076 159.082C158.076 163.498 160.884 165.562 163.38 165.562ZM164.124 155.074C165.9 155.074 167.484 156.418 167.484 159.226C167.484 162.106 165.9 163.282 164.1 163.282C162.444 163.282 160.716 162.034 160.716 159.226C160.716 156.37 162.468 155.074 164.124 155.074ZM179.085 155.194C180.501 155.194 181.629 156.034 181.629 158.266V165.25H184.269V157.138C184.269 153.898 182.205 152.818 180.045 152.818C178.605 152.818 176.925 153.418 176.085 154.978V153.154H173.469V165.25H176.085V158.338C176.085 156.178 177.333 155.194 179.085 155.194ZM191.9 164.554C194.012 164.554 195.14 163.162 195.788 161.842V163.642C195.788 166.21 194.732 167.266 192.38 167.266C190.916 167.266 189.524 166.834 189.284 165.106L186.74 165.514C187.34 168.586 190.1 169.618 192.284 169.618C196.148 169.618 198.428 167.602 198.428 163.546V153.13H195.788V155.482C194.852 153.634 193.724 152.818 192.116 152.818C189.38 152.818 186.812 154.666 186.812 158.506C186.812 162.634 189.428 164.554 191.9 164.554ZM192.572 155.074C194.348 155.074 195.788 156.37 195.788 158.674C195.788 161.122 194.348 162.274 192.572 162.274C190.868 162.274 189.452 161.122 189.452 158.65C189.452 156.274 190.94 155.074 192.572 155.074ZM207.086 155.074C208.766 155.074 210.086 155.866 210.326 157.81H203.774C204.158 155.986 205.358 155.074 207.086 155.074ZM212.822 159.778V158.914C212.822 155.338 210.47 152.818 207.182 152.818C203.678 152.818 201.014 155.266 201.014 159.154C201.014 163.138 203.798 165.562 207.35 165.562C209.582 165.562 212.27 164.29 212.726 161.482L210.302 161.074C210.014 162.466 209.222 163.306 207.254 163.306C205.07 163.306 203.87 161.914 203.678 159.778H212.822ZM222.013 149.506V165.25H224.773V158.506H232.597V165.25H235.357V149.506H232.597V156.058H224.773V149.506H222.013ZM244.115 152.818C240.851 152.818 238.139 155.218 238.139 159.178C238.139 163.138 240.851 165.562 244.115 165.562C247.403 165.562 250.115 163.138 250.115 159.178C250.115 155.218 247.403 152.818 244.115 152.818ZM244.115 155.074C245.939 155.074 247.475 156.418 247.475 159.178C247.475 161.962 245.939 163.306 244.115 163.306C242.315 163.306 240.779 161.962 240.779 159.178C240.779 156.418 242.315 155.074 244.115 155.074ZM257.919 152.818C254.655 152.818 251.943 155.218 251.943 159.178C251.943 163.138 254.655 165.562 257.919 165.562C261.207 165.562 263.919 163.138 263.919 159.178C263.919 155.218 261.207 152.818 257.919 152.818ZM257.919 155.074C259.743 155.074 261.279 156.418 261.279 159.178C261.279 161.962 259.743 163.306 257.919 163.306C256.119 163.306 254.583 161.962 254.583 159.178C254.583 156.418 256.119 155.074 257.919 155.074ZM277.772 148.978H275.156V155.506C274.316 153.61 272.972 152.818 271.364 152.818C268.532 152.818 265.748 154.858 265.748 159.082C265.748 163.498 268.556 165.562 271.028 165.562C273.212 165.562 274.556 164.41 275.156 162.946V165.25H277.772V148.978ZM271.796 155.074C273.572 155.074 275.156 156.49 275.156 159.226C275.156 162.034 273.572 163.282 271.772 163.282C270.116 163.282 268.388 161.962 268.388 159.226C268.388 156.418 270.14 155.074 271.796 155.074ZM281.141 153.154V165.25H283.781V153.154H281.141ZM282.461 147.922C281.573 147.922 280.877 148.642 280.877 149.506C280.877 150.37 281.573 151.066 282.461 151.066C283.325 151.066 284.021 150.37 284.021 149.506C284.021 148.642 283.325 147.922 282.461 147.922ZM292.445 155.074C294.125 155.074 295.445 155.866 295.685 157.81H289.133C289.517 155.986 290.717 155.074 292.445 155.074ZM298.181 159.778V158.914C298.181 155.338 295.829 152.818 292.541 152.818C289.037 152.818 286.373 155.266 286.373 159.154C286.373 163.138 289.157 165.562 292.709 165.562C294.941 165.562 297.629 164.29 298.085 161.482L295.661 161.074C295.373 162.466 294.581 163.306 292.613 163.306C290.429 163.306 289.229 161.914 289.037 159.778H298.181Z" fill="#161225"/>
<path d="M130.992 181.522C130.992 183.298 132.064 184.018 133.376 184.386L135.328 184.962C136.24 185.218 136.848 185.65 136.848 186.546C136.848 187.49 136.176 188.146 134.672 188.146C133.536 188.146 132.064 187.698 131.872 185.682L130.464 186.034C130.768 188.258 132.704 189.458 134.656 189.458C136.544 189.458 138.272 188.37 138.272 186.434C138.272 184.754 137.232 184.066 135.952 183.698L133.856 183.09C132.976 182.818 132.432 182.354 132.432 181.41C132.432 180.466 133.168 179.858 134.32 179.858C135.392 179.858 136.512 180.29 136.72 181.954L138.096 181.618C137.744 179.474 135.984 178.546 134.432 178.546C132.688 178.546 130.992 179.586 130.992 181.522ZM140.076 181.186V189.25H141.42V181.186H140.076ZM140.748 177.81C140.236 177.81 139.852 178.194 139.852 178.706C139.852 179.218 140.236 179.586 140.748 179.586C141.244 179.586 141.628 179.218 141.628 178.706C141.628 178.194 141.244 177.81 140.748 177.81ZM149.648 181.186H143.408V182.338H148.016L143.328 188.178V189.25H149.808V188.082H144.944L149.648 182.274V181.186ZM155.06 182.146C156.404 182.146 157.428 182.818 157.524 184.354H152.548C152.788 182.882 153.716 182.146 155.06 182.146ZM158.804 185.426V184.946C158.804 182.514 157.284 180.962 155.092 180.962C152.884 180.962 151.14 182.594 151.14 185.186C151.14 187.842 152.948 189.458 155.22 189.458C156.676 189.458 158.42 188.642 158.724 186.802L157.508 186.53C157.268 187.586 156.676 188.274 155.204 188.274C153.46 188.274 152.564 187.106 152.484 185.426H158.804ZM165.094 178.754V189.25H166.486V181.09L169.974 189.25H170.806L174.214 181.042V189.25H175.638V178.754H173.942L170.47 187.074L166.806 178.754H165.094Z" fill="#706B8B"/>
<path d="M413.702 175.25H415.882V172.83L417.682 170.81L420.662 175.25H423.062L419.002 169.33L422.702 165.17H420.322L415.882 170.41V161.69H413.702V175.25ZM429.069 167.25C429.609 167.25 429.989 167.33 430.369 167.47L430.589 165.03C430.369 164.93 430.069 164.89 429.809 164.89C428.809 164.89 427.229 165.47 426.409 167.61V165.17H424.229V175.25H426.409V170.83C426.409 168.03 427.649 167.25 429.069 167.25ZM436.892 166.29L438.952 166.61C438.952 164.67 440.132 163.83 441.452 163.83C443.052 163.83 443.612 164.77 443.612 165.83C443.612 166.89 443.072 168.01 441.232 169.77L437.232 173.59V175.25H445.912V173.19H439.972L442.972 170.55C444.932 168.81 445.872 167.05 445.872 165.51C445.872 163.27 444.212 161.87 441.692 161.87C439.572 161.87 437.112 162.91 436.892 166.29ZM450.171 171.57L448.031 171.93C448.491 174.83 450.711 175.51 452.251 175.51C455.711 175.51 457.611 172.51 457.611 168.39C457.611 164.31 455.951 161.87 452.731 161.87C449.791 161.87 448.111 163.87 448.111 166.35C448.111 169.05 449.951 170.53 452.171 170.53C453.591 170.53 454.751 169.89 455.431 168.83C455.191 172.45 454.031 173.49 452.391 173.49C451.211 173.49 450.291 172.97 450.171 171.57ZM452.711 163.99C454.451 163.99 455.251 165.09 455.251 166.31C455.251 167.87 454.031 168.57 452.671 168.57C451.171 168.57 450.351 167.67 450.351 166.31C450.351 165.07 451.171 163.99 452.711 163.99ZM461.988 171.57L459.848 171.93C460.308 174.83 462.528 175.51 464.068 175.51C467.528 175.51 469.428 172.51 469.428 168.39C469.428 164.31 467.768 161.87 464.548 161.87C461.608 161.87 459.928 163.87 459.928 166.35C459.928 169.05 461.768 170.53 463.988 170.53C465.408 170.53 466.568 169.89 467.248 168.83C467.008 172.45 465.848 173.49 464.208 173.49C463.028 173.49 462.108 172.97 461.988 171.57ZM464.528 163.99C466.268 163.99 467.068 165.09 467.068 166.31C467.068 167.87 465.848 168.57 464.488 168.57C462.988 168.57 462.168 167.67 462.168 166.31C462.168 165.07 462.988 163.99 464.528 163.99ZM473.144 172.47C472.324 172.47 471.684 173.11 471.684 173.91C471.684 174.73 472.324 175.37 473.144 175.37C473.944 175.37 474.584 174.73 474.584 173.91C474.584 173.11 473.944 172.47 473.144 172.47ZM482 161.87C479.16 161.87 476.84 163.91 476.84 168.69C476.84 173.49 479.16 175.51 482 175.51C484.86 175.51 487.16 173.49 487.16 168.69C487.16 163.91 484.86 161.87 482 161.87ZM482 163.99C483.54 163.99 484.8 165.23 484.8 168.69C484.8 172.17 483.54 173.39 482 173.39C480.46 173.39 479.2 172.17 479.2 168.69C479.2 165.23 480.46 163.99 482 163.99ZM494.558 161.87C491.718 161.87 489.398 163.91 489.398 168.69C489.398 173.49 491.718 175.51 494.558 175.51C497.418 175.51 499.718 173.49 499.718 168.69C499.718 163.91 497.418 161.87 494.558 161.87ZM494.558 163.99C496.098 163.99 497.358 165.23 497.358 168.69C497.358 172.17 496.098 173.39 494.558 173.39C493.018 173.39 491.758 172.17 491.758 168.69C491.758 165.23 493.018 163.99 494.558 163.99Z" fill="#161225"/>
<path d="M147.064 261.25L152.08 245.506H149.056L145.84 257.314L142.552 245.506H139.84L136.672 257.578L133.36 245.506H130.336L135.352 261.25H138.136L141.208 249.946L144.496 261.25H147.064ZM154.086 244.978V261.25H156.702V254.338C156.702 252.178 157.95 251.194 159.726 251.194C161.118 251.194 162.246 252.034 162.246 254.266V261.25H164.886V253.138C164.886 249.898 162.894 248.818 160.566 248.818C159.294 248.818 157.542 249.394 156.702 250.978V244.978H154.086ZM168.125 249.154V261.25H170.765V249.154H168.125ZM169.445 243.922C168.557 243.922 167.861 244.642 167.861 245.506C167.861 246.37 168.557 247.066 169.445 247.066C170.309 247.066 171.005 246.37 171.005 245.506C171.005 244.642 170.309 243.922 169.445 243.922ZM174.869 246.226V249.154H172.613V251.266H174.869V257.938C174.869 260.17 175.973 261.562 178.397 261.562C179.117 261.562 179.981 261.37 180.605 261.178L180.197 259.066C179.717 259.186 179.429 259.234 178.925 259.234C177.869 259.234 177.485 258.754 177.485 257.818V251.266H180.509V249.154H177.485V245.818L174.869 246.226ZM188.265 251.074C189.945 251.074 191.265 251.866 191.505 253.81H184.953C185.337 251.986 186.537 251.074 188.265 251.074ZM194.001 255.778V254.914C194.001 251.338 191.649 248.818 188.361 248.818C184.857 248.818 182.193 251.266 182.193 255.154C182.193 259.138 184.977 261.562 188.529 261.562C190.761 261.562 193.449 260.29 193.905 257.482L191.481 257.074C191.193 258.466 190.401 259.306 188.433 259.306C186.249 259.306 185.049 257.914 184.857 255.778H194.001ZM201.872 247.954H206.6V261.25H209.36V247.954H214.064V245.506H201.872V247.954ZM213.648 255.49H220.584V253.33H213.648V255.49ZM222.867 252.562C222.867 254.242 223.827 255.466 225.891 255.922L228.075 256.402C229.515 256.714 229.923 257.194 229.923 257.914C229.923 258.898 228.987 259.474 227.571 259.474C225.891 259.474 224.763 258.658 224.595 257.17L222.267 257.602C222.675 260.41 225.291 261.562 227.643 261.562C229.971 261.562 232.443 260.266 232.443 257.626C232.443 255.946 231.459 254.818 229.323 254.362L226.923 253.834C225.795 253.594 225.387 252.946 225.387 252.322C225.387 251.458 226.179 250.906 227.331 250.906C228.771 250.906 229.851 251.434 229.923 253.018L232.275 252.586C231.579 249.898 229.755 248.818 227.307 248.818C225.339 248.818 222.867 249.898 222.867 252.562ZM234.899 244.978V261.25H237.515V254.338C237.515 252.178 238.763 251.194 240.539 251.194C241.931 251.194 243.059 252.034 243.059 254.266V261.25H245.699V253.138C245.699 249.898 243.707 248.818 241.379 248.818C240.107 248.818 238.355 249.394 237.515 250.978V244.978H234.899ZM248.938 249.154V261.25H251.578V249.154H248.938ZM250.258 243.922C249.37 243.922 248.674 244.642 248.674 245.506C248.674 246.37 249.37 247.066 250.258 247.066C251.122 247.066 251.818 246.37 251.818 245.506C251.818 244.642 251.122 243.922 250.258 243.922ZM260.746 251.65C261.394 251.65 261.85 251.746 262.306 251.914L262.57 248.986C262.306 248.866 261.946 248.818 261.634 248.818C260.434 248.818 258.538 249.514 257.554 252.082V249.154H254.938V261.25H257.554V255.946C257.554 252.586 259.042 251.65 260.746 251.65ZM265.432 246.226V249.154H263.176V251.266H265.432V257.938C265.432 260.17 266.536 261.562 268.96 261.562C269.68 261.562 270.544 261.37 271.168 261.178L270.76 259.066C270.28 259.186 269.992 259.234 269.488 259.234C268.432 259.234 268.048 258.754 268.048 257.818V251.266H271.072V249.154H268.048V245.818L265.432 246.226Z" fill="#161225"/>
<path d="M130.992 277.522C130.992 279.298 132.064 280.018 133.376 280.386L135.328 280.962C136.24 281.218 136.848 281.65 136.848 282.546C136.848 283.49 136.176 284.146 134.672 284.146C133.536 284.146 132.064 283.698 131.872 281.682L130.464 282.034C130.768 284.258 132.704 285.458 134.656 285.458C136.544 285.458 138.272 284.37 138.272 282.434C138.272 280.754 137.232 280.066 135.952 279.698L133.856 279.09C132.976 278.818 132.432 278.354 132.432 277.41C132.432 276.466 133.168 275.858 134.32 275.858C135.392 275.858 136.512 276.29 136.72 277.954L138.096 277.618C137.744 275.474 135.984 274.546 134.432 274.546C132.688 274.546 130.992 275.586 130.992 277.522ZM140.076 277.186V285.25H141.42V277.186H140.076ZM140.748 273.81C140.236 273.81 139.852 274.194 139.852 274.706C139.852 275.218 140.236 275.586 140.748 275.586C141.244 275.586 141.628 275.218 141.628 274.706C141.628 274.194 141.244 273.81 140.748 273.81ZM149.648 277.186H143.408V278.338H148.016L143.328 284.178V285.25H149.808V284.082H144.944L149.648 278.274V277.186ZM155.06 278.146C156.404 278.146 157.428 278.818 157.524 280.354H152.548C152.788 278.882 153.716 278.146 155.06 278.146ZM158.804 281.426V280.946C158.804 278.514 157.284 276.962 155.092 276.962C152.884 276.962 151.14 278.594 151.14 281.186C151.14 283.842 152.948 285.458 155.22 285.458C156.676 285.458 158.42 284.642 158.724 282.802L157.508 282.53C157.268 283.586 156.676 284.274 155.204 284.274C153.46 284.274 152.564 283.106 152.484 281.426H158.804ZM165.094 274.754V285.25H166.486V277.09L169.974 285.25H170.806L174.214 277.042V285.25H175.638V274.754H173.942L170.47 283.074L166.806 274.754H165.094Z" fill="#706B8B"/>
<path d="M416.534 271.25H418.714V268.83L420.514 266.81L423.494 271.25H425.894L421.834 265.33L425.534 261.17H423.154L418.714 266.41V257.69H416.534V271.25ZM431.901 263.25C432.441 263.25 432.821 263.33 433.201 263.47L433.421 261.03C433.201 260.93 432.901 260.89 432.641 260.89C431.641 260.89 430.061 261.47 429.241 263.61V261.17H427.061V271.25H429.241V266.83C429.241 264.03 430.481 263.25 431.901 263.25ZM444.984 271.25V257.87H442.964C442.804 260.05 442.144 260.23 439.524 260.37V262.31C441.224 262.31 442.264 262.07 442.804 261.61V271.25H444.984ZM450.171 267.57L448.031 267.93C448.491 270.83 450.711 271.51 452.251 271.51C455.711 271.51 457.611 268.51 457.611 264.39C457.611 260.31 455.951 257.87 452.731 257.87C449.791 257.87 448.111 259.87 448.111 262.35C448.111 265.05 449.951 266.53 452.171 266.53C453.591 266.53 454.751 265.89 455.431 264.83C455.191 268.45 454.031 269.49 452.391 269.49C451.211 269.49 450.291 268.97 450.171 267.57ZM452.711 259.99C454.451 259.99 455.251 261.09 455.251 262.31C455.251 263.87 454.031 264.57 452.671 264.57C451.171 264.57 450.351 263.67 450.351 262.31C450.351 261.07 451.171 259.99 452.711 259.99ZM461.988 267.57L459.848 267.93C460.308 270.83 462.528 271.51 464.068 271.51C467.528 271.51 469.428 268.51 469.428 264.39C469.428 260.31 467.768 257.87 464.548 257.87C461.608 257.87 459.928 259.87 459.928 262.35C459.928 265.05 461.768 266.53 463.988 266.53C465.408 266.53 466.568 265.89 467.248 264.83C467.008 268.45 465.848 269.49 464.208 269.49C463.028 269.49 462.108 268.97 461.988 267.57ZM464.528 259.99C466.268 259.99 467.068 261.09 467.068 262.31C467.068 263.87 465.848 264.57 464.488 264.57C462.988 264.57 462.168 263.67 462.168 262.31C462.168 261.07 462.988 259.99 464.528 259.99ZM473.144 268.47C472.324 268.47 471.684 269.11 471.684 269.91C471.684 270.73 472.324 271.37 473.144 271.37C473.944 271.37 474.584 270.73 474.584 269.91C474.584 269.11 473.944 268.47 473.144 268.47ZM482 257.87C479.16 257.87 476.84 259.91 476.84 264.69C476.84 269.49 479.16 271.51 482 271.51C484.86 271.51 487.16 269.49 487.16 264.69C487.16 259.91 484.86 257.87 482 257.87ZM482 259.99C483.54 259.99 484.8 261.23 484.8 264.69C484.8 268.17 483.54 269.39 482 269.39C480.46 269.39 479.2 268.17 479.2 264.69C479.2 261.23 480.46 259.99 482 259.99ZM494.558 257.87C491.718 257.87 489.398 259.91 489.398 264.69C489.398 269.49 491.718 271.51 494.558 271.51C497.418 271.51 499.718 269.49 499.718 264.69C499.718 259.91 497.418 257.87 494.558 257.87ZM494.558 259.99C496.098 259.99 497.358 261.23 497.358 264.69C497.358 268.17 496.098 269.39 494.558 269.39C493.018 269.39 491.758 268.17 491.758 264.69C491.758 261.23 493.018 259.99 494.558 259.99Z" fill="#161225"/>
<path d="M548 282.25C548 271.204 556.954 262.25 568 262.25H876C887.046 262.25 896 271.204 896 282.25V321.25C896 332.296 887.046 341.25 876 341.25H568C556.954 341.25 548 332.296 548 321.25V282.25Z" fill="#D7ECDF"/>
<path d="M624.632 295.954H627.44C629.216 295.954 630.224 297.01 630.224 298.954C630.224 300.802 629.216 301.858 627.392 301.858H624.632V295.954ZM621.872 293.506V309.25H624.632V304.306H627.68C631.04 304.306 633.176 301.954 633.176 298.906C633.176 295.378 631.16 293.506 627.656 293.506H621.872ZM639.833 309.562C641.993 309.562 643.337 308.242 643.937 306.778V309.25H646.553V297.154H643.937V299.506C643.073 297.61 641.753 296.818 639.857 296.818C637.313 296.818 634.529 298.858 634.529 303.082C634.529 307.498 637.337 309.562 639.833 309.562ZM640.577 299.074C642.353 299.074 643.937 300.418 643.937 303.226C643.937 306.106 642.353 307.282 640.553 307.282C638.897 307.282 637.169 306.034 637.169 303.226C637.169 300.37 638.921 299.074 640.577 299.074ZM650.81 313.45C653.162 313.45 654.674 312.202 655.61 309.754L660.434 297.154H657.53L654.482 306.61L651.29 297.154H648.362L652.826 308.314C653.426 309.85 652.85 311.266 651.05 311.266C650.114 311.266 649.514 310.978 649.13 310.738L648.722 313.018C649.298 313.282 649.994 313.45 650.81 313.45ZM675.259 299.194C676.771 299.194 677.899 300.034 677.899 302.266V309.25H680.515V301.138C680.515 297.898 678.523 296.818 676.315 296.818C674.971 296.818 673.291 297.346 672.379 299.146C671.755 297.442 670.291 296.818 668.731 296.818C667.339 296.818 665.683 297.394 664.843 298.978V297.154H662.227V309.25H664.843V302.338C664.843 300.178 666.019 299.194 667.603 299.194C668.995 299.194 670.051 300.034 670.051 302.266V309.25H672.691V302.338C672.691 300.178 673.771 299.194 675.259 299.194ZM689.07 299.074C690.75 299.074 692.07 299.866 692.31 301.81H685.758C686.142 299.986 687.342 299.074 689.07 299.074ZM694.806 303.778V302.914C694.806 299.338 692.454 296.818 689.166 296.818C685.662 296.818 682.998 299.266 682.998 303.154C682.998 307.138 685.782 309.562 689.334 309.562C691.566 309.562 694.254 308.29 694.71 305.482L692.286 305.074C691.998 306.466 691.206 307.306 689.238 307.306C687.054 307.306 685.854 305.914 685.662 303.778H694.806ZM702.952 299.194C704.368 299.194 705.496 300.034 705.496 302.266V309.25H708.136V301.138C708.136 297.898 706.072 296.818 703.912 296.818C702.472 296.818 700.792 297.418 699.952 298.978V297.154H697.336V309.25H699.952V302.338C699.952 300.178 701.2 299.194 702.952 299.194ZM712.119 294.226V297.154H709.863V299.266H712.119V305.938C712.119 308.17 713.223 309.562 715.647 309.562C716.367 309.562 717.231 309.37 717.855 309.178L717.447 307.066C716.967 307.186 716.679 307.234 716.175 307.234C715.119 307.234 714.735 306.754 714.735 305.818V299.266H717.759V297.154H714.735V293.818L712.119 294.226ZM726.32 300.562C726.32 302.242 727.28 303.466 729.344 303.922L731.528 304.402C732.968 304.714 733.376 305.194 733.376 305.914C733.376 306.898 732.44 307.474 731.024 307.474C729.344 307.474 728.216 306.658 728.048 305.17L725.72 305.602C726.128 308.41 728.744 309.562 731.096 309.562C733.424 309.562 735.896 308.266 735.896 305.626C735.896 303.946 734.912 302.818 732.776 302.362L730.376 301.834C729.248 301.594 728.84 300.946 728.84 300.322C728.84 299.458 729.632 298.906 730.784 298.906C732.224 298.906 733.304 299.434 733.376 301.018L735.728 300.586C735.032 297.898 733.208 296.818 730.76 296.818C728.792 296.818 726.32 297.898 726.32 300.562ZM749.08 309.25V297.154H746.44V304.186C746.44 306.25 745.096 307.186 743.32 307.186C741.712 307.186 740.896 306.466 740.896 304.618V297.154H738.28V305.602C738.28 308.386 740.296 309.562 742.312 309.562C743.824 309.562 745.48 308.866 746.44 307.234V309.25H749.08ZM763.551 301.858C763.119 298.594 760.527 296.818 757.719 296.818C754.239 296.818 751.623 299.266 751.623 303.178C751.623 306.922 754.215 309.562 757.911 309.562C760.239 309.562 762.975 308.29 763.527 304.594L761.127 304.162C760.863 306.226 759.735 307.282 757.887 307.282C755.415 307.282 754.263 305.41 754.263 303.178C754.263 300.49 755.751 299.074 757.599 299.074C759.279 299.074 760.671 299.986 760.959 302.266L763.551 301.858ZM777.028 301.858C776.596 298.594 774.004 296.818 771.196 296.818C767.715 296.818 765.1 299.266 765.1 303.178C765.1 306.922 767.692 309.562 771.388 309.562C773.716 309.562 776.452 308.29 777.004 304.594L774.604 304.162C774.34 306.226 773.212 307.282 771.364 307.282C768.892 307.282 767.74 305.41 767.74 303.178C767.74 300.49 769.228 299.074 771.076 299.074C772.756 299.074 774.148 299.986 774.436 302.266L777.028 301.858ZM784.648 299.074C786.328 299.074 787.648 299.866 787.888 301.81H781.336C781.72 299.986 782.92 299.074 784.648 299.074ZM790.384 303.778V302.914C790.384 299.338 788.032 296.818 784.744 296.818C781.24 296.818 778.576 299.266 778.576 303.154C778.576 307.138 781.36 309.562 784.912 309.562C787.144 309.562 789.832 308.29 790.288 305.482L787.864 305.074C787.576 306.466 786.784 307.306 784.816 307.306C782.632 307.306 781.432 305.914 781.24 303.778H790.384ZM792.554 300.562C792.554 302.242 793.514 303.466 795.578 303.922L797.762 304.402C799.202 304.714 799.61 305.194 799.61 305.914C799.61 306.898 798.674 307.474 797.258 307.474C795.578 307.474 794.45 306.658 794.282 305.17L791.954 305.602C792.362 308.41 794.978 309.562 797.33 309.562C799.658 309.562 802.13 308.266 802.13 305.626C802.13 303.946 801.146 302.818 799.01 302.362L796.61 301.834C795.482 301.594 795.074 300.946 795.074 300.322C795.074 299.458 795.866 298.906 797.018 298.906C798.458 298.906 799.538 299.434 799.61 301.018L801.962 300.586C801.266 297.898 799.442 296.818 796.994 296.818C795.026 296.818 792.554 297.898 792.554 300.562ZM804.226 300.562C804.226 302.242 805.186 303.466 807.25 303.922L809.434 304.402C810.874 304.714 811.282 305.194 811.282 305.914C811.282 306.898 810.346 307.474 808.93 307.474C807.25 307.474 806.122 306.658 805.954 305.17L803.626 305.602C804.034 308.41 806.65 309.562 809.002 309.562C811.33 309.562 813.802 308.266 813.802 305.626C813.802 303.946 812.818 302.818 810.682 302.362L808.282 301.834C807.154 301.594 806.746 300.946 806.746 300.322C806.746 299.458 807.538 298.906 808.69 298.906C810.13 298.906 811.21 299.434 811.282 301.018L813.634 300.586C812.938 297.898 811.114 296.818 808.666 296.818C806.698 296.818 804.226 297.898 804.226 300.562ZM816.81 309.25H819.45V299.266H822.45V297.154H819.45V296.674C819.45 295.426 820.026 294.778 821.106 294.778C821.658 294.778 822.138 294.874 822.642 295.018L823.002 292.978C822.426 292.762 821.706 292.57 820.818 292.57C818.418 292.57 816.81 294.13 816.81 296.698V297.154H815.154V299.266H816.81V309.25ZM834.978 309.25V297.154H832.338V304.186C832.338 306.25 830.994 307.186 829.218 307.186C827.61 307.186 826.794 306.466 826.794 304.618V297.154H824.178V305.602C824.178 308.386 826.194 309.562 828.21 309.562C829.722 309.562 831.378 308.866 832.338 307.234V309.25H834.978ZM838.289 292.978V309.25H840.905V292.978H838.289Z" fill="#161225"/>
<path fill-rule="evenodd" clip-rule="evenodd" d="M599.5 302.25C599.5 308.601 594.351 313.75 588 313.75C581.649 313.75 576.5 308.601 576.5 302.25C576.5 295.899 581.649 290.75 588 290.75C594.351 290.75 599.5 295.899 599.5 302.25ZM602 302.25C602 309.982 595.732 316.25 588 316.25C580.268 316.25 574 309.982 574 302.25C574 294.518 580.268 288.25 588 288.25C595.732 288.25 602 294.518 602 302.25ZM594.384 299.634C594.872 299.146 594.872 298.354 594.384 297.866C593.896 297.378 593.104 297.378 592.616 297.866L586 304.482L582.884 301.366C582.396 300.878 581.604 300.878 581.116 301.366C580.628 301.854 580.628 302.646 581.116 303.134L585.116 307.134C585.604 307.622 586.396 307.622 586.884 307.134L594.384 299.634Z" fill="black"/>
</g>
<defs>
<filter id="filter0_dd" x="71" y="45.25" width="885" height="515" filterUnits="userSpaceOnUse" color-interpolation-filters="sRGB">
<feFlood flood-opacity="0" result="BackgroundImageFix"/>
<feColorMatrix in="SourceAlpha" type="matrix" values="0 0 0 0 0 0 0 0 0 0 0 0 0 0 0 0 0 0 127 0"/>
<feOffset dy="1"/>
<feGaussianBlur stdDeviation="2"/>
<feColorMatrix type="matrix" values="0 0 0 0 0.0862745 0 0 0 0 0.0705882 0 0 0 0 0.145098 0 0 0 0.17 0"/>
<feBlend mode="normal" in2="BackgroundImageFix" result="effect1_dropShadow"/>
<feColorMatrix in="SourceAlpha" type="matrix" values="0 0 0 0 0 0 0 0 0 0 0 0 0 0 0 0 0 0 127 0"/>
<feOffset dy="1"/>
<feGaussianBlur stdDeviation="0.5"/>
<feColorMatrix type="matrix" values="0 0 0 0 0.0862745 0 0 0 0 0.0705882 0 0 0 0 0.145098 0 0 0 0.0498188 0"/>
<feBlend mode="normal" in2="effect1_dropShadow" result="effect2_dropShadow"/>
<feBlend mode="normal" in="SourceGraphic" in2="effect2_dropShadow" result="shape"/>
</filter>
</defs>
</svg>
