<svg width="846" height="417" viewBox="0 0 846 417" fill="none" xmlns="http://www.w3.org/2000/svg">
<rect y="0.261719" width="845.498" height="416.551" rx="1" fill="#FFF4EC"/>
<path d="M210.202 376.151C211.564 376.151 212.575 375.392 212.788 374.217H211.976C211.772 374.958 211.094 375.414 210.202 375.414C208.969 375.414 208.197 374.408 208.197 372.802C208.197 371.196 208.969 370.185 210.198 370.185C211.08 370.185 211.763 370.704 211.976 371.529H212.788C212.597 370.296 211.546 369.448 210.198 369.448C208.459 369.448 207.377 370.735 207.377 372.802C207.377 374.864 208.463 376.151 210.202 376.151ZM215.361 376.084C216 376.084 216.523 375.805 216.834 375.295H216.905V376H217.632V372.726C217.632 371.733 216.98 371.134 215.813 371.134C214.793 371.134 214.039 371.64 213.937 372.407H214.709C214.815 372.03 215.215 371.813 215.787 371.813C216.501 371.813 216.869 372.136 216.869 372.726V373.161L215.49 373.245C214.376 373.312 213.746 373.804 213.746 374.66C213.746 375.534 214.434 376.084 215.361 376.084ZM215.503 375.414C214.948 375.414 214.536 375.131 214.536 374.643C214.536 374.164 214.855 373.911 215.583 373.862L216.869 373.778V374.217C216.869 374.9 216.288 375.414 215.503 375.414ZM219.043 376H219.806V373.17C219.806 372.332 220.298 371.822 221.061 371.822C221.824 371.822 222.188 372.23 222.188 373.09V376H222.95V372.904C222.95 371.768 222.352 371.134 221.278 371.134C220.546 371.134 220.081 371.444 219.841 371.972H219.77V371.218H219.043V376ZM228.304 372.682C228.171 371.83 227.462 371.134 226.299 371.134C224.96 371.134 224.108 372.101 224.108 373.591C224.108 375.113 224.964 376.084 226.304 376.084C227.453 376.084 228.167 375.437 228.304 374.558H227.533C227.391 375.1 226.943 375.397 226.299 375.397C225.448 375.397 224.898 374.696 224.898 373.591C224.898 372.509 225.439 371.822 226.299 371.822C226.987 371.822 227.408 372.207 227.533 372.682H228.304ZM232.598 374.762C232.399 375.184 231.982 375.41 231.365 375.41C230.553 375.41 230.026 374.811 229.986 373.866V373.831H233.423V373.538C233.423 372.052 232.638 371.134 231.347 371.134C230.034 371.134 229.192 372.11 229.192 373.614C229.192 375.126 230.021 376.084 231.347 376.084C232.394 376.084 233.139 375.579 233.361 374.762H232.598ZM231.339 371.808C232.097 371.808 232.603 372.367 232.62 373.214H229.986C230.043 372.367 230.576 371.808 231.339 371.808ZM234.665 376H235.428V369.32H234.665V376Z" fill="#706B8B"/>
<g filter="url(#filter0_dd)">
<rect x="75" y="58.2617" width="292" height="292" rx="12.9778" fill="white"/>
</g>
<g filter="url(#filter1_d)">
<path fill-rule="evenodd" clip-rule="evenodd" d="M189.204 249.684C189.204 241.083 196.177 234.111 204.777 234.111H237.871C246.472 234.111 253.444 241.083 253.444 249.684C253.444 258.285 246.472 265.258 237.871 265.258H204.777C196.177 265.258 189.204 258.285 189.204 249.684Z" fill="#FF5B24"/>
</g>
<path d="M210.755 254.111V248.442H210.852L214.89 254.111H216.162V245.881H214.748V251.55H214.651L210.613 245.881H209.335V254.111H210.755ZM221.954 252.406C221.749 252.873 221.264 253.136 220.562 253.136C219.633 253.136 219.034 252.474 219 251.419V251.345H223.357V250.894C223.357 248.938 222.29 247.758 220.511 247.758C218.703 247.758 217.58 249.018 217.58 251.02C217.58 253.016 218.686 254.236 220.522 254.236C221.994 254.236 223.037 253.529 223.294 252.406H221.954ZM220.505 248.858C221.355 248.858 221.914 249.457 221.942 250.404H219.005C219.068 249.468 219.661 248.858 220.505 248.858ZM226.788 251.955L228.065 254.122H229.662L227.626 250.968L229.639 247.889H228.082L226.85 250.05H226.753L225.516 247.889H223.873L225.909 251.031L223.89 254.122H225.419L226.691 251.955H226.788ZM231.199 246.349V247.917H230.213V249.018H231.199V252.457C231.199 253.66 231.77 254.139 233.201 254.139C233.475 254.139 233.737 254.117 233.942 254.077V252.993C233.771 253.01 233.663 253.022 233.463 253.022C232.87 253.022 232.608 252.742 232.608 252.12V249.018H233.942V247.917H232.608V246.349H231.199Z" fill="white"/>
<rect x="120.422" y="189.986" width="201.156" height="31.1467" rx="3.89333" fill="#F6F6F9"/>
<path d="M166.032 211.237C168.716 211.237 170.252 209.078 170.252 205.306C170.252 201.572 168.488 199.755 166.123 199.755C163.872 199.755 162.275 201.329 162.275 203.534C162.275 205.663 163.788 207.207 165.879 207.207C167.187 207.207 168.26 206.584 168.799 205.519H168.921C168.845 208.439 167.834 210.021 166.047 210.021C164.967 210.021 164.131 209.42 163.842 208.431H162.435C162.777 210.157 164.169 211.237 166.032 211.237ZM166.123 206.021C164.67 206.021 163.659 204.987 163.659 203.489C163.659 202.051 164.731 200.956 166.138 200.956C167.545 200.956 168.617 202.067 168.617 203.534C168.617 204.987 167.575 206.021 166.123 206.021ZM174.112 205.93H175.473C177.017 205.93 177.968 206.72 177.968 207.99C177.968 209.222 176.941 210.051 175.496 210.051C174.082 210.051 173.093 209.313 172.972 208.158H171.648C171.747 210.021 173.283 211.245 175.511 211.245C177.694 211.245 179.374 209.869 179.374 208.028C179.374 206.5 178.431 205.534 177.009 205.306V205.184C178.135 204.857 178.956 203.983 178.964 202.66C178.971 201.124 177.724 199.755 175.557 199.755C173.337 199.755 171.975 201.07 171.839 202.857H173.169C173.283 201.626 174.143 200.949 175.466 200.949C176.789 200.949 177.572 201.785 177.572 202.812C177.572 203.952 176.675 204.759 175.413 204.759H174.112V205.93ZM185.934 210.986H187.273V208.713H188.831V207.488H187.273V200.014H185.288C183.752 202.302 182.071 204.979 180.588 207.466V208.713H185.934V210.986ZM181.988 207.405C183.181 205.39 184.619 203.124 185.851 201.283H185.942V207.496H181.988V207.405ZM193.974 203.108H195.297C195.297 201.808 196.172 200.949 197.487 200.949C198.78 200.949 199.563 201.816 199.563 202.979C199.563 203.945 199.153 204.515 197.754 206.028L194.043 210.043V210.986H201.145V209.754H195.944V209.633L198.438 207.055C200.415 205.009 200.963 204.097 200.963 202.835C200.963 201.055 199.495 199.755 197.579 199.755C195.48 199.755 193.974 201.154 193.974 203.108ZM207.591 210.986H208.929V208.713H210.488V207.488H208.929V200.014H206.944C205.408 202.302 203.728 204.979 202.245 207.466V208.713H207.591V210.986ZM203.644 207.405C204.838 205.39 206.275 203.124 207.507 201.283H207.598V207.496H203.644V207.405ZM216.156 210.986H217.593L222.475 201.283V200.014H215.213V201.238H221.083V201.344L216.156 210.986ZM223.864 203.108H225.187C225.187 201.808 226.061 200.949 227.377 200.949C228.67 200.949 229.453 201.816 229.453 202.979C229.453 203.945 229.042 204.515 227.643 206.028L223.932 210.043V210.986H231.034V209.754H225.833V209.633L228.327 207.055C230.304 205.009 230.852 204.097 230.852 202.835C230.852 201.055 229.384 199.755 227.468 199.755C225.369 199.755 223.864 201.154 223.864 203.108ZM236.347 211.245C238.59 211.245 240.119 209.694 240.119 207.435C240.119 205.26 238.598 203.816 236.758 203.816C235.663 203.816 234.849 204.15 234.317 204.812H234.195L234.537 201.238H239.556V200.014H233.465L232.834 206.287H234.119C234.553 205.473 235.374 204.994 236.416 204.994C237.8 204.994 238.75 205.99 238.75 207.473C238.75 209.009 237.8 210.043 236.362 210.043C235.07 210.043 234.127 209.26 234.005 208.089H232.659C232.781 209.967 234.271 211.245 236.347 211.245Z" fill="black"/>
<path d="M133.699 207.108H136.809V206.165H133.699V202.865H132.756V206.165H129.654V207.108H132.756V210.408H133.699V207.108ZM144.031 210.986H145.042V208.507H146.685V207.572H145.042V199.998H143.552C141.156 203.329 139.841 205.382 138.518 207.557V208.507H144.031V210.986ZM139.605 207.511C140.708 205.694 141.803 203.99 143.962 200.994H144.031V207.58H139.605V207.511ZM148.766 210.986H149.876L154.902 200.987V200.014H147.754V200.949H153.838V201.032L148.766 210.986Z" fill="#706B8B"/>
<rect opacity="0.9" x="241.638" y="196.475" width="1.29778" height="17.52" rx="0.648889" fill="#FF5B24"/>
<path d="M171.399 141.69H172.312C173.265 141.69 173.853 142.176 173.853 142.957C173.853 143.717 173.224 144.224 172.327 144.224C171.44 144.224 170.826 143.763 170.76 143.043H169.67C169.731 144.331 170.796 145.177 172.342 145.177C173.868 145.177 175.019 144.265 175.019 143.018C175.019 142.014 174.39 141.365 173.417 141.218V141.132C174.182 140.919 174.735 140.336 174.74 139.454C174.745 138.415 173.888 137.507 172.378 137.507C170.836 137.507 169.883 138.395 169.807 139.637H170.882C170.948 138.871 171.48 138.44 172.312 138.44C173.133 138.44 173.62 138.952 173.62 139.596C173.62 140.301 173.072 140.797 172.281 140.797H171.399V141.69ZM179.612 145H180.707V143.545H181.716V142.582H180.707V137.685H179.09C178.081 139.201 177.006 140.929 176.043 142.582V143.545H179.612V145ZM177.133 142.531C177.883 141.249 178.775 139.824 179.561 138.643H179.627V142.602H177.133V142.531ZM185.351 145.172C187.181 145.172 188.25 143.723 188.25 141.238C188.25 138.785 187.074 137.507 185.396 137.507C183.845 137.507 182.745 138.567 182.745 140.052C182.745 141.462 183.759 142.491 185.153 142.491C186.02 142.491 186.719 142.085 187.069 141.385H187.155C187.125 143.2 186.481 144.214 185.361 144.214C184.692 144.214 184.169 143.849 183.997 143.246H182.851C183.069 144.422 184.053 145.172 185.351 145.172ZM185.401 141.573C184.499 141.573 183.875 140.939 183.875 140.017C183.875 139.135 184.534 138.455 185.411 138.455C186.283 138.455 186.942 139.145 186.942 140.047C186.942 140.934 186.299 141.573 185.401 141.573ZM193.335 141.816H193.249V137.335H192.159V145H193.249V142.998L193.731 142.536L195.627 145H196.965L194.542 141.852L196.813 139.495H195.525L193.335 141.816ZM197.761 145H198.851V141.71C198.851 140.934 199.434 140.402 200.26 140.402C200.453 140.402 200.778 140.438 200.869 140.463V139.439C200.752 139.413 200.544 139.398 200.382 139.398C199.662 139.398 199.049 139.789 198.892 140.331H198.811V139.495H197.761V145ZM204.727 138.106V139.51H203.85V140.382H204.727V143.55C204.727 144.61 205.209 145.035 206.42 145.035C206.633 145.035 206.836 145.01 207.013 144.98V144.113C206.861 144.128 206.765 144.138 206.598 144.138C206.055 144.138 205.817 143.88 205.817 143.287V140.382H207.013V139.51H205.817V138.106H204.727ZM210.359 145.106C211.971 145.106 212.96 144.027 212.96 142.247C212.96 140.468 211.966 139.388 210.359 139.388C208.747 139.388 207.754 140.473 207.754 142.247C207.754 144.027 208.742 145.106 210.359 145.106ZM210.359 144.179C209.411 144.179 208.879 143.474 208.879 142.247C208.879 141.02 209.411 140.311 210.359 140.311C211.302 140.311 211.84 141.02 211.84 142.247C211.84 143.469 211.302 144.179 210.359 144.179ZM219.83 145C221.391 145 222.329 144.219 222.329 142.932C222.329 141.974 221.67 141.274 220.681 141.168V141.081C221.401 140.96 221.964 140.275 221.964 139.51C221.964 138.384 221.137 137.685 219.764 137.685H216.823V145H219.83ZM217.959 138.613H219.5C220.342 138.613 220.833 139.013 220.833 139.708C220.833 140.422 220.311 140.797 219.307 140.797H217.959V138.613ZM217.959 144.072V141.664H219.535C220.605 141.664 221.168 142.07 221.168 142.861C221.168 143.652 220.625 144.072 219.601 144.072H217.959ZM228.108 139.495H227.018V142.724C227.018 143.611 226.537 144.148 225.655 144.148C224.854 144.148 224.494 143.712 224.494 142.8V139.495H223.404V143.069C223.404 144.361 224.083 145.106 225.305 145.106C226.141 145.106 226.704 144.752 226.973 144.128H227.059V145H228.108V139.495ZM229.867 138.106V139.51H228.99V140.382H229.867V143.55C229.867 144.61 230.349 145.035 231.561 145.035C231.774 145.035 231.976 145.01 232.154 144.98V144.113C232.002 144.128 231.905 144.138 231.738 144.138C231.196 144.138 230.957 143.88 230.957 143.287V140.382H232.154V139.51H230.957V138.106H229.867ZM233.791 138.511C234.172 138.511 234.481 138.202 234.481 137.827C234.481 137.447 234.172 137.137 233.791 137.137C233.411 137.137 233.102 137.447 233.102 137.827C233.102 138.202 233.411 138.511 233.791 138.511ZM233.249 145H234.334V139.495H233.249V145ZM236.955 141.816H236.869V137.335H235.779V145H236.869V142.998L237.35 142.536L239.246 145H240.585L238.161 141.852L240.433 139.495H239.145L236.955 141.816ZM242.608 141.816H242.521V137.335H241.431V145H242.521V142.998L243.003 142.536L244.899 145H246.237L243.814 141.852L246.085 139.495H244.798L242.608 141.816ZM250.369 143.525C250.166 143.971 249.715 144.214 249.056 144.214C248.184 144.214 247.621 143.586 247.586 142.587V142.536H251.484V142.161C251.484 140.438 250.557 139.388 249.021 139.388C247.464 139.388 246.476 140.508 246.476 142.257C246.476 144.017 247.444 145.106 249.026 145.106C250.288 145.106 251.18 144.498 251.418 143.525H250.369ZM249.016 140.275C249.822 140.275 250.349 140.858 250.374 141.75H247.586C247.647 140.863 248.209 140.275 249.016 140.275ZM252.585 145H253.675V141.771C253.675 140.884 254.187 140.336 254.993 140.336C255.799 140.336 256.184 140.782 256.184 141.695V145H257.274V141.436C257.274 140.123 256.595 139.388 255.363 139.388C254.531 139.388 253.984 139.758 253.715 140.367H253.634V139.495H252.585V145ZM266.095 145H267.302L264.66 137.685H263.439L260.798 145H261.963L262.638 143.023H265.426L266.095 145ZM263.991 138.978H264.077L265.137 142.11H262.927L263.991 138.978ZM268.027 143.048C268.108 144.346 269.198 145.177 270.82 145.177C272.554 145.177 273.639 144.305 273.639 142.922C273.639 141.827 273.02 141.223 271.52 140.863L270.714 140.666C269.76 140.432 269.375 140.128 269.375 139.596C269.375 138.912 269.973 138.471 270.871 138.471C271.722 138.471 272.31 138.896 272.417 139.591H273.522C273.456 138.369 272.371 137.507 270.886 137.507C269.289 137.507 268.224 138.369 268.224 139.657C268.224 140.721 268.828 141.35 270.151 141.669L271.094 141.898C272.062 142.131 272.488 142.486 272.488 143.058C272.488 143.728 271.819 144.209 270.906 144.209C269.928 144.209 269.248 143.758 269.152 143.048H268.027Z" fill="#706B8B"/>
<path d="M208.659 115.498V126.471H210.621V122.844H212.841C215.062 122.844 216.62 121.361 216.62 119.171C216.62 116.981 215.107 115.498 212.925 115.498H208.659ZM210.621 117.102H212.408C213.814 117.102 214.628 117.855 214.628 119.171C214.628 120.501 213.807 121.262 212.4 121.262H210.621V117.102ZM219.906 126.6C220.941 126.6 221.952 126.06 222.416 125.186H222.454V126.471H224.279V120.92C224.279 119.3 222.979 118.243 220.979 118.243C218.926 118.243 217.64 119.323 217.557 120.828H219.313C219.435 120.159 220.005 119.726 220.903 119.726C221.838 119.726 222.408 120.212 222.408 121.057V121.634L220.279 121.756C218.317 121.878 217.215 122.737 217.215 124.167C217.215 125.619 218.348 126.6 219.906 126.6ZM220.477 125.17C219.656 125.17 219.108 124.752 219.108 124.091C219.108 123.452 219.633 123.041 220.545 122.98L222.408 122.866V123.482C222.408 124.456 221.549 125.17 220.477 125.17ZM226.941 129.467C228.782 129.467 229.671 128.79 230.356 126.79L233.276 118.41H231.283L229.382 124.859H229.344L227.451 118.41H225.382L228.249 126.478C228.257 126.501 228.135 126.904 228.135 126.927C227.93 127.672 227.527 127.969 226.744 127.969C226.63 127.969 226.295 127.961 226.196 127.938V129.436C226.295 129.459 226.827 129.467 226.941 129.467Z" fill="#161225"/>
<path fill-rule="evenodd" clip-rule="evenodd" d="M241.764 86.708C241.297 84.925 240.162 84.2173 238.614 84.2173C237.359 84.2173 235.784 84.925 235.784 86.6293C235.784 87.7304 236.545 88.5957 237.786 88.8187L238.961 89.0283C239.762 89.1724 239.989 89.474 239.989 89.8804C239.989 90.3392 239.495 90.6013 238.761 90.6013C237.8 90.6013 237.199 90.2605 237.105 89.3035L235.41 89.5657C235.677 91.414 237.332 92.1746 238.827 92.1746C240.242 92.1746 241.751 91.3616 241.751 89.7231C241.751 88.6086 241.07 87.7961 239.802 87.5598L238.507 87.3241C237.786 87.193 237.546 86.839 237.546 86.4982C237.546 86.0656 238.013 85.7905 238.654 85.7905C239.468 85.7905 240.042 86.0656 240.069 86.9701L241.764 86.708ZM204.08 89.5125L205.842 84.4133H207.911L204.84 91.9771H203.306L200.235 84.4134H202.304L204.08 89.5125ZM214.906 86.5769C214.906 87.1798 214.425 87.5993 213.864 87.5993C213.304 87.5993 212.823 87.1798 212.823 86.5769C212.823 85.9738 213.304 85.5545 213.864 85.5545C214.425 85.5545 214.906 85.9738 214.906 86.5769H214.906ZM215.226 89.2512C214.532 90.1424 213.798 90.7585 212.503 90.7585C211.182 90.7585 210.154 89.972 209.353 88.8185C209.032 88.3465 208.538 88.2417 208.178 88.4908C207.844 88.7268 207.764 89.2249 208.071 89.6576C209.179 91.3224 210.714 92.2923 212.503 92.2923C214.145 92.2923 215.426 91.5059 216.427 90.1949C216.801 89.71 216.788 89.2119 216.427 88.9365C216.094 88.6741 215.6 88.7663 215.226 89.2512ZM219.832 88.1761C219.832 89.7231 220.74 90.5359 221.754 90.5359C222.715 90.5359 223.703 89.7755 223.703 88.1761C223.703 86.6029 222.715 85.8428 221.768 85.8428C220.74 85.8428 219.832 86.5637 219.832 88.1761ZM219.832 85.4628V84.4269H217.95V94.5995H219.832V90.9813C220.459 91.8204 221.273 92.1746 222.194 92.1746C223.916 92.1746 225.598 90.8373 225.598 88.0845C225.598 85.4494 223.849 84.2174 222.354 84.2174C221.166 84.2174 220.352 84.7548 219.832 85.4628ZM228.869 88.1761C228.869 89.7231 229.777 90.5359 230.792 90.5359C231.753 90.5359 232.74 89.7755 232.74 88.1761C232.74 86.6029 231.753 85.8428 230.805 85.8428C229.777 85.8428 228.869 86.5637 228.869 88.1761H228.869ZM228.869 85.4628V84.4269H228.869H226.987V94.5995H228.869V90.9813C229.497 91.8204 230.311 92.1746 231.232 92.1746C232.954 92.1746 234.636 90.8373 234.636 88.0845C234.636 85.4494 232.887 84.2174 231.392 84.2174C230.204 84.2174 229.39 84.7548 228.869 85.4628Z" fill="#FF5B24"/>
<path d="M463.772 209.309C464.198 208.883 464.198 208.192 463.772 207.765L456.827 200.821C456.401 200.395 455.71 200.395 455.284 200.821C454.858 201.247 454.858 201.938 455.284 202.364L461.457 208.537L455.284 214.71C454.858 215.136 454.858 215.827 455.284 216.253C455.71 216.68 456.401 216.68 456.827 216.253L463.772 209.309ZM383 209.628L463 209.628L463 207.446L383 207.446L383 209.628Z" fill="#161225"/>
<path d="M613.222 375.151C614.581 375.151 615.591 374.393 615.803 373.22H614.993C614.789 373.959 614.112 374.415 613.222 374.415C611.991 374.415 611.22 373.41 611.22 371.807C611.22 370.204 611.991 369.195 613.217 369.195C614.098 369.195 614.78 369.713 614.993 370.536H615.803C615.613 369.305 614.563 368.46 613.217 368.46C611.481 368.46 610.401 369.744 610.401 371.807C610.401 373.866 611.486 375.151 613.222 375.151ZM618.371 375.084C619.009 375.084 619.532 374.805 619.842 374.296H619.912V375H620.639V371.732C620.639 370.74 619.988 370.142 618.823 370.142C617.805 370.142 617.052 370.647 616.95 371.413H617.721C617.827 371.037 618.225 370.82 618.797 370.82C619.509 370.82 619.877 371.143 619.877 371.732V372.166L618.5 372.25C617.388 372.317 616.76 372.808 616.76 373.663C616.76 374.535 617.446 375.084 618.371 375.084ZM618.513 374.415C617.96 374.415 617.548 374.132 617.548 373.645C617.548 373.167 617.867 372.914 618.593 372.866L619.877 372.782V373.22C619.877 373.902 619.297 374.415 618.513 374.415ZM622.047 375H622.808V372.175C622.808 371.338 623.3 370.829 624.062 370.829C624.823 370.829 625.186 371.236 625.186 372.095V375H625.948V371.909C625.948 370.776 625.35 370.142 624.279 370.142C623.548 370.142 623.083 370.452 622.844 370.979H622.773V370.226H622.047V375ZM631.293 371.688C631.16 370.838 630.451 370.142 629.291 370.142C627.954 370.142 627.104 371.108 627.104 372.596C627.104 374.114 627.958 375.084 629.296 375.084C630.443 375.084 631.155 374.438 631.293 373.561H630.522C630.381 374.101 629.933 374.398 629.291 374.398C628.441 374.398 627.892 373.698 627.892 372.596C627.892 371.515 628.432 370.829 629.291 370.829C629.978 370.829 630.398 371.214 630.522 371.688H631.293ZM635.579 373.765C635.38 374.185 634.964 374.411 634.348 374.411C633.538 374.411 633.011 373.813 632.971 372.87V372.835H636.403V372.542C636.403 371.059 635.619 370.142 634.33 370.142C633.02 370.142 632.178 371.117 632.178 372.618C632.178 374.128 633.006 375.084 634.33 375.084C635.376 375.084 636.119 374.579 636.341 373.765H635.579ZM634.322 370.815C635.079 370.815 635.584 371.373 635.601 372.219H632.971C633.029 371.373 633.56 370.815 634.322 370.815ZM637.643 375H638.404V368.331H637.643V375Z" fill="#706B8B"/>
<g filter="url(#filter2_dd)">
<rect x="479" y="58.2617" width="291.498" height="291.498" rx="12.9555" fill="white"/>
</g>
<path d="M518.208 294.334V291.192L520.799 287.032H519.762L517.793 290.276H517.712L515.744 287.032H514.706L517.297 291.192V294.334H518.208ZM523.148 294.431C524.701 294.431 525.663 293.358 525.663 291.607C525.663 289.851 524.701 288.783 523.148 288.783C521.594 288.783 520.633 289.851 520.633 291.607C520.633 293.358 521.594 294.431 523.148 294.431ZM523.148 293.646C522.115 293.646 521.533 292.897 521.533 291.607C521.533 290.311 522.115 289.567 523.148 289.567C524.18 289.567 524.762 290.311 524.762 291.607C524.762 292.897 524.18 293.646 523.148 293.646ZM531.235 288.879H530.365V292.108C530.365 293.064 529.838 293.636 528.877 293.636C528.006 293.636 527.642 293.181 527.642 292.199V288.879H526.772V292.411C526.772 293.702 527.409 294.431 528.634 294.431C529.469 294.431 530.051 294.086 530.324 293.479H530.405V294.334H531.235V288.879ZM535.436 294.334H536.306V291.106C536.306 290.185 536.843 289.567 537.82 289.567C538.644 289.567 539.08 290.048 539.08 291.015V294.334H539.95V290.802C539.95 289.522 539.221 288.783 538.067 288.783C537.232 288.783 536.661 289.137 536.387 289.739H536.306V286.713H535.436V294.334ZM542.85 294.431C543.579 294.431 544.176 294.112 544.53 293.53H544.611V294.334H545.441V290.6C545.441 289.466 544.697 288.783 543.366 288.783C542.202 288.783 541.342 289.36 541.226 290.235H542.106C542.228 289.805 542.683 289.557 543.336 289.557C544.151 289.557 544.571 289.927 544.571 290.6V291.096L542.997 291.192C541.727 291.268 541.008 291.829 541.008 292.806C541.008 293.803 541.792 294.431 542.85 294.431ZM543.012 293.666C542.379 293.666 541.909 293.343 541.909 292.786C541.909 292.239 542.273 291.951 543.103 291.895L544.571 291.799V292.3C544.571 293.079 543.908 293.666 543.012 293.666ZM551.094 288.879H550.163L548.67 293.373H548.589L547.096 288.879H546.165L548.184 294.334H549.075L551.094 288.879ZM555.462 292.923C555.234 293.403 554.758 293.661 554.055 293.661C553.129 293.661 552.527 292.978 552.481 291.9V291.86H556.403V291.526C556.403 289.83 555.507 288.783 554.035 288.783C552.537 288.783 551.575 289.896 551.575 291.612C551.575 293.338 552.522 294.431 554.035 294.431C555.229 294.431 556.079 293.854 556.332 292.923H555.462ZM554.025 289.552C554.89 289.552 555.467 290.19 555.487 291.156H552.481C552.547 290.19 553.154 289.552 554.025 289.552ZM560.28 294.334H561.15V290.954C561.15 290.185 561.753 289.628 562.583 289.628C562.755 289.628 563.069 289.658 563.139 289.679V288.808C563.028 288.793 562.846 288.783 562.704 288.783C561.98 288.783 561.353 289.157 561.191 289.689H561.11V288.879H560.28V294.334ZM567.482 292.923C567.254 293.403 566.778 293.661 566.075 293.661C565.149 293.661 564.546 292.978 564.501 291.9V291.86H568.423V291.526C568.423 289.83 567.527 288.783 566.055 288.783C564.557 288.783 563.595 289.896 563.595 291.612C563.595 293.338 564.541 294.431 566.055 294.431C567.249 294.431 568.099 293.854 568.352 292.923H567.482ZM566.044 289.552C566.91 289.552 567.487 290.19 567.507 291.156H564.501C564.567 290.19 565.174 289.552 566.044 289.552ZM574.096 290.549C573.944 289.577 573.135 288.783 571.809 288.783C570.28 288.783 569.309 289.886 569.309 291.586C569.309 293.322 570.286 294.431 571.814 294.431C573.125 294.431 573.939 293.692 574.096 292.69H573.216C573.054 293.307 572.543 293.646 571.809 293.646C570.837 293.646 570.21 292.847 570.21 291.586C570.21 290.352 570.827 289.567 571.809 289.567C572.593 289.567 573.074 290.008 573.216 290.549H574.096ZM578.788 292.923C578.56 293.403 578.084 293.661 577.381 293.661C576.455 293.661 575.853 292.978 575.807 291.9V291.86H579.729V291.526C579.729 289.83 578.833 288.783 577.361 288.783C575.863 288.783 574.901 289.896 574.901 291.612C574.901 293.338 575.847 294.431 577.361 294.431C578.555 294.431 579.405 293.854 579.658 292.923H578.788ZM577.35 289.552C578.216 289.552 578.793 290.19 578.813 291.156H575.807C575.873 290.19 576.48 289.552 577.35 289.552ZM581.344 287.826C581.678 287.826 581.951 287.553 581.951 287.219C581.951 286.885 581.678 286.612 581.344 286.612C581.01 286.612 580.736 286.885 580.736 287.219C580.736 287.553 581.01 287.826 581.344 287.826ZM580.908 294.334H581.779V288.879H580.908V294.334ZM587.685 288.879H586.754L585.261 293.373H585.18L583.687 288.879H582.756L584.775 294.334H585.666L587.685 288.879ZM592.053 292.923C591.825 293.403 591.349 293.661 590.646 293.661C589.72 293.661 589.117 292.978 589.072 291.9V291.86H592.994V291.526C592.994 289.83 592.098 288.783 590.625 288.783C589.127 288.783 588.166 289.896 588.166 291.612C588.166 293.338 589.112 294.431 590.625 294.431C591.82 294.431 592.67 293.854 592.923 292.923H592.053ZM590.615 289.552C591.481 289.552 592.058 290.19 592.078 291.156H589.072C589.138 290.19 589.745 289.552 590.615 289.552ZM596.172 294.431C596.926 294.431 597.574 294.071 597.918 293.464H597.999V294.334H598.829V286.713H597.959V289.739H597.883C597.574 289.142 596.931 288.783 596.172 288.783C594.786 288.783 593.88 289.896 593.88 291.607C593.88 293.322 594.775 294.431 596.172 294.431ZM596.375 289.567C597.361 289.567 597.979 290.357 597.979 291.607C597.979 292.867 597.366 293.646 596.375 293.646C595.378 293.646 594.78 292.882 594.78 291.607C594.78 290.336 595.383 289.567 596.375 289.567ZM604.548 294.431C605.277 294.431 605.874 294.112 606.228 293.53H606.309V294.334H607.139V290.6C607.139 289.466 606.395 288.783 605.064 288.783C603.9 288.783 603.04 289.36 602.924 290.235H603.804C603.926 289.805 604.381 289.557 605.034 289.557C605.849 289.557 606.269 289.927 606.269 290.6V291.096L604.695 291.192C603.425 291.268 602.706 291.829 602.706 292.806C602.706 293.803 603.49 294.431 604.548 294.431ZM604.71 293.666C604.077 293.666 603.607 293.343 603.607 292.786C603.607 292.239 603.971 291.951 604.801 291.895L606.269 291.799V292.3C606.269 293.079 605.606 293.666 604.71 293.666ZM611.259 294.334H612.129V291.106C612.129 290.149 612.691 289.567 613.562 289.567C614.432 289.567 614.847 290.033 614.847 291.015V294.334H615.717V290.802C615.717 289.507 615.034 288.783 613.81 288.783C612.975 288.783 612.443 289.137 612.17 289.739H612.089V288.879H611.259V294.334ZM619.346 294.431C620.9 294.431 621.861 293.358 621.861 291.607C621.861 289.851 620.9 288.783 619.346 288.783C617.793 288.783 616.831 289.851 616.831 291.607C616.831 293.358 617.793 294.431 619.346 294.431ZM619.346 293.646C618.314 293.646 617.732 292.897 617.732 291.607C617.732 290.311 618.314 289.567 619.346 289.567C620.379 289.567 620.961 290.311 620.961 291.607C620.961 292.897 620.379 293.646 619.346 293.646ZM623.385 287.467V288.879H622.504V289.608H623.385V292.917C623.385 293.96 623.835 294.375 624.959 294.375C625.131 294.375 625.298 294.355 625.47 294.324V293.591C625.308 293.606 625.222 293.611 625.065 293.611C624.498 293.611 624.255 293.338 624.255 292.695V289.608H625.47V288.879H624.255V287.467H623.385ZM627.034 287.826C627.368 287.826 627.641 287.553 627.641 287.219C627.641 286.885 627.368 286.612 627.034 286.612C626.7 286.612 626.427 286.885 626.427 287.219C626.427 287.553 626.7 287.826 627.034 287.826ZM626.599 294.334H627.469V288.879H626.599V294.334ZM629.286 294.334H630.157V289.608H631.407V288.879H630.157V288.297C630.157 287.7 630.42 287.396 631.047 287.396C631.204 287.396 631.351 287.401 631.457 287.422V286.713C631.275 286.678 631.083 286.662 630.87 286.662C629.833 286.662 629.286 287.184 629.286 288.272V288.879H628.38V289.608H629.286V294.334ZM632.925 287.826C633.259 287.826 633.532 287.553 633.532 287.219C633.532 286.885 633.259 286.612 632.925 286.612C632.591 286.612 632.318 286.885 632.318 287.219C632.318 287.553 632.591 287.826 632.925 287.826ZM632.49 294.334H633.36V288.879H632.49V294.334ZM639.327 290.549C639.175 289.577 638.365 288.783 637.04 288.783C635.511 288.783 634.54 289.886 634.54 291.586C634.54 293.322 635.516 294.431 637.045 294.431C638.355 294.431 639.17 293.692 639.327 292.69H638.446C638.285 293.307 637.773 293.646 637.04 293.646C636.068 293.646 635.44 292.847 635.44 291.586C635.44 290.352 636.058 289.567 637.04 289.567C637.824 289.567 638.305 290.008 638.446 290.549H639.327ZM641.923 294.431C642.652 294.431 643.249 294.112 643.604 293.53H643.685V294.334H644.514V290.6C644.514 289.466 643.771 288.783 642.44 288.783C641.276 288.783 640.415 289.36 640.299 290.235H641.179C641.301 289.805 641.756 289.557 642.409 289.557C643.224 289.557 643.644 289.927 643.644 290.6V291.096L642.07 291.192C640.8 291.268 640.081 291.829 640.081 292.806C640.081 293.803 640.866 294.431 641.923 294.431ZM642.085 293.666C641.453 293.666 640.982 293.343 640.982 292.786C640.982 292.239 641.346 291.951 642.176 291.895L643.644 291.799V292.3C643.644 293.079 642.981 293.666 642.085 293.666ZM646.281 287.467V288.879H645.4V289.608H646.281V292.917C646.281 293.96 646.731 294.375 647.855 294.375C648.027 294.375 648.194 294.355 648.366 294.324V293.591C648.204 293.606 648.118 293.611 647.961 293.611C647.394 293.611 647.151 293.338 647.151 292.695V289.608H648.366V288.879H647.151V287.467H646.281ZM649.93 287.826C650.264 287.826 650.537 287.553 650.537 287.219C650.537 286.885 650.264 286.612 649.93 286.612C649.596 286.612 649.323 286.885 649.323 287.219C649.323 287.553 649.596 287.826 649.93 287.826ZM649.495 294.334H650.365V288.879H649.495V294.334ZM654.06 294.431C655.613 294.431 656.575 293.358 656.575 291.607C656.575 289.851 655.613 288.783 654.06 288.783C652.506 288.783 651.544 289.851 651.544 291.607C651.544 293.358 652.506 294.431 654.06 294.431ZM654.06 293.646C653.027 293.646 652.445 292.897 652.445 291.607C652.445 290.311 653.027 289.567 654.06 289.567C655.092 289.567 655.674 290.311 655.674 291.607C655.674 292.897 655.092 293.646 654.06 293.646ZM657.734 294.334H658.604V291.106C658.604 290.149 659.166 289.567 660.037 289.567C660.907 289.567 661.322 290.033 661.322 291.015V294.334H662.192V290.802C662.192 289.507 661.509 288.783 660.285 288.783C659.449 288.783 658.918 289.137 658.645 289.739H658.564V288.879H657.734V294.334ZM668.539 294.431C670.093 294.431 671.054 293.358 671.054 291.607C671.054 289.851 670.093 288.783 668.539 288.783C666.985 288.783 666.024 289.851 666.024 291.607C666.024 293.358 666.985 294.431 668.539 294.431ZM668.539 293.646C667.507 293.646 666.925 292.897 666.925 291.607C666.925 290.311 667.507 289.567 668.539 289.567C669.571 289.567 670.153 290.311 670.153 291.607C670.153 292.897 669.571 293.646 668.539 293.646ZM672.213 294.334H673.084V291.106C673.084 290.149 673.645 289.567 674.516 289.567C675.386 289.567 675.801 290.033 675.801 291.015V294.334H676.672V290.802C676.672 289.507 675.989 288.783 674.764 288.783C673.929 288.783 673.397 289.137 673.124 289.739H673.043V288.879H672.213V294.334ZM681.242 296.308C682.209 296.308 682.644 295.934 683.109 294.668L685.24 288.879H684.314L682.821 293.368H682.74L681.242 288.879H680.301L682.32 294.34L682.219 294.663C681.991 295.321 681.718 295.559 681.217 295.559C681.095 295.559 680.959 295.554 680.852 295.534V296.278C680.974 296.298 681.126 296.308 681.242 296.308ZM688.236 294.431C689.79 294.431 690.751 293.358 690.751 291.607C690.751 289.851 689.79 288.783 688.236 288.783C686.682 288.783 685.721 289.851 685.721 291.607C685.721 293.358 686.682 294.431 688.236 294.431ZM688.236 293.646C687.204 293.646 686.622 292.897 686.622 291.607C686.622 290.311 687.204 289.567 688.236 289.567C689.269 289.567 689.85 290.311 689.85 291.607C689.85 292.897 689.269 293.646 688.236 293.646ZM696.323 288.879H695.453V292.108C695.453 293.064 694.927 293.636 693.965 293.636C693.095 293.636 692.73 293.181 692.73 292.199V288.879H691.86V292.411C691.86 293.702 692.497 294.431 693.722 294.431C694.557 294.431 695.139 294.086 695.412 293.479H695.493V294.334H696.323V288.879ZM697.756 294.334H698.626V290.954C698.626 290.185 699.228 289.628 700.058 289.628C700.23 289.628 700.544 289.658 700.615 289.679V288.808C700.504 288.793 700.322 288.783 700.18 288.783C699.456 288.783 698.829 289.157 698.667 289.689H698.586V288.879H697.756V294.334ZM706.871 288.783C706.127 288.783 705.474 289.162 705.125 289.79H705.044V288.879H704.214V296.156H705.084V293.515H705.165C705.464 294.092 706.091 294.431 706.871 294.431C708.257 294.431 709.163 293.312 709.163 291.607C709.163 289.891 708.262 288.783 706.871 288.783ZM706.663 293.646C705.681 293.646 705.059 292.857 705.059 291.607C705.059 290.352 705.681 289.567 706.668 289.567C707.665 289.567 708.262 290.331 708.262 291.607C708.262 292.882 707.665 293.646 706.663 293.646ZM710.373 294.334H711.243V291.106C711.243 290.185 711.78 289.567 712.756 289.567C713.581 289.567 714.016 290.048 714.016 291.015V294.334H714.887V290.802C714.887 289.522 714.158 288.783 713.004 288.783C712.169 288.783 711.597 289.137 711.324 289.739H711.243V286.713H710.373V294.334ZM718.511 294.431C720.064 294.431 721.026 293.358 721.026 291.607C721.026 289.851 720.064 288.783 718.511 288.783C716.957 288.783 715.995 289.851 715.995 291.607C715.995 293.358 716.957 294.431 718.511 294.431ZM718.511 293.646C717.478 293.646 716.896 292.897 716.896 291.607C716.896 290.311 717.478 289.567 718.511 289.567C719.543 289.567 720.125 290.311 720.125 291.607C720.125 292.897 719.543 293.646 718.511 293.646ZM722.185 294.334H723.055V291.106C723.055 290.149 723.617 289.567 724.488 289.567C725.358 289.567 725.773 290.033 725.773 291.015V294.334H726.643V290.802C726.643 289.507 725.96 288.783 724.736 288.783C723.901 288.783 723.369 289.137 723.096 289.739H723.015V288.879H722.185V294.334ZM731.644 292.923C731.416 293.403 730.94 293.661 730.237 293.661C729.311 293.661 728.708 292.978 728.663 291.9V291.86H732.585V291.526C732.585 289.83 731.689 288.783 730.216 288.783C728.719 288.783 727.757 289.896 727.757 291.612C727.757 293.338 728.703 294.431 730.216 294.431C731.411 294.431 732.261 293.854 732.514 292.923H731.644ZM730.206 289.552C731.072 289.552 731.649 290.19 731.669 291.156H728.663C728.729 290.19 729.336 289.552 730.206 289.552ZM734.463 294.385C734.827 294.385 735.121 294.086 735.121 293.727C735.121 293.363 734.827 293.069 734.463 293.069C734.103 293.069 733.805 293.363 733.805 293.727C733.805 294.086 734.103 294.385 734.463 294.385ZM537.146 299.86C535.082 299.86 533.796 301.332 533.796 303.681C533.796 306.019 535.051 307.507 537.146 307.507C539.231 307.507 540.497 306.014 540.497 303.681C540.497 301.338 539.221 299.86 537.146 299.86ZM537.146 300.7C538.639 300.7 539.56 301.854 539.56 303.681C539.56 305.492 538.644 306.666 537.146 306.666C535.628 306.666 534.732 305.492 534.732 303.681C534.732 301.854 535.659 300.7 537.146 300.7ZM544.414 301.783C543.67 301.783 543.017 302.162 542.668 302.79H542.587V301.879H541.757V309.156H542.627V306.515H542.708C543.007 307.092 543.634 307.431 544.414 307.431C545.8 307.431 546.706 306.312 546.706 304.607C546.706 302.891 545.806 301.783 544.414 301.783ZM544.206 306.646C543.225 306.646 542.602 305.857 542.602 304.607C542.602 303.352 543.225 302.567 544.211 302.567C545.208 302.567 545.806 303.331 545.806 304.607C545.806 305.882 545.208 306.646 544.206 306.646ZM551.479 305.923C551.251 306.403 550.775 306.661 550.072 306.661C549.146 306.661 548.544 305.978 548.498 304.9V304.86H552.42V304.526C552.42 302.83 551.524 301.783 550.052 301.783C548.554 301.783 547.592 302.896 547.592 304.612C547.592 306.338 548.539 307.431 550.052 307.431C551.246 307.431 552.096 306.854 552.349 305.923H551.479ZM550.042 302.552C550.907 302.552 551.484 303.19 551.504 304.156H548.498C548.564 303.19 549.171 302.552 550.042 302.552ZM553.579 307.334H554.45V304.106C554.45 303.149 555.011 302.567 555.882 302.567C556.752 302.567 557.167 303.033 557.167 304.015V307.334H558.038V303.802C558.038 302.507 557.355 301.783 556.13 301.783C555.295 301.783 554.763 302.137 554.49 302.739H554.409V301.879H553.579V307.334ZM565.265 307.334L567.957 300.032H567.001L564.855 306.155H564.774L562.628 300.032H561.672L564.364 307.334H565.265ZM569.374 300.826C569.708 300.826 569.982 300.553 569.982 300.219C569.982 299.885 569.708 299.612 569.374 299.612C569.04 299.612 568.767 299.885 568.767 300.219C568.767 300.553 569.04 300.826 569.374 300.826ZM568.939 307.334H569.81V301.879H568.939V307.334ZM573.919 301.783C573.175 301.783 572.522 302.162 572.173 302.79H572.092V301.879H571.262V309.156H572.133V306.515H572.214C572.512 307.092 573.14 307.431 573.919 307.431C575.306 307.431 576.212 306.312 576.212 304.607C576.212 302.891 575.311 301.783 573.919 301.783ZM573.712 306.646C572.73 306.646 572.107 305.857 572.107 304.607C572.107 303.352 572.73 302.567 573.717 302.567C574.714 302.567 575.311 303.331 575.311 304.607C575.311 305.882 574.714 306.646 573.712 306.646ZM580.028 301.783C579.284 301.783 578.631 302.162 578.282 302.79H578.201V301.879H577.371V309.156H578.241V306.515H578.322C578.621 307.092 579.248 307.431 580.028 307.431C581.414 307.431 582.32 306.312 582.32 304.607C582.32 302.891 581.419 301.783 580.028 301.783ZM579.82 306.646C578.838 306.646 578.216 305.857 578.216 304.607C578.216 303.352 578.838 302.567 579.825 302.567C580.822 302.567 581.419 303.331 581.419 304.607C581.419 305.882 580.822 306.646 579.82 306.646ZM583.353 303.372C583.353 304.161 583.818 304.602 584.841 304.85L585.777 305.077C586.359 305.219 586.642 305.472 586.642 305.847C586.642 306.348 586.116 306.697 585.382 306.697C584.684 306.697 584.248 306.403 584.102 305.943H583.206C583.302 306.849 584.137 307.431 585.352 307.431C586.592 307.431 587.538 306.758 587.538 305.781C587.538 304.996 587.042 304.551 586.015 304.303L585.175 304.101C584.532 303.944 584.228 303.711 584.228 303.336C584.228 302.851 584.734 302.522 585.382 302.522C586.04 302.522 586.465 302.81 586.581 303.245H587.442C587.325 302.35 586.531 301.783 585.387 301.783C584.228 301.783 583.353 302.466 583.353 303.372ZM592.933 307.431C593.662 307.431 594.259 307.112 594.613 306.53H594.694V307.334H595.524V303.6C595.524 302.466 594.78 301.783 593.449 301.783C592.285 301.783 591.425 302.36 591.309 303.235H592.189C592.311 302.805 592.766 302.557 593.419 302.557C594.234 302.557 594.654 302.927 594.654 303.6V304.096L593.08 304.192C591.81 304.268 591.091 304.829 591.091 305.806C591.091 306.803 591.875 307.431 592.933 307.431ZM593.095 306.666C592.462 306.666 591.992 306.343 591.992 305.786C591.992 305.239 592.356 304.951 593.186 304.895L594.654 304.799V305.3C594.654 306.079 593.991 306.666 593.095 306.666ZM596.926 307.334H597.797V304.106C597.797 303.149 598.358 302.567 599.229 302.567C600.099 302.567 600.514 303.033 600.514 304.015V307.334H601.385V303.802C601.385 302.507 600.701 301.783 599.477 301.783C598.642 301.783 598.11 302.137 597.837 302.739H597.756V301.879H596.926V307.334ZM604.791 307.431C605.545 307.431 606.193 307.071 606.537 306.464H606.618V307.334H607.448V299.713H606.577V302.739H606.501C606.193 302.142 605.55 301.783 604.791 301.783C603.404 301.783 602.498 302.896 602.498 304.607C602.498 306.322 603.394 307.431 604.791 307.431ZM604.993 302.567C605.98 302.567 606.597 303.357 606.597 304.607C606.597 305.867 605.985 306.646 604.993 306.646C603.996 306.646 603.399 305.882 603.399 304.607C603.399 303.336 604.001 302.567 604.993 302.567ZM612.013 307.334H612.883V302.608H614.133V301.879H612.883V301.297C612.883 300.7 613.146 300.396 613.774 300.396C613.931 300.396 614.078 300.401 614.184 300.422V299.713C614.002 299.678 613.809 299.662 613.597 299.662C612.559 299.662 612.013 300.184 612.013 301.272V301.879H611.107V302.608H612.013V307.334ZM617.205 307.431C618.759 307.431 619.721 306.358 619.721 304.607C619.721 302.851 618.759 301.783 617.205 301.783C615.652 301.783 614.69 302.851 614.69 304.607C614.69 306.358 615.652 307.431 617.205 307.431ZM617.205 306.646C616.173 306.646 615.591 305.897 615.591 304.607C615.591 303.311 616.173 302.567 617.205 302.567C618.238 302.567 618.82 303.311 618.82 304.607C618.82 305.897 618.238 306.646 617.205 306.646ZM620.93 307.334H621.801V299.713H620.93V307.334ZM623.334 307.334H624.205V299.713H623.334V307.334ZM627.93 307.431C629.483 307.431 630.445 306.358 630.445 304.607C630.445 302.851 629.483 301.783 627.93 301.783C626.376 301.783 625.414 302.851 625.414 304.607C625.414 306.358 626.376 307.431 627.93 307.431ZM627.93 306.646C626.897 306.646 626.315 305.897 626.315 304.607C626.315 303.311 626.897 302.567 627.93 302.567C628.962 302.567 629.544 303.311 629.544 304.607C629.544 305.897 628.962 306.646 627.93 306.646ZM638.264 301.879H637.388L636.315 306.241H636.234L635.015 301.879H634.18L632.96 306.241H632.879L631.806 301.879H630.926L632.454 307.334H633.335L634.549 303.114H634.63L635.85 307.334H636.736L638.264 301.879ZM642.303 300.467V301.879H641.422V302.608H642.303V305.917C642.303 306.96 642.753 307.375 643.877 307.375C644.049 307.375 644.216 307.355 644.388 307.324V306.591C644.226 306.606 644.14 306.611 643.983 306.611C643.416 306.611 643.173 306.338 643.173 305.695V302.608H644.388V301.879H643.173V300.467H642.303ZM645.547 307.334H646.417V304.106C646.417 303.185 646.954 302.567 647.93 302.567C648.755 302.567 649.191 303.048 649.191 304.015V307.334H650.061V303.802C650.061 302.522 649.332 301.783 648.178 301.783C647.343 301.783 646.772 302.137 646.498 302.739H646.417V299.713H645.547V307.334ZM655.056 305.923C654.828 306.403 654.353 306.661 653.649 306.661C652.723 306.661 652.121 305.978 652.075 304.9V304.86H655.997V304.526C655.997 302.83 655.102 301.783 653.629 301.783C652.131 301.783 651.17 302.896 651.17 304.612C651.17 306.338 652.116 307.431 653.629 307.431C654.823 307.431 655.674 306.854 655.927 305.923H655.056ZM653.619 302.552C654.484 302.552 655.061 303.19 655.081 304.156H652.075C652.141 303.19 652.748 302.552 653.619 302.552ZM660.33 300.826C660.664 300.826 660.937 300.553 660.937 300.219C660.937 299.885 660.664 299.612 660.33 299.612C659.996 299.612 659.723 299.885 659.723 300.219C659.723 300.553 659.996 300.826 660.33 300.826ZM659.895 307.334H660.765V301.879H659.895V307.334ZM662.218 307.334H663.088V304.106C663.088 303.149 663.65 302.567 664.52 302.567C665.391 302.567 665.806 303.033 665.806 304.015V307.334H666.676V303.802C666.676 302.507 665.993 301.783 664.768 301.783C663.933 301.783 663.402 302.137 663.129 302.739H663.048V301.879H662.218V307.334ZM667.937 303.372C667.937 304.161 668.402 304.602 669.424 304.85L670.361 305.077C670.943 305.219 671.226 305.472 671.226 305.847C671.226 306.348 670.7 306.697 669.966 306.697C669.267 306.697 668.832 306.403 668.686 305.943H667.79C667.886 306.849 668.721 307.431 669.936 307.431C671.175 307.431 672.122 306.758 672.122 305.781C672.122 304.996 671.626 304.551 670.598 304.303L669.758 304.101C669.116 303.944 668.812 303.711 668.812 303.336C668.812 302.851 669.318 302.522 669.966 302.522C670.624 302.522 671.049 302.81 671.165 303.245H672.026C671.909 302.35 671.115 301.783 669.971 301.783C668.812 301.783 667.937 302.466 667.937 303.372ZM673.595 300.467V301.879H672.714V302.608H673.595V305.917C673.595 306.96 674.045 307.375 675.168 307.375C675.341 307.375 675.508 307.355 675.68 307.324V306.591C675.518 306.606 675.432 306.611 675.275 306.611C674.708 306.611 674.465 306.338 674.465 305.695V302.608H675.68V301.879H674.465V300.467H673.595ZM676.788 307.334H677.659V303.954C677.659 303.185 678.261 302.628 679.091 302.628C679.263 302.628 679.577 302.658 679.647 302.679V301.808C679.536 301.793 679.354 301.783 679.212 301.783C678.489 301.783 677.861 302.157 677.699 302.689H677.618V301.879H676.788V307.334ZM684.941 301.879H684.071V305.108C684.071 306.064 683.544 306.636 682.583 306.636C681.712 306.636 681.348 306.181 681.348 305.199V301.879H680.478V305.411C680.478 306.702 681.115 307.431 682.34 307.431C683.175 307.431 683.757 307.086 684.03 306.479H684.111V307.334H684.941V301.879ZM690.888 303.549C690.736 302.577 689.926 301.783 688.6 301.783C687.072 301.783 686.1 302.886 686.1 304.586C686.1 306.322 687.077 307.431 688.605 307.431C689.916 307.431 690.731 306.692 690.888 305.69H690.007C689.845 306.307 689.334 306.646 688.6 306.646C687.629 306.646 687.001 305.847 687.001 304.586C687.001 303.352 687.619 302.567 688.6 302.567C689.385 302.567 689.865 303.008 690.007 303.549H690.888ZM692.431 300.467V301.879H691.551V302.608H692.431V305.917C692.431 306.96 692.882 307.375 694.005 307.375C694.177 307.375 694.344 307.355 694.516 307.324V306.591C694.355 306.606 694.269 306.611 694.112 306.611C693.545 306.611 693.302 306.338 693.302 305.695V302.608H694.516V301.879H693.302V300.467H692.431ZM696.08 300.826C696.414 300.826 696.688 300.553 696.688 300.219C696.688 299.885 696.414 299.612 696.08 299.612C695.746 299.612 695.473 299.885 695.473 300.219C695.473 300.553 695.746 300.826 696.08 300.826ZM695.645 307.334H696.516V301.879H695.645V307.334ZM700.21 307.431C701.764 307.431 702.725 306.358 702.725 304.607C702.725 302.851 701.764 301.783 700.21 301.783C698.657 301.783 697.695 302.851 697.695 304.607C697.695 306.358 698.657 307.431 700.21 307.431ZM700.21 306.646C699.178 306.646 698.596 305.897 698.596 304.607C698.596 303.311 699.178 302.567 700.21 302.567C701.243 302.567 701.825 303.311 701.825 304.607C701.825 305.897 701.243 306.646 700.21 306.646ZM703.885 307.334H704.755V304.106C704.755 303.149 705.317 302.567 706.187 302.567C707.058 302.567 707.473 303.033 707.473 304.015V307.334H708.343V303.802C708.343 302.507 707.66 301.783 706.435 301.783C705.6 301.783 705.069 302.137 704.795 302.739H704.714V301.879H703.885V307.334ZM709.603 303.372C709.603 304.161 710.069 304.602 711.091 304.85L712.027 305.077C712.609 305.219 712.893 305.472 712.893 305.847C712.893 306.348 712.366 306.697 711.633 306.697C710.934 306.697 710.499 306.403 710.352 305.943H709.457C709.553 306.849 710.388 307.431 711.602 307.431C712.842 307.431 713.789 306.758 713.789 305.781C713.789 304.996 713.293 304.551 712.265 304.303L711.425 304.101C710.782 303.944 710.479 303.711 710.479 303.336C710.479 302.851 710.985 302.522 711.633 302.522C712.291 302.522 712.716 302.81 712.832 303.245H713.692C713.576 302.35 712.781 301.783 711.638 301.783C710.479 301.783 709.603 302.466 709.603 303.372ZM715.666 307.385C716.031 307.385 716.324 307.086 716.324 306.727C716.324 306.363 716.031 306.069 715.666 306.069C715.307 306.069 715.008 306.363 715.008 306.727C715.008 307.086 715.307 307.385 715.666 307.385Z" fill="#161225"/>
<path fill-rule="evenodd" clip-rule="evenodd" d="M607.907 169.031C604.33 169.031 601.43 171.931 601.43 175.508V257.128C601.43 260.705 604.33 263.606 607.907 263.606H641.592C645.169 263.606 648.069 260.705 648.069 257.128V175.508C648.069 171.931 645.169 169.031 641.592 169.031H607.907ZM644.83 180.691H604.668V251.946H644.83V180.691Z" fill="#706B8B"/>
<path fill-rule="evenodd" clip-rule="evenodd" d="M628.279 204.739C630.621 204.739 631.791 204.739 633.051 205.138C634.427 205.638 635.511 206.722 636.011 208.098C636.41 209.358 636.41 210.529 636.41 212.87V219.929C636.41 222.27 636.41 223.44 636.011 224.7C635.511 226.076 634.427 227.16 633.051 227.661C631.791 228.059 630.621 228.059 628.279 228.059H621.22C618.879 228.059 617.709 228.059 616.448 227.661C615.073 227.16 613.989 226.076 613.488 224.7C613.09 223.44 613.09 222.27 613.09 219.929V212.87C613.09 210.529 613.09 209.358 613.488 208.098C613.989 206.722 615.073 205.638 616.448 205.138C617.709 204.739 618.879 204.739 621.22 204.739H628.279Z" fill="#FF5B24"/>
<path fill-rule="evenodd" clip-rule="evenodd" d="M627.125 214.334C627.971 214.334 628.711 213.698 628.711 212.744C628.711 211.842 627.971 211.153 627.125 211.153C626.279 211.153 625.539 211.789 625.539 212.744C625.539 213.698 626.279 214.334 627.125 214.334ZM629.187 216.933C628.129 218.311 627.019 219.266 625.063 219.266C623.054 219.266 621.468 218.046 620.305 216.296C619.829 215.554 619.036 215.395 618.507 215.766C617.979 216.137 617.873 216.88 618.349 217.569C619.988 220.167 622.367 221.652 625.063 221.652C627.548 221.652 629.504 220.432 631.037 218.417C631.619 217.675 631.566 216.88 631.037 216.455C630.509 216.031 629.768 216.19 629.187 216.933Z" fill="white"/>
<path d="M574.485 141.695H575.396C576.348 141.695 576.935 142.181 576.935 142.961C576.935 143.72 576.307 144.226 575.411 144.226C574.526 144.226 573.913 143.765 573.848 143.047H572.76C572.82 144.332 573.883 145.177 575.427 145.177C576.95 145.177 578.099 144.266 578.099 143.021C578.099 142.019 577.471 141.371 576.499 141.225V141.139C577.264 140.926 577.815 140.344 577.82 139.464C577.825 138.426 576.97 137.52 575.462 137.52C573.923 137.52 572.972 138.406 572.896 139.646H573.969C574.035 138.882 574.566 138.451 575.396 138.451C576.216 138.451 576.702 138.963 576.702 139.605C576.702 140.309 576.155 140.805 575.366 140.805H574.485V141.695ZM582.684 145H583.777V143.548H584.784V142.586H583.777V137.697H582.163C581.155 139.211 580.083 140.936 579.121 142.586V143.548H582.684V145ZM580.209 142.535C580.958 141.255 581.849 139.833 582.633 138.654H582.699V142.606H580.209V142.535ZM588.413 145.172C590.24 145.172 591.307 143.725 591.307 141.245C591.307 138.796 590.133 137.52 588.458 137.52C586.91 137.52 585.812 138.578 585.812 140.061C585.812 141.468 586.824 142.495 588.215 142.495C589.081 142.495 589.779 142.09 590.128 141.392H590.214C590.184 143.203 589.541 144.216 588.423 144.216C587.755 144.216 587.234 143.851 587.062 143.249H585.918C586.135 144.423 587.117 145.172 588.413 145.172ZM588.463 141.579C587.563 141.579 586.94 140.946 586.94 140.025C586.94 139.145 587.598 138.467 588.473 138.467C589.344 138.467 590.002 139.155 590.002 140.056C590.002 140.941 589.359 141.579 588.463 141.579ZM596.384 141.822H596.298V137.348H595.21V145H596.298V143.001L596.779 142.54L598.671 145H600.007L597.588 141.857L599.855 139.504H598.57L596.384 141.822ZM600.802 145H601.89V141.716C601.89 140.941 602.472 140.41 603.297 140.41C603.489 140.41 603.813 140.445 603.904 140.471V139.448C603.788 139.423 603.58 139.408 603.418 139.408C602.7 139.408 602.087 139.798 601.931 140.339H601.85V139.504H600.802V145ZM607.756 138.117V139.519H606.88V140.39H607.756V143.553C607.756 144.61 608.237 145.035 609.446 145.035C609.659 145.035 609.861 145.01 610.038 144.98V144.114C609.886 144.13 609.79 144.14 609.623 144.14C609.082 144.14 608.844 143.882 608.844 143.289V140.39H610.038V139.519H608.844V138.117H607.756ZM613.379 145.106C614.988 145.106 615.975 144.028 615.975 142.252C615.975 140.476 614.983 139.398 613.379 139.398C611.769 139.398 610.777 140.481 610.777 142.252C610.777 144.028 611.764 145.106 613.379 145.106ZM613.379 144.18C612.432 144.18 611.901 143.477 611.901 142.252C611.901 141.027 612.432 140.319 613.379 140.319C614.32 140.319 614.856 141.027 614.856 142.252C614.856 143.472 614.32 144.18 613.379 144.18ZM622.832 145C624.391 145 625.327 144.221 625.327 142.935C625.327 141.979 624.669 141.28 623.683 141.174V141.088C624.401 140.967 624.963 140.283 624.963 139.519C624.963 138.396 624.138 137.697 622.767 137.697H619.831V145H622.832ZM620.965 138.623H622.503C623.344 138.623 623.834 139.023 623.834 139.717C623.834 140.43 623.313 140.805 622.311 140.805H620.965V138.623ZM620.965 144.074V141.67H622.539C623.607 141.67 624.168 142.075 624.168 142.864C624.168 143.654 623.627 144.074 622.605 144.074H620.965ZM631.097 139.504H630.009V142.728C630.009 143.613 629.528 144.15 628.647 144.15C627.848 144.15 627.488 143.715 627.488 142.804V139.504H626.4V143.072C626.4 144.362 627.079 145.106 628.298 145.106C629.133 145.106 629.695 144.752 629.963 144.13H630.049V145H631.097V139.504ZM632.853 138.117V139.519H631.978V140.39H632.853V143.553C632.853 144.61 633.334 145.035 634.543 145.035C634.756 145.035 634.958 145.01 635.135 144.98V144.114C634.984 144.13 634.887 144.14 634.72 144.14C634.179 144.14 633.941 143.882 633.941 143.289V140.39H635.135V139.519H633.941V138.117H632.853ZM636.77 138.522C637.15 138.522 637.459 138.214 637.459 137.839C637.459 137.46 637.15 137.151 636.77 137.151C636.391 137.151 636.082 137.46 636.082 137.839C636.082 138.214 636.391 138.522 636.77 138.522ZM636.229 145H637.312V139.504H636.229V145ZM639.928 141.822H639.842V137.348H638.754V145H639.842V143.001L640.323 142.54L642.216 145H643.552L641.133 141.857L643.4 139.504H642.115L639.928 141.822ZM645.571 141.822H645.485V137.348H644.397V145H645.485V143.001L645.966 142.54L647.859 145H649.195L646.776 141.857L649.043 139.504H647.757L645.571 141.822ZM653.319 143.527C653.117 143.973 652.667 144.216 652.009 144.216C651.138 144.216 650.577 143.588 650.541 142.591V142.54H654.433V142.166C654.433 140.445 653.507 139.398 651.973 139.398C650.42 139.398 649.433 140.516 649.433 142.262C649.433 144.018 650.399 145.106 651.978 145.106C653.238 145.106 654.129 144.499 654.367 143.527H653.319ZM651.968 140.283C652.773 140.283 653.299 140.865 653.324 141.756H650.541C650.602 140.87 651.164 140.283 651.968 140.283ZM655.531 145H656.619V141.776C656.619 140.891 657.13 140.344 657.935 140.344C658.74 140.344 659.124 140.789 659.124 141.7V145H660.212V141.442C660.212 140.132 659.534 139.398 658.304 139.398C657.474 139.398 656.928 139.767 656.66 140.374H656.579V139.504H655.531V145ZM669.018 145H670.223L667.586 137.697H666.367L663.73 145H664.894L665.567 143.026H668.35L669.018 145ZM666.918 138.988H667.004L668.062 142.115H665.855L666.918 138.988ZM670.947 143.052C671.028 144.347 672.116 145.177 673.735 145.177C675.466 145.177 676.549 144.307 676.549 142.925C676.549 141.832 675.932 141.23 674.434 140.87L673.629 140.673C672.678 140.44 672.293 140.137 672.293 139.605C672.293 138.922 672.89 138.482 673.786 138.482C674.636 138.482 675.223 138.907 675.329 139.6H676.433C676.367 138.381 675.284 137.52 673.801 137.52C672.207 137.52 671.144 138.381 671.144 139.666C671.144 140.729 671.746 141.356 673.067 141.675L674.008 141.903C674.975 142.136 675.4 142.49 675.4 143.062C675.4 143.73 674.732 144.211 673.821 144.211C672.845 144.211 672.166 143.76 672.07 143.052H670.947Z" fill="#706B8B"/>
<path d="M565.883 126.561C568.471 126.561 570.263 125.142 570.604 122.796H568.684C568.38 124.117 567.34 124.899 565.89 124.899C563.993 124.899 562.793 123.358 562.793 120.898C562.793 118.454 564 116.905 565.883 116.905C567.302 116.905 568.418 117.809 568.676 119.183H570.604C570.362 116.829 568.426 115.243 565.883 115.243C562.77 115.243 560.789 117.406 560.789 120.898C560.789 124.413 562.755 126.561 565.883 126.561ZM575.722 126.538C578.083 126.538 579.616 124.967 579.616 122.356C579.616 119.752 578.068 118.165 575.722 118.165C573.376 118.165 571.828 119.759 571.828 122.356C571.828 124.967 573.361 126.538 575.722 126.538ZM575.722 125.043C574.522 125.043 573.748 124.071 573.748 122.356C573.748 120.648 574.53 119.668 575.722 119.668C576.921 119.668 577.696 120.648 577.696 122.356C577.696 124.071 576.921 125.043 575.722 125.043ZM581.09 126.379H582.98V121.452C582.98 120.481 583.618 119.775 584.529 119.775C585.409 119.775 585.956 120.329 585.956 121.225V126.379H587.793V121.407C587.793 120.443 588.415 119.775 589.326 119.775C590.252 119.775 590.768 120.336 590.768 121.323V126.379H592.659V120.86C592.659 119.251 591.619 118.181 590.032 118.181C588.871 118.181 587.914 118.803 587.527 119.797H587.481C587.185 118.765 586.373 118.181 585.235 118.181C584.141 118.181 583.291 118.795 582.942 119.729H582.904V118.332H581.09V126.379ZM598.854 118.196C597.685 118.196 596.774 118.788 596.319 119.722H596.281V118.332H594.436V129.028H596.326V125.043H596.364C596.804 125.946 597.715 126.508 598.884 126.508C600.904 126.508 602.194 124.921 602.194 122.356C602.194 119.782 600.896 118.196 598.854 118.196ZM598.277 124.959C597.1 124.959 596.319 123.935 596.311 122.356C596.319 120.792 597.1 119.752 598.277 119.752C599.499 119.752 600.258 120.769 600.258 122.356C600.258 123.95 599.499 124.959 598.277 124.959ZM603.721 126.379H605.611V115.425H603.721V126.379ZM612.808 123.973C612.603 124.641 611.935 125.081 611.055 125.081C609.818 125.081 609.028 124.215 609.028 122.925V122.811H614.653V122.196C614.653 119.752 613.226 118.165 610.941 118.165C608.618 118.165 607.145 119.843 607.145 122.386C607.145 124.952 608.603 126.538 611.017 126.538C612.922 126.538 614.334 125.491 614.577 123.973H612.808ZM610.949 119.63C612.034 119.63 612.763 120.427 612.801 121.566H609.043C609.119 120.443 609.886 119.63 610.949 119.63ZM616.658 116.45V118.332H615.504V119.79H616.658V124.238C616.658 125.802 617.341 126.417 619.08 126.417C619.482 126.417 619.854 126.386 620.059 126.341V124.899C619.937 124.921 619.695 124.937 619.52 124.937C618.852 124.937 618.548 124.633 618.548 123.973V119.79H620.067V118.332H618.548V116.45H616.658ZM626.793 123.973C626.588 124.641 625.92 125.081 625.04 125.081C623.802 125.081 623.013 124.215 623.013 122.925V122.811H628.638V122.196C628.638 119.752 627.211 118.165 624.926 118.165C622.603 118.165 621.13 119.843 621.13 122.386C621.13 124.952 622.588 126.538 625.002 126.538C626.907 126.538 628.319 125.491 628.562 123.973H626.793ZM624.933 119.63C626.019 119.63 626.748 120.427 626.786 121.566H623.028C623.104 120.443 623.871 119.63 624.933 119.63ZM634.477 117.118C635.054 117.118 635.51 116.655 635.51 116.093C635.51 115.524 635.054 115.068 634.477 115.068C633.901 115.068 633.437 115.524 633.437 116.093C633.437 116.655 633.901 117.118 634.477 117.118ZM633.536 126.379H635.426V118.332H633.536V126.379ZM637.272 126.379H639.162V121.718C639.162 120.564 639.853 119.782 640.938 119.782C642.016 119.782 642.548 120.42 642.548 121.559V126.379H644.438V121.179C644.438 119.319 643.428 118.181 641.652 118.181C640.415 118.181 639.557 118.757 639.124 119.714H639.086V118.332H637.272V126.379ZM655.075 126.379L658.886 115.425H656.776L653.997 124.276H653.952L651.173 115.425H649.017L652.828 126.379H655.075ZM660.959 117.118C661.536 117.118 661.992 116.655 661.992 116.093C661.992 115.524 661.536 115.068 660.959 115.068C660.382 115.068 659.919 115.524 659.919 116.093C659.919 116.655 660.382 117.118 660.959 117.118ZM660.018 126.379H661.908V118.332H660.018V126.379ZM668.172 118.196C667.003 118.196 666.092 118.788 665.636 119.722H665.598V118.332H663.754V129.028H665.644V125.043H665.682C666.122 125.946 667.033 126.508 668.202 126.508C670.221 126.508 671.512 124.921 671.512 122.356C671.512 119.782 670.214 118.196 668.172 118.196ZM667.595 124.959C666.418 124.959 665.636 123.935 665.629 122.356C665.636 120.792 666.418 119.752 667.595 119.752C668.817 119.752 669.576 120.769 669.576 122.356C669.576 123.95 668.817 124.959 667.595 124.959ZM677.404 118.196C676.235 118.196 675.324 118.788 674.868 119.722H674.83V118.332H672.986V129.028H674.876V125.043H674.914C675.354 125.946 676.265 126.508 677.434 126.508C679.453 126.508 680.744 124.921 680.744 122.356C680.744 119.782 679.446 118.196 677.404 118.196ZM676.827 124.959C675.65 124.959 674.868 123.935 674.861 122.356C674.868 120.792 675.65 119.752 676.827 119.752C678.049 119.752 678.808 120.769 678.808 122.356C678.808 123.95 678.049 124.959 676.827 124.959ZM682.073 120.64C682.073 121.832 682.847 122.591 684.388 122.933L685.724 123.229C686.567 123.418 686.855 123.692 686.855 124.177C686.855 124.777 686.286 125.157 685.368 125.157C684.411 125.157 683.872 124.762 683.728 123.98H681.868C682.02 125.536 683.265 126.538 685.368 126.538C687.341 126.538 688.738 125.514 688.738 123.995C688.738 122.826 688.093 122.181 686.423 121.809L685.087 121.513C684.244 121.323 683.91 121.004 683.91 120.541C683.91 119.949 684.464 119.555 685.299 119.555C686.172 119.555 686.711 120.018 686.787 120.746H688.548C688.503 119.221 687.258 118.165 685.299 118.165C683.356 118.165 682.073 119.167 682.073 120.64Z" fill="#161225"/>
<path fill-rule="evenodd" clip-rule="evenodd" d="M645.478 86.6593C645.011 84.8794 643.879 84.1729 642.333 84.1729C641.08 84.1729 639.508 84.8794 639.508 86.5807C639.508 87.6799 640.268 88.5438 641.507 88.7663L642.679 88.9756C643.479 89.1194 643.706 89.4205 643.706 89.8262C643.706 90.2843 643.212 90.5459 642.48 90.5459C641.52 90.5459 640.921 90.2057 640.827 89.2503L639.135 89.5121C639.401 91.3572 641.054 92.1165 642.546 92.1165C643.959 92.1165 645.464 91.3049 645.464 89.6692C645.464 88.5567 644.785 87.7455 643.519 87.5097L642.226 87.2743C641.507 87.1435 641.267 86.7901 641.267 86.4499C641.267 86.018 641.733 85.7434 642.373 85.7434C643.186 85.7434 643.759 86.018 643.785 86.9209L645.478 86.6593ZM607.859 89.4594L609.617 84.369H611.683L608.618 91.9197H607.085L604.021 84.3691H606.086L607.859 89.4594ZM618.666 86.5283C618.666 87.1302 618.186 87.5489 617.626 87.5489C617.067 87.5489 616.587 87.1302 616.587 86.5283C616.587 85.9262 617.067 85.5076 617.626 85.5076C618.186 85.5076 618.666 85.9262 618.666 86.5283H618.666ZM618.985 89.1979C618.292 90.0875 617.559 90.7026 616.267 90.7026C614.948 90.7026 613.922 89.9174 613.122 88.766C612.802 88.2948 612.309 88.1901 611.949 88.4388C611.616 88.6744 611.537 89.1717 611.843 89.6036C612.949 91.2655 614.481 92.2337 616.267 92.2337C617.906 92.2337 619.185 91.4487 620.185 90.14C620.558 89.6559 620.544 89.1586 620.185 88.8838C619.851 88.6218 619.358 88.7138 618.985 89.1979ZM623.583 88.1248C623.583 89.6691 624.489 90.4805 625.502 90.4805C626.462 90.4805 627.448 89.7214 627.448 88.1248C627.448 86.5543 626.462 85.7954 625.515 85.7954C624.489 85.7954 623.583 86.5151 623.583 88.1248ZM623.583 85.4161V84.3819H621.704V94.5371H623.583V90.9251C624.21 91.7628 625.022 92.1163 625.942 92.1163C627.661 92.1163 629.34 90.7814 629.34 88.0333C629.34 85.4027 627.594 84.1729 626.102 84.1729C624.916 84.1729 624.103 84.7093 623.583 85.4161ZM632.605 88.1248C632.605 89.6691 633.511 90.4805 634.524 90.4805C635.483 90.4805 636.469 89.7214 636.469 88.1248C636.469 86.5543 635.483 85.7954 634.537 85.7954C633.511 85.7954 632.605 86.5151 632.605 88.1248H632.605ZM632.605 85.4161V84.3819H632.605H630.726V94.5371H632.605V90.9251C633.231 91.7628 634.044 92.1163 634.964 92.1163C636.683 92.1163 638.362 90.7814 638.362 88.0333C638.362 85.4027 636.616 84.1729 635.124 84.1729C633.938 84.1729 633.125 84.7093 632.605 85.4161Z" fill="#FF5B24"/>
<defs>
<filter id="filter0_dd" x="72.4044" y="56.3151" width="297.191" height="297.191" filterUnits="userSpaceOnUse" color-interpolation-filters="sRGB">
<feFlood flood-opacity="0" result="BackgroundImageFix"/>
<feColorMatrix in="SourceAlpha" type="matrix" values="0 0 0 0 0 0 0 0 0 0 0 0 0 0 0 0 0 0 127 0"/>
<feOffset dy="0.648889"/>
<feGaussianBlur stdDeviation="1.29778"/>
<feColorMatrix type="matrix" values="0 0 0 0 0.0862745 0 0 0 0 0.0705882 0 0 0 0 0.145098 0 0 0 0.17 0"/>
<feBlend mode="normal" in2="BackgroundImageFix" result="effect1_dropShadow"/>
<feColorMatrix in="SourceAlpha" type="matrix" values="0 0 0 0 0 0 0 0 0 0 0 0 0 0 0 0 0 0 127 0"/>
<feOffset dy="0.648889"/>
<feGaussianBlur stdDeviation="0.324444"/>
<feColorMatrix type="matrix" values="0 0 0 0 0.0862745 0 0 0 0 0.0705882 0 0 0 0 0.145098 0 0 0 0.0498188 0"/>
<feBlend mode="normal" in2="effect1_dropShadow" result="effect2_dropShadow"/>
<feBlend mode="normal" in="SourceGraphic" in2="effect2_dropShadow" result="shape"/>
</filter>
<filter id="filter1_d" x="187.906" y="233.462" width="66.8356" height="33.7422" filterUnits="userSpaceOnUse" color-interpolation-filters="sRGB">
<feFlood flood-opacity="0" result="BackgroundImageFix"/>
<feColorMatrix in="SourceAlpha" type="matrix" values="0 0 0 0 0 0 0 0 0 0 0 0 0 0 0 0 0 0 127 0"/>
<feOffset dy="0.648889"/>
<feGaussianBlur stdDeviation="0.648889"/>
<feColorMatrix type="matrix" values="0 0 0 0 0.0862745 0 0 0 0 0.0705882 0 0 0 0 0.145098 0 0 0 0.07 0"/>
<feBlend mode="normal" in2="BackgroundImageFix" result="effect1_dropShadow"/>
<feBlend mode="normal" in="SourceGraphic" in2="effect1_dropShadow" result="shape"/>
</filter>
<filter id="filter2_dd" x="476.409" y="56.3184" width="296.68" height="296.68" filterUnits="userSpaceOnUse" color-interpolation-filters="sRGB">
<feFlood flood-opacity="0" result="BackgroundImageFix"/>
<feColorMatrix in="SourceAlpha" type="matrix" values="0 0 0 0 0 0 0 0 0 0 0 0 0 0 0 0 0 0 127 0"/>
<feOffset dy="0.647773"/>
<feGaussianBlur stdDeviation="1.29555"/>
<feColorMatrix type="matrix" values="0 0 0 0 0.0862745 0 0 0 0 0.0705882 0 0 0 0 0.145098 0 0 0 0.17 0"/>
<feBlend mode="normal" in2="BackgroundImageFix" result="effect1_dropShadow"/>
<feColorMatrix in="SourceAlpha" type="matrix" values="0 0 0 0 0 0 0 0 0 0 0 0 0 0 0 0 0 0 127 0"/>
<feOffset dy="0.647773"/>
<feGaussianBlur stdDeviation="0.323887"/>
<feColorMatrix type="matrix" values="0 0 0 0 0.0862745 0 0 0 0 0.0705882 0 0 0 0 0.145098 0 0 0 0.0498188 0"/>
<feBlend mode="normal" in2="effect1_dropShadow" result="effect2_dropShadow"/>
<feBlend mode="normal" in="SourceGraphic" in2="effect2_dropShadow" result="shape"/>
</filter>
</defs>
</svg>
