<svg width="1358" height="357" viewBox="0 0 1358 357" fill="none" xmlns="http://www.w3.org/2000/svg">
<rect width="1358" height="357" fill="white"/>
<path fill-rule="evenodd" clip-rule="evenodd" d="M1183 88L159 87.9999L159 87L1183 87.0001L1183 88Z" fill="#FF5B24"/>
<g clip-path="url(#clip0)">
<circle cx="514" cy="169" r="39.5161" fill="white"/>
<path d="M549.771 200.895H478.229C476.16 200.895 474.484 199.222 474.484 197.158V141.125C474.484 139.06 476.16 137.387 478.229 137.387H549.771C551.839 137.387 553.516 139.06 553.516 141.125V197.158C553.516 199.222 551.839 200.895 549.771 200.895Z" fill="#C9C6D7"/>
<path d="M523.021 189.174H505.759C501.382 189.174 497.8 185.589 497.799 181.207L497.799 163.928C497.798 159.545 501.38 155.96 505.758 155.96H523.019C527.397 155.96 530.979 159.545 530.979 163.928L530.98 181.207C530.98 185.589 527.399 189.174 523.021 189.174Z" fill="white"/>
<path d="M549.637 137.387H478.363C476.22 137.387 474.484 139.136 474.484 141.294V146.796H553.516V141.294C553.516 139.136 551.78 137.387 549.637 137.387Z" fill="#551488"/>
<path d="M482.011 142.092C482.011 143.131 481.169 143.973 480.13 143.973C479.091 143.973 478.248 143.131 478.248 142.092C478.248 141.052 479.091 140.21 480.13 140.21C481.169 140.21 482.011 141.052 482.011 142.092Z" fill="white"/>
<path d="M488.126 142.092C488.126 143.131 487.284 143.973 486.245 143.973C485.205 143.973 484.363 143.131 484.363 142.092C484.363 141.052 485.205 140.21 486.245 140.21C487.284 140.21 488.126 141.052 488.126 142.092Z" fill="white"/>
<path d="M494.712 142.092C494.712 143.131 493.87 143.973 492.831 143.973C491.792 143.973 490.949 143.131 490.949 142.092C490.949 141.052 491.792 140.21 492.831 140.21C493.87 140.21 494.712 141.052 494.712 142.092Z" fill="white"/>
<path fill-rule="evenodd" clip-rule="evenodd" d="M519.232 168.061C519.232 169.213 518.342 169.981 517.325 169.981C516.307 169.981 515.417 169.213 515.417 168.061C515.417 166.909 516.307 166.141 517.325 166.141C518.342 166.141 519.232 166.973 519.232 168.061M514.846 175.934C517.198 175.934 518.533 174.781 519.804 173.117C520.503 172.221 521.393 172.029 522.029 172.541C522.665 173.053 522.728 174.013 522.029 174.909C520.185 177.342 517.834 178.814 514.846 178.814C511.603 178.814 508.742 177.022 506.772 173.885C506.199 173.053 506.327 172.157 506.962 171.709C507.598 171.261 508.552 171.453 509.124 172.349C510.523 174.461 512.43 175.934 514.846 175.934" fill="#FF5B24"/>
</g>
<path d="M364.472 225V237H372.056V235.384H366.216V231.736H371.256V230.104H366.216V226.616H371.896V225H364.472ZM378.299 229.064C379.467 229.064 380.395 229.768 380.395 231.656V237H382.059V230.824C382.059 228.344 380.475 227.528 378.827 227.528C377.755 227.528 376.507 227.992 375.867 229.144V227.784H374.219V237H375.867V231.704C375.867 229.896 376.875 229.064 378.299 229.064ZM385.376 225.56V227.784H383.584V229.176H385.376V234.584C385.376 236.168 386.16 237.16 387.84 237.16C388.368 237.16 388.96 237.032 389.408 236.904L389.088 235.544C388.736 235.64 388.544 235.688 388.16 235.688C387.296 235.688 386.992 235.288 386.992 234.536V229.176H389.392V227.784H386.992V225.24L385.376 225.56ZM395.327 228.984C396.783 228.984 397.871 229.672 398.031 231.368H392.559C392.847 229.784 393.871 228.984 395.327 228.984ZM399.631 232.744V232.168C399.631 229.448 397.887 227.528 395.455 227.528C392.815 227.528 390.815 229.4 390.815 232.36C390.815 235.4 392.879 237.24 395.535 237.24C397.199 237.24 399.199 236.28 399.551 234.184L398.031 233.864C397.807 235.064 397.119 235.768 395.471 235.768C393.599 235.768 392.607 234.52 392.495 232.744H399.631ZM405.768 229.384C406.264 229.384 406.6 229.432 406.952 229.592L407.16 227.656C406.968 227.56 406.696 227.528 406.456 227.528C405.512 227.528 404.072 228.104 403.336 230.008V227.784H401.688V237H403.336V232.888C403.336 230.136 404.424 229.384 405.768 229.384ZM413.72 225.56V227.784H411.928V229.176H413.72V234.584C413.72 236.168 414.504 237.16 416.184 237.16C416.712 237.16 417.304 237.032 417.752 236.904L417.432 235.544C417.08 235.64 416.888 235.688 416.504 235.688C415.64 235.688 415.336 235.288 415.336 234.536V229.176H417.736V227.784H415.336V225.24L413.72 225.56ZM419.75 224.6V237H421.398V231.704C421.398 229.896 422.406 229.064 423.862 229.064C424.998 229.064 425.926 229.768 425.926 231.656V237H427.59V230.824C427.59 228.344 426.07 227.528 424.262 227.528C423.35 227.528 422.054 227.992 421.398 229.144V224.6H419.75ZM434.123 228.984C435.579 228.984 436.667 229.672 436.827 231.368H431.355C431.643 229.784 432.667 228.984 434.123 228.984ZM438.427 232.744V232.168C438.427 229.448 436.683 227.528 434.251 227.528C431.611 227.528 429.611 229.4 429.611 232.36C429.611 235.4 431.675 237.24 434.331 237.24C435.995 237.24 437.995 236.28 438.347 234.184L436.827 233.864C436.603 235.064 435.915 235.768 434.267 235.768C432.395 235.768 431.403 234.52 431.291 232.744H438.427ZM453.053 231.368C452.765 228.92 450.813 227.528 448.685 227.528C446.157 227.528 444.205 229.4 444.205 232.376C444.205 235.224 446.125 237.24 448.877 237.24C450.589 237.24 452.605 236.264 453.037 233.448L451.565 233.16C451.341 234.888 450.381 235.768 448.861 235.768C446.797 235.768 445.837 234.232 445.837 232.376C445.837 230.168 447.053 228.984 448.589 228.984C450.013 228.984 451.213 229.752 451.437 231.656L453.053 231.368ZM462.808 237V227.784H461.16V233.192C461.16 234.936 460.04 235.704 458.552 235.704C457.224 235.704 456.584 235.128 456.584 233.544V227.784H454.936V234.232C454.936 236.36 456.472 237.24 457.944 237.24C459.144 237.24 460.44 236.696 461.16 235.416V237H462.808ZM465.308 230.312C465.308 231.576 466.044 232.472 467.596 232.824L469.196 233.208C470.46 233.496 470.828 233.88 470.828 234.488C470.828 235.352 469.98 235.864 468.78 235.864C467.356 235.864 466.444 235.192 466.284 233.896L464.828 234.168C465.132 236.344 467.1 237.24 468.764 237.24C470.396 237.24 472.316 236.296 472.316 234.28C472.316 233.064 471.564 232.216 469.9 231.848L468.172 231.448C467.164 231.208 466.796 230.696 466.796 230.136C466.796 229.384 467.516 228.904 468.524 228.904C469.724 228.904 470.668 229.336 470.732 230.728L472.188 230.44C471.692 228.296 470.3 227.528 468.524 227.528C467.116 227.528 465.308 228.36 465.308 230.312ZM475.079 225.56V227.784H473.287V229.176H475.079V234.584C475.079 236.168 475.863 237.16 477.543 237.16C478.071 237.16 478.663 237.032 479.111 236.904L478.791 235.544C478.439 235.64 478.247 235.688 477.863 235.688C476.999 235.688 476.695 235.288 476.695 234.536V229.176H479.095V227.784H476.695V225.24L475.079 225.56ZM484.918 227.528C482.502 227.528 480.518 229.352 480.518 232.376C480.518 235.4 482.502 237.24 484.918 237.24C487.334 237.24 489.334 235.4 489.334 232.376C489.334 229.352 487.334 227.528 484.918 227.528ZM484.918 228.984C486.422 228.984 487.702 230.088 487.702 232.376C487.702 234.664 486.422 235.784 484.918 235.784C483.414 235.784 482.15 234.664 482.15 232.376C482.15 230.088 483.414 228.984 484.918 228.984ZM501.31 229.064C502.542 229.064 503.47 229.768 503.47 231.656V237H505.118V230.824C505.118 228.344 503.598 227.528 501.902 227.528C500.942 227.528 499.678 227.944 499.006 229.288C498.51 227.992 497.342 227.528 496.11 227.528C495.038 227.528 493.726 227.992 493.07 229.144V227.784H491.422V237H493.07V231.704C493.07 229.896 494.078 229.064 495.454 229.064C496.67 229.064 497.598 229.768 497.598 231.656V237H499.262V231.704C499.262 229.896 500.126 229.064 501.31 229.064ZM511.655 228.984C513.111 228.984 514.199 229.672 514.359 231.368H508.887C509.175 229.784 510.199 228.984 511.655 228.984ZM515.959 232.744V232.168C515.959 229.448 514.215 227.528 511.783 227.528C509.143 227.528 507.143 229.4 507.143 232.36C507.143 235.4 509.207 237.24 511.863 237.24C513.527 237.24 515.527 236.28 515.879 234.184L514.359 233.864C514.135 235.064 513.447 235.768 511.799 235.768C509.927 235.768 508.935 234.52 508.823 232.744H515.959ZM522.096 229.384C522.592 229.384 522.928 229.432 523.28 229.592L523.488 227.656C523.296 227.56 523.024 227.528 522.784 227.528C521.84 227.528 520.4 228.104 519.664 230.008V227.784H518.016V237H519.664V232.888C519.664 230.136 520.752 229.384 522.096 229.384ZM524.832 229.864C526.592 229.4 527.52 228.328 527.52 226.92C527.52 225.64 526.96 224.888 526.112 224.888C525.392 224.888 524.864 225.464 524.864 226.136C524.864 226.904 525.536 227.304 526.192 227.336C526.096 228.136 525.552 228.664 524.832 228.792V229.864ZM529.152 230.312C529.152 231.576 529.888 232.472 531.44 232.824L533.04 233.208C534.304 233.496 534.672 233.88 534.672 234.488C534.672 235.352 533.824 235.864 532.624 235.864C531.2 235.864 530.288 235.192 530.128 233.896L528.672 234.168C528.976 236.344 530.944 237.24 532.608 237.24C534.24 237.24 536.16 236.296 536.16 234.28C536.16 233.064 535.408 232.216 533.744 231.848L532.016 231.448C531.008 231.208 530.64 230.696 530.64 230.136C530.64 229.384 531.36 228.904 532.368 228.904C533.568 228.904 534.512 229.336 534.576 230.728L536.032 230.44C535.536 228.296 534.144 227.528 532.368 227.528C530.96 227.528 529.152 228.36 529.152 230.312ZM547.38 227.528C545.748 227.528 544.756 228.648 544.18 229.768V227.784H542.532V240.2H544.18V235.08C544.948 236.472 545.972 237.24 547.188 237.24C549.332 237.24 551.428 235.608 551.428 232.248C551.428 229.032 549.252 227.528 547.38 227.528ZM546.98 228.984C548.356 228.984 549.796 230.088 549.796 232.36C549.796 234.664 548.372 235.768 546.964 235.768C545.508 235.768 544.18 234.6 544.18 232.36C544.18 230.024 545.508 228.984 546.98 228.984ZM553.61 224.6V237H555.258V231.704C555.258 229.896 556.266 229.064 557.722 229.064C558.858 229.064 559.786 229.768 559.786 231.656V237H561.45V230.824C561.45 228.344 559.93 227.528 558.122 227.528C557.21 227.528 555.914 227.992 555.258 229.144V224.6H553.61ZM567.871 227.528C565.455 227.528 563.471 229.352 563.471 232.376C563.471 235.4 565.455 237.24 567.871 237.24C570.287 237.24 572.287 235.4 572.287 232.376C572.287 229.352 570.287 227.528 567.871 227.528ZM567.871 228.984C569.375 228.984 570.655 230.088 570.655 232.376C570.655 234.664 569.375 235.784 567.871 235.784C566.367 235.784 565.103 234.664 565.103 232.376C565.103 230.088 566.367 228.984 567.871 228.984ZM578.455 229.064C579.623 229.064 580.551 229.768 580.551 231.656V237H582.215V230.824C582.215 228.344 580.631 227.528 578.983 227.528C577.911 227.528 576.663 227.992 576.023 229.144V227.784H574.375V237H576.023V231.704C576.023 229.896 577.031 229.064 578.455 229.064ZM588.748 228.984C590.204 228.984 591.292 229.672 591.452 231.368H585.98C586.268 229.784 587.292 228.984 588.748 228.984ZM593.052 232.744V232.168C593.052 229.448 591.308 227.528 588.876 227.528C586.236 227.528 584.236 229.4 584.236 232.36C584.236 235.4 586.3 237.24 588.956 237.24C590.62 237.24 592.62 236.28 592.972 234.184L591.452 233.864C591.228 235.064 590.54 235.768 588.892 235.768C587.02 235.768 586.028 234.52 585.916 232.744H593.052ZM603.502 229.064C604.67 229.064 605.598 229.768 605.598 231.656V237H607.262V230.824C607.262 228.344 605.678 227.528 604.03 227.528C602.958 227.528 601.71 227.992 601.07 229.144V227.784H599.422V237H601.07V231.704C601.07 229.896 602.078 229.064 603.502 229.064ZM617.683 237V227.784H616.035V233.192C616.035 234.936 614.915 235.704 613.427 235.704C612.099 235.704 611.459 235.128 611.459 233.544V227.784H609.811V234.232C609.811 236.36 611.347 237.24 612.819 237.24C614.019 237.24 615.315 236.696 616.035 235.416V237H617.683ZM630.263 229.064C631.495 229.064 632.423 229.768 632.423 231.656V237H634.071V230.824C634.071 228.344 632.551 227.528 630.855 227.528C629.895 227.528 628.631 227.944 627.959 229.288C627.463 227.992 626.295 227.528 625.063 227.528C623.991 227.528 622.679 227.992 622.023 229.144V227.784H620.375V237H622.023V231.704C622.023 229.896 623.031 229.064 624.407 229.064C625.623 229.064 626.551 229.768 626.551 231.656V237H628.215V231.704C628.215 229.896 629.079 229.064 630.263 229.064ZM636.688 224.6V237H638.336V235.4C638.992 236.488 640.032 237.24 641.296 237.24C643.472 237.24 645.584 235.608 645.584 232.248C645.584 229.032 643.376 227.528 641.488 227.528C639.84 227.528 638.832 228.616 638.336 229.48V224.6H636.688ZM641.136 228.984C642.512 228.984 643.952 230.088 643.952 232.36C643.952 234.664 642.496 235.768 641.12 235.768C639.664 235.768 638.336 234.6 638.336 232.36C638.336 230.024 639.664 228.984 641.136 228.984ZM651.686 228.984C653.142 228.984 654.23 229.672 654.39 231.368H648.918C649.206 229.784 650.23 228.984 651.686 228.984ZM655.99 232.744V232.168C655.99 229.448 654.246 227.528 651.814 227.528C649.174 227.528 647.174 229.4 647.174 232.36C647.174 235.4 649.238 237.24 651.894 237.24C653.558 237.24 655.558 236.28 655.91 234.184L654.39 233.864C654.166 235.064 653.478 235.768 651.83 235.768C649.958 235.768 648.966 234.52 648.854 232.744H655.99ZM662.127 229.384C662.623 229.384 662.959 229.432 663.311 229.592L663.519 227.656C663.327 227.56 663.055 227.528 662.815 227.528C661.871 227.528 660.431 228.104 659.695 230.008V227.784H658.047V237H659.695V232.888C659.695 230.136 660.783 229.384 662.127 229.384Z" fill="black"/>
<mask id="mask0" mask-type="alpha" maskUnits="userSpaceOnUse" x="821" y="121" width="98" height="98">
<path fill-rule="evenodd" clip-rule="evenodd" d="M919 121H870V130.484C891.824 130.484 909.516 148.176 909.516 170H919V121Z" fill="#CCCCCC"/>
<path fill-rule="evenodd" clip-rule="evenodd" d="M821 121L870 121V130.484C848.176 130.484 830.484 148.176 830.484 170H821V121Z" fill="#CCCCCC"/>
<circle cx="870" cy="170" r="39.5161" fill="white"/>
</mask>
<g mask="url(#mask0)">
<circle cx="870" cy="170" r="39.5161" fill="white"/>
<path fill-rule="evenodd" clip-rule="evenodd" d="M861.657 223.94C861.648 207.938 861.656 190.292 861.725 186.281C861.999 170.242 877.815 173.66 877.815 173.66L896.998 186.281L896.991 197.65C890.892 211.808 877.565 222.12 861.657 223.94Z" fill="#FFD3BB"/>
<path d="M891.29 190.91L863.467 196.359C860.789 196.884 858.192 195.137 857.667 192.459L846.68 136.373C846.156 133.695 847.902 131.098 850.58 130.574L878.404 125.124C881.082 124.6 883.679 126.346 884.203 129.024L895.19 185.11C895.715 187.788 893.969 190.385 891.29 190.91Z" fill="#FF5A23"/>
<path d="M894.537 181.42L857.014 188.769L847.528 140.346L885.051 132.997L894.537 181.42Z" fill="#FF985F"/>
<path d="M857.061 172.261L847.107 173.035C844.433 173.243 842.098 171.245 841.889 168.571C841.681 165.898 843.681 163.562 846.354 163.355L856.308 162.58C858.981 162.372 861.317 164.371 861.525 167.044C861.734 169.718 859.735 172.053 857.061 172.261Z" fill="#FFD3BB"/>
<path d="M857.888 181.356L847.934 182.13C845.26 182.338 842.925 180.339 842.717 177.666C842.508 174.992 844.507 172.657 847.181 172.448L857.135 171.675C859.808 171.466 862.144 173.465 862.352 176.138C862.56 178.812 860.562 181.148 857.888 181.356Z" fill="#FFD3BB"/>
<path d="M859.561 190.269L849.607 191.043C846.934 191.251 844.597 189.253 844.389 186.579C844.181 183.906 846.18 181.571 848.853 181.363L858.808 180.589C861.481 180.38 863.817 182.379 864.025 185.052C864.234 187.726 862.235 190.061 859.561 190.269Z" fill="#FFD3BB"/>
<path d="M877.751 166.388L867.411 168.412C864.788 168.926 862.222 167.2 861.709 164.578L859.684 154.238C859.17 151.616 860.895 149.05 863.518 148.537L873.859 146.512C876.481 145.999 879.047 147.724 879.561 150.346L881.586 160.686C882.099 163.308 880.374 165.874 877.751 166.388Z" fill="white"/>
<path d="M865.933 160.111L870.361 162.184L875.25 151.6" stroke="#551488" stroke-width="2" stroke-linecap="round" stroke-linejoin="round"/>
<path fill-rule="evenodd" clip-rule="evenodd" d="M894.75 202.13C894.116 202.378 893.429 202.616 892.688 202.835C887.388 204.403 879.474 197.535 879.474 197.535C879.474 197.535 879.698 194.699 880.072 191.638C880.445 188.578 882.386 185.816 883.356 184.92C879.474 184.099 876.712 182.755 874.696 180.068C872.605 177.28 871.113 174.843 870.74 170.513C870.366 166.184 871.934 164.616 873.801 163.72C875.667 162.825 877.309 163.273 879.101 164.168C880.495 164.865 881.319 167.534 881.49 169.468C881.714 172.006 882.287 172.627 883.431 173.723C884.312 174.567 886.193 174.544 887.462 174.395C888.731 174.246 889.883 174.313 892.091 174.843C893.957 175.291 895.824 176.56 897.391 178.65C899.098 180.926 899.668 183.687 900.041 187.039C899.205 192.46 897.377 197.554 894.75 202.13Z" fill="#FFD3BB"/>
</g>
<path d="M770.592 226.6H774.208V237H775.952V226.6H779.568V225H770.592V226.6ZM781.5 224.6V237H783.148V231.704C783.148 229.896 784.156 229.064 785.612 229.064C786.748 229.064 787.676 229.768 787.676 231.656V237H789.34V230.824C789.34 228.344 787.82 227.528 786.012 227.528C785.1 227.528 783.804 227.992 783.148 229.144V224.6H781.5ZM795.873 228.984C797.329 228.984 798.417 229.672 798.577 231.368H793.105C793.393 229.784 794.417 228.984 795.873 228.984ZM800.177 232.744V232.168C800.177 229.448 798.433 227.528 796.001 227.528C793.361 227.528 791.361 229.4 791.361 232.36C791.361 235.4 793.425 237.24 796.081 237.24C797.745 237.24 799.745 236.28 800.097 234.184L798.577 233.864C798.353 235.064 797.665 235.768 796.017 235.768C794.145 235.768 793.153 234.52 793.041 232.744H800.177ZM814.803 231.368C814.515 228.92 812.563 227.528 810.435 227.528C807.907 227.528 805.955 229.4 805.955 232.376C805.955 235.224 807.875 237.24 810.627 237.24C812.339 237.24 814.355 236.264 814.787 233.448L813.315 233.16C813.091 234.888 812.131 235.768 810.611 235.768C808.547 235.768 807.587 234.232 807.587 232.376C807.587 230.168 808.803 228.984 810.339 228.984C811.763 228.984 812.963 229.752 813.187 231.656L814.803 231.368ZM824.558 237V227.784H822.91V233.192C822.91 234.936 821.79 235.704 820.302 235.704C818.974 235.704 818.334 235.128 818.334 233.544V227.784H816.686V234.232C816.686 236.36 818.222 237.24 819.694 237.24C820.894 237.24 822.19 236.696 822.91 235.416V237H824.558ZM827.058 230.312C827.058 231.576 827.794 232.472 829.346 232.824L830.946 233.208C832.21 233.496 832.578 233.88 832.578 234.488C832.578 235.352 831.73 235.864 830.53 235.864C829.106 235.864 828.194 235.192 828.034 233.896L826.578 234.168C826.882 236.344 828.85 237.24 830.514 237.24C832.146 237.24 834.066 236.296 834.066 234.28C834.066 233.064 833.314 232.216 831.65 231.848L829.922 231.448C828.914 231.208 828.546 230.696 828.546 230.136C828.546 229.384 829.266 228.904 830.274 228.904C831.474 228.904 832.418 229.336 832.482 230.728L833.938 230.44C833.442 228.296 832.05 227.528 830.274 227.528C828.866 227.528 827.058 228.36 827.058 230.312ZM836.829 225.56V227.784H835.037V229.176H836.829V234.584C836.829 236.168 837.613 237.16 839.293 237.16C839.821 237.16 840.413 237.032 840.861 236.904L840.541 235.544C840.189 235.64 839.997 235.688 839.613 235.688C838.749 235.688 838.445 235.288 838.445 234.536V229.176H840.845V227.784H838.445V225.24L836.829 225.56ZM846.668 227.528C844.252 227.528 842.268 229.352 842.268 232.376C842.268 235.4 844.252 237.24 846.668 237.24C849.084 237.24 851.084 235.4 851.084 232.376C851.084 229.352 849.084 227.528 846.668 227.528ZM846.668 228.984C848.172 228.984 849.452 230.088 849.452 232.376C849.452 234.664 848.172 235.784 846.668 235.784C845.164 235.784 843.9 234.664 843.9 232.376C843.9 230.088 845.164 228.984 846.668 228.984ZM863.06 229.064C864.292 229.064 865.22 229.768 865.22 231.656V237H866.868V230.824C866.868 228.344 865.348 227.528 863.652 227.528C862.692 227.528 861.428 227.944 860.756 229.288C860.26 227.992 859.092 227.528 857.86 227.528C856.788 227.528 855.476 227.992 854.82 229.144V227.784H853.172V237H854.82V231.704C854.82 229.896 855.828 229.064 857.204 229.064C858.42 229.064 859.348 229.768 859.348 231.656V237H861.012V231.704C861.012 229.896 861.876 229.064 863.06 229.064ZM873.405 228.984C874.861 228.984 875.949 229.672 876.109 231.368H870.637C870.925 229.784 871.949 228.984 873.405 228.984ZM877.709 232.744V232.168C877.709 229.448 875.965 227.528 873.533 227.528C870.893 227.528 868.893 229.4 868.893 232.36C868.893 235.4 870.957 237.24 873.613 237.24C875.277 237.24 877.277 236.28 877.629 234.184L876.109 233.864C875.885 235.064 875.197 235.768 873.549 235.768C871.677 235.768 870.685 234.52 870.573 232.744H877.709ZM883.846 229.384C884.342 229.384 884.678 229.432 885.03 229.592L885.238 227.656C885.046 227.56 884.774 227.528 884.534 227.528C883.59 227.528 882.15 228.104 881.414 230.008V227.784H879.766V237H881.414V232.888C881.414 230.136 882.502 229.384 883.846 229.384ZM899.35 231.368C899.062 228.92 897.11 227.528 894.982 227.528C892.454 227.528 890.502 229.4 890.502 232.376C890.502 235.224 892.422 237.24 895.174 237.24C896.886 237.24 898.902 236.264 899.334 233.448L897.862 233.16C897.638 234.888 896.678 235.768 895.158 235.768C893.094 235.768 892.134 234.232 892.134 232.376C892.134 230.168 893.35 228.984 894.886 228.984C896.31 228.984 897.51 229.752 897.734 231.656L899.35 231.368ZM905.105 227.528C902.689 227.528 900.705 229.352 900.705 232.376C900.705 235.4 902.689 237.24 905.105 237.24C907.521 237.24 909.521 235.4 909.521 232.376C909.521 229.352 907.521 227.528 905.105 227.528ZM905.105 228.984C906.609 228.984 907.889 230.088 907.889 232.376C907.889 234.664 906.609 235.784 905.105 235.784C903.601 235.784 902.337 234.664 902.337 232.376C902.337 230.088 903.601 228.984 905.105 228.984ZM915.69 229.064C916.858 229.064 917.786 229.768 917.786 231.656V237H919.45V230.824C919.45 228.344 917.866 227.528 916.218 227.528C915.146 227.528 913.898 227.992 913.258 229.144V227.784H911.61V237H913.258V231.704C913.258 229.896 914.266 229.064 915.69 229.064ZM922.591 237H924.239V229.176H926.639V227.784H924.239V227.368C924.239 226.424 924.495 225.912 925.439 225.912C925.679 225.912 925.871 225.928 926.079 225.96L926.191 224.456C925.951 224.36 925.631 224.328 925.327 224.328C923.631 224.328 922.591 225.432 922.591 227.432V227.784H921.311V229.176H922.591V237ZM928.078 227.784V237H929.726V227.784H928.078ZM928.91 223.896C928.334 223.896 927.87 224.392 927.87 224.952C927.87 225.512 928.334 226.008 928.91 226.008C929.486 226.008 929.966 225.512 929.966 224.952C929.966 224.392 929.486 223.896 928.91 223.896ZM936.518 229.384C937.014 229.384 937.35 229.432 937.702 229.592L937.91 227.656C937.718 227.56 937.446 227.528 937.206 227.528C936.262 227.528 934.822 228.104 934.086 230.008V227.784H932.438V237H934.086V232.888C934.086 230.136 935.174 229.384 936.518 229.384ZM949.341 229.064C950.573 229.064 951.501 229.768 951.501 231.656V237H953.149V230.824C953.149 228.344 951.629 227.528 949.933 227.528C948.973 227.528 947.709 227.944 947.037 229.288C946.541 227.992 945.373 227.528 944.141 227.528C943.069 227.528 941.757 227.992 941.101 229.144V227.784H939.453V237H941.101V231.704C941.101 229.896 942.109 229.064 943.485 229.064C944.701 229.064 945.629 229.768 945.629 231.656V237H947.293V231.704C947.293 229.896 948.157 229.064 949.341 229.064ZM955.574 230.312C955.574 231.576 956.31 232.472 957.862 232.824L959.462 233.208C960.726 233.496 961.094 233.88 961.094 234.488C961.094 235.352 960.246 235.864 959.046 235.864C957.622 235.864 956.71 235.192 956.55 233.896L955.094 234.168C955.398 236.344 957.366 237.24 959.03 237.24C960.662 237.24 962.582 236.296 962.582 234.28C962.582 233.064 961.83 232.216 960.166 231.848L958.438 231.448C957.43 231.208 957.062 230.696 957.062 230.136C957.062 229.384 957.782 228.904 958.79 228.904C959.99 228.904 960.934 229.336 960.998 230.728L962.454 230.44C961.958 228.296 960.566 227.528 958.79 227.528C957.382 227.528 955.574 228.36 955.574 230.312ZM772.048 245.56V247.784H770.256V249.176H772.048V254.584C772.048 256.168 772.832 257.16 774.512 257.16C775.04 257.16 775.632 257.032 776.08 256.904L775.76 255.544C775.408 255.64 775.216 255.688 774.832 255.688C773.968 255.688 773.664 255.288 773.664 254.536V249.176H776.064V247.784H773.664V245.24L772.048 245.56ZM778.078 244.6V257H779.726V251.704C779.726 249.896 780.734 249.064 782.19 249.064C783.326 249.064 784.254 249.768 784.254 251.656V257H785.918V250.824C785.918 248.344 784.398 247.528 782.59 247.528C781.678 247.528 780.382 247.992 779.726 249.144V244.6H778.078ZM792.452 248.984C793.908 248.984 794.996 249.672 795.156 251.368H789.684C789.972 249.784 790.996 248.984 792.452 248.984ZM796.756 252.744V252.168C796.756 249.448 795.012 247.528 792.58 247.528C789.94 247.528 787.94 249.4 787.94 252.36C787.94 255.4 790.004 257.24 792.66 257.24C794.324 257.24 796.324 256.28 796.676 254.184L795.156 253.864C794.932 255.064 794.244 255.768 792.596 255.768C790.724 255.768 789.732 254.52 789.62 252.744H796.756ZM807.973 247.528C806.341 247.528 805.349 248.648 804.773 249.768V247.784H803.125V260.2H804.773V255.08C805.541 256.472 806.565 257.24 807.781 257.24C809.925 257.24 812.021 255.608 812.021 252.248C812.021 249.032 809.845 247.528 807.973 247.528ZM807.573 248.984C808.949 248.984 810.389 250.088 810.389 252.36C810.389 254.664 808.965 255.768 807.557 255.768C806.101 255.768 804.773 254.6 804.773 252.36C804.773 250.024 806.101 248.984 807.573 248.984ZM817.787 257.24C819.499 257.24 820.507 256.136 820.939 254.952V257H822.587V247.784H820.939V249.704C820.299 248.168 819.275 247.528 817.739 247.528C815.835 247.528 813.691 249.08 813.691 252.296C813.691 255.672 815.851 257.24 817.787 257.24ZM818.139 248.984C819.611 248.984 820.939 250.088 820.939 252.408C820.939 254.792 819.611 255.768 818.123 255.768C816.747 255.768 815.323 254.744 815.323 252.408C815.323 250.04 816.763 248.984 818.139 248.984ZM826.018 260.168C827.778 260.168 828.786 259.208 829.378 257.624L833.09 247.784H831.25L828.738 255.4L826.082 247.784H824.242L827.682 256.456C828.146 257.624 827.698 258.808 826.194 258.808C825.474 258.808 825.122 258.6 824.866 258.424L824.578 259.816C824.993 260.04 825.522 260.168 826.018 260.168ZM844.654 249.064C845.886 249.064 846.814 249.768 846.814 251.656V257H848.462V250.824C848.462 248.344 846.942 247.528 845.246 247.528C844.286 247.528 843.022 247.944 842.35 249.288C841.854 247.992 840.686 247.528 839.454 247.528C838.382 247.528 837.07 247.992 836.414 249.144V247.784H834.766V257H836.414V251.704C836.414 249.896 837.422 249.064 838.798 249.064C840.014 249.064 840.942 249.768 840.942 251.656V257H842.606V251.704C842.606 249.896 843.47 249.064 844.654 249.064ZM854.998 248.984C856.454 248.984 857.542 249.672 857.702 251.368H852.23C852.518 249.784 853.542 248.984 854.998 248.984ZM859.302 252.744V252.168C859.302 249.448 857.558 247.528 855.126 247.528C852.486 247.528 850.486 249.4 850.486 252.36C850.486 255.4 852.55 257.24 855.206 257.24C856.87 257.24 858.87 256.28 859.222 254.184L857.702 253.864C857.478 255.064 856.79 255.768 855.142 255.768C853.27 255.768 852.278 254.52 852.166 252.744H859.302ZM865.44 249.064C866.608 249.064 867.536 249.768 867.536 251.656V257H869.2V250.824C869.2 248.344 867.616 247.528 865.968 247.528C864.896 247.528 863.648 247.992 863.008 249.144V247.784H861.36V257H863.008V251.704C863.008 249.896 864.016 249.064 865.44 249.064ZM872.517 245.56V247.784H870.725V249.176H872.517V254.584C872.517 256.168 873.301 257.16 874.981 257.16C875.509 257.16 876.101 257.032 876.549 256.904L876.229 255.544C875.877 255.64 875.685 255.688 875.301 255.688C874.437 255.688 874.133 255.288 874.133 254.536V249.176H876.533V247.784H874.133V245.24L872.517 245.56ZM882.844 247.784V257H884.492V247.784H882.844ZM883.676 243.896C883.1 243.896 882.636 244.392 882.636 244.952C882.636 245.512 883.1 246.008 883.676 246.008C884.252 246.008 884.732 245.512 884.732 244.952C884.732 244.392 884.252 243.896 883.676 243.896ZM891.283 249.064C892.451 249.064 893.379 249.768 893.379 251.656V257H895.043V250.824C895.043 248.344 893.459 247.528 891.811 247.528C890.739 247.528 889.491 247.992 888.851 249.144V247.784H887.203V257H888.851V251.704C888.851 249.896 889.859 249.064 891.283 249.064ZM907.281 257L911.745 245H909.825L906.433 255.224L903.025 245H901.105L905.553 257H907.281ZM913.703 247.784V257H915.351V247.784H913.703ZM914.535 243.896C913.959 243.896 913.495 244.392 913.495 244.952C913.495 245.512 913.959 246.008 914.535 246.008C915.111 246.008 915.591 245.512 915.591 244.952C915.591 244.392 915.111 243.896 914.535 243.896ZM922.911 247.528C921.279 247.528 920.287 248.648 919.711 249.768V247.784H918.063V260.2H919.711V255.08C920.479 256.472 921.503 257.24 922.719 257.24C924.863 257.24 926.959 255.608 926.959 252.248C926.959 249.032 924.783 247.528 922.911 247.528ZM922.511 248.984C923.887 248.984 925.327 250.088 925.327 252.36C925.327 254.664 923.903 255.768 922.495 255.768C921.039 255.768 919.711 254.6 919.711 252.36C919.711 250.024 921.039 248.984 922.511 248.984ZM933.989 247.528C932.357 247.528 931.365 248.648 930.789 249.768V247.784H929.141V260.2H930.789V255.08C931.557 256.472 932.581 257.24 933.797 257.24C935.941 257.24 938.037 255.608 938.037 252.248C938.037 249.032 935.861 247.528 933.989 247.528ZM933.589 248.984C934.965 248.984 936.405 250.088 936.405 252.36C936.405 254.664 934.981 255.768 933.573 255.768C932.117 255.768 930.789 254.6 930.789 252.36C930.789 250.024 932.117 248.984 933.589 248.984ZM940.027 250.312C940.027 251.576 940.763 252.472 942.315 252.824L943.915 253.208C945.179 253.496 945.547 253.88 945.547 254.488C945.547 255.352 944.699 255.864 943.499 255.864C942.075 255.864 941.163 255.192 941.003 253.896L939.547 254.168C939.851 256.344 941.819 257.24 943.483 257.24C945.115 257.24 947.035 256.296 947.035 254.28C947.035 253.064 946.283 252.216 944.619 251.848L942.891 251.448C941.883 251.208 941.515 250.696 941.515 250.136C941.515 249.384 942.235 248.904 943.243 248.904C944.443 248.904 945.387 249.336 945.451 250.728L946.907 250.44C946.411 248.296 945.019 247.528 943.243 247.528C941.835 247.528 940.027 248.36 940.027 250.312Z" fill="black"/>
<g clip-path="url(#clip1)">
<circle cx="1184" cy="169" r="39.5161" fill="white"/>
<path d="M1219.77 200.895H1148.23C1146.16 200.895 1144.48 199.222 1144.48 197.158V141.125C1144.48 139.06 1146.16 137.387 1148.23 137.387H1219.77C1221.84 137.387 1223.52 139.06 1223.52 141.125V197.158C1223.52 199.222 1221.84 200.895 1219.77 200.895Z" fill="#C9C6D7"/>
<path d="M1193.02 189.174H1175.76C1171.38 189.174 1167.8 185.589 1167.8 181.206L1167.8 163.928C1167.8 159.545 1171.38 155.96 1175.76 155.96H1193.02C1197.4 155.96 1200.98 159.545 1200.98 163.928L1200.98 181.206C1200.98 185.589 1197.4 189.174 1193.02 189.174Z" fill="white"/>
<path d="M1190.96 178.187H1180.69C1179.26 178.187 1178.1 177.025 1178.1 175.595V164.472C1178.1 163.927 1177.66 163.479 1177.11 163.472C1176.87 163.479 1176.59 163.571 1176.4 163.761C1176.21 163.95 1176.1 164.202 1176.1 164.472C1176.1 164.909 1175.75 165.264 1175.31 165.264C1174.87 165.264 1174.52 164.909 1174.52 164.472C1174.52 163.776 1174.79 163.124 1175.28 162.634C1175.78 162.145 1176.45 161.886 1177.13 161.887C1178.54 161.905 1179.68 163.064 1179.68 164.472V168.005H1192.69C1193.12 168.005 1193.48 168.355 1193.48 168.789L1193.55 175.571C1193.56 176.27 1193.29 176.926 1192.8 177.421C1192.31 177.915 1191.65 178.187 1190.96 178.187Z" fill="#FF985F"/>
<path d="M1181.62 181.491C1181.62 182.444 1180.85 183.217 1179.9 183.217C1178.95 183.217 1178.17 182.444 1178.17 181.491C1178.17 180.538 1178.95 179.766 1179.9 179.766C1180.85 179.766 1181.62 180.538 1181.62 181.491Z" fill="#FF5B24"/>
<path d="M1192.6 181.491C1192.6 182.444 1191.83 183.217 1190.88 183.217C1189.93 183.217 1189.15 182.444 1189.15 181.491C1189.15 180.538 1189.93 179.766 1190.88 179.766C1191.83 179.766 1192.6 180.538 1192.6 181.491Z" fill="#FF5B24"/>
<path d="M1184.17 173.613L1185.52 174.598L1187.85 171.371" stroke="white" stroke-linecap="round" stroke-linejoin="round"/>
<path d="M1219.64 137.387H1148.36C1146.22 137.387 1144.48 139.136 1144.48 141.294V146.796H1223.52V141.294C1223.52 139.136 1221.78 137.387 1219.64 137.387Z" fill="#551488"/>
<path d="M1152.01 142.091C1152.01 143.131 1151.17 143.973 1150.13 143.973C1149.09 143.973 1148.25 143.131 1148.25 142.091C1148.25 141.052 1149.09 140.21 1150.13 140.21C1151.17 140.21 1152.01 141.052 1152.01 142.091Z" fill="white"/>
<path d="M1158.13 142.091C1158.13 143.131 1157.28 143.973 1156.25 143.973C1155.21 143.973 1154.36 143.131 1154.36 142.091C1154.36 141.052 1155.21 140.21 1156.25 140.21C1157.28 140.21 1158.13 141.052 1158.13 142.091Z" fill="white"/>
<path d="M1164.71 142.091C1164.71 143.131 1163.87 143.973 1162.83 143.973C1161.79 143.973 1160.95 143.131 1160.95 142.091C1160.95 141.052 1161.79 140.21 1162.83 140.21C1163.87 140.21 1164.71 141.052 1164.71 142.091Z" fill="white"/>
</g>
<path d="M1075.59 226.6H1079.21V237H1080.95V226.6H1084.57V225H1075.59V226.6ZM1086.5 224.6V237H1088.15V231.704C1088.15 229.896 1089.16 229.064 1090.61 229.064C1091.75 229.064 1092.68 229.768 1092.68 231.656V237H1094.34V230.824C1094.34 228.344 1092.82 227.528 1091.01 227.528C1090.1 227.528 1088.8 227.992 1088.15 229.144V224.6H1086.5ZM1100.87 228.984C1102.33 228.984 1103.42 229.672 1103.58 231.368H1098.11C1098.39 229.784 1099.42 228.984 1100.87 228.984ZM1105.18 232.744V232.168C1105.18 229.448 1103.43 227.528 1101 227.528C1098.36 227.528 1096.36 229.4 1096.36 232.36C1096.36 235.4 1098.43 237.24 1101.08 237.24C1102.75 237.24 1104.75 236.28 1105.1 234.184L1103.58 233.864C1103.35 235.064 1102.67 235.768 1101.02 235.768C1099.15 235.768 1098.15 234.52 1098.04 232.744H1105.18ZM1116.4 227.528C1114.76 227.528 1113.77 228.648 1113.2 229.768V227.784H1111.55V240.2H1113.2V235.08C1113.96 236.472 1114.99 237.24 1116.2 237.24C1118.35 237.24 1120.44 235.608 1120.44 232.248C1120.44 229.032 1118.27 227.528 1116.4 227.528ZM1116 228.984C1117.37 228.984 1118.81 230.088 1118.81 232.36C1118.81 234.664 1117.39 235.768 1115.98 235.768C1114.52 235.768 1113.2 234.6 1113.2 232.36C1113.2 230.024 1114.52 228.984 1116 228.984ZM1126.21 237.24C1127.92 237.24 1128.93 236.136 1129.36 234.952V237H1131.01V227.784H1129.36V229.704C1128.72 228.168 1127.7 227.528 1126.16 227.528C1124.26 227.528 1122.11 229.08 1122.11 232.296C1122.11 235.672 1124.27 237.24 1126.21 237.24ZM1126.56 228.984C1128.03 228.984 1129.36 230.088 1129.36 232.408C1129.36 234.792 1128.03 235.768 1126.55 235.768C1125.17 235.768 1123.75 234.744 1123.75 232.408C1123.75 230.04 1125.19 228.984 1126.56 228.984ZM1134.44 240.168C1136.2 240.168 1137.21 239.208 1137.8 237.624L1141.51 227.784H1139.67L1137.16 235.4L1134.5 227.784H1132.66L1136.1 236.456C1136.57 237.624 1136.12 238.808 1134.62 238.808C1133.9 238.808 1133.54 238.6 1133.29 238.424L1133 239.816C1133.42 240.04 1133.94 240.168 1134.44 240.168ZM1153.08 229.064C1154.31 229.064 1155.24 229.768 1155.24 231.656V237H1156.88V230.824C1156.88 228.344 1155.36 227.528 1153.67 227.528C1152.71 227.528 1151.44 227.944 1150.77 229.288C1150.28 227.992 1149.11 227.528 1147.88 227.528C1146.8 227.528 1145.49 227.992 1144.84 229.144V227.784H1143.19V237H1144.84V231.704C1144.84 229.896 1145.84 229.064 1147.22 229.064C1148.44 229.064 1149.36 229.768 1149.36 231.656V237H1151.03V231.704C1151.03 229.896 1151.89 229.064 1153.08 229.064ZM1163.42 228.984C1164.88 228.984 1165.96 229.672 1166.12 231.368H1160.65C1160.94 229.784 1161.96 228.984 1163.42 228.984ZM1167.72 232.744V232.168C1167.72 229.448 1165.98 227.528 1163.55 227.528C1160.91 227.528 1158.91 229.4 1158.91 232.36C1158.91 235.4 1160.97 237.24 1163.63 237.24C1165.29 237.24 1167.29 236.28 1167.64 234.184L1166.12 233.864C1165.9 235.064 1165.21 235.768 1163.56 235.768C1161.69 235.768 1160.7 234.52 1160.59 232.744H1167.72ZM1173.86 229.064C1175.03 229.064 1175.96 229.768 1175.96 231.656V237H1177.62V230.824C1177.62 228.344 1176.04 227.528 1174.39 227.528C1173.32 227.528 1172.07 227.992 1171.43 229.144V227.784H1169.78V237H1171.43V231.704C1171.43 229.896 1172.44 229.064 1173.86 229.064ZM1180.94 225.56V227.784H1179.15V229.176H1180.94V234.584C1180.94 236.168 1181.72 237.16 1183.4 237.16C1183.93 237.16 1184.52 237.032 1184.97 236.904L1184.65 235.544C1184.3 235.64 1184.11 235.688 1183.72 235.688C1182.86 235.688 1182.55 235.288 1182.55 234.536V229.176H1184.95V227.784H1182.55V225.24L1180.94 225.56ZM1191.27 227.784V237H1192.91V227.784H1191.27ZM1192.1 223.896C1191.52 223.896 1191.06 224.392 1191.06 224.952C1191.06 225.512 1191.52 226.008 1192.1 226.008C1192.67 226.008 1193.15 225.512 1193.15 224.952C1193.15 224.392 1192.67 223.896 1192.1 223.896ZM1195.43 230.312C1195.43 231.576 1196.17 232.472 1197.72 232.824L1199.32 233.208C1200.59 233.496 1200.95 233.88 1200.95 234.488C1200.95 235.352 1200.11 235.864 1198.91 235.864C1197.48 235.864 1196.57 235.192 1196.41 233.896L1194.95 234.168C1195.26 236.344 1197.23 237.24 1198.89 237.24C1200.52 237.24 1202.44 236.296 1202.44 234.28C1202.44 233.064 1201.69 232.216 1200.03 231.848L1198.3 231.448C1197.29 231.208 1196.92 230.696 1196.92 230.136C1196.92 229.384 1197.64 228.904 1198.65 228.904C1199.85 228.904 1200.79 229.336 1200.86 230.728L1202.31 230.44C1201.82 228.296 1200.43 227.528 1198.65 227.528C1197.24 227.528 1195.43 228.36 1195.43 230.312ZM1212.89 229.384C1213.39 229.384 1213.72 229.432 1214.08 229.592L1214.28 227.656C1214.09 227.56 1213.82 227.528 1213.58 227.528C1212.64 227.528 1211.2 228.104 1210.46 230.008V227.784H1208.81V237H1210.46V232.888C1210.46 230.136 1211.55 229.384 1212.89 229.384ZM1219.78 228.984C1221.24 228.984 1222.32 229.672 1222.48 231.368H1217.01C1217.3 229.784 1218.32 228.984 1219.78 228.984ZM1224.08 232.744V232.168C1224.08 229.448 1222.34 227.528 1219.91 227.528C1217.27 227.528 1215.27 229.4 1215.27 232.36C1215.27 235.4 1217.33 237.24 1219.99 237.24C1221.65 237.24 1223.65 236.28 1224 234.184L1222.48 233.864C1222.26 235.064 1221.57 235.768 1219.92 235.768C1218.05 235.768 1217.06 234.52 1216.95 232.744H1224.08ZM1229.64 236.552C1231.29 236.552 1232.09 235.336 1232.6 234.264V235.736C1232.6 237.928 1231.77 238.808 1229.82 238.808C1228.59 238.808 1227.44 238.44 1227.23 236.968L1225.64 237.208C1226.11 239.544 1228.11 240.328 1229.71 240.328C1232.6 240.328 1234.25 238.792 1234.25 235.704V227.768H1232.6V229.656C1231.88 228.168 1231.02 227.528 1229.76 227.528C1227.66 227.528 1225.68 228.936 1225.68 231.864C1225.68 235.048 1227.71 236.552 1229.64 236.552ZM1229.92 228.984C1231.39 228.984 1232.6 230.056 1232.6 231.992C1232.6 234.024 1231.39 235 1229.92 235C1228.49 235 1227.31 234.024 1227.31 231.976C1227.31 229.992 1228.54 228.984 1229.92 228.984ZM1236.92 227.784V237H1238.57V227.784H1236.92ZM1237.75 223.896C1237.18 223.896 1236.71 224.392 1236.71 224.952C1236.71 225.512 1237.18 226.008 1237.75 226.008C1238.33 226.008 1238.81 225.512 1238.81 224.952C1238.81 224.392 1238.33 223.896 1237.75 223.896ZM1241.09 230.312C1241.09 231.576 1241.83 232.472 1243.38 232.824L1244.98 233.208C1246.24 233.496 1246.61 233.88 1246.61 234.488C1246.61 235.352 1245.76 235.864 1244.56 235.864C1243.14 235.864 1242.23 235.192 1242.07 233.896L1240.61 234.168C1240.91 236.344 1242.88 237.24 1244.55 237.24C1246.18 237.24 1248.1 236.296 1248.1 234.28C1248.1 233.064 1247.35 232.216 1245.68 231.848L1243.95 231.448C1242.95 231.208 1242.58 230.696 1242.58 230.136C1242.58 229.384 1243.3 228.904 1244.31 228.904C1245.51 228.904 1246.45 229.336 1246.51 230.728L1247.97 230.44C1247.47 228.296 1246.08 227.528 1244.31 227.528C1242.9 227.528 1241.09 228.36 1241.09 230.312ZM1250.86 225.56V227.784H1249.07V229.176H1250.86V234.584C1250.86 236.168 1251.64 237.16 1253.32 237.16C1253.85 237.16 1254.44 237.032 1254.89 236.904L1254.57 235.544C1254.22 235.64 1254.03 235.688 1253.64 235.688C1252.78 235.688 1252.48 235.288 1252.48 234.536V229.176H1254.88V227.784H1252.48V225.24L1250.86 225.56ZM1260.81 228.984C1262.27 228.984 1263.35 229.672 1263.51 231.368H1258.04C1258.33 229.784 1259.35 228.984 1260.81 228.984ZM1265.11 232.744V232.168C1265.11 229.448 1263.37 227.528 1260.94 227.528C1258.3 227.528 1256.3 229.4 1256.3 232.36C1256.3 235.4 1258.36 237.24 1261.02 237.24C1262.68 237.24 1264.68 236.28 1265.03 234.184L1263.51 233.864C1263.29 235.064 1262.6 235.768 1260.95 235.768C1259.08 235.768 1258.09 234.52 1257.98 232.744H1265.11ZM1271.25 229.384C1271.75 229.384 1272.08 229.432 1272.44 229.592L1272.64 227.656C1272.45 227.56 1272.18 227.528 1271.94 227.528C1271 227.528 1269.56 228.104 1268.82 230.008V227.784H1267.17V237H1268.82V232.888C1268.82 230.136 1269.91 229.384 1271.25 229.384ZM1278.14 228.984C1279.6 228.984 1280.68 229.672 1280.84 231.368H1275.37C1275.66 229.784 1276.68 228.984 1278.14 228.984ZM1282.44 232.744V232.168C1282.44 229.448 1280.7 227.528 1278.27 227.528C1275.63 227.528 1273.63 229.4 1273.63 232.36C1273.63 235.4 1275.69 237.24 1278.35 237.24C1280.01 237.24 1282.01 236.28 1282.36 234.184L1280.84 233.864C1280.62 235.064 1279.93 235.768 1278.28 235.768C1276.41 235.768 1275.42 234.52 1275.31 232.744H1282.44ZM1292.88 224.6H1291.24V229.704C1290.6 228.168 1289.59 227.528 1288.29 227.528C1286.13 227.528 1283.99 229.08 1283.99 232.296C1283.99 235.672 1286.15 237.24 1288.04 237.24C1289.8 237.24 1290.8 236.296 1291.24 235.144V237H1292.88V224.6ZM1288.44 228.984C1289.91 228.984 1291.24 230.168 1291.24 232.408C1291.24 234.744 1289.91 235.768 1288.42 235.768C1287.04 235.768 1285.62 234.68 1285.62 232.408C1285.62 230.104 1287.06 228.984 1288.44 228.984ZM1076.33 247.784V257H1077.98V247.784H1076.33ZM1077.16 243.896C1076.58 243.896 1076.12 244.392 1076.12 244.952C1076.12 245.512 1076.58 246.008 1077.16 246.008C1077.74 246.008 1078.22 245.512 1078.22 244.952C1078.22 244.392 1077.74 243.896 1077.16 243.896ZM1084.77 249.064C1085.94 249.064 1086.86 249.768 1086.86 251.656V257H1088.53V250.824C1088.53 248.344 1086.94 247.528 1085.3 247.528C1084.22 247.528 1082.98 247.992 1082.34 249.144V247.784H1080.69V257H1082.34V251.704C1082.34 249.896 1083.34 249.064 1084.77 249.064ZM1096.16 245.56V247.784H1094.37V249.176H1096.16V254.584C1096.16 256.168 1096.94 257.16 1098.62 257.16C1099.15 257.16 1099.74 257.032 1100.19 256.904L1099.87 255.544C1099.52 255.64 1099.33 255.688 1098.94 255.688C1098.08 255.688 1097.77 255.288 1097.77 254.536V249.176H1100.17V247.784H1097.77V245.24L1096.16 245.56ZM1102.19 244.6V257H1103.84V251.704C1103.84 249.896 1104.84 249.064 1106.3 249.064C1107.44 249.064 1108.36 249.768 1108.36 251.656V257H1110.03V250.824C1110.03 248.344 1108.51 247.528 1106.7 247.528C1105.79 247.528 1104.49 247.992 1103.84 249.144V244.6H1102.19ZM1116.56 248.984C1118.02 248.984 1119.1 249.672 1119.26 251.368H1113.79C1114.08 249.784 1115.1 248.984 1116.56 248.984ZM1120.86 252.744V252.168C1120.86 249.448 1119.12 247.528 1116.69 247.528C1114.05 247.528 1112.05 249.4 1112.05 252.36C1112.05 255.4 1114.11 257.24 1116.77 257.24C1118.43 257.24 1120.43 256.28 1120.78 254.184L1119.26 253.864C1119.04 255.064 1118.35 255.768 1116.7 255.768C1114.83 255.768 1113.84 254.52 1113.73 252.744H1120.86ZM1129.11 246.6H1131.47C1132.99 246.6 1133.79 247.512 1133.79 249.08C1133.79 250.584 1132.99 251.48 1131.44 251.48H1129.11V246.6ZM1127.36 245V257H1129.11V253.08H1131.65C1134.1 253.08 1135.65 251.336 1135.65 249.048C1135.65 246.408 1134.19 245 1131.63 245H1127.36ZM1143.35 244.76C1140.21 244.76 1137.33 247.304 1137.33 251C1137.33 254.712 1140.21 257.24 1143.35 257.24C1146.48 257.24 1149.36 254.712 1149.36 251C1149.36 247.304 1146.48 244.76 1143.35 244.76ZM1143.35 246.584C1145.6 246.584 1147.49 247.992 1147.49 251C1147.49 254.04 1145.59 255.416 1143.35 255.416C1141.11 255.416 1139.2 254.04 1139.2 251C1139.2 247.992 1141.09 246.584 1143.35 246.584ZM1151.34 248.152C1151.34 252.712 1158.11 251.176 1158.11 253.912C1158.11 254.92 1157.36 255.608 1155.85 255.608C1154.48 255.608 1152.86 255.128 1152.64 252.904L1150.84 253.352C1151.16 255.944 1153.42 257.24 1155.76 257.24C1157.85 257.24 1159.8 256.024 1159.8 253.768C1159.8 249.416 1153.08 251.048 1153.08 248.088C1153.08 247.048 1153.85 246.392 1155.24 246.392C1156.4 246.392 1157.72 246.904 1157.84 248.728L1159.64 248.28C1159.36 245.848 1157.21 244.76 1155.42 244.76C1153.36 244.76 1151.34 245.896 1151.34 248.152ZM1166.04 250.312C1166.04 251.576 1166.78 252.472 1168.33 252.824L1169.93 253.208C1171.19 253.496 1171.56 253.88 1171.56 254.488C1171.56 255.352 1170.71 255.864 1169.51 255.864C1168.09 255.864 1167.18 255.192 1167.02 253.896L1165.56 254.168C1165.87 256.344 1167.83 257.24 1169.5 257.24C1171.13 257.24 1173.05 256.296 1173.05 254.28C1173.05 253.064 1172.3 252.216 1170.63 251.848L1168.91 251.448C1167.9 251.208 1167.53 250.696 1167.53 250.136C1167.53 249.384 1168.25 248.904 1169.26 248.904C1170.46 248.904 1171.4 249.336 1171.47 250.728L1172.92 250.44C1172.43 248.296 1171.03 247.528 1169.26 247.528C1167.85 247.528 1166.04 248.36 1166.04 250.312ZM1175.85 260.168C1177.61 260.168 1178.61 259.208 1179.21 257.624L1182.92 247.784H1181.08L1178.57 255.4L1175.91 247.784H1174.07L1177.51 256.456C1177.97 257.624 1177.53 258.808 1176.02 258.808C1175.3 258.808 1174.95 258.6 1174.69 258.424L1174.41 259.816C1174.82 260.04 1175.35 260.168 1175.85 260.168ZM1184.4 250.312C1184.4 251.576 1185.14 252.472 1186.69 252.824L1188.29 253.208C1189.55 253.496 1189.92 253.88 1189.92 254.488C1189.92 255.352 1189.07 255.864 1187.87 255.864C1186.45 255.864 1185.54 255.192 1185.38 253.896L1183.92 254.168C1184.23 256.344 1186.19 257.24 1187.86 257.24C1189.49 257.24 1191.41 256.296 1191.41 254.28C1191.41 253.064 1190.66 252.216 1188.99 251.848L1187.27 251.448C1186.26 251.208 1185.89 250.696 1185.89 250.136C1185.89 249.384 1186.61 248.904 1187.62 248.904C1188.82 248.904 1189.76 249.336 1189.83 250.728L1191.28 250.44C1190.79 248.296 1189.39 247.528 1187.62 247.528C1186.21 247.528 1184.4 248.36 1184.4 250.312ZM1194.17 245.56V247.784H1192.38V249.176H1194.17V254.584C1194.17 256.168 1194.96 257.16 1196.64 257.16C1197.17 257.16 1197.76 257.032 1198.21 256.904L1197.89 255.544C1197.53 255.64 1197.34 255.688 1196.96 255.688C1196.09 255.688 1195.79 255.288 1195.79 254.536V249.176H1198.19V247.784H1195.79V245.24L1194.17 245.56ZM1204.12 248.984C1205.58 248.984 1206.67 249.672 1206.83 251.368H1201.36C1201.64 249.784 1202.67 248.984 1204.12 248.984ZM1208.43 252.744V252.168C1208.43 249.448 1206.68 247.528 1204.25 247.528C1201.61 247.528 1199.61 249.4 1199.61 252.36C1199.61 255.4 1201.68 257.24 1204.33 257.24C1206 257.24 1208 256.28 1208.35 254.184L1206.83 253.864C1206.6 255.064 1205.92 255.768 1204.27 255.768C1202.4 255.768 1201.4 254.52 1201.29 252.744H1208.43ZM1220.37 249.064C1221.6 249.064 1222.53 249.768 1222.53 251.656V257H1224.18V250.824C1224.18 248.344 1222.66 247.528 1220.96 247.528C1220 247.528 1218.74 247.944 1218.07 249.288C1217.57 247.992 1216.4 247.528 1215.17 247.528C1214.1 247.528 1212.79 247.992 1212.13 249.144V247.784H1210.48V257H1212.13V251.704C1212.13 249.896 1213.14 249.064 1214.52 249.064C1215.73 249.064 1216.66 249.768 1216.66 251.656V257H1218.32V251.704C1218.32 249.896 1219.19 249.064 1220.37 249.064Z" fill="black"/>
<g clip-path="url(#clip2)">
<circle cx="160" cy="169" r="39.5161" fill="white"/>
<path d="M195.555 199.828H124.013C121.944 199.828 120.268 198.151 120.268 196.083V139.946C120.268 137.878 121.944 136.202 124.013 136.202H195.555C197.623 136.202 199.3 137.878 199.3 139.946V196.083C199.3 198.151 197.623 199.828 195.555 199.828Z" fill="#C9C6D7"/>
<path d="M195.421 136.202H124.147C122.004 136.202 120.268 137.938 120.268 140.08V145.541H199.3V140.08C199.3 137.938 197.563 136.202 195.421 136.202Z" fill="#551488"/>
<path d="M127.685 140.909C127.685 141.98 126.818 142.848 125.747 142.848C124.675 142.848 123.807 141.98 123.807 140.909C123.807 139.838 124.675 138.97 125.747 138.97C126.818 138.97 127.685 139.838 127.685 140.909Z" fill="white"/>
<path d="M134.05 140.873C134.05 141.944 133.182 142.812 132.112 142.812C131.04 142.812 130.172 141.944 130.172 140.873C130.172 139.802 131.04 138.934 132.112 138.934C133.182 138.934 134.05 139.802 134.05 140.873Z" fill="white"/>
<path d="M140.516 140.873C140.516 141.944 139.648 142.812 138.577 142.812C137.506 142.812 136.638 141.944 136.638 140.873C136.638 139.802 137.506 138.934 138.577 138.934C139.648 138.934 140.516 139.802 140.516 140.873Z" fill="white"/>
<g filter="url(#filter0_d)">
<rect x="134.023" y="162.824" width="51.6917" height="16.7012" rx="3" fill="#FF5B24"/>
</g>
<path d="M193.325 210.302L193.532 209.084L195.937 190.204L184.553 181.688L168.527 186.241L170.015 210.957C177.554 212.767 185.028 212.5 193.325 210.302Z" fill="#FFD3BA"/>
<path d="M172.475 196.022C171.178 194.956 170.61 193.16 171.183 191.479C173.028 186.078 173.275 182.986 173.371 180.281C173.453 177.993 175.373 176.204 177.661 176.285C179.949 176.366 181.738 178.286 181.657 180.574C181.518 184.518 181.018 188.338 179.03 194.157C178.291 196.324 175.934 197.481 173.767 196.741C173.283 196.576 172.849 196.329 172.475 196.022Z" fill="#FFD3BA"/>
<path d="M180.516 194.869C179.182 193.773 178.627 191.909 179.27 190.204C180.378 187.264 180.87 184.55 180.73 182.136C180.598 179.85 182.344 177.891 184.63 177.759C186.915 177.627 188.876 179.372 189.008 181.658C189.214 185.236 188.548 189.096 187.028 193.128C186.221 195.271 183.829 196.353 181.687 195.545C181.251 195.381 180.858 195.149 180.516 194.869Z" fill="#FFD3BA"/>
<path d="M189.159 196.796C187.674 195.913 186.845 194.155 187.223 192.372C187.876 189.299 187.954 186.542 187.453 184.176C186.978 181.936 188.409 179.735 190.649 179.261C192.889 178.786 195.089 180.217 195.564 182.457C196.308 185.964 196.231 189.88 195.335 194.094C194.859 196.334 192.658 197.764 190.418 197.288C189.962 197.19 189.539 197.022 189.159 196.796Z" fill="#FFD3BA"/>
<path d="M169.26 222.249C168.141 213.953 165.356 211.227 164.947 210.679C164.559 210.16 160.929 206.071 159.589 203.637C157.93 200.62 155.975 196.318 157.67 192.801C159.33 189.356 163.48 190.047 166.703 187.473L173.608 184.951C176.352 184.481 178.957 186.323 179.428 189.066C179.898 191.81 178.055 194.414 175.312 194.885L173.951 196.348C173.452 196.551 173.876 197.956 174.006 198.545C174.794 199.952 172.017 202.572 173.304 204.297C174.969 206.527 174.51 209.685 172.279 211.349C170.595 212.605 169.524 224.208 169.26 222.249Z" fill="#FFD3BA"/>
<path fill-rule="evenodd" clip-rule="evenodd" d="M193.717 214.144C186.729 220.102 178.003 224.082 168.406 225.217C168.19 214.256 167.675 204.277 166.556 201.817C163.809 195.78 189.909 203.936 189.909 203.936C189.909 203.936 194.39 193.106 193.736 213.415C193.729 213.657 193.722 213.901 193.717 214.144Z" fill="#FFD3BA"/>
<path d="M158.516 169.557C158.516 169.557 165.424 171.692 167.96 175.159C171.711 180.289 170.562 188.147 167.226 194.008" stroke="#FFD2BA" stroke-width="10" stroke-linecap="round" stroke-linejoin="round"/>
</g>
<path d="M66.736 225L62.576 237H64.4L65.248 234.392H70.368L71.216 237H73.04L68.88 225H66.736ZM65.776 232.728L67.808 226.424L69.824 232.728H65.776ZM83.0249 224.6H81.3769V229.704C80.7369 228.168 79.7289 227.528 78.4329 227.528C76.2729 227.528 74.1289 229.08 74.1289 232.296C74.1289 235.672 76.2889 237.24 78.1769 237.24C79.9369 237.24 80.9449 236.296 81.3769 235.144V237H83.0249V224.6ZM78.5769 228.984C80.0489 228.984 81.3769 230.168 81.3769 232.408C81.3769 234.744 80.0489 235.768 78.5609 235.768C77.1849 235.768 75.7609 234.68 75.7609 232.408C75.7609 230.104 77.2009 228.984 78.5769 228.984ZM94.103 224.6H92.455V229.704C91.815 228.168 90.807 227.528 89.511 227.528C87.351 227.528 85.207 229.08 85.207 232.296C85.207 235.672 87.367 237.24 89.255 237.24C91.015 237.24 92.023 236.296 92.455 235.144V237H94.103V224.6ZM89.655 228.984C91.127 228.984 92.455 230.168 92.455 232.408C92.455 234.744 91.127 235.768 89.639 235.768C88.263 235.768 86.839 234.68 86.839 232.408C86.839 230.104 88.279 228.984 89.655 228.984ZM105.958 227.528C104.326 227.528 103.334 228.648 102.758 229.768V227.784H101.11V240.2H102.758V235.08C103.526 236.472 104.55 237.24 105.766 237.24C107.91 237.24 110.006 235.608 110.006 232.248C110.006 229.032 107.83 227.528 105.958 227.528ZM105.558 228.984C106.934 228.984 108.374 230.088 108.374 232.36C108.374 234.664 106.95 235.768 105.542 235.768C104.086 235.768 102.758 234.6 102.758 232.36C102.758 230.024 104.086 228.984 105.558 228.984ZM116.268 229.384C116.764 229.384 117.1 229.432 117.452 229.592L117.66 227.656C117.468 227.56 117.196 227.528 116.956 227.528C116.012 227.528 114.572 228.104 113.836 230.008V227.784H112.188V237H113.836V232.888C113.836 230.136 114.924 229.384 116.268 229.384ZM123.043 227.528C120.627 227.528 118.643 229.352 118.643 232.376C118.643 235.4 120.627 237.24 123.043 237.24C125.459 237.24 127.459 235.4 127.459 232.376C127.459 229.352 125.459 227.528 123.043 227.528ZM123.043 228.984C124.547 228.984 125.827 230.088 125.827 232.376C125.827 234.664 124.547 235.784 123.043 235.784C121.539 235.784 120.275 234.664 120.275 232.376C120.275 230.088 121.539 228.984 123.043 228.984ZM137.931 224.6H136.283V229.704C135.643 228.168 134.635 227.528 133.339 227.528C131.179 227.528 129.035 229.08 129.035 232.296C129.035 235.672 131.195 237.24 133.083 237.24C134.843 237.24 135.851 236.296 136.283 235.144V237H137.931V224.6ZM133.483 228.984C134.955 228.984 136.283 230.168 136.283 232.408C136.283 234.744 134.955 235.768 133.467 235.768C132.091 235.768 130.667 234.68 130.667 232.408C130.667 230.104 132.107 228.984 133.483 228.984ZM148.433 237V227.784H146.785V233.192C146.785 234.936 145.665 235.704 144.177 235.704C142.849 235.704 142.209 235.128 142.209 233.544V227.784H140.561V234.232C140.561 236.36 142.097 237.24 143.569 237.24C144.769 237.24 146.065 236.696 146.785 235.416V237H148.433ZM159.381 231.368C159.093 228.92 157.141 227.528 155.013 227.528C152.485 227.528 150.533 229.4 150.533 232.376C150.533 235.224 152.453 237.24 155.205 237.24C156.917 237.24 158.933 236.264 159.365 233.448L157.893 233.16C157.669 234.888 156.709 235.768 155.189 235.768C153.125 235.768 152.165 234.232 152.165 232.376C152.165 230.168 153.381 228.984 154.917 228.984C156.341 228.984 157.541 229.752 157.765 231.656L159.381 231.368ZM162.032 225.56V227.784H160.24V229.176H162.032V234.584C162.032 236.168 162.816 237.16 164.496 237.16C165.024 237.16 165.616 237.032 166.064 236.904L165.744 235.544C165.392 235.64 165.2 235.688 164.816 235.688C163.952 235.688 163.648 235.288 163.648 234.536V229.176H166.048V227.784H163.648V225.24L162.032 225.56ZM167.871 230.312C167.871 231.576 168.607 232.472 170.159 232.824L171.759 233.208C173.023 233.496 173.391 233.88 173.391 234.488C173.391 235.352 172.543 235.864 171.343 235.864C169.919 235.864 169.007 235.192 168.847 233.896L167.391 234.168C167.695 236.344 169.663 237.24 171.327 237.24C172.959 237.24 174.879 236.296 174.879 234.28C174.879 233.064 174.127 232.216 172.463 231.848L170.735 231.448C169.727 231.208 169.359 230.696 169.359 230.136C169.359 229.384 170.079 228.904 171.087 228.904C172.287 228.904 173.231 229.336 173.295 230.728L174.751 230.44C174.255 228.296 172.863 227.528 171.087 227.528C169.679 227.528 167.871 228.36 167.871 230.312ZM181.954 225.56V227.784H180.162V229.176H181.954V234.584C181.954 236.168 182.738 237.16 184.418 237.16C184.946 237.16 185.538 237.032 185.986 236.904L185.666 235.544C185.314 235.64 185.122 235.688 184.738 235.688C183.874 235.688 183.57 235.288 183.57 234.536V229.176H185.97V227.784H183.57V225.24L181.954 225.56ZM191.793 227.528C189.377 227.528 187.393 229.352 187.393 232.376C187.393 235.4 189.377 237.24 191.793 237.24C194.209 237.24 196.209 235.4 196.209 232.376C196.209 229.352 194.209 227.528 191.793 227.528ZM191.793 228.984C193.297 228.984 194.577 230.088 194.577 232.376C194.577 234.664 193.297 235.784 191.793 235.784C190.289 235.784 189.025 234.664 189.025 232.376C189.025 230.088 190.289 228.984 191.793 228.984ZM202.418 230.312C202.418 231.576 203.154 232.472 204.706 232.824L206.306 233.208C207.57 233.496 207.938 233.88 207.938 234.488C207.938 235.352 207.09 235.864 205.89 235.864C204.466 235.864 203.554 235.192 203.394 233.896L201.938 234.168C202.242 236.344 204.21 237.24 205.874 237.24C207.506 237.24 209.426 236.296 209.426 234.28C209.426 233.064 208.674 232.216 207.01 231.848L205.282 231.448C204.274 231.208 203.906 230.696 203.906 230.136C203.906 229.384 204.626 228.904 205.634 228.904C206.834 228.904 207.778 229.336 207.842 230.728L209.298 230.44C208.802 228.296 207.41 227.528 205.634 227.528C204.226 227.528 202.418 228.36 202.418 230.312ZM215.405 228.984C216.861 228.984 217.949 229.672 218.109 231.368H212.637C212.925 229.784 213.949 228.984 215.405 228.984ZM219.709 232.744V232.168C219.709 229.448 217.965 227.528 215.533 227.528C212.893 227.528 210.893 229.4 210.893 232.36C210.893 235.4 212.957 237.24 215.613 237.24C217.277 237.24 219.277 236.28 219.629 234.184L218.109 233.864C217.885 235.064 217.197 235.768 215.549 235.768C213.677 235.768 212.685 234.52 212.573 232.744H219.709ZM221.766 224.6V237H223.414V224.6H221.766ZM226.11 224.6V237H227.758V224.6H226.11ZM234.75 227.784V237H236.398V227.784H234.75ZM235.582 223.896C235.006 223.896 234.542 224.392 234.542 224.952C234.542 225.512 235.006 226.008 235.582 226.008C236.158 226.008 236.638 225.512 236.638 224.952C236.638 224.392 236.158 223.896 235.582 223.896ZM243.19 229.064C244.358 229.064 245.286 229.768 245.286 231.656V237H246.95V230.824C246.95 228.344 245.366 227.528 243.718 227.528C242.646 227.528 241.398 227.992 240.758 229.144V227.784H239.11V237H240.758V231.704C240.758 229.896 241.766 229.064 243.19 229.064ZM64.048 245.56V247.784H62.256V249.176H64.048V254.584C64.048 256.168 64.832 257.16 66.512 257.16C67.04 257.16 67.632 257.032 68.08 256.904L67.76 255.544C67.408 255.64 67.216 255.688 66.832 255.688C65.968 255.688 65.664 255.288 65.664 254.536V249.176H68.064V247.784H65.664V245.24L64.048 245.56ZM70.0784 244.6V257H71.7264V251.704C71.7264 249.896 72.7344 249.064 74.1904 249.064C75.3264 249.064 76.2544 249.768 76.2544 251.656V257H77.9184V250.824C77.9184 248.344 76.3984 247.528 74.5904 247.528C73.6784 247.528 72.3824 247.992 71.7264 249.144V244.6H70.0784ZM84.4515 248.984C85.9075 248.984 86.9955 249.672 87.1555 251.368H81.6835C81.9715 249.784 82.9955 248.984 84.4515 248.984ZM88.7555 252.744V252.168C88.7555 249.448 87.0115 247.528 84.5795 247.528C81.9395 247.528 79.9395 249.4 79.9395 252.36C79.9395 255.4 82.0035 257.24 84.6595 257.24C86.3235 257.24 88.3235 256.28 88.6755 254.184L87.1555 253.864C86.9315 255.064 86.2435 255.768 84.5955 255.768C82.7235 255.768 81.7315 254.52 81.6195 252.744H88.7555ZM96.9973 246.6H99.3653C100.885 246.6 101.685 247.512 101.685 249.08C101.685 250.584 100.885 251.48 99.3333 251.48H96.9973V246.6ZM95.2533 245V257H96.9973V253.08H99.5413C101.989 253.08 103.541 251.336 103.541 249.048C103.541 246.408 102.085 245 99.5253 245H95.2533ZM111.238 244.76C108.102 244.76 105.222 247.304 105.222 251C105.222 254.712 108.102 257.24 111.238 257.24C114.374 257.24 117.254 254.712 117.254 251C117.254 247.304 114.374 244.76 111.238 244.76ZM111.238 246.584C113.494 246.584 115.382 247.992 115.382 251C115.382 254.04 113.478 255.416 111.238 255.416C108.998 255.416 107.094 254.04 107.094 251C107.094 247.992 108.982 246.584 111.238 246.584ZM119.231 248.152C119.231 252.712 125.999 251.176 125.999 253.912C125.999 254.92 125.247 255.608 123.743 255.608C122.367 255.608 120.751 255.128 120.527 252.904L118.735 253.352C119.055 255.944 121.311 257.24 123.647 257.24C125.743 257.24 127.695 256.024 127.695 253.768C127.695 249.416 120.975 251.048 120.975 248.088C120.975 247.048 121.743 246.392 123.135 246.392C124.287 246.392 125.615 246.904 125.727 248.728L127.535 248.28C127.247 245.848 125.103 244.76 123.311 244.76C121.247 244.76 119.231 245.896 119.231 248.152ZM133.933 250.312C133.933 251.576 134.669 252.472 136.221 252.824L137.821 253.208C139.085 253.496 139.453 253.88 139.453 254.488C139.453 255.352 138.605 255.864 137.405 255.864C135.981 255.864 135.069 255.192 134.909 253.896L133.453 254.168C133.757 256.344 135.725 257.24 137.389 257.24C139.021 257.24 140.941 256.296 140.941 254.28C140.941 253.064 140.189 252.216 138.525 251.848L136.797 251.448C135.789 251.208 135.421 250.696 135.421 250.136C135.421 249.384 136.141 248.904 137.149 248.904C138.349 248.904 139.293 249.336 139.357 250.728L140.813 250.44C140.317 248.296 138.925 247.528 137.149 247.528C135.741 247.528 133.933 248.36 133.933 250.312ZM143.736 260.168C145.496 260.168 146.504 259.208 147.096 257.624L150.808 247.784H148.968L146.456 255.4L143.8 247.784H141.96L145.4 256.456C145.864 257.624 145.416 258.808 143.912 258.808C143.192 258.808 142.84 258.6 142.584 258.424L142.296 259.816C142.712 260.04 143.24 260.168 143.736 260.168ZM152.293 250.312C152.293 251.576 153.029 252.472 154.581 252.824L156.181 253.208C157.445 253.496 157.813 253.88 157.813 254.488C157.813 255.352 156.965 255.864 155.765 255.864C154.341 255.864 153.429 255.192 153.269 253.896L151.813 254.168C152.117 256.344 154.085 257.24 155.749 257.24C157.381 257.24 159.301 256.296 159.301 254.28C159.301 253.064 158.549 252.216 156.885 251.848L155.157 251.448C154.149 251.208 153.781 250.696 153.781 250.136C153.781 249.384 154.501 248.904 155.509 248.904C156.709 248.904 157.653 249.336 157.717 250.728L159.173 250.44C158.677 248.296 157.285 247.528 155.509 247.528C154.101 247.528 152.293 248.36 152.293 250.312ZM162.064 245.56V247.784H160.272V249.176H162.064V254.584C162.064 256.168 162.848 257.16 164.528 257.16C165.056 257.16 165.648 257.032 166.096 256.904L165.776 255.544C165.424 255.64 165.232 255.688 164.848 255.688C163.984 255.688 163.68 255.288 163.68 254.536V249.176H166.08V247.784H163.68V245.24L162.064 245.56ZM172.014 248.984C173.47 248.984 174.558 249.672 174.718 251.368H169.246C169.534 249.784 170.558 248.984 172.014 248.984ZM176.318 252.744V252.168C176.318 249.448 174.574 247.528 172.142 247.528C169.502 247.528 167.502 249.4 167.502 252.36C167.502 255.4 169.566 257.24 172.222 257.24C173.886 257.24 175.886 256.28 176.238 254.184L174.718 253.864C174.494 255.064 173.806 255.768 172.158 255.768C170.286 255.768 169.294 254.52 169.182 252.744H176.318ZM188.263 249.064C189.495 249.064 190.423 249.768 190.423 251.656V257H192.071V250.824C192.071 248.344 190.551 247.528 188.855 247.528C187.895 247.528 186.631 247.944 185.959 249.288C185.463 247.992 184.295 247.528 183.063 247.528C181.991 247.528 180.679 247.992 180.023 249.144V247.784H178.375V257H180.023V251.704C180.023 249.896 181.031 249.064 182.407 249.064C183.623 249.064 184.551 249.768 184.551 251.656V257H186.215V251.704C186.215 249.896 187.079 249.064 188.263 249.064Z" fill="black"/>
<circle cx="159" cy="87" r="9" fill="white" stroke="#FF5B24" stroke-width="6"/>
<circle cx="514" cy="87" r="9" fill="white" stroke="#FF5B24" stroke-width="6"/>
<circle cx="870" cy="87" r="9" fill="white" stroke="#FF5B24" stroke-width="6"/>
<circle cx="1182" cy="87" r="9" fill="white" stroke="#FF5B24" stroke-width="6"/>
<defs>
<filter id="filter0_d" x="133.668" y="162.647" width="52.4002" height="17.4096" filterUnits="userSpaceOnUse" color-interpolation-filters="sRGB">
<feFlood flood-opacity="0" result="BackgroundImageFix"/>
<feColorMatrix in="SourceAlpha" type="matrix" values="0 0 0 0 0 0 0 0 0 0 0 0 0 0 0 0 0 0 127 0"/>
<feOffset dy="0.177108"/>
<feGaussianBlur stdDeviation="0.177108"/>
<feColorMatrix type="matrix" values="0 0 0 0 0.0862745 0 0 0 0 0.0705882 0 0 0 0 0.145098 0 0 0 0.07 0"/>
<feBlend mode="normal" in2="BackgroundImageFix" result="effect1_dropShadow"/>
<feBlend mode="normal" in="SourceGraphic" in2="effect1_dropShadow" result="shape"/>
</filter>
<clipPath id="clip0">
<rect width="98" height="98" fill="white" transform="translate(465 120)"/>
</clipPath>
<clipPath id="clip1">
<rect width="98" height="98" fill="white" transform="translate(1135 120)"/>
</clipPath>
<clipPath id="clip2">
<rect width="98" height="98" fill="white" transform="translate(111 120)"/>
</clipPath>
</defs>
</svg>
