<?xml version="1.0" encoding="UTF-8" standalone="no"?><svg xmlns="http://www.w3.org/2000/svg" xmlns:xlink="http://www.w3.org/1999/xlink" contentScriptType="application/ecmascript" contentStyleType="text/css" height="327px" preserveAspectRatio="none" style="width:966px;height:327px;" version="1.1" viewBox="0 0 966 327" width="966px" zoomAndPan="magnify"><defs><filter height="300%" id="f1xthdso88j0st" width="300%" x="-1" y="-1"><feGaussianBlur result="blurOut" stdDeviation="3.0"/><feColorMatrix in="blurOut" result="blurOut2" type="matrix" values="0 0 0 0 0 0 0 0 0 0 0 0 0 0 0 0 0 0 .4 0"/><feOffset dx="6.0" dy="6.0" in="blurOut2" result="blurOut3"/><feBlend in="SourceGraphic" in2="blurOut3" mode="normal"/></filter></defs><g><ellipse cx="24" cy="214.5" fill="#000000" filter="url(#f1xthdso88j0st)" rx="15" ry="15" style="stroke: none; stroke-width: 1.5;"/><rect fill="#F8F8F8" filter="url(#f1xthdso88j0st)" height="75" rx="18.75" ry="18.75" style="stroke: #383838; stroke-width: 2.25;" width="97.5" x="129" y="177"/><line style="stroke: #383838; stroke-width: 2.25;" x1="129" x2="226.5" y1="216.4453" y2="216.4453"/><text fill="#000000" font-family="sans-serif" font-size="21" lengthAdjust="spacingAndGlyphs" textLength="67.5" x="144" y="203.9927">Initiate</text><rect fill="#F8F8F8" filter="url(#f1xthdso88j0st)" height="75" rx="18.75" ry="18.75" style="stroke: #383838; stroke-width: 2.25;" width="115.5" x="316.5" y="118.5"/><line style="stroke: #383838; stroke-width: 2.25;" x1="316.5" x2="432" y1="157.9453" y2="157.9453"/><text fill="#000000" font-family="sans-serif" font-size="21" lengthAdjust="spacingAndGlyphs" textLength="85.5" x="331.5" y="145.4927">Reserve</text><rect fill="#F8F8F8" filter="url(#f1xthdso88j0st)" height="75" rx="18.75" ry="18.75" style="stroke: #383838; stroke-width: 2.25;" width="112.5" x="522" y="108"/><line style="stroke: #383838; stroke-width: 2.25;" x1="522" x2="634.5" y1="147.4453" y2="147.4453"/><text fill="#000000" font-family="sans-serif" font-size="21" lengthAdjust="spacingAndGlyphs" textLength="82.5" x="537" y="134.9927">Capture</text><rect fill="#F8F8F8" filter="url(#f1xthdso88j0st)" height="75" rx="18.75" ry="18.75" style="stroke: #383838; stroke-width: 2.25;" width="100.5" x="528" y="235.5"/><line style="stroke: #383838; stroke-width: 2.25;" x1="528" x2="628.5" y1="274.9453" y2="274.9453"/><text fill="#000000" font-family="sans-serif" font-size="21" lengthAdjust="spacingAndGlyphs" textLength="70.5" x="543" y="262.4927">Cancel</text><rect fill="#F8F8F8" filter="url(#f1xthdso88j0st)" height="75" rx="18.75" ry="18.75" style="stroke: #383838; stroke-width: 2.25;" width="105" x="724.5" y="12"/><line style="stroke: #383838; stroke-width: 2.25;" x1="724.5" x2="829.5" y1="51.4453" y2="51.4453"/><text fill="#000000" font-family="sans-serif" font-size="21" lengthAdjust="spacingAndGlyphs" textLength="75" x="739.5" y="38.9927">Refund</text><ellipse cx="934.5" cy="166.5" fill="none" filter="url(#f1xthdso88j0st)" rx="15" ry="15" style="stroke: #000000; stroke-width: 1.5;"/><ellipse cx="935.25" cy="167.25" fill="#000000" rx="9" ry="9" style="stroke: none; stroke-width: 1.5;"/><!--MD5=[0607403a389b03af381aa9aa6fc54084]
link *start to Initiate--><path d="M39.4121,214.5 C57.8007,214.5 91.2906,214.5 120.5354,214.5 " fill="none" id="*start-&gt;Initiate" style="stroke: #383838; stroke-width: 1.5;"/><polygon fill="#383838" points="128.6553,214.5,115.1553,208.5,121.1553,214.5,115.1553,220.5,128.6553,214.5" style="stroke: #383838; stroke-width: 1.5;"/><!--MD5=[45d762db0230588043656f12e52eac1b]
link Initiate to Reserve--><path d="M226.5855,200.1893 C251.3355,192.7069 281.982,183.4416 308.8095,175.3307 " fill="none" id="Initiate-&gt;Reserve" style="stroke: #383838; stroke-width: 1.5;"/><polygon fill="#383838" points="316.2675,173.076,301.6087,171.24,309.0885,175.2467,305.0818,182.7264,316.2675,173.076" style="stroke: #383838; stroke-width: 1.5;"/><!--MD5=[c0e5996c73b1f225e49bbd930519acd4]
link Reserve to Capture--><path d="M432.2745,153.0465 C457.53,151.728 487.3995,150.168 513.4065,148.809 " fill="none" id="Reserve-&gt;Capture" style="stroke: #383838; stroke-width: 1.5;"/><polygon fill="#383838" points="521.343,148.395,507.5477,143.1091,513.8533,148.7872,508.1752,155.0927,521.343,148.395" style="stroke: #383838; stroke-width: 1.5;"/><!--MD5=[d59c425eeef850fe1f05e18d82f9a134]
link Reserve to Cancel--><path d="M432.2745,188.9024 C459.8925,204.978 493.0275,224.2662 520.596,240.3129 " fill="none" id="Reserve-&gt;Cancel" style="stroke: #383838; stroke-width: 1.5;"/><polygon fill="#383838" points="527.478,244.319,518.8298,232.3415,520.9964,240.5456,512.7924,242.7121,527.478,244.319" style="stroke: #383838; stroke-width: 1.5;"/><!--MD5=[e32f0bf20d087f16420fa26ea15ca6ae]
link Capture to Refund--><path d="M634.7985,118.503 C660.432,105.9315 690.9495,90.966 717,78.1905 " fill="none" id="Capture-&gt;Refund" style="stroke: #383838; stroke-width: 1.5;"/><polygon fill="#383838" points="724.221,74.649,709.4582,75.2066,717.4873,77.9516,714.7424,85.9806,724.221,74.649" style="stroke: #383838; stroke-width: 1.5;"/><!--MD5=[d1e6696b7eb2d15696aed1df935b8243]
link Capture to *end--><path d="M634.557,148.758 C713.6565,153.4605 856.3065,161.9407 910.914,165.1871 " fill="none" id="Capture-&gt;*end" style="stroke: #383838; stroke-width: 1.5;"/><polygon fill="#383838" points="918.8985,165.6618,905.7789,158.8701,911.4118,165.2161,905.0658,170.8489,918.8985,165.6618" style="stroke: #383838; stroke-width: 1.5;"/><!--MD5=[fe62373ca50d8b63990cd07c55700c74]
link Cancel to *end--><path d="M628.8675,258.1917 C707.2875,234.5492 857.5125,189.2586 912.3285,172.7322 " fill="none" id="Cancel-&gt;*end" style="stroke: #383838; stroke-width: 1.5;"/><polygon fill="#383838" points="919.704,170.5086,905.0464,168.6636,912.5237,172.6749,908.5124,180.1521,919.704,170.5086" style="stroke: #383838; stroke-width: 1.5;"/><!--MD5=[7d61ac6ed2e47c22eaef241e18c70f7f]
link Refund to *end--><path d="M828.2355,87.1635 C858.294,109.926 894.7455,137.5305 915.768,153.45 " fill="none" id="Refund-&gt;*end" style="stroke: #383838; stroke-width: 1.5;"/><polygon fill="#383838" points="921.7725,157.998,914.633,145.0644,915.7937,153.4699,907.3881,154.6306,921.7725,157.998" style="stroke: #383838; stroke-width: 1.5;"/><!--MD5=[cf7dc43fc96f7b82566e5517be9413ba]
link Initiate to Cancel--><path d="M226.803,221.4984 C300.3195,232.3178 441.2835,253.0635 520.0125,264.6501 " fill="none" id="Initiate-&gt;Cancel" style="stroke: #383838; stroke-width: 1.5;"/><polygon fill="#383838" points="527.8995,265.8107,515.4179,257.9076,520.4795,264.7178,513.6693,269.7795,527.8995,265.8107" style="stroke: #383838; stroke-width: 1.5;"/><!--MD5=[6e7e37498f633e600e598f00e9904906]
@startuml
skinparam monochrome true

scale 1.5
left to right direction

[*] - -> Initiate
Initiate - -> Reserve
Reserve - -> Capture
Reserve - -> Cancel
Capture - -> Refund
Capture - -> [*]
Cancel - -> [*]
Refund - -> [*]
Initiate - -> Cancel
@enduml

PlantUML version 1.2019.13(Tue Dec 10 17:18:29 UTC 2019)
(GPL source distribution)
Java Runtime: Java(TM) SE Runtime Environment
JVM: Java HotSpot(TM) 64-Bit Server VM
Java Version: 1.7.0_25-b15
Operating System: Linux
Default Encoding: UTF-8
Language: en
Country: US
--></g></svg>