<svg width="236" height="236" viewBox="0 0 236 236" fill="none" xmlns="http://www.w3.org/2000/svg">
<mask id="mask0" mask-type="alpha" maskUnits="userSpaceOnUse" x="12" y="21" width="194" height="194">
<g clip-path="url(#clip0)">
<path fill-rule="evenodd" clip-rule="evenodd" d="M205.324 21.8574H108.97V40.5066C151.885 40.507 186.674 75.2967 186.674 118.212C186.674 118.212 186.674 118.212 186.674 118.212H205.324V21.8574Z" fill="#CCCCCC"/>
<path fill-rule="evenodd" clip-rule="evenodd" d="M12.6152 21.8574L108.97 21.8574V40.5066C66.0544 40.5067 31.2647 75.2965 31.2647 118.212C31.2647 118.212 31.2647 118.212 31.2647 118.212H12.6152L12.6152 21.8574Z" fill="#CCCCCC"/>
<ellipse cx="108.969" cy="118.212" rx="77.7052" ry="77.7052" fill="white"/>
</g>
</mask>
<g mask="url(#mask0)">
<ellipse cx="108.799" cy="118.042" rx="77.5352" ry="77.5353" fill="#FFF4EC"/>
<path d="M57.4922 138.581C57.4922 138.581 72.1952 176.935 127.666 179.348L156.452 131.637" fill="#FFD3BA"/>
<path d="M140.723 102.867C140.723 102.867 107.086 125.145 119.112 179.343L140.754 184.952" fill="#FFD3BA"/>
<path fill-rule="evenodd" clip-rule="evenodd" d="M168.932 206.136L111.379 175.397L149.567 123.684L212.319 157.441C202.416 177.271 187.372 194.085 168.932 206.136Z" fill="#FFD3BA"/>
<path d="M163.928 159.947C167.361 159.937 170.789 158.615 173.402 155.987C178.624 150.733 178.6 142.239 173.344 137.016C148.856 112.681 164.195 70.8807 164.354 70.4627C167.006 63.5455 163.542 55.8064 156.623 53.1547C149.706 50.5002 141.94 53.9793 139.286 60.898C138.378 63.2659 117.47 119.316 154.428 156.047C157.056 158.657 160.493 159.956 163.928 159.947Z" fill="#FFD3BA"/>
<path d="M120.939 62.6482C122.805 64.2675 124.675 65.8868 126.541 67.5062C131.399 71.7213 136.417 75.7624 141.129 80.1419C148.651 87.1317 153.335 95.7505 155.191 105.858C157.067 116.096 155.747 125.943 151.15 135.282C146.742 144.234 140.003 150.958 131.167 155.574C124.878 158.861 118.169 160.631 111.078 160.906C97.7751 161.423 86.0676 157.402 76.2163 148.391C69.2169 141.986 64.8133 134.025 62.7251 124.783C61.6037 119.823 61.2895 114.806 61.8212 109.754C62.8992 99.487 66.8677 90.4912 73.7849 82.8054C76.2405 80.0791 79.0924 77.7927 81.8525 75.4047C86.667 71.2524 91.4911 67.1146 96.3104 62.972C96.4264 62.8705 96.5231 62.7545 96.6294 62.6433C97.2868 62.6385 97.9442 62.653 98.6016 62.6192C99.0028 62.5998 99.0899 62.7738 99.0802 63.1315C99.0609 63.8083 99.0754 64.485 99.0754 65.1618C99.0754 71.8905 99.0754 78.6192 99.0754 85.348C99.0754 86.571 99.5249 87.5426 100.617 88.1323C102.609 89.2102 104.9 87.7746 104.905 85.4447C104.915 80.1467 104.91 74.8488 104.91 69.5509C104.91 67.424 104.919 65.2971 104.9 63.1702C104.895 62.7352 105.016 62.5998 105.451 62.6143C106.399 62.6482 107.346 62.624 108.293 62.624C112.508 62.6385 116.724 62.6433 120.939 62.6482ZM109.763 132.821C110.633 132.821 111.503 132.802 112.373 132.831C112.765 132.846 112.852 132.71 112.847 132.343C112.828 131.086 112.876 129.829 112.823 128.572C112.799 127.983 112.963 127.751 113.543 127.601C115.617 127.079 117.478 126.122 119.034 124.633C121.461 122.303 122.34 119.417 122.142 116.12C121.925 112.514 120.301 109.817 117.11 108.072C114.921 106.873 112.523 106.274 110.164 105.558C108.777 105.138 107.385 104.732 106.162 103.92C104.963 103.127 104.364 102.025 104.499 100.579C104.634 99.1438 105.403 98.1481 106.713 97.5632C107.762 97.0991 108.873 96.9831 110 97.0604C112.552 97.2345 113.949 98.3269 114.742 100.758C114.892 101.213 114.998 101.686 115.085 102.16C115.143 102.494 115.215 102.634 115.621 102.571C117.492 102.281 119.368 102.044 121.243 101.773C122.572 101.58 122.572 101.566 122.263 100.231C121.108 95.2381 118.406 91.7045 113.156 90.5734C112.842 90.5057 112.832 90.3269 112.837 90.0755C112.847 88.7994 112.813 87.5232 112.852 86.2471C112.866 85.7444 112.702 85.6428 112.233 85.6525C110.57 85.6815 108.907 85.6767 107.244 85.6525C106.809 85.6477 106.64 85.7395 106.655 86.2181C106.689 87.4942 106.655 88.7704 106.674 90.0465C106.679 90.3849 106.573 90.5251 106.244 90.5927C105.77 90.6894 105.301 90.8054 104.847 90.9553C101.893 91.9269 99.5152 93.5946 98.3068 96.5722C97.311 99.0181 97.282 101.541 97.9587 104.074C98.795 107.192 100.985 109.097 103.779 110.441C105.91 111.465 108.192 112.074 110.406 112.862C111.624 113.297 112.837 113.752 113.852 114.593C114.481 115.115 114.93 115.748 115.056 116.575C115.322 118.291 114.544 119.809 112.934 120.635C110.971 121.641 108.907 121.573 106.834 121.109C104.649 120.621 103.295 119.253 102.73 117.087C102.541 116.372 102.464 115.642 102.44 114.912C102.425 114.491 102.261 114.448 101.913 114.501C99.8729 114.81 97.8282 115.12 95.7835 115.4C95.4403 115.448 95.3823 115.579 95.4113 115.884C95.5225 117.063 95.7739 118.213 96.2186 119.306C98.0554 123.83 101.478 126.533 106.104 127.813C106.529 127.934 106.693 128.07 106.684 128.529C106.65 129.786 106.693 131.042 106.66 132.299C106.645 132.749 106.795 132.846 107.215 132.831C108.061 132.797 108.912 132.821 109.763 132.821Z" fill="#FF985F"/>
<path d="M97.4947 56.8075C94.8265 52.1773 92.1437 47.5519 89.4899 42.9121C86.0434 36.8754 89.4416 29.5242 96.2669 28.2289C96.8567 28.1177 97.456 28.0742 98.0554 28.0742C105.209 28.0791 112.359 28.0742 119.513 28.0742C127.145 28.0742 131.897 36.1553 128.136 42.8009C125.565 47.3538 122.916 51.8631 120.301 56.3918C120.223 56.5223 120.16 56.6673 120.093 56.8026C113.949 56.8075 107.805 56.8123 101.666 56.8171C100.274 56.822 98.8869 56.8123 97.4947 56.8075Z" fill="#FF985F"/>
<path d="M97.4952 56.8066C98.8873 56.8115 100.275 56.826 101.667 56.826C107.811 56.8211 113.954 56.8163 120.093 56.8115C120.461 56.8163 120.828 56.826 121.195 56.826C122.887 56.8356 124.173 58.0683 124.187 59.7069C124.207 61.3021 122.935 62.5782 121.282 62.6265C121.166 62.6313 121.05 62.6362 120.934 62.6458C116.719 62.641 112.504 62.6313 108.289 62.6265C107.342 62.6265 106.394 62.6507 105.447 62.6168C105.007 62.6023 104.891 62.7377 104.896 63.1727C104.915 65.2996 104.905 67.4264 104.905 69.5533C104.905 74.8511 104.91 80.1489 104.901 85.4468C104.896 87.7766 102.605 89.2123 100.613 88.1343C99.5206 87.5446 99.071 86.5682 99.071 85.3501C99.0758 78.6215 99.071 71.8929 99.071 65.1642C99.071 64.4875 99.0565 63.8108 99.0758 63.1341C99.0855 62.7764 98.9985 62.6023 98.5973 62.6217C97.9399 62.6555 97.2825 62.641 96.6251 62.6458C94.7786 62.5733 93.6233 61.6549 93.4155 60.1033C93.1883 58.3921 94.4886 56.8695 96.2142 56.8308C96.6444 56.8163 97.0698 56.8115 97.4952 56.8066Z" fill="#FD5B24"/>
<path d="M109.763 132.818C108.913 132.818 108.062 132.794 107.211 132.827C106.791 132.842 106.646 132.745 106.655 132.296C106.689 131.039 106.646 129.782 106.679 128.525C106.694 128.066 106.53 127.926 106.099 127.81C101.473 126.529 98.051 123.827 96.2142 119.302C95.7695 118.205 95.5181 117.059 95.4069 115.88C95.3779 115.575 95.4359 115.445 95.7791 115.396C97.8238 115.111 99.8685 114.806 101.908 114.497C102.256 114.444 102.421 114.487 102.435 114.908C102.459 115.638 102.537 116.368 102.725 117.083C103.291 119.249 104.644 120.617 106.829 121.105C108.903 121.569 110.967 121.637 112.929 120.631C114.539 119.805 115.317 118.282 115.052 116.571C114.921 115.744 114.476 115.111 113.848 114.589C112.833 113.748 111.62 113.293 110.401 112.858C108.188 112.07 105.901 111.461 103.774 110.437C100.985 109.093 98.7906 107.188 97.9543 104.07C97.2776 101.542 97.3066 99.014 98.3024 96.568C99.5157 93.5903 101.894 91.9226 104.843 90.9509C105.302 90.8011 105.771 90.6802 106.239 90.5884C106.563 90.5255 106.675 90.3854 106.67 90.0422C106.65 88.766 106.684 87.4898 106.65 86.2137C106.636 85.7351 106.8 85.6384 107.24 85.6481C108.903 85.6723 110.566 85.6723 112.229 85.6481C112.697 85.6384 112.862 85.7399 112.847 86.2427C112.809 87.5188 112.838 88.795 112.833 90.0712C112.833 90.3225 112.842 90.5062 113.152 90.569C118.397 91.7002 121.103 95.2338 122.259 100.227C122.568 101.566 122.568 101.576 121.239 101.769C119.368 102.04 117.488 102.277 115.617 102.567C115.211 102.63 115.139 102.49 115.081 102.156C114.994 101.682 114.887 101.209 114.737 100.754C113.94 98.3227 112.548 97.2302 109.995 97.0562C108.864 96.9789 107.757 97.0949 106.708 97.5589C105.398 98.139 104.63 99.1396 104.494 100.575C104.359 102.021 104.959 103.123 106.157 103.916C107.385 104.728 108.777 105.134 110.16 105.554C112.519 106.27 114.916 106.874 117.106 108.068C120.296 109.813 121.92 112.51 122.138 116.116C122.336 119.413 121.456 122.304 119.03 124.629C117.473 126.123 115.612 127.075 113.539 127.597C112.954 127.742 112.789 127.979 112.818 128.569C112.871 129.826 112.823 131.082 112.842 132.339C112.847 132.707 112.76 132.842 112.369 132.827C111.504 132.794 110.633 132.818 109.763 132.818Z" fill="#FF985F"/>
<path d="M57.4555 106.775L76.1196 108.672C82.845 109.23 88.7477 104.231 89.3056 97.5075C89.8635 90.7839 84.8655 84.8803 78.1401 84.3223L59.476 82.4253C52.752 81.8675 46.8465 86.8665 46.2886 93.59C45.7307 100.314 50.7315 106.217 57.4555 106.775Z" fill="#FFD3BA"/>
<path d="M59.7432 133.931L78.5002 134.285C85.2487 134.287 90.7197 128.819 90.7219 122.072C90.7242 115.326 85.2568 109.854 78.5083 109.852L59.7513 109.498C53.0042 109.496 47.5304 114.964 47.5282 121.711C47.5259 128.457 52.9961 133.929 59.7432 133.931Z" fill="#FFD3BA"/>
<path d="M63.9618 158.879L82.67 157.482C89.3893 156.856 94.3264 150.901 93.6995 144.184C93.0725 137.466 87.119 132.529 80.3997 133.156L61.6915 134.552C54.9736 135.179 50.0335 141.132 50.6605 147.851C51.2874 154.568 57.244 159.506 63.9618 158.879Z" fill="#FFD3BA"/>
</g>
<defs>
<clipPath id="clip0">
<rect x="12.6152" y="21.8574" width="192.709" height="192.709" fill="white"/>
</clipPath>
</defs>
</svg>
